<?xml version="1.0" encoding="UTF-8"?>
<svg width="25px" height="24px" viewBox="0 0 25 24" version="1.1" xmlns="http://www.w3.org/2000/svg" xmlns:xlink="http://www.w3.org/1999/xlink">
    <!-- Generator: Sketch 48.2 (47327) - http://www.bohemiancoding.com/sketch -->
    <title>Preferred_Service_Center_Icon</title>
    <desc>Created with Sketch.</desc>
    <defs></defs>
    <g id="Service-Center-Request:-in-app-notification" stroke="none" stroke-width="1" fill="none" fill-rule="evenodd" transform="translate(-25.000000, -39.000000)" stroke-linecap="round" stroke-linejoin="round">
        <g id="Preferred_Service_Center_Icon" transform="translate(25.677500, 39.202500)" stroke="#37618D">
            <g id="Group-Copy-3" transform="translate(4.477000, 8.747922)" stroke-width="0.605">
                <path d="M2.17352104,13.7719006 C1.81579507,14.130237 1.23525343,14.130237 0.878748361,13.7719006 C0.521022387,13.4147851 0.521022387,12.8354643 0.878748361,12.4777384 L4.88943035,8.46583546 L6.18420303,9.76060814 L2.17352104,13.7719006 L2.17352104,13.7719006 Z" id="Stroke-3026"></path>
                <path d="M4.85446566,8.461088 L6.18657219,9.79319453" id="Stroke-3027"></path>
                <path d="M12.0564641,2.59442899 L5.53193306,9.11896006" id="Stroke-3028"></path>
                <polygon id="Stroke-3029" points="11.268124 1.80700453 13.4297412 0.305287986 14.345422 1.22096881 12.7789973 3.31665698"></polygon>
                <path d="M6.98583611,5.53045362 L4.97190267,3.70453937 C5.14717106,3.29026863 5.20335111,2.83740691 5.13994833,2.39855501 C5.06732,1.89584701 4.83777666,1.41152251 4.45057506,1.02464684 C3.72657676,0.30125899 2.70650832,0.127890088 1.81707702,0.503929678 L2.95801532,1.79137691 L1.73710756,3.01228467 L0.477130753,1.84387595 C0.100480709,2.73330725 0.273849611,3.77596248 0.997847913,4.50057123 C1.72245667,5.22579044 2.7889196,5.38633981 3.67712999,5.00968977 L5.65372958,6.86256016" id="Stroke-3030"></path>
                <path d="M7.51867873,8.99393061 L9.54542315,10.8677273 C9.16938356,11.7565481 9.34153155,12.8224006 10.0667508,13.5470094 C10.7907491,14.2710077 11.8566015,14.4431557 12.7460328,14.0677265 L11.5043696,12.7790584 L12.7252774,11.5581506 L14.0401951,12.7723434 C14.4168451,11.8835226 14.2434762,10.8182805 13.5194779,10.0936718 C12.7948692,9.36906302 11.7290167,9.19630457 10.8401958,9.57234416 L8.85078526,7.66182408" id="Stroke-3031"></path>
            </g>
            <path d="M5.94869126,5.75786383 C6.54344223,4.73256922 6.97131583,3.98429106 7.18425137,3.59646803 C7.37849663,3.24736056 7.68154595,3.01306472 7.99727795,2.96567154 C8.68548026,2.8642101 10.5017736,2.7453934 11.7380013,2.7453934 C12.9742289,2.7453934 14.7885197,2.8642101 15.4780571,2.96567154 C15.792454,3.01306472 16.0968384,3.24736056 16.2897486,3.59646803 C16.5026842,3.98429106 16.9305578,4.73256922 17.5253087,5.75786383 L17.5787095,5.84998015 L17.4805856,5.88936321 C17.4692379,5.89270076 17.4598928,5.90071087 17.4485451,5.90872098 C17.4231798,5.92474121 17.3924744,5.94543401 17.3570963,5.95144159 C16.0073921,6.22245046 13.650416,6.22378548 11.7380013,6.22378548 C9.82358398,6.22378548 7.46660789,6.22245046 6.11690365,5.95144159 C6.08152565,5.94543401 6.05282274,5.92474121 6.02545485,5.90872098 C6.01410719,5.90071087 6.00476206,5.89270076 5.99341439,5.88936321 L5.8952905,5.84998015 L5.94869126,5.75786383 Z M22.033372,7.69036426 L21.5541859,6.95052192 L21.9069933,6.95052192 C23.1576164,6.95052192 23.1251441,6.30721892 23.1251441,5.57790814 C23.1251441,5.28916778 22.3168466,5.2145692 21.8394157,5.2145692 L21.3391665,5.2145692 C21.0574471,5.2145692 20.8178541,5.3593782 20.659003,5.56913184 L20.3737731,5.12943906 L20.3026851,5.00832608 C19.5496783,3.70855562 19.0309988,2.80371878 18.7615663,2.31663397 C18.3315275,1.53729827 17.6066048,1.00106616 16.8246362,0.884341329 C15.7495391,0.726367876 13.2825204,0.582436507 11.7317476,0.582436507 C10.1800973,0.582436507 7.71132326,0.726367876 6.63622615,0.884341329 C5.85425756,1.00106616 5.13109019,1.53729827 4.69929609,2.31663397 C4.42986359,2.80371878 3.91118408,3.70855562 3.15817729,5.00832608 L3.0888445,5.12943906 L2.82204489,5.54104767 C2.66231618,5.34709138 2.42974415,5.2145692 2.16031165,5.2145692 L1.65918475,5.2145692 C1.18175387,5.2145692 0.374333997,5.28916778 0.374333997,5.57790814 C0.374333997,6.30721892 0.340984046,6.95052192 1.59248485,6.95052192 L1.90755412,6.95052192 L1.42749035,7.69036426 L1.30813263,7.83605089 C1.00798307,8.19500168 0.814026775,8.43459475 0.759613697,8.51182622 C0.437523378,8.95941767 0.357659022,9.44474722 0.348882719,9.59921015 L0.348882719,9.93270967 L0.348882719,16.5149369 C0.348882719,16.8361496 0.306756465,17.8814072 1.90228834,17.8814072 L4.13585744,17.8814072 C4.79759068,17.8814072 5.53743302,17.3820356 5.53743302,16.6650117 L5.53743302,15.9541311 C5.53743302,15.9541311 6.30068308,16.023034 7.52086708,16.0885115 M15.695457,16.1012694 C17.0572877,16.0323226 17.9234294,15.9541311 17.9234294,15.9541311 L17.9234294,16.6650117 C17.9234294,17.3820356 18.6632717,17.8814072 19.3250049,17.8814072 L21.558574,17.8814072 C23.1541059,17.8814072 23.0882837,16.8361496 23.0882837,16.5149369 L23.0882837,9.93270967 L23.0882837,9.60798646 C23.0795073,9.44474722 23.023339,8.95941767 22.7012487,8.51182622 C22.6468356,8.43459475 22.4528793,8.19500168 22.1527298,7.83605089 L22.033372,7.69036426" id="Fill-1-Copy-4" stroke-width="0.75"></path>
        </g>
    </g>
</svg>