<?xml version="1.0" encoding="UTF-8" standalone="no"?>
<svg width="44px" height="44px" viewBox="0 0 44 44" version="1.1" xmlns="http://www.w3.org/2000/svg" xmlns:xlink="http://www.w3.org/1999/xlink">
    <!-- Generator: Sketch 49 (51002) - http://www.bohemiancoding.com/sketch -->
    <title>36x36_Call</title>
    <desc>Created with Sketch.</desc>
    <defs>
        <filter x="-19.4%" y="-22.2%" width="138.9%" height="141.7%" filterUnits="objectBoundingBox" id="filter-1">
            <feOffset dx="0" dy="0" in="SourceAlpha" result="shadowOffsetOuter1"></feOffset>
            <feGaussianBlur stdDeviation="2" in="shadowOffsetOuter1" result="shadowBlurOuter1"></feGaussianBlur>
            <feColorMatrix values="0 0 0 0 0   0 0 0 0 0   0 0 0 0 0  0 0 0 0.158769248 0" type="matrix" in="shadowBlurOuter1" result="shadowMatrixOuter1"></feColorMatrix>
            <feMerge>
                <feMergeNode in="shadowMatrixOuter1"></feMergeNode>
                <feMergeNode in="SourceGraphic"></feMergeNode>
            </feMerge>
        </filter>
        <circle id="path-2" cx="18.7734375" cy="18.7885742" r="18"></circle>
    </defs>
    <g id="Symbols" stroke="none" stroke-width="1" fill="none" fill-rule="evenodd">
        <g id="AboutThisApp_Call" transform="translate(3.000000, 3.000000)">
            <g id="36x36_Call" filter="url(#filter-1)" transform="translate(1.000000, 1.000000)">
                <g id="Group-28" transform="translate(-0.770192, -1.337891)">
                    <g id="Group-27">
                        <g id="Select_Location_Icon-Copy-19" transform="translate(0.000000, 0.500528)">
                            <mask id="mask-3" fill="white">
                                <use xlink:href="#path-2"></use>
                            </mask>
                            <use id="Oval-2-Copy-19" fill="#F4F4F4" xlink:href="#path-2"></use>
                        </g>
                    </g>
                </g>
                <path d="M15.8562401,15.9490027 C16.4361896,15.3684103 16.4361896,14.4264745 15.8562401,13.8458821 L14.2784173,12.2680593 C13.6978249,11.6874668 12.7558891,11.6874668 12.1746537,12.2680593 L11.3105161,13.1334829 C10.5595393,13.8844596 10.4431636,15.054646 11.0282568,15.9400013 C13.5415857,19.7398922 16.8946198,23.0929263 20.6945107,25.6068981 C21.5785801,26.1913484 22.7532672,26.0743297 23.5016721,25.3252818 L24.3664527,24.4598583 C24.9476881,23.8792658 24.9476881,22.9373301 24.3664527,22.3573806 L22.7892729,20.7802008 C22.2093234,20.1983224 21.2673876,20.1983224 20.6861522,20.7802008 L20.1602113,21.3054987 C18.4306501,19.8884159 16.747382,18.2045048 15.3302992,16.4743007 L15.8562401,15.9490027 Z" id="Call_Icon" stroke="#37618D" stroke-width="0.8" stroke-linecap="round" stroke-linejoin="round"></path>
            </g>
        </g>
    </g>
</svg>