<?xml version="1.0" encoding="UTF-8" standalone="no"?>
<svg width="36px" height="37px" viewBox="0 0 36 37" version="1.1" xmlns="http://www.w3.org/2000/svg" xmlns:xlink="http://www.w3.org/1999/xlink">
    <!-- Generator: Sketch 49 (51002) - http://www.bohemiancoding.com/sketch -->
    <title>Group</title>
    <desc>Created with Sketch.</desc>
    <defs>
        <circle id="path-1" cx="18.7734375" cy="18.7885742" r="18"></circle>
    </defs>
    <g id="Symbols" stroke="none" stroke-width="1" fill="none" fill-rule="evenodd">
        <g id="36x36_Call" transform="translate(0.000000, 1.000000)">
            <g id="Group" transform="translate(-1.000000, -2.000000)">
                <g id="Group-28" transform="translate(0.229808, 0.662109)">
                    <g id="Group-27">
                        <g id="Select_Location_Icon-Copy-19" transform="translate(0.000000, 0.500528)">
                            <mask id="mask-2" fill="white">
                                <use xlink:href="#path-1"></use>
                            </mask>
                            <use id="Oval-2-Copy-19" fill="#F4F4F4" xlink:href="#path-1"></use>
                        </g>
                    </g>
                </g>
                <path d="M16.8562401,17.9490027 C17.4361896,17.3684103 17.4361896,16.4264745 16.8562401,15.8458821 L15.2784173,14.2680593 C14.6978249,13.6874668 13.7558891,13.6874668 13.1746537,14.2680593 L12.3105161,15.1334829 C11.5595393,15.8844596 11.4431636,17.054646 12.0282568,17.9400013 C14.5415857,21.7398922 17.8946198,25.0929263 21.6945107,27.6068981 C22.5785801,28.1913484 23.7532672,28.0743297 24.5016721,27.3252818 L25.3664527,26.4598583 C25.9476881,25.8792658 25.9476881,24.9373301 25.3664527,24.3573806 L23.7892729,22.7802008 C23.2093234,22.1983224 22.2673876,22.1983224 21.6861522,22.7802008 L21.1602113,23.3054987 C19.4306501,21.8884159 17.747382,20.2045048 16.3302992,18.4743007 L16.8562401,17.9490027 Z" id="Call_Icon" stroke="#37618D" stroke-width="0.8" stroke-linecap="round" stroke-linejoin="round"></path>
            </g>
        </g>
    </g>
</svg>