<?xml version="1.0" encoding="UTF-8" standalone="no"?>
<svg width="374px" height="331px" viewBox="0 0 374 331" version="1.1" xmlns="http://www.w3.org/2000/svg" xmlns:xlink="http://www.w3.org/1999/xlink">
    <!-- Generator: Sketch 49 (51002) - http://www.bohemiancoding.com/sketch -->
    <title>Group 46</title>
    <desc>Created with Sketch.</desc>
    <defs>
        <path d="M0.260999219,1.9663085 C0.260999219,2.96752216 8.83006126,3.77918426 19.4005296,3.77918426 C29.970998,3.77918426 38.5400601,2.96752216 38.5400601,1.9663085 C38.5400601,0.965672743 29.970998,0.154010644 19.4005296,0.154010644 C8.83006126,0.154010644 0.260999219,0.965672743 0.260999219,1.9663085 Z" id="path-1"></path>
        <rect id="path-3" x="8.8230528" y="18.7188382" width="1.41120026" height="1" rx="0.5"></rect>
        <path d="M0.294460658,1.9663085 C0.294460658,2.96752216 9.9621204,3.77918426 21.887777,3.77918426 C33.8134337,3.77918426 43.4810934,2.96752216 43.4810934,1.9663085 C43.4810934,0.965672743 33.8134337,0.154010644 21.887777,0.154010644 C9.9621204,0.154010644 0.294460658,0.965672743 0.294460658,1.9663085 Z" id="path-4"></path>
        <path d="M0.260999219,1.9663085 C0.260999219,2.96752216 8.83006126,3.77918426 19.4005296,3.77918426 C29.970998,3.77918426 38.5400601,2.96752216 38.5400601,1.9663085 C38.5400601,0.965672743 29.970998,0.154010644 19.4005296,0.154010644 C8.83006126,0.154010644 0.260999219,0.965672743 0.260999219,1.9663085 Z" id="path-6"></path>
        <rect id="path-8" x="14.0764402" y="7.95583306" width="1.96560036" height="1" rx="0.5"></rect>
        <rect id="path-9" x="17.6016833" y="7.97242384" width="1.96560036" height="1" rx="0.5"></rect>
        <rect id="path-10" x="6.82250395" y="18.0944447" width="28.9457521" height="1.52346064"></rect>
        <linearGradient x1="3.061617e-15%" y1="50%" x2="100%" y2="50%" id="linearGradient-11">
            <stop stop-color="#EEEEEE" stop-opacity="0.7" offset="0%"></stop>
            <stop stop-color="#FFFFFF" stop-opacity="0" offset="100%"></stop>
        </linearGradient>
    </defs>
    <g id="StyleGuide" stroke="none" stroke-width="1" fill="none" fill-rule="evenodd">
        <g id="SureDrive--Copy-3" transform="translate(-563.000000, -3004.000000)">
            <g id="Group-46" transform="translate(563.226163, 3003.773125)">
                <rect id="Rectangle-24" fill="#E2231A" x="0.553761721" y="0.63" width="372.6" height="330.3"></rect>
                <g id="Group-45" transform="translate(0.000000, 88.830094)">
                    <g id="Group-16" transform="translate(0.568864, 96.406494)">
                        <rect id="Rectangle-28" fill="#E14A43" x="0" y="47.4244757" width="371.938632" height="97.6399696"></rect>
                        <g id="Group-15" transform="translate(16.861218, 0.894478)">
                            <g id="Group-38" transform="translate(0.381639, 0.000000)">
                                <g id="Group-37">
                                    <path d="M22.1545115,43.829431 L22.1545115,36.6915877 L0.720000011,36.6915877 C0.322354985,36.6915877 -7.28458646e-16,36.3692328 -7.77156117e-16,35.9715877 L0,0.816941647 C-4.86974708e-17,0.419296621 0.322354985,0.0969416362 0.720000011,0.0969416362 L61.3126322,0.0969416362 C61.7102772,0.0969416362 62.0326322,0.419296621 62.0326322,0.816941647 L62.0326322,35.9715877 C62.0326322,36.3692328 61.7102772,36.6915877 61.3126322,36.6915877 L39.8781207,36.6915877 L39.8781207,43.829431 L56.0019329,43.829431 L56.0019329,48.2293203 L8.36666747,48.2293203 L8.36666747,43.829431 L22.1545115,43.829431 Z" id="Combined-Shape" fill="#E14A43"></path>
                                    <rect id="Rectangle-27" fill="#E2231A" x="3.07803088" y="30.382166" width="1.3992323" height="3.78565305"></rect>
                                    <rect id="Rectangle-27-Copy" fill="#E2231A" x="6.20312312" y="30.382166" width="1.3992323" height="3.78565305"></rect>
                                    <rect id="Rectangle-27-Copy-2" fill="#E2231A" x="9.32821537" y="30.382166" width="1.3992323" height="3.78565305"></rect>
                                </g>
                            </g>
                            <g id="Group-11-Copy-3" transform="translate(8.279509, 43.829431)"></g>
                        </g>
                        <g id="Group-14" transform="translate(103.150981, 0.000000)">
                            <g id="Group-38-Copy" transform="translate(0.808056, 0.000000)">
                                <g id="Group-37">
                                    <path d="M22.1545115,44.7239092 L22.1545115,36.6915877 L0.720000011,36.6915877 C0.322354985,36.6915877 2.93527733e-15,36.3692328 2.88657986e-15,35.9715877 L0,0.816941647 C-4.86974708e-17,0.419296621 0.322354985,0.0969416362 0.720000011,0.0969416362 L61.3126322,0.0969416362 C61.7102772,0.0969416362 62.0326322,0.419296621 62.0326322,0.816941647 L62.0326322,35.9715877 C62.0326322,36.3692328 61.7102772,36.6915877 61.3126322,36.6915877 L39.8781207,36.6915877 L39.8781207,44.7239092 L53.2470252,44.7239092 L53.2470252,49.1237984 L5.61175968,49.1237984 L5.61175968,44.7239092 L22.1545115,44.7239092 Z" id="Combined-Shape" fill="#E14A43"></path>
                                    <rect id="Rectangle-27" fill="#E2231A" x="3.07803088" y="30.382166" width="1.3992323" height="3.78565305"></rect>
                                    <rect id="Rectangle-27-Copy" fill="#E2231A" x="6.20312312" y="30.382166" width="1.3992323" height="3.78565305"></rect>
                                    <rect id="Rectangle-27-Copy-2" fill="#E2231A" x="9.32821537" y="30.382166" width="1.3992323" height="3.78565305"></rect>
                                </g>
                            </g>
                            <g id="Group-11" transform="translate(5.951018, 44.723909)"></g>
                        </g>
                        <g id="Group-13" transform="translate(205.310125, 1.788956)">
                            <g id="Group-38-Copy-2" transform="translate(0.242637, 0.000000)">
                                <g id="Group-37">
                                    <path d="M22.1545115,42.9349528 L22.1545115,36.6915877 L0.720000011,36.6915877 C0.322354985,36.6915877 3.15651839e-15,36.3692328 -7.77156117e-16,35.9715877 L0,0.816941647 C-4.86974708e-17,0.419296621 0.322354985,0.0969416362 0.720000011,0.0969416362 L61.3126322,0.0969416362 C61.7102772,0.0969416362 62.0326322,0.419296621 62.0326322,0.816941647 L62.0326322,35.9715877 C62.0326322,36.3692328 61.7102772,36.6915877 61.3126322,36.6915877 L39.8781207,36.6915877 L39.8781207,42.9349528 L61.9189266,42.9349528 L61.9189266,47.3348421 L7.47862322,47.3348421 L7.47862322,42.9349528 L22.1545115,42.9349528 Z" id="Combined-Shape" fill="#E14A43"></path>
                                    <rect id="Rectangle-27" fill="#E2231A" x="3.07803088" y="30.382166" width="1.3992323" height="3.78565305"></rect>
                                    <rect id="Rectangle-27-Copy" fill="#E2231A" x="6.20312312" y="30.382166" width="1.3992323" height="3.78565305"></rect>
                                    <rect id="Rectangle-27-Copy-2" fill="#E2231A" x="9.32821537" y="30.382166" width="1.3992323" height="3.78565305"></rect>
                                </g>
                            </g>
                            <g id="Group-11-Copy" transform="translate(7.185491, 42.934953)"></g>
                        </g>
                        <g id="Group-12" transform="translate(291.599888, 0.894478)">
                            <g id="Group-38-Copy-3" transform="translate(0.669054, 0.000000)">
                                <g id="Group-37">
                                    <path d="M22.1545115,43.829431 L22.1545115,36.6915877 L0.720000011,36.6915877 C0.322354985,36.6915877 -6.17436344e-16,36.3692328 -6.66133815e-16,35.9715877 L1.11022302e-16,0.816941647 C6.23248317e-17,0.419296621 0.322354985,0.0969416362 0.720000011,0.0969416362 L61.3126322,0.0969416362 C61.7102772,0.0969416362 62.0326322,0.419296621 62.0326322,0.816941647 L62.0326322,35.9715877 C62.0326322,36.3692328 61.7102772,36.6915877 61.3126322,36.6915877 L39.8781207,36.6915877 L39.8781207,43.829431 L54.8439457,43.829431 L54.8439457,48.2293203 L7.20868027,48.2293203 L7.20868027,43.829431 L22.1545115,43.829431 Z" id="Combined-Shape" fill="#E14A43"></path>
                                    <rect id="Rectangle-27" fill="#E2231A" x="3.07803088" y="30.382166" width="1.3992323" height="3.78565305"></rect>
                                    <rect id="Rectangle-27-Copy" fill="#E2231A" x="6.20312312" y="30.382166" width="1.3992323" height="3.78565305"></rect>
                                    <rect id="Rectangle-27-Copy-2" fill="#E2231A" x="9.32821537" y="30.382166" width="1.3992323" height="3.78565305"></rect>
                                </g>
                            </g>
                            <g id="Group-11-Copy-2" transform="translate(7.408936, 43.829431)"></g>
                        </g>
                    </g>
                    <g id="Group-18" transform="translate(36.274972, 41.359576)">
                        <polygon id="Path-2" fill="#CF504C" points="73.973642 115.789145 58.703775 134.321812 204.233952 135.225845 227.121427 115.789145"></polygon>
                        <path d="M276.209221,91.7661942 C276.209221,41.3707937 220.26533,0.517249672 151.255044,0.517249672 C82.2447572,0.517249672 26.3008664,41.3707937 26.3008664,91.7661942" id="Oval-13" stroke="#F7918C" stroke-width="0.9" stroke-linecap="round" stroke-linejoin="round" stroke-dasharray="2.7"></path>
                        <circle id="Oval-12" fill="#F7918C" cx="30.2156753" cy="76.6697595" r="30.0559125"></circle>
                        <circle id="Oval-12-Copy-2" fill="#F7918C" cx="267.630855" cy="76.6697595" r="30.0559125"></circle>
                        <g id="Group-10" transform="translate(248.921088, 59.510181)">
                            <g id="Group-22" transform="translate(0.532090, 28.135795)">
                                <mask id="mask-2" fill="white">
                                    <use xlink:href="#path-1"></use>
                                </mask>
                                <g id="Clip-21"></g>
                                <polygon id="Fill-20" fill="#CF504C" mask="url(#mask-2)" points="0.260999219 6.66883425 38.5400601 6.66883425 38.5400601 -2.73563935 0.260999219 -2.73563935"></polygon>
                            </g>
                            <g id="Group-22" transform="translate(17.526089, 15.779527) scale(-1, 1) translate(-17.526089, -15.779527) translate(1.776089, 0.479527)">
                                <g id="Towing_Icon_White" transform="translate(0.284310, 1.077878)">
                                    <g id="Towing_Icon" transform="translate(0.005925, 0.128370)">
                                        <polyline id="Stroke-9" fill="#F6D0CE" points="3.26976682 25.728811 0.148294164 25.728811 0.148294164 18.8615712 2.64547229 16.364393 5.76694495 10.7457423 11.3855957 10.7457423 11.3855957 23.2316329"></polyline>
                                        <polygon id="Stroke-13" fill="#F6D0CE" points="11.3855957 23.2316329 28.8658426 23.2316329 28.8658426 19.4858657 11.3855957 19.4858657"></polygon>
                                        <rect id="Rectangle-8" fill="#F49F9B" x="0.148294164" y="23.2316329" width="28.7934061" height="2.49717812"></rect>
                                        <path d="M29.5225278,10.8318754 C29.5225278,11.5210966 28.9631599,11.9243908 28.2739387,11.9243908 C27.5847175,11.9243908 27.0253496,11.2869861 27.0253496,10.597765 C27.0253496,9.90854379 27.5847175,9.27113907 28.2739387,9.27113907 L26.6340672,0.454028622" id="Stroke-16" stroke="#D8D8D8" stroke-width="0.580608" stroke-linecap="round" stroke-linejoin="round"></path>
                                    </g>
                                </g>
                                <g id="Group-20" transform="translate(2.981324, 23.523938)">
                                    <path d="M0.0589864916,3.11405683 C0.0589864916,4.8094668 1.435061,6.18535347 3.13016211,6.18535347 C4.82550527,6.18535347 6.20157979,4.8094668 6.20157979,3.11405683 C6.20157979,1.41864686 4.82550527,0.0427601807 3.13016211,0.0427601807 C1.435061,0.0427601807 0.0589864916,1.41864686 0.0589864916,3.11405683" id="Fill-6" fill="#B90B02"></path>
                                    <path d="M4.56355491,3.11413516 C4.56355491,3.90577557 3.92184521,4.5473286 3.13036147,4.5473286 C2.33872107,4.5473286 1.69701137,3.90577557 1.69701137,3.11413516 C1.69701137,2.32249476 2.33872107,1.68078506 3.13036147,1.68078506 C3.92184521,1.68078506 4.56355491,2.32249476 4.56355491,3.11413516" id="Fill-10" fill="#CCBEBE"></path>
                                </g>
                                <g id="Group-20-Copy" transform="translate(20.375621, 23.523938)">
                                    <path d="M0.0589864916,3.11405683 C0.0589864916,4.8094668 1.435061,6.18535347 3.13016211,6.18535347 C4.82550527,6.18535347 6.20157979,4.8094668 6.20157979,3.11405683 C6.20157979,1.41864686 4.82550527,0.0427601807 3.13016211,0.0427601807 C1.435061,0.0427601807 0.0589864916,1.41864686 0.0589864916,3.11405683" id="Fill-6" fill="#B90B02"></path>
                                    <path d="M4.56355491,3.11413516 C4.56355491,3.90577557 3.92184521,4.5473286 3.13036147,4.5473286 C2.33872107,4.5473286 1.69701137,3.90577557 1.69701137,3.11413516 C1.69701137,2.32249476 2.33872107,1.68078506 3.13036147,1.68078506 C3.92184521,1.68078506 4.56355491,2.32249476 4.56355491,3.11413516" id="Fill-10" fill="#CCBEBE"></path>
                                </g>
                                <polygon id="Path-7" fill="#CCBEBE" points="6.87280107 12.995149 4.47335056 17.3141599 10.2342531 17.3141599 10.2342531 12.9951484"></polygon>
                                <g id="Rectangle-9">
                                    <use fill="#D8D8D8" fill-rule="evenodd" xlink:href="#path-3"></use>
                                    <rect stroke="#979797" stroke-width="0.54" x="9.0930528" y="18.9888382" width="1" height="1" rx="0.5"></rect>
                                </g>
                                <polygon id="Path-8" fill="#D8D8D8" points="15.3770094 19.4603872 26.2545184 1.22456331 26.2545184 2.50427025 17.9158971 20.6352743"></polygon>
                                <polygon id="Stroke-14" fill="#F49F9B" transform="translate(15.502684, 19.788748) scale(-1, 1) translate(-15.502684, -19.788748) " points="18.0421022 20.7018191 18.0421022 18.8756773 15.2827341 18.8756773 12.9632653 20.7018191"></polygon>
                                <g id="Group-21" transform="translate(25.274212, 0.000000)">
                                    <path d="M2.6684764,1.22456331 C2.6684764,1.89800909 2.12236146,2.44444395 1.44859576,2.44444395 C0.775149984,2.44444395 0.229035049,1.89800909 0.229035049,1.22456331 C0.229035049,0.551117539 0.775149984,0.00468267763 1.44859576,0.00468267763 C2.12236146,0.00468267763 2.6684764,0.551117539 2.6684764,1.22456331 Z" id="Stroke-13" fill="#666666" transform="translate(1.448756, 1.224563) scale(-1, 1) translate(-1.448756, -1.224563) "></path>
                                    <path d="M1.93253868,1.22456331 C1.93253868,1.49161151 1.71580392,1.70834627 1.44875572,1.70834627 C1.18170753,1.70834627 0.964972763,1.49161151 0.964972763,1.22456331 C0.964972763,0.957515121 1.18170753,0.740780355 1.44875572,0.740780355 C1.71580392,0.740780355 1.93253868,0.957515121 1.93253868,1.22456331 Z" id="Stroke-16" fill="#D8D8D8" transform="translate(1.448756, 1.224563) scale(-1, 1) translate(-1.448756, -1.224563) "></path>
                                </g>
                            </g>
                        </g>
                        <g id="Group-2" transform="translate(8.260152, 56.534672)">
                            <g id="Group-22" transform="translate(0.354988, 33.210127)">
                                <mask id="mask-5" fill="white">
                                    <use xlink:href="#path-4"></use>
                                </mask>
                                <g id="Clip-21"></g>
                                <polygon id="Fill-20" fill="#CF504C" mask="url(#mask-5)" points="0.294460658 5.6769979 43.4810934 5.6769979 43.4810934 -3.7274757 0.294460658 -3.7274757"></polygon>
                            </g>
                            <g id="Group-36" transform="translate(2.118797, 0.000000)">
                                <g id="Group-31" transform="translate(16.304047, 8.762282) rotate(48.000000) translate(-16.304047, -8.762282) translate(13.604047, -1.137718)">
                                    <rect id="Rectangle-19" stroke="#D8D8D8" stroke-width="0.5" x="0.615600395" y="0.25" width="1" height="18.4243429"></rect>
                                    <rect id="Rectangle-19-Copy" stroke="#D8D8D8" stroke-width="0.5" x="4.60242185" y="0.25" width="1" height="18.4243429"></rect>
                                    <g id="Group-30" transform="translate(0.378487, 1.494027)" fill="#D8D8D8">
                                        <rect id="Rectangle-20" x="0.247762171" y="0" width="3.78486858" height="1"></rect>
                                        <rect id="Rectangle-20-Copy-4" x="0.247762171" y="8.81027152" width="3.78486858" height="1"></rect>
                                        <rect id="Rectangle-20-Copy-2" x="0.247762171" y="4.40513576" width="3.78486858" height="1"></rect>
                                        <rect id="Rectangle-20-Copy-5" x="0.247762171" y="13.2154073" width="3.78486858" height="1"></rect>
                                        <rect id="Rectangle-20-Copy" x="0.247762171" y="2.20256788" width="3.78486858" height="1"></rect>
                                        <rect id="Rectangle-20-Copy-6" x="0.247762171" y="11.0128394" width="3.78486858" height="1"></rect>
                                        <rect id="Rectangle-20-Copy-3" x="0.247762171" y="6.60770364" width="3.78486858" height="1"></rect>
                                        <rect id="Rectangle-20-Copy-7" x="0.247762171" y="15.4179752" width="3.78486858" height="1"></rect>
                                    </g>
                                </g>
                                <g id="Group-32" transform="translate(0.000000, 13.625527)">
                                    <g id="Towing_Icon_White" transform="translate(19.854430, 10.006311) scale(-1, 1) translate(-19.854430, -10.006311) translate(0.504430, 0.106311)">
                                        <g id="Towing_Icon" transform="translate(0.007156, 0.155020)">
                                            <polyline id="Stroke-9" fill="#F54B43" points="3.94858022 18.2016362 0.179080478 18.2016362 0.179080478 9.90873677 3.19468027 6.89313697 6.96418002 0.108037431 13.7492796 0.108037431 13.7492796 15.1860364"></polyline>
                                            <polygon id="Stroke-13" fill="#F54B43" points="13.7492796 15.1860364 37.2681108 15.1860364 37.2681108 10.6626367 13.7492796 10.6626367"></polygon>
                                            <rect id="Rectangle-8" fill="#F49F9B" x="0.179080478" y="15.1860364" width="37.0890303" height="3.0155998"></rect>
                                        </g>
                                    </g>
                                    <rect id="Rectangle-17" fill="#F54B43" x="1.93119678" y="0.853381661" width="21.7289896" height="10.2191452"></rect>
                                    <rect id="Rectangle-18" fill="#D4241E" x="1.93119678" y="5.29881601" width="21.7289896" height="3.02789486"></rect>
                                </g>
                                <g id="Group-20" transform="translate(31.897508, 32.019213) scale(-1, 1) translate(-31.897508, -32.019213) translate(27.847508, 27.969213)">
                                    <path d="M0.0712322642,3.76054437 C0.0712322642,5.80792654 1.73298397,7.46945142 3.77999316,7.46945142 C5.82729465,7.46945142 7.48904636,5.80792654 7.48904636,3.76054437 C7.48904636,1.7131622 5.82729465,0.0516373225 3.77999316,0.0516373225 C1.73298397,0.0516373225 0.0712322642,1.7131622 0.0712322642,3.76054437" id="Fill-6" fill="#B90B02"></path>
                                    <path d="M5.5109626,3.76063897 C5.5109626,4.71662629 4.73603204,5.49136766 3.78023391,5.49136766 C2.82424658,5.49136766 2.04931602,4.71662629 2.04931602,3.76063897 C2.04931602,2.80465164 2.82424658,2.02972108 3.78023391,2.02972108 C4.73603204,2.02972108 5.5109626,2.80465164 5.5109626,3.76063897" id="Fill-10" fill="#FBD2D2"></path>
                                </g>
                                <g id="Group-20-Copy" transform="translate(6.933329, 32.019213) scale(-1, 1) translate(-6.933329, -32.019213) translate(2.883329, 27.969213)">
                                    <path d="M0.0712322642,3.76054437 C0.0712322642,5.80792654 1.73298397,7.46945142 3.77999316,7.46945142 C5.82729465,7.46945142 7.48904636,5.80792654 7.48904636,3.76054437 C7.48904636,1.7131622 5.82729465,0.0516373225 3.77999316,0.0516373225 C1.73298397,0.0516373225 0.0712322642,1.7131622 0.0712322642,3.76054437" id="Fill-6" fill="#B90B02"></path>
                                    <path d="M5.5109626,3.76063897 C5.5109626,4.71662629 4.73603204,5.49136766 3.78023391,5.49136766 C2.82424658,5.49136766 2.04931602,4.71662629 2.04931602,3.76063897 C2.04931602,2.80465164 2.82424658,2.02972108 3.78023391,2.02972108 C4.73603204,2.02972108 5.5109626,2.80465164 5.5109626,3.76063897" id="Fill-10" fill="#FBD2D2"></path>
                                </g>
                                <g id="Group-20-Copy-2" transform="translate(15.060263, 32.019213) scale(-1, 1) translate(-15.060263, -32.019213) translate(11.010263, 27.969213)">
                                    <path d="M0.0712322642,3.76054437 C0.0712322642,5.80792654 1.73298397,7.46945142 3.77999316,7.46945142 C5.82729465,7.46945142 7.48904636,5.80792654 7.48904636,3.76054437 C7.48904636,1.7131622 5.82729465,0.0516373225 3.77999316,0.0516373225 C1.73298397,0.0516373225 0.0712322642,1.7131622 0.0712322642,3.76054437" id="Fill-6" fill="#B90B02"></path>
                                    <path d="M5.5109626,3.76063897 C5.5109626,4.71662629 4.73603204,5.49136766 3.78023391,5.49136766 C2.82424658,5.49136766 2.04931602,4.71662629 2.04931602,3.76063897 C2.04931602,2.80465164 2.82424658,2.02972108 3.78023391,2.02972108 C4.73603204,2.02972108 5.5109626,2.80465164 5.5109626,3.76063897" id="Fill-10" fill="#FBD2D2"></path>
                                </g>
                                <polygon id="Path-7" fill="#CCBEBE" transform="translate(30.667291, 17.862442) scale(-1, 1) translate(-30.667291, -17.862442) " points="30.0864326 15.2546163 27.188849 20.4702668 34.1457321 20.4702668 34.1457321 15.2546156"></polygon>
                                <rect id="Rectangle-9" fill="#CCBEBE" transform="translate(28.040934, 22.616561) scale(-1, 1) translate(-28.040934, -22.616561) " x="27.188849" y="22.1665605" width="1.70416967" height="1" rx="0.5"></rect>
                                <rect id="Rectangle-21" fill="#D4241E" x="7.38525154" y="12.1115794" width="9.08368459" height="2.649408" rx="0.360000005"></rect>
                            </g>
                        </g>
                    </g>
                    <g id="Group-26" transform="translate(110.216373, 79.396500)">
                        <rect id="Rectangle-22" fill="#FAAEAB" x="0.446326359" y="73.1251692" width="151.750962" height="4.3909099"></rect>
                        <polygon id="Rectangle-22-Copy" fill="#F4CBCA" points="5.80224267 68.7342593 145.948719 68.7342593 152.197288 73.1251692 0.446326359 73.1251692"></polygon>
                        <g id="Group-8" transform="translate(43.739983, 0.465525)">
                            <g id="Page-1" transform="translate(0.350661, 0.514613)">
                                <g id="Group-3" transform="translate(0.000000, 35.669437)" fill="#F0736F">
                                    <path d="M31.6730446,31.9839647 L31.6730446,0.11409186 C14.1805007,0.11409186 -7.54005214e-05,14.3831135 -7.54005214e-05,31.9839647 L31.6730446,31.9839647 Z" id="Fill-1"></path>
                                </g>
                                <g id="Group-6" transform="translate(31.668219, 35.669437)" fill="#EB534F">
                                    <path d="M0.00490103389,0.11409186 L0.00490103389,31.9839647 L31.678021,31.9839647 C31.678021,14.3831135 17.497068,0.11409186 0.00490103389,0.11409186" id="Fill-4"></path>
                                </g>
                                <path d="M25.2385149,33.8770536 L25.3862999,31.3650852 L36.098829,31.6323801 L37.7010901,38.3241764 C37.7010901,38.3241764 37.4922306,39.4252315 31.3391711,46.7767824 C30.4458579,45.4378033 25.1657534,44.2619674 24.9772521,38.3241764 L25.2385149,33.8770536 Z" id="Fill-7" fill="#F2AA96"></path>
                                <path d="M25.2386657,33.8770913 C25.2386657,33.8770913 28.0405491,35.8736971 33.7427135,34.9783159 L36.3082163,39.6972575 L37.2096295,36.2721889 L36.0989798,31.6324178 L25.3864507,31.3651229 L25.2386657,33.8770913 Z" id="Fill-13" fill="#E18F79"></path>
                                <path d="M22.0554819,27.8152287 C22.0554819,27.8152287 23.4594396,29.9811087 25.3862999,31.7420878 C26.5421899,32.7988261 28.0562324,33.6587691 29.9412454,33.7058944 C29.9412454,33.7058944 38.7861036,35.8495312 44.0400119,24.9756451 L41.5653668,10.7087354 L25.7312573,6.65595738 L20.0762182,6.65595738 L20.0762182,15.9867719 L20.7966702,25.2429399 L22.0554819,27.8152287 Z" id="Fill-15" fill="#F2AA96"></path>
                                <path d="M40.9056122,18.3430382 C40.9056122,18.3430382 45.6209541,31.1553598 46.5606513,16.5522758 C47.5003486,1.9491918 32.7751293,0.127735511 32.2311633,0.35884105 C31.6871973,0.589946589 28.8155708,0.536428459 24.1972888,3.92945192 C24.1972888,3.92945192 13.0391299,11.0706737 21.777631,27.2474628 C21.777631,27.2474628 21.653755,26.5161444 21.5530482,25.3181291 C21.2703327,21.954922 21.1702145,14.9136663 24.5059988,10.0489808 C24.5059988,10.0489808 29.7840353,16.5522758 40.9056122,18.3430382 Z" id="Fill-17" fill="#273C47"></path>
                                <path d="M35.3643525,29.3814106 L39.1701938,29.3814106 C42.8504933,29.3814106 45.8310759,27.3105353 45.8310759,24.7529496 L45.8310759,23.3455989" id="Stroke-19" stroke="#6E777F" stroke-width="1.77957" stroke-linejoin="round"></path>
                                <path d="M36.4735696,29.3814106 C36.4735696,30.4762262 35.5849745,31.3651983 34.4897819,31.3651983 C33.3949663,31.3651983 32.5063712,30.4762262 32.5063712,29.3814106 C32.5063712,28.286595 33.3949663,27.3976229 34.4897819,27.3976229 C35.5849745,27.3976229 36.4735696,28.286595 36.4735696,29.3814106" id="Fill-21" fill="#36464C"></path>
                                <path d="M19.181591,13.5436065 C19.181591,6.58790841 25.1472803,0.949080417 32.5063712,0.949080417 C39.8632,0.949080417 45.8311513,6.58790841 45.8311513,13.5436065" id="Stroke-23" stroke="#6E777F" stroke-width="1.77957" stroke-linejoin="round"></path>
                                <path d="M19.1734855,25.2428268 L17.8667944,25.2428268 C16.4937509,25.2428268 15.3699062,24.119359 15.3699062,22.7459385 L15.3699062,15.3732756 C15.3699062,14.0002321 16.4937509,12.8763873 17.8667944,12.8763873 L19.1734855,12.8763873 C20.546906,12.8763873 21.6703737,14.0002321 21.6703737,15.3732756 L21.6703737,22.7459385 C21.6703737,24.119359 20.546906,25.2428268 19.1734855,25.2428268" id="Fill-25" fill="#6E777F"></path>
                                <path d="M46.4840821,25.2428268 L45.1773911,25.2428268 C43.8043476,25.2428268 42.6805028,24.119359 42.6805028,22.7459385 L42.6805028,15.3732756 C42.6805028,14.0002321 43.8043476,12.8763873 45.1773911,12.8763873 L46.4840821,12.8763873 C47.8575026,12.8763873 48.9809704,14.0002321 48.9809704,15.3732756 L48.9809704,22.7459385 C48.9809704,24.119359 47.8575026,25.2428268 46.4840821,25.2428268" id="Fill-27" fill="#6E777F"></path>
                                <path d="M25.0899416,35.6124242 C25.0899416,35.6124242 26.7473728,41.3426706 31.3385106,46.5949047 C31.3385106,46.5949047 29.2556542,47.5639471 25.0899416,49.5020319 L20.626678,36.9044807 L25.0899416,35.6124242 Z" id="Fill-9" fill="#EBE8DD"></path>
                                <path d="M37.5112693,35.5961855 C37.2642586,35.5961855 35.2066724,39.2624252 31.3385106,46.5949047 C31.3385106,46.5949047 33.3960968,47.5639471 37.5112693,49.5020319 L40.7113641,36.9044807 L37.5112693,35.5961855 Z" id="Fill-11" fill="#EBE8DD"></path>
                            </g>
                        </g>
                        <g id="Group-17" transform="translate(50.881205, 46.828091)">
                            <polygon id="Rectangle-29-Copy-2" fill="#C1C1C1" points="0.741109779 22.3163179 48.3547897 22.3163179 46.5694843 24.5117729 2.52641521 24.5117729"></polygon>
                            <rect id="Rectangle-29" fill="#ECECEC" x="2.52641521" y="0.395765951" width="44.043069" height="24.1160069" rx="0.81"></rect>
                        </g>
                        <g id="Page-1" transform="translate(62.039364, 54.451816)">
                            <path d="M3.24300954,8.36209726 L1.14670483,8.36209726 C0.690048199,8.36209726 0.472810803,8.26840156 0.472810803,7.73599526 L0.472810803,2.04141947 C0.472810803,1.92283585 0.389146678,1.82999415 0.282336283,1.82999415 L0.190353967,1.82999415 C0.0835435712,1.82999415 0,1.92283585 0,2.04141947 L0,7.73599526 C0,8.47067692 0.364312658,8.81276382 1.14670483,8.81276382 L3.24300954,8.81276382 C3.36404525,8.81276382 3.45180819,8.73163408 3.45180819,8.61988244 L3.45180819,8.54546268 C3.45180819,8.43578503 3.36802351,8.36209726 3.24300954,8.36209726" id="Fill-1" fill="#212121"></path>
                            <path d="M5.62568907,3.68516902 C4.38217978,3.68516902 3.69743593,4.48719445 3.69743593,5.9437478 L3.69743593,6.59498171 C3.69743593,8.05141306 4.38217978,8.85343849 5.62568907,8.85343849 C6.86919836,8.85343849 7.5539422,8.05141306 7.5539422,6.59498171 L7.5539422,5.9437478 C7.5539422,4.48719445 6.86919836,3.68516902 5.62568907,3.68516902 M7.0811314,5.9437478 L7.0811314,6.59498171 C7.0811314,7.82400578 6.60506565,8.42143787 5.62568907,8.42143787 C4.64631248,8.42143787 4.17036729,7.82400578 4.17036729,6.59498171 L4.17036729,5.9437478 C4.17036729,4.71472373 4.64631248,4.11716964 5.62568907,4.11716964 C6.60506565,4.11716964 7.0811314,4.71472373 7.0811314,5.9437478" id="Fill-3" fill="#212121"></path>
                            <path d="M10.5297088,8.34700591 L12.1002797,8.34700591 C12.5568158,8.34700591 12.7740531,8.25331021 12.7740531,7.72090391 L12.7740531,2.02632812 C12.7740531,1.9077445 12.8577173,1.8149028 12.9646482,1.8149028 L13.05651,1.8149028 C13.1633204,1.8149028 13.2469845,1.9077445 13.2469845,2.02632812 L13.2469845,7.72090391 C13.2469845,8.45558556 12.8825513,8.79767247 12.1002797,8.79767247 L10.5297088,8.79767247 C10.4087936,8.79767247 10.3209101,8.71654273 10.3209101,8.60479109 L10.3209101,8.53037132 C10.3209101,8.42069368 10.4048153,8.34700591 10.5297088,8.34700591" id="Fill-5" fill="#212121"></path>
                            <path d="M16.0755191,3.68516902 C15.4629868,3.68516902 15.1399034,3.72408689 14.7653437,3.76922675 C14.6384009,3.78630669 14.5242367,3.8144886 14.5242367,3.9708921 L14.5242367,4.02688992 C14.5242367,4.08288775 14.5411142,4.12668561 14.574387,4.15718551 C14.6165807,4.19598138 14.6816796,4.21013334 14.7734208,4.20073937 L14.9063913,4.18634341 C15.2713067,4.14620554 15.5350778,4.11716964 16.0755191,4.11716964 C16.9161386,4.11716964 17.1999215,4.44888658 17.1999215,5.43183743 L17.1999215,5.73220047 L16.5260275,5.73220047 C14.9103696,5.73220047 14.2208036,6.17127707 14.2208036,7.19985578 L14.2208036,7.32075739 C14.2208036,7.78154992 14.3612484,8.85343849 15.6617795,8.85343849 C16.1321792,8.85343849 16.6328379,8.70594096 17.1907594,8.40252793 L17.1907594,8.57698738 C17.1907594,8.69862099 17.2885283,8.79768467 17.4087202,8.79768467 L17.454651,8.79768467 C17.575084,8.79768467 17.6727323,8.69862099 17.6727323,8.57698738 L17.6727323,5.43183743 C17.6727323,4.61858803 17.4911788,3.68516902 16.0755191,3.68516902 Z M14.6936144,7.19985578 C14.6936144,6.42552426 15.1560576,6.16432309 16.5260275,6.16432309 L17.1999215,6.16432309 L17.1999215,7.96076735 C16.5866659,8.29211829 16.1542405,8.42143787 15.6617795,8.42143787 C15.0193499,8.42143787 14.6936144,8.05116906 14.6936144,7.32075739 L14.6936144,7.19985578 Z" id="Fill-7" fill="#212121"></path>
                            <path d="M20.5956362,4.11714524 C20.8942472,4.11714524 21.2507238,4.14447315 21.6842342,4.20059297 C21.7570485,4.21279293 21.8208213,4.19937297 21.8632562,4.16301709 C21.8984578,4.13276119 21.9171436,4.08896333 21.9171436,4.03613749 L21.9171436,3.9709897 C21.9171436,3.8455741 21.8597601,3.78896629 21.7123232,3.76920235 C21.2691685,3.71576652 20.8620594,3.68514462 20.5956362,3.68514462 C19.399625,3.68514462 18.7409207,4.48729205 18.7409207,5.9437234 L18.7409207,6.5668974 C18.7409207,8.02003476 19.4169847,8.85341409 20.5956362,8.85341409 C20.8620594,8.85341409 21.2691685,8.82279219 21.7123232,8.76935636 L21.7128054,8.76935636 C21.8597601,8.74947042 21.9171436,8.69298461 21.9171436,8.56769101 L21.9171436,8.50254321 C21.9171436,8.44959538 21.8984578,8.40579752 21.8631356,8.37554162 C21.8208213,8.33906374 21.7571691,8.32588778 21.6854397,8.33796574 C21.2507238,8.39420756 20.8942472,8.42153547 20.5956362,8.42153547 C19.6658071,8.42153547 19.213852,7.81483141 19.213852,6.5668974 L19.213852,5.9437234 C19.213852,4.71469933 19.6658071,4.11714524 20.5956362,4.11714524" id="Fill-9" fill="#212121"></path>
                            <path d="M25.9534554,8.5066424 L23.7153798,6.11288805 L25.9416411,4.05304664 C26.0116827,3.99241283 26.0363962,3.90396312 26.0063784,3.82197938 C25.9756372,3.73755565 25.8964336,3.68521782 25.7998702,3.68521782 C25.7131923,3.68521782 25.6245854,3.71876771 25.5558699,3.77830352 L23.3514288,5.86400885 L23.3514288,2.02626712 C23.3514288,1.91366148 23.253901,1.8148418 23.1427507,1.8148418 L23.0874166,1.8148418 C22.9762663,1.8148418 22.8787385,1.91366148 22.8787385,2.02626712 L22.8787385,8.64206197 C22.8787385,8.75466761 22.9762663,8.85348729 23.0874166,8.85348729 L23.1427507,8.85348729 C23.253901,8.85348729 23.3514288,8.75466761 23.3514288,8.64206197 L23.3514288,6.38494718 L25.5182573,8.73160968 C25.6196427,8.83408935 25.7018602,8.85348729 25.8183149,8.85348729 C25.9086095,8.85348729 25.9776866,8.81371542 26.0077044,8.74417564 C26.0398922,8.66975588 26.0192776,8.57886617 25.9534554,8.5066424" id="Fill-11" fill="#212121"></path>
                            <polygon id="Fill-13" fill="#DE2827" points="10.649768 -3.6599883e-05 7.82483796 10.6689513 8.31995116 10.6689513 11.1448812 -3.6599883e-05"></polygon>
                            <path d="M27.8478571,4.40286832 L27.7786594,4.40286832 C27.7685329,4.40286832 27.7617819,4.39603634 27.7617819,4.38578838 L27.7617819,3.97599169 C27.7617819,3.84118212 27.7465921,3.80031225 27.5846888,3.80031225 L27.5846888,4.38578838 C27.5846888,4.39603634 27.5779378,4.40286832 27.5678113,4.40286832 L27.4970464,4.40286832 C27.4869199,4.40286832 27.4800484,4.39603634 27.4800484,4.38578838 L27.4800484,3.80031225 C27.4092835,3.80031225 27.3485245,3.80543623 27.3013881,3.81056022 L27.3013881,4.38578838 C27.3013881,4.39603634 27.2963248,4.40286832 27.2861984,4.40286832 L27.2170006,4.40286832 C27.2068742,4.40286832 27.2001232,4.39603634 27.2001232,4.38578838 L27.2001232,3.7523664 C27.2001232,3.73028447 27.2068742,3.7217445 27.2254394,3.72003651 C27.3232083,3.70978854 27.4278487,3.70295656 27.5323686,3.70295656 C27.7651574,3.70295656 27.8647346,3.74565642 27.8647346,3.97599169 L27.8647346,4.38578838 C27.8647346,4.39603634 27.8579836,4.40286832 27.8478571,4.40286832 M27.1106725,3.80031225 L26.9470814,3.80031225 L26.9470814,4.37554041 C26.9470814,4.38920437 26.9352671,4.40286832 26.9200774,4.40286832 L26.8660694,4.40286832 C26.8508797,4.40286832 26.8407532,4.38920437 26.8407532,4.37554041 L26.8407532,3.80031225 L26.6737866,3.80031225 C26.6602846,3.80031225 26.6467826,3.79335827 26.6467826,3.77640033 L26.6467826,3.73370046 C26.6467826,3.71832851 26.6602846,3.70808054 26.6737866,3.70808054 L27.1106725,3.70808054 C27.1241745,3.70808054 27.1393642,3.71832851 27.1393642,3.73370046 L27.1393642,3.77640033 C27.1393642,3.79335827 27.1241745,3.80031225 27.1106725,3.80031225" id="Fill-16" fill="#212121"></path>
                        </g>
                    </g>
                    <circle id="Oval-12-Copy" fill="#F7918C" cx="202.765884" cy="30.0559125" r="30.0559125"></circle>
                    <g id="Group-19" transform="translate(177.878139, 12.606940)">
                        <g id="Group-9" transform="translate(0.531858, 0.740819)">
                            <g id="Group-22" transform="translate(2.359640, 22.363523)">
                                <mask id="mask-7" fill="white">
                                    <use xlink:href="#path-6"></use>
                                </mask>
                                <g id="Clip-21"></g>
                                <polygon id="Fill-20" fill="#CF504C" mask="url(#mask-7)" points="0.260999219 5.6769979 38.5400601 5.6769979 38.5400601 -3.7274757 0.260999219 -3.7274757"></polygon>
                            </g>
                            <g id="Group-7" transform="translate(0.606770, 0.032745)">
                                <g id="Car_Illustration" transform="translate(20.603429, 16.970975) rotate(-14.000000) translate(-20.603429, -16.970975) translate(2.603429, 4.370975)">
                                    <g id="Group-25" transform="translate(17.906107, 12.262171) scale(-1, 1) rotate(-14.000000) translate(-17.906107, -12.262171) translate(2.156107, 3.712171)">
                                        <g id="Page-1" transform="translate(0.357708, 0.199481)" fill="#DEDEDE">
                                            <g id="Group-3" transform="translate(0.000000, 0.058258)">
                                                <path d="M29.1177201,11.7100324 L29.1177201,7.91210194 C29.1177201,6.51446353 27.9821389,5.3801483 26.5857664,5.3801483 L25.0779881,5.3801483 L21.8295147,0.665650613 C21.7219067,0.450434553 21.5028927,0.31624101 21.2636231,0.31624101 L11.0192922,0.31624101 C10.7787566,0.31624101 10.5610086,0.450434553 10.4534006,0.665650613 L7.20366131,5.3801483 L2.53220684,5.3801483 C1.13456843,5.3801483 0.000253195364,6.51446353 0.000253195364,7.91210194 L0.000253195364,12.3430208 C0.000253195364,12.6924304 0.283832003,12.9760092 0.633241606,12.9760092 L2.27647952,12.9760092 C2.23850022,12.770921 2.21571263,12.5595029 2.21571263,12.3430208 C2.21571263,10.422534 3.77666205,8.86158456 5.69714889,8.86158456 C7.61636975,8.86158456 9.17858515,10.422534 9.17858515,12.3430208 C9.17858515,12.5595029 9.15579757,12.770921 9.11781826,12.9760092 L20.000155,12.9760092 C19.9621757,12.770921 19.9393881,12.5595029 19.9393881,12.3430208 C19.9393881,10.422534 21.5003376,8.86158456 23.4208244,8.86158456 C25.3400453,8.86158456 26.9022607,10.422534 26.9022607,12.3430208 C26.9022607,12.5595029 26.8794731,12.770921 26.8414938,12.9760092 L29.3050963,12.9760092 C29.6532399,12.9760092 29.9380847,12.6924304 29.9380847,12.3430208 C29.9380847,11.9936112 29.6532399,11.7100324 29.3050963,11.7100324 L29.1177201,11.7100324 Z" id="Fill-1"></path>
                                            </g>
                                        </g>
                                        <g id="Group-23" transform="translate(19.892082, 9.458469)"></g>
                                        <polygon id="Path-7" fill="#A0A0A0" points="11.880116 2.50415464 9.02995773 6.83233756 16.0420405 6.78479543 16.0420405 2.45661194"></polygon>
                                        <polygon id="Path-7" fill="#A0A0A0" transform="translate(20.943775, 4.644475) scale(-1, 1) translate(-20.943775, -4.644475) " points="20.491559 2.50415464 17.6016833 6.83233756 24.2858669 6.78479543 24.2858669 2.45661194"></polygon>
                                        <g id="Rectangle-9">
                                            <use fill="#D8D8D8" fill-rule="evenodd" xlink:href="#path-8"></use>
                                            <rect stroke="#979797" stroke-width="0.54" x="14.3464402" y="8.22583306" width="1.42560036" height="1" rx="0.5"></rect>
                                        </g>
                                        <g id="Rectangle-9-Copy">
                                            <use fill="#D8D8D8" fill-rule="evenodd" xlink:href="#path-9"></use>
                                            <rect stroke="#979797" stroke-width="0.54" x="17.8716833" y="8.24242384" width="1.42560036" height="1" rx="0.5"></rect>
                                        </g>
                                    </g>
                                </g>
                                <g id="Rectangle-2">
                                    <use fill="#DEDEDE" fill-rule="evenodd" xlink:href="#path-10"></use>
                                    <rect stroke="#979797" stroke-width="0.6912" x="7.16810395" y="18.4400447" width="28.2545521" height="1"></rect>
                                </g>
                                <g id="Group-24" transform="translate(26.335233, 16.582528)">
                                    <path d="M0.235671431,3.93535496 C0.235671431,5.91898463 1.84567861,7.52877204 3.82894691,7.52877204 C5.81249841,7.52877204 7.42250558,5.91898463 7.42250558,3.93535496 C7.42250558,1.95172529 5.81249841,0.341937884 3.82894691,0.341937884 C1.84567861,0.341937884 0.235671431,1.95172529 0.235671431,3.93535496" id="Fill-6" fill="#8F433E"></path>
                                    <path d="M5.50601648,3.93544661 C5.50601648,4.86166589 4.75521613,5.61228293 3.82918016,5.61228293 C2.90296088,5.61228293 2.15216054,4.86166589 2.15216054,3.93544661 C2.15216054,3.00922734 2.90296088,2.25842699 3.82918016,2.25842699 C4.75521613,2.25842699 5.50601648,3.00922734 5.50601648,3.93544661" id="Fill-10" fill="#FFE0DF"></path>
                                </g>
                                <path d="M12.4315987,24.3243546 C14.4151502,24.3243546 16.0251574,22.7145672 16.0251574,20.7309376 C16.0251574,18.7473079 14.4151502,17.1375205 12.4315987,17.1375205 C10.4483304,17.1375205 8.83832324,18.7473079 8.83832324,20.7309376 C8.83832324,22.7145672 10.4483304,24.3243546 12.4315987,24.3243546 Z" id="Fill-6-Copy-2" fill="#8F433E"></path>
                                <path d="M14.1086683,20.7310292 C14.1086683,21.6572485 13.3578679,22.4078655 12.431832,22.4078655 C11.5056127,22.4078655 10.7548124,21.6572485 10.7548124,20.7310292 C10.7548124,19.8048099 11.5056127,19.0540096 12.431832,19.0540096 C13.3578679,19.0540096 14.1086683,19.8048099 14.1086683,20.7310292" id="Fill-10-Copy-2" fill="#FFE0DF"></path>
                            </g>
                        </g>
                        <g id="atenna" transform="translate(16.896083, 1.350013)">
                            <path d="M4.0813253,3.65227101 L4.0813253,7.44647188" id="Stroke-1" stroke="#BEBCBC" stroke-width="0.5" stroke-linejoin="round"></path>
                            <path d="M6.87873527,0.436939757 C7.64151864,1.20008967 8.11326405,2.25391101 8.11326405,3.41806285 C8.11326405,4.5822147 7.64151864,5.63603603 6.87873527,6.39845285" id="Stroke-3" stroke="#E5E5E5" stroke-width="0.5" opacity="0.5" stroke-linecap="round" stroke-linejoin="round"></path>
                            <path d="M5.84173842,1.4739366 C6.33914209,1.97134027 6.64704119,2.65824851 6.64704119,3.41809951 C6.64704119,4.17685087 6.33914209,4.86412565 5.84173842,5.36152932" id="Stroke-5" stroke="#E5E5E5" stroke-width="0.5" opacity="0.8" stroke-linecap="round" stroke-linejoin="round"></path>
                            <path d="M1.28391534,0.436939757 C0.521131969,1.20008967 0.0493865586,2.25391101 0.0493865586,3.41806285 C0.0493865586,4.5822147 0.521131969,5.63603603 1.28391534,6.39845285" id="Stroke-7" stroke="#E5E5E5" stroke-width="0.5" opacity="0.5" stroke-linecap="round" stroke-linejoin="round"></path>
                            <path d="M2.32054564,1.4739366 C1.82350852,1.97134027 1.51560942,2.65824851 1.51560942,3.41809951 C1.51560942,4.17685087 1.82350852,4.86412565 2.32054564,5.36152932" id="Stroke-9" stroke="#E5E5E5" stroke-width="0.5" opacity="0.8" stroke-linecap="round" stroke-linejoin="round"></path>
                            <path d="M4.63208195,3.42294379 C4.63208195,3.72696146 4.38534297,3.97370044 4.0813253,3.97370044 C3.77730764,3.97370044 3.53056866,3.72696146 3.53056866,3.42294379 C3.53056866,3.11874254 3.77730764,2.87218715 4.0813253,2.87218715 C4.38534297,2.87218715 4.63208195,3.11874254 4.63208195,3.42294379 Z" id="Stroke-11" fill="#ECEAEA"></path>
                        </g>
                        <g id="Group-17" transform="translate(16.741035, 7.128491)" opacity="0.8">
                            <circle id="Oval-10" fill="#FAACB1" cx="1.54560178" cy="2.00545372" r="1.14259548"></circle>
                            <circle id="Oval-10-Copy-2" fill="#FAACB1" cx="5.30831895" cy="2.00545372" r="1.14259548"></circle>
                            <circle id="Oval-10-Copy" fill="#7085F5" cx="3.42696037" cy="2.00545372" r="1.14259548"></circle>
                            <circle id="Oval-10-Copy-3" fill="#7085F5" cx="7.18967754" cy="2.00545372" r="1.14259548"></circle>
                        </g>
                        <polygon id="Path-9" fill="url(#linearGradient-11)" points="36.9635302 16.6282716 49.8445424 11.5917549 49.8445424 24.9815457 36.9635302 21.0915352"></polygon>
                    </g>
                </g>
            </g>
        </g>
    </g>
</svg>