<?xml version="1.0" encoding="UTF-8" standalone="no"?>
<svg width="37px" height="36px" viewBox="0 0 37 36" version="1.1" xmlns="http://www.w3.org/2000/svg" xmlns:xlink="http://www.w3.org/1999/xlink">
    <!-- Generator: Sketch 49 (51002) - http://www.bohemiancoding.com/sketch -->
    <title>Group</title>
    <desc>Created with Sketch.</desc>
    <defs></defs>
    <g id="Symbols" stroke="none" stroke-width="1" fill="none" fill-rule="evenodd">
        <g id="36x36_Preferred-Service-Center" transform="translate(1.000000, 0.000000)">
            <g id="Group" transform="translate(-1.000000, 0.000000)">
                <g id="Preferred_Service_Center_Icon">
                    <g id="Your_Name_Icon" fill="#F4F4F4">
                        <circle id="Oval-4" cx="18.9676322" cy="18.0049857" r="18"></circle>
                    </g>
                    <g id="tools" stroke-linecap="round" stroke-linejoin="round" transform="translate(11.853846, 15.237539)" stroke="#37618D" stroke-width="0.8">
                        <path d="M1.9897459,12.6074614 C1.6622663,12.9354999 1.13081051,12.9354999 0.804448595,12.6074614 C0.476969,12.2805407 0.476969,11.7502026 0.804448595,11.422723 L4.47602016,7.75003373 L5.66131746,8.93533104 L1.9897459,12.6074614 L1.9897459,12.6074614 Z" id="Stroke-3026"></path>
                        <path d="M4.44401179,7.74568768 L5.6634863,8.96516219" id="Stroke-3027"></path>
                        <path d="M11.0370682,2.37506532 L5.0641981,8.34793547" id="Stroke-3028"></path>
                        <polygon id="Stroke-3029" points="10.3153837 1.65421902 12.2942322 0.279475333 13.1324906 1.11773368 11.69851 3.03622762"></polygon>
                        <path d="M6.39517101,5.06284375 L4.55151929,3.39131386 C4.71196842,3.01207046 4.76339835,2.59749901 4.70535639,2.19575284 C4.63886891,1.73554971 4.42873388,1.29217573 4.07427088,0.938011092 C3.41148794,0.275786997 2.47766814,0.117076749 1.66343987,0.461321511 L2.70790977,1.63991275 L1.59023197,2.75759055 L0.436788483,1.68797289 C0.0919848827,2.50220117 0.25069513,3.45669801 0.913478064,4.12003978 C1.57681984,4.78394039 2.55311139,4.93091502 3.36622199,4.58611142 L5.1756965,6.28231826" id="Stroke-3030"></path>
                        <path d="M6.88296082,8.23347748 L8.73834032,9.94884126 C8.39409556,10.7625107 8.55168813,11.7382434 9.21558874,12.4015852 C9.87837168,13.0643681 10.8541044,13.2219607 11.6683327,12.8782748 L10.5316543,11.6985659 L11.6493321,10.5808881 L12.8530711,11.6924186 C13.1978747,10.8787492 13.0391645,9.90357531 12.3763816,9.24023354 C11.7130398,8.57689177 10.7373071,8.41874036 9.92363763,8.76298512 L8.10243533,7.01400297" id="Stroke-3031"></path>
                    </g>
                    <path d="M13.2011032,12.5002962 C13.745567,11.5616921 14.1372631,10.8766822 14.3321945,10.5216503 C14.510016,10.2020605 14.7874419,9.9875748 15.0764782,9.9441888 C15.7064918,9.8513061 17.3692143,9.74253558 18.5009166,9.74253558 C19.6326189,9.74253558 21.2935082,9.8513061 21.9247439,9.9441888 C22.2125581,9.9875748 22.4912062,10.2020605 22.6678055,10.5216503 C22.8627369,10.8766822 23.254433,11.5616921 23.7988968,12.5002962 L23.8477824,12.5846239 L23.757955,12.620677 C23.7475668,12.6237324 23.7390119,12.6310652 23.7286237,12.6383981 C23.705403,12.6530638 23.6772937,12.672007 23.644907,12.6775066 C22.4093227,12.9256012 20.2516332,12.9268233 18.5009166,12.9268233 C16.7483668,12.9268233 14.5906773,12.9256012 13.355093,12.6775066 C13.3227063,12.672007 13.2964302,12.6530638 13.2713763,12.6383981 C13.2609881,12.6310652 13.2524332,12.6237324 13.242045,12.620677 L13.1522176,12.5846239 L13.2011032,12.5002962 Z M27.9257951,14.2694002 L27.487125,13.5921129 L27.8101019,13.5921129 C28.9549826,13.5921129 28.9252559,13.0032023 28.9252559,12.3355561 C28.9252559,12.0712292 28.1853014,12.0029381 27.7482382,12.0029381 L27.2902859,12.0029381 C27.0323865,12.0029381 26.8130514,12.1355032 26.6676315,12.3275218 L26.4065183,11.9250059 L26.3414409,11.8141332 C25.6521022,10.6242607 25.177278,9.79592944 24.9306265,9.35002853 C24.5369482,8.63658708 23.8733191,8.14569436 23.1574674,8.03883883 C22.1732717,7.89422232 19.9148438,7.76246061 18.4951917,7.76246061 C17.0747362,7.76246061 14.8147015,7.89422232 13.8305058,8.03883883 C13.1146541,8.14569436 12.4526318,8.63658708 12.0573467,9.35002853 C11.8106952,9.79592944 11.335871,10.6242607 10.6465323,11.8141332 L10.5830617,11.9250059 L10.3388205,12.3018122 C10.1925971,12.1242553 9.97968949,12.0029381 9.733038,12.0029381 L9.27428229,12.0029381 C8.83721905,12.0029381 8.09806799,12.0712292 8.09806799,12.3355561 C8.09806799,13.0032023 8.06753784,13.5921129 9.21322198,13.5921129 L9.50165158,13.5921129 L9.06217807,14.2694002 L8.95291226,14.4027688 C8.67814089,14.7313696 8.50058395,14.9507046 8.4507716,15.0214061 C8.1559146,15.4311528 8.08280292,15.8754469 8.07476867,16.0168497 L8.07476867,16.3221512 L8.07476867,22.3478392 C8.07476867,22.6418928 8.03620427,23.598772 9.49683103,23.598772 L11.5415478,23.598772 C12.1473303,23.598772 12.8246176,23.1416232 12.8246176,22.4852249 L12.8246176,21.8344506 C12.8246176,21.8344506 13.5233335,21.8975276 14.6403488,21.9574688 M22.1237623,21.969148 C23.3704477,21.9060308 24.1633556,21.8344506 24.1633556,21.8344506 L24.1633556,22.4852249 C24.1633556,23.1416232 24.8406429,23.598772 25.4464254,23.598772 L27.4911422,23.598772 C28.9517689,23.598772 28.8915121,22.6418928 28.8915121,22.3478392 L28.8915121,16.3221512 L28.8915121,16.024884 C28.8834778,15.8754469 28.8320586,15.4311528 28.5372016,15.0214061 C28.4873892,14.9507046 28.3098323,14.7313696 28.0350609,14.4027688 L27.9257951,14.2694002" id="Fill-1-Copy-4" stroke="#37618D" stroke-width="0.8" stroke-linecap="round" stroke-linejoin="round"></path>
                </g>
            </g>
        </g>
    </g>
</svg>