<?xml version="1.0" encoding="UTF-8" standalone="no"?>
<svg width="36px" height="37px" viewBox="0 0 36 37" version="1.1" xmlns="http://www.w3.org/2000/svg" xmlns:xlink="http://www.w3.org/1999/xlink">
    <!-- Generator: Sketch 49 (51002) - http://www.bohemiancoding.com/sketch -->
    <title>Group</title>
    <desc>Created with Sketch.</desc>
    <defs>
        <circle id="path-1" cx="18.5178727" cy="18" r="18"></circle>
    </defs>
    <g id="Symbols" stroke="none" stroke-width="1" fill="none" fill-rule="evenodd">
        <g id="36x36_Map-Details_Tow-Shops">
            <g id="Group" transform="translate(-1.000000, 0.000000)">
                <g id="Select_Location_Icon-Copy-3" transform="translate(0.500000, 0.058594)">
                    <mask id="mask-2" fill="white">
                        <use xlink:href="#path-1"></use>
                    </mask>
                    <use id="Oval-2-Copy-19" fill="#F4F4F4" xlink:href="#path-1"></use>
                </g>
                <g id="Group-4" transform="translate(10.517873, 9.500000)" stroke="#37618D" stroke-linecap="round" stroke-linejoin="round" stroke-width="0.8">
                    <g id="Towing_Car">
                        <g id="Group-5">
                            <path d="M5.43385195,15.0940738 C5.43385195,16.1118956 4.60946238,16.9362852 3.59164063,16.9362852 C2.57381887,16.9362852 1.7494293,16.1118956 1.7494293,15.0940738 C1.7494293,14.0771732 2.57381887,13.2518625 3.59164063,13.2518625 C4.60946238,13.2518625 5.43385195,14.0771732 5.43385195,15.0940738 Z" id="Stroke-1"></path>
                            <path d="M15.1158832,15.0940738 C15.1158832,16.1118956 14.2914936,16.9362852 13.2736719,16.9362852 C12.2558501,16.9362852 11.4314605,16.1118956 11.4314605,15.0940738 C11.4314605,14.0771732 12.2558501,13.2518625 13.2736719,13.2518625 C14.2914936,13.2518625 15.1158832,14.0771732 15.1158832,15.0940738 Z" id="Stroke-1"></path>
                            <polyline id="Stroke-9" points="1.35164062 15.4962852 0.351640625 15.4962852 0.351640625 11.5362852 1.79164062 10.0962852 3.59164062 6.85628516 6.83164062 6.85628516 6.83164062 14.0562852"></polyline>
                            <polyline id="Stroke-13" points="15.3247656 15.4632883 16.9116406 15.4962852 16.9116406 11.8962852 6.83164062 11.8962852 6.83164062 15.4962852 11.3247656 15.4962852"></polyline>
                            <polygon id="Stroke-15" points="15.4712806 0.376285156 6.83128062 11.8962852 11.1512806 11.8962852"></polygon>
                            <path d="M16.9112806,9.01628516 C16.9112806,9.81116516 16.2661606,10.2762852 15.4712806,10.2762852 C14.6764006,10.2762852 14.0312806,9.54116516 14.0312806,8.74628516 C14.0312806,7.95140516 14.6764006,7.21628516 15.4712806,7.21628516 L15.4712806,0.376285156" id="Stroke-16"></path>
                        </g>
                    </g>
                </g>
            </g>
        </g>
    </g>
</svg>