<?xml version="1.0" encoding="UTF-8"?>
<svg width="29px" height="22px" viewBox="0 0 29 22" version="1.1" xmlns="http://www.w3.org/2000/svg" xmlns:xlink="http://www.w3.org/1999/xlink">
    <!-- Generator: Sketch 48.1 (47250) - http://www.bohemiancoding.com/sketch -->
    <title>Alert_Battery_Icon</title>
    <desc>Created with Sketch.</desc>
    <defs></defs>
    <g id="Symbols" stroke="none" stroke-width="1" fill="none" fill-rule="evenodd">
        <g id="Alert_Battery_Icon">
            <g transform="translate(0.398438, 0.207140)">
                <g id="Battery_Icon" stroke="#37618D" stroke-linecap="round" stroke-linejoin="round" stroke-width="0.626">
                    <polygon id="Stroke-1" points="0.30602562 13.9952554 19.075597 13.9952554 19.075597 2.57029891 0.30602562 2.57029891"></polygon>
                    <polygon id="Stroke-3" points="2.75423058 2.57029891 6.01850387 2.57029891 6.01850387 0.122093942 2.75423058 0.122093942"></polygon>
                    <polygon id="Stroke-4" points="13.3631188 2.57029891 16.627392 2.57029891 16.627392 0.122093942 13.3631188 0.122093942"></polygon>
                    <path d="M2.34619642,7.46670883 L6.42653803,7.46670883" id="Stroke-6"></path>
                    <path d="M12.9550846,7.46670883 L17.0354262,7.46670883" id="Stroke-7"></path>
                    <path d="M14.9952554,5.42653803 L14.9952554,9.50687964" id="Stroke-8"></path>
                </g>
                <g id="Alert_mini_Icon" transform="translate(13.000000, 7.000000)">
                    <path d="M7.79046306,0.379856375 L14.9330704,12.8794192 C15.0015729,12.9992986 14.9599237,13.1520123 14.8400444,13.2205148 C14.8022699,13.2421001 14.7595164,13.253454 14.7160096,13.253454 L0.43079492,13.253454 C0.292723732,13.253454 0.18079492,13.1415252 0.18079492,13.003454 C0.18079492,12.9599472 0.192148749,12.9171937 0.213734134,12.8794192 L7.35634149,0.379856375 C7.42484398,0.259977013 7.57755764,0.218327831 7.69743701,0.286830324 C7.73619483,0.308977649 7.76831573,0.341098555 7.79046306,0.379856375 Z" id="Triangle-3" fill="#E2231A"></path>
                    <path d="M7.46060955,8.92488306 L7.46060955,4.90529981" id="Stroke-3" stroke="#FFFFFF" stroke-width="0.75" stroke-linecap="round" stroke-linejoin="round"></path>
                    <path d="M7.44591912,10.3505144 C7.05013397,10.3576243 6.73374285,10.6846803 6.73966778,11.0804654 C6.74677769,11.4738806 7.06672377,11.7879017 7.45895396,11.7879017 L7.4719888,11.7879017 C7.86777395,11.7807918 8.18416508,11.4525508 8.17824015,11.0567657 C8.17113023,10.6633505 7.85118416,10.3505144 7.46013895,10.3505144 L7.44591912,10.3505144 Z" id="Fill-5" fill="#FFFFFF"></path>
                </g>
            </g>
        </g>
    </g>
</svg>