<?xml version="1.0" encoding="UTF-8"?>
<svg width="37px" height="13px" viewBox="0 0 37 13" version="1.1" xmlns="http://www.w3.org/2000/svg" xmlns:xlink="http://www.w3.org/1999/xlink">
    <!-- Generator: Sketch 48.1 (47250) - http://www.bohemiancoding.com/sketch -->
    <title>Departure_Icon</title>
    <desc>Created with Sketch.</desc>
    <defs></defs>
    <g id="Symbols" stroke="none" stroke-width="1" fill="none" fill-rule="evenodd">
        <g id="Departure_Icon" stroke="#37618D" stroke-width="0.75">
            <g id="Leave_Icon">
                <g id="Car-Icon" transform="translate(0.018792, 0.768722)">
                    <g id="Page-1" transform="translate(17.784103, 6.285052) scale(-1, 1) translate(-17.784103, -6.285052) translate(0.284103, 0.785052)">
                        <path d="M2.20057881,7.82819876 L12.7974757,7.82819876 L2.20057881,7.82819876 Z M30.371746,3.42444342 L26.1865308,3.42444342 L30.371746,3.42444342 Z M30.371746,8.50881284 L27.2932265,8.50881284 L30.371746,8.50881284 Z M33.4691137,6.1305477 L26.5486926,6.1305477 L33.4691137,6.1305477 Z" id="Stroke-7" stroke-linecap="round" stroke-linejoin="round"></path>
                        <path d="M24.2496656,5.03045895 C23.8305384,4.10786415 23.5482085,3.3559196 22.6839131,3.3559196 L20.0649645,3.3559196 C18.8095266,1.11863987 17.5976403,3.33129489e-13 16.4293055,2.42743049e-13 C12.6374754,-5.09649257e-14 14.4940718,-6.2009176e-14 11.9243942,1.23137591e-13 C10.2112758,2.46568347e-13 8.57860705,1.11863987 7.02638798,3.3559196 L3.33549183,3.3559196 C1.22644101,3.3559196 0.191976857,4.84667932 0.232099377,7.82819876 L2.31976939,7.82819876 L21.5113843,7.82819876 L22.3859203,7.82819876 C21.0072205,7.82819876 21.1376945,7.82819876 22.7773424,7.82819876 C24.4169903,7.82819876 24.9077647,6.89561882 24.2496656,5.03045895 Z" id="Stroke-9" stroke-linecap="round" stroke-linejoin="round"></path>
                        <path d="M21.5911775,7.60677921 C21.5911775,8.89890022 20.5424996,9.94757815 19.2503785,9.94757815 C17.9582575,9.94757815 16.9095796,8.89890022 16.9095796,7.60677921 C16.9095796,6.31465819 17.9582575,5.26598027 19.2503785,5.26598027 C20.5424996,5.26598027 21.5911775,6.31465819 21.5911775,7.60677921 Z" id="Stroke-1" fill="#FFFFFF" stroke-linecap="round" stroke-linejoin="round"></path>
                        <path d="M8.25155696,7.60677921 C8.25155696,8.89890022 7.20287903,9.94757815 5.91075801,9.94757815 C4.618637,9.94757815 3.56995907,8.89890022 3.56995907,7.60677921 C3.56995907,6.31465819 4.618637,5.26598027 5.91075801,5.26598027 C7.20287903,5.26598027 8.25155696,6.31465819 8.25155696,7.60677921 Z" id="Stroke-5" fill="#FFFFFF" stroke-linecap="round" stroke-linejoin="round"></path>
                        <path d="M12.9817832,1.44340075 C12.0506988,1.44340075 11.4096239,1.4888652 11.0585586,1.57979408 C10.7074932,1.67072296 10.083599,2.16098948 9.18687605,3.05059363" id="Path-2"></path>
                    </g>
                </g>
            </g>
        </g>
    </g>
</svg>