<?xml version="1.0" encoding="UTF-8"?>
<svg width="81px" height="81px" viewBox="0 0 81 81" version="1.1" xmlns="http://www.w3.org/2000/svg" xmlns:xlink="http://www.w3.org/1999/xlink">
    <!-- Generator: Sketch 48.1 (47250) - http://www.bohemiancoding.com/sketch -->
    <title>Emergency_Contact_Icon</title>
    <desc>Created with Sketch.</desc>
    <defs></defs>
    <g id="Symbols" stroke="none" stroke-width="1" fill="none" fill-rule="evenodd">
        <g id="Emergency_Contact_Icon">
            <circle id="Oval-4" fill="#F4F4F4" cx="40.8006676" cy="40.3507812" r="40"></circle>
            <g id="emergency_Contact" transform="translate(23.000000, 19.300781)" stroke="#E86056" stroke-linecap="round" stroke-linejoin="round" stroke-width="1.7">
                <path d="M34.4696777,0.883837891 L6.18686523,0.883837891 C4.23535117,0.883837891 2.65151367,2.46767539 2.65151367,4.41918945 C2.65151367,6.37070352 4.23535117,7.95454102 6.18686523,7.95454102 L34.4696777,7.95454102 L34.4696777,41.5403809 L6.18686523,41.5403809 C4.23535117,41.5403809 2.65151367,39.9565434 2.65151367,38.0050293 L2.65151367,4.41918945" id="Stroke-652"></path>
                <path d="M6.18686523,4.41918945 L32.702002,4.41918945" id="Stroke-653"></path>
                <path d="M0.883837891,13.2575684 L4.41918945,13.2575684" id="Stroke-654"></path>
                <path d="M0.883837891,18.5605957 L4.41918945,18.5605957" id="Stroke-655"></path>
                <path d="M0.883837891,23.863623 L4.41918945,23.863623" id="Stroke-656"></path>
                <path d="M0.883837891,29.1666504 L4.41918945,29.1666504" id="Stroke-657"></path>
                <path d="M0.883837891,34.4696777 L4.41918945,34.4696777" id="Stroke-658"></path>
                <g id="phone" transform="translate(8.778047, 14.829805)">
                    <path d="M6.068682,8.109477 C6.700482,7.476867 6.700482,6.450597 6.068682,5.817987 L4.349862,4.099977 C3.718062,3.468177 2.690982,3.468177 2.059182,4.099977 L1.116342,5.042817 C0.299052,5.860107 0.172692,7.135857 0.810162,8.099757 C3.547962,12.239667 7.199442,15.891147 11.340162,18.629757 C12.302442,19.265607 13.581432,19.139247 14.396292,18.322767 L15.339942,17.379927 C15.972552,16.748127 15.972552,15.721857 15.339942,15.089247 L13.621122,13.371237 C12.988512,12.738627 11.963052,12.738627 11.330442,13.371237 L10.757772,13.943907 C8.873712,12.400047 7.039062,10.566207 5.496012,8.682147 L6.068682,8.109477 L6.068682,8.109477 Z" id="Stroke-1"></path>
                    <path d="M9.72,0.405 C14.86512,0.405 19.035,4.57488 19.035,9.72" id="Stroke-3"></path>
                    <path d="M9.72,3.645 C13.07502,3.645 15.795,6.36417 15.795,9.72" id="Stroke-5"></path>
                    <path d="M9.72,6.885 C11.28573,6.885 12.555,8.15346 12.555,9.72" id="Stroke-7"></path>
                </g>
            </g>
        </g>
    </g>
</svg>