<?xml version="1.0" encoding="UTF-8" standalone="no"?>
<svg width="376px" height="670px" viewBox="0 0 376 670" version="1.1" xmlns="http://www.w3.org/2000/svg" xmlns:xlink="http://www.w3.org/1999/xlink">
    <!-- Generator: Sketch 48.2 (47327) - http://www.bohemiancoding.com/sketch -->
    <title>Group 35</title>
    <desc>Created with Sketch.</desc>
    <defs></defs>
    <g id="Grid" stroke="none" stroke-width="1" fill="none" fill-rule="evenodd">
        <g id="Group-35">
            <g id="Group-34">
                <rect id="Rectangle-6" fill="#F1F3F5" x="0.08203125" y="0" width="375" height="667"></rect>
                <g id="Group-33" transform="translate(0.082031, 0.000000)" stroke="#DCDCDC" stroke-linecap="square">
                    <path d="M372.548521,84.8398438 L0.9044298,84.8398438" id="Line-5-Copy-6"></path>
                    <path d="M372.548521,168.839844 L0.9044298,168.839844" id="Line-5-Copy-7"></path>
                    <path d="M372.548521,251.839844 L0.9044298,251.839844" id="Line-5-Copy-8"></path>
                    <path d="M372.548521,335.839844 L0.9044298,335.839844" id="Line-5-Copy-9"></path>
                    <path d="M372.548521,418.839844 L0.9044298,418.839844" id="Line-5-Copy-10"></path>
                    <path d="M372.548521,502.839844 L0.9044298,502.839844" id="Line-5-Copy-11"></path>
                    <path d="M372.548521,585.839844 L0.9044298,585.839844" id="Line-5-Copy-12"></path>
                    <path d="M-298.588798,335.306503 L369.495115,335.306503" id="Line-6" stroke-width="0.5" transform="translate(35.118729, 335.306503) rotate(-270.000000) translate(-35.118729, -335.306503) "></path>
                    <path d="M-281.604695,335.306503 L386.479217,335.306503" id="Line-6-Copy" stroke-width="0.5" transform="translate(52.102831, 335.306503) rotate(-270.000000) translate(-52.102831, -335.306503) "></path>
                    <path d="M-264.620592,335.306503 L403.46332,335.306503" id="Line-6-Copy-4" stroke-width="0.5" transform="translate(69.086934, 335.306503) rotate(-270.000000) translate(-69.086934, -335.306503) "></path>
                    <path d="M-247.63649,335.306503 L420.447423,335.306503" id="Line-6-Copy-5" stroke-width="0.5" transform="translate(86.071037, 335.306503) rotate(-270.000000) translate(-86.071037, -335.306503) "></path>
                    <path d="M-315.5729,335.306503 L352.511012,335.306503" id="Line-6-Copy-3" stroke-width="0.5" transform="translate(18.134626, 335.306503) rotate(-270.000000) translate(-18.134626, -335.306503) "></path>
                    <path d="M-213.668284,335.306503 L454.415628,335.306503" id="Line-6" stroke-width="0.5" transform="translate(120.039242, 335.306503) rotate(-270.000000) translate(-120.039242, -335.306503) "></path>
                    <path d="M-196.684182,335.306503 L471.399731,335.306503" id="Line-6-Copy" stroke-width="0.5" transform="translate(137.023345, 335.306503) rotate(-270.000000) translate(-137.023345, -335.306503) "></path>
                    <path d="M-179.700079,335.306503 L488.383833,335.306503" id="Line-6-Copy-4" stroke-width="0.5" transform="translate(154.007447, 335.306503) rotate(-270.000000) translate(-154.007447, -335.306503) "></path>
                    <path d="M-162.715977,335.306503 L505.367936,335.306503" id="Line-6-Copy-5" stroke-width="0.5" transform="translate(170.991550, 335.306503) rotate(-270.000000) translate(-170.991550, -335.306503) "></path>
                    <path d="M-230.652387,335.306503 L437.431525,335.306503" id="Line-6-Copy-3" stroke-width="0.5" transform="translate(103.055139, 335.306503) rotate(-270.000000) translate(-103.055139, -335.306503) "></path>
                    <path d="M-128.747771,335.306503 L539.336141,335.306503" id="Line-6" stroke-width="0.5" transform="translate(204.959755, 335.306503) rotate(-270.000000) translate(-204.959755, -335.306503) "></path>
                    <path d="M-111.763669,335.306503 L556.320244,335.306503" id="Line-6-Copy" stroke-width="0.5" transform="translate(221.943858, 335.306503) rotate(-270.000000) translate(-221.943858, -335.306503) "></path>
                    <path d="M-94.7795661,335.306503 L573.304346,335.306503" id="Line-6-Copy-4" stroke-width="0.5" transform="translate(238.927960, 335.306503) rotate(-270.000000) translate(-238.927960, -335.306503) "></path>
                    <path d="M-145.731874,335.306503 L522.352038,335.306503" id="Line-6-Copy-3" stroke-width="0.5" transform="translate(187.975652, 335.306503) rotate(-270.000000) translate(-187.975652, -335.306503) "></path>
                    <path d="M-43.8272582,335.306503 L624.256654,335.306503" id="Line-6" stroke-width="0.5" transform="translate(289.880268, 335.306503) rotate(-270.000000) translate(-289.880268, -335.306503) "></path>
                    <path d="M-77.7954635,335.306503 L590.288449,335.306503" id="Line-6-Copy-2" stroke-width="0.5" transform="translate(255.912063, 335.306503) rotate(-270.000000) translate(-255.912063, -335.306503) "></path>
                    <path d="M-26.8431556,335.306503 L641.240757,335.306503" id="Line-6-Copy" stroke-width="0.5" transform="translate(306.864371, 335.306503) rotate(-270.000000) translate(-306.864371, -335.306503) "></path>
                    <path d="M-9.85905297,335.306503 L658.224859,335.306503" id="Line-6-Copy-4" stroke-width="0.5" transform="translate(323.848473, 335.306503) rotate(-270.000000) translate(-323.848473, -335.306503) "></path>
                    <path d="M-60.8113608,335.306503 L607.272551,335.306503" id="Line-6-Copy-3" stroke-width="0.5" transform="translate(272.896166, 335.306503) rotate(-270.000000) translate(-272.896166, -335.306503) "></path>
                    <path d="M7.12504965,335.306503 L675.208962,335.306503" id="Line-6-Copy-2" stroke-width="0.5" transform="translate(340.832576, 335.306503) rotate(-270.000000) translate(-340.832576, -335.306503) "></path>
                    <path d="M24.1091523,335.306503 L692.193065,335.306503" id="Line-6-Copy-3" stroke-width="0.5" transform="translate(357.816679, 335.306503) rotate(-270.000000) translate(-357.816679, -335.306503) "></path>
                    <path d="M1.4044298,52.15 L374.778237,52.15" id="Line-6" stroke-width="0.3"></path>
                    <path d="M1.4044298,35.35 L374.778237,35.35" id="Line-6-Copy" stroke-width="0.3"></path>
                    <path d="M1.4044298,18.55 L374.778237,18.55" id="Line-6-Copy-4" stroke-width="0.3"></path>
                    <path d="M1.4044298,68.95 L374.778237,68.95" id="Line-6-Copy-3" stroke-width="0.3"></path>
                    <path d="M1.4044298,218.739844 L374.778237,218.739844" id="Line-6" stroke-width="0.3"></path>
                    <path d="M1.4044298,201.939844 L374.778237,201.939844" id="Line-6-Copy" stroke-width="0.3"></path>
                    <path d="M1.4044298,185.139844 L374.778237,185.139844" id="Line-6-Copy-4" stroke-width="0.3"></path>
                    <path d="M1.4044298,235.539844 L374.778237,235.539844" id="Line-6-Copy-3" stroke-width="0.3"></path>
                    <path d="M1.4044298,302.739844 L374.778237,302.739844" id="Line-6" stroke-width="0.3"></path>
                    <path d="M1.4044298,285.939844 L374.778237,285.939844" id="Line-6-Copy" stroke-width="0.3"></path>
                    <path d="M1.4044298,269.139844 L374.778237,269.139844" id="Line-6-Copy-4" stroke-width="0.3"></path>
                    <path d="M1.4044298,319.539844 L374.778237,319.539844" id="Line-6-Copy-3" stroke-width="0.3"></path>
                    <path d="M1.4044298,386.15 L374.778237,386.15" id="Line-6" stroke-width="0.3"></path>
                    <path d="M1.4044298,369.35 L374.778237,369.35" id="Line-6-Copy" stroke-width="0.3"></path>
                    <path d="M1.4044298,352.55 L374.778237,352.55" id="Line-6-Copy-4" stroke-width="0.3"></path>
                    <path d="M1.4044298,402.95 L374.778237,402.95" id="Line-6-Copy-3" stroke-width="0.3"></path>
                    <path d="M1.4044298,469.15 L374.778237,469.15" id="Line-6" stroke-width="0.3"></path>
                    <path d="M1.4044298,452.35 L374.778237,452.35" id="Line-6-Copy" stroke-width="0.3"></path>
                    <path d="M1.4044298,435.55 L374.778237,435.55" id="Line-6-Copy-4" stroke-width="0.3"></path>
                    <path d="M1.4044298,485.95 L374.778237,485.95" id="Line-6-Copy-3" stroke-width="0.3"></path>
                    <path d="M1.4044298,553.15 L374.778237,553.15" id="Line-6" stroke-width="0.3"></path>
                    <path d="M1.4044298,536.35 L374.778237,536.35" id="Line-6-Copy" stroke-width="0.3"></path>
                    <path d="M1.4044298,519.55 L374.778237,519.55" id="Line-6-Copy-4" stroke-width="0.3"></path>
                    <path d="M1.4044298,569.95 L374.778237,569.95" id="Line-6-Copy-3" stroke-width="0.3"></path>
                    <path d="M1.4044298,636.15 L374.778237,636.15" id="Line-6" stroke-width="0.3"></path>
                    <path d="M1.4044298,619.35 L374.778237,619.35" id="Line-6-Copy" stroke-width="0.3"></path>
                    <path d="M1.4044298,602.55 L374.778237,602.55" id="Line-6-Copy-4" stroke-width="0.3"></path>
                    <path d="M1.4044298,652.95 L374.778237,652.95" id="Line-6-Copy-3" stroke-width="0.3"></path>
                    <path d="M1.4044298,135.739844 L374.778237,135.739844" id="Line-6" stroke-width="0.3"></path>
                    <path d="M1.4044298,118.939844 L374.778237,118.939844" id="Line-6-Copy" stroke-width="0.3"></path>
                    <path d="M1.4044298,102.139844 L374.778237,102.139844" id="Line-6-Copy-4" stroke-width="0.3"></path>
                    <path d="M1.4044298,152.539844 L374.778237,152.539844" id="Line-6-Copy-3" stroke-width="0.3"></path>
                </g>
            </g>
        </g>
    </g>
</svg>