<?xml version="1.0" encoding="UTF-8"?>
<svg width="81px" height="81px" viewBox="0 0 81 81" version="1.1" xmlns="http://www.w3.org/2000/svg" xmlns:xlink="http://www.w3.org/1999/xlink">
    <!-- Generator: Sketch 48.1 (47250) - http://www.bohemiancoding.com/sketch -->
    <title>Notification_Icon</title>
    <desc>Created with Sketch.</desc>
    <defs></defs>
    <g id="Symbols" stroke="none" stroke-width="1" fill="none" fill-rule="evenodd">
        <g id="Notification_Icon">
            <circle id="Oval-4" fill="#F4F4F4" cx="40.8006676" cy="40.3507812" r="40"></circle>
            <g id="Group" transform="translate(24.000000, 20.800781)" stroke="#E86056" stroke-width="1.7">
                <g id="Black-Notification" transform="translate(0.582791, 0.358687)">
                    <path d="M29.9825218,25.4387727 C29.2938279,24.8767784 28.8234085,24.0940006 28.7537865,23.2083578 L27.9082861,12.541756 C27.9082861,5.78841593 22.4338594,0.313362005 15.6805193,0.313362005 C8.92780646,0.313362005 3.45275253,5.78841593 3.45275253,12.541756 L2.60725217,23.2083578 C2.5376301,24.0940006 2.06721076,24.8767784 1.37851684,25.4387727 C0.633372603,26.0484362 0.19431455,27.0175 0.342339836,28.0800205 C0.546188218,29.5427111 1.90225038,30.5713614 3.37936711,30.5713614 L27.9822987,30.5713614 C29.4587883,30.5713614 30.8148504,29.5427111 31.0186988,28.0800205 C31.1673513,27.0175 30.727666,26.0484362 29.9825218,25.4387727 Z" id="Stroke-1"></path>
                    <path d="M10.9764513,32.5342645 C10.9764513,35.1328609 13.0820483,37.2384579 15.6806448,37.2384579 C18.2792412,37.2384579 20.3848382,35.1328609 20.3848382,32.5342645" id="Stroke-3"></path>
                </g>
            </g>
        </g>
    </g>
</svg>