<?xml version="1.0" encoding="UTF-8"?>
<svg width="81px" height="81px" viewBox="0 0 81 81" version="1.1" xmlns="http://www.w3.org/2000/svg" xmlns:xlink="http://www.w3.org/1999/xlink">
    <!-- Generator: Sketch 48.1 (47250) - http://www.bohemiancoding.com/sketch -->
    <title>Password_Icon</title>
    <desc>Created with Sketch.</desc>
    <defs></defs>
    <g id="Symbols" stroke="none" stroke-width="1" fill="none" fill-rule="evenodd">
        <g id="Password_Icon">
            <circle id="Oval-4" fill="#F4F4F4" cx="40.5" cy="40.5" r="40"></circle>
            <g id="Lock_Icon" transform="translate(25.500000, 20.500000)" stroke="#E86056" stroke-linejoin="round" stroke-width="1.75">
                <path d="M16.0466119,25.3367557 C16.0466119,25.8012629 15.6682497,26.1813142 15.2020534,26.1813142 C14.7358571,26.1813142 14.3574949,25.8012629 14.3574949,25.3367557 C14.3574949,24.8688703 14.7358571,24.4921972 15.2020534,24.4921972 C15.6682497,24.4921972 16.0466119,24.8688703 16.0466119,25.3367557 L16.0466119,25.3367557 Z" id="Stroke-17"></path>
                <path d="M15.2020534,26.1813142 L15.2020534,31.2486654" id="Stroke-19" stroke-linecap="round"></path>
                <polygon id="Stroke-21" points="29.5595483 16.0466119 0.844558524 16.0466119 0.844558524 39.6942506 29.5595483 39.6942506"></polygon>
                <path d="M5.91190966,10.1347023 C5.91190966,5.00316469 10.0705158,0.844558524 15.2020534,0.844558524 C20.333591,0.844558524 24.4921972,5.00316469 24.4921972,10.1347023 L24.4921972,16.0466119 L5.91190966,16.0466119 L5.91190966,10.1347023 L5.91190966,10.1347023 Z" id="Stroke-23"></path>
            </g>
        </g>
    </g>
</svg>