<?xml version="1.0" encoding="UTF-8"?>
<svg width="81px" height="81px" viewBox="0 0 81 81" version="1.1" xmlns="http://www.w3.org/2000/svg" xmlns:xlink="http://www.w3.org/1999/xlink">
    <!-- Generator: Sketch 48.1 (47250) - http://www.bohemiancoding.com/sketch -->
    <title>PhoneNumber_Icon</title>
    <desc>Created with Sketch.</desc>
    <defs></defs>
    <g id="Symbols" stroke="none" stroke-width="1" fill="none" fill-rule="evenodd">
        <g id="PhoneNumber_Icon">
            <circle id="Oval-4" fill="#F4F4F4" cx="40" cy="40.5" r="40"></circle>
            <g id="Phone_Icon" transform="translate(21.450000, 25.450000)">
                <path d="M32.5154226,1.48841565 C34.6425648,1.92277777 36.3661506,3.80039274 36.3661506,5.97066304 L36.3661506,8.28109983 C36.3661506,9.96463811 34.9691065,11.6404749 33.2855682,11.6404749 L28.6646947,11.6404749 C26.9811564,11.6404749 25.5841123,9.96463811 25.5841123,8.28109983 L25.5841123,6.74080863 C21.0171489,6.28796302 16.2915355,6.28796302 11.7214915,6.74080863 L11.7214915,8.28109983 C11.7214915,9.96463811 10.3244474,11.6404749 8.64090911,11.6404749 L4.02003552,11.6404749 C2.33649724,11.6404749 0.939453125,9.96463811 0.939453125,8.28109983 L0.939453125,5.97066304 C0.939453125,3.80039274 2.66303897,1.92277777 4.79018112,1.48841565 C13.6483958,-0.315265336 23.0395512,-0.441569214 32.5154226,1.48841565 L32.5154226,1.48841565 Z" id="Stroke-74" stroke="#E86056" stroke-width="1.75" stroke-linecap="round" stroke-linejoin="round"></path>
                <path d="M29.4348403,15.185498 L29.4348403,26.5199121 C29.4348403,28.0798108 28.0485782,29.3535156 26.3542579,29.3535156 L10.9513459,29.3535156 C9.25702558,29.3535156 7.87076351,28.0798108 7.87076351,26.5199121 L7.87076351,15.185498" id="Stroke-75" stroke="#E86056" stroke-width="1.7" stroke-linecap="round" stroke-linejoin="round"></path>
                <polygon id="Fill-76" fill="#E86056" points="15.0319283 16.2610405 13.4916371 16.2610405 13.4916371 17.8013317 15.0319283 17.8013317"></polygon>
                <polygon id="Fill-77" fill="#E86056" points="19.6528019 16.2610405 18.1125107 16.2610405 18.1125107 17.8013317 19.6528019 17.8013317"></polygon>
                <polygon id="Fill-78" fill="#E86056" points="24.2736755 16.2610405 22.7333843 16.2610405 22.7333843 17.8013317 24.2736755 17.8013317"></polygon>
                <polygon id="Fill-79" fill="#E86056" points="15.0319283 19.3416229 13.4916371 19.3416229 13.4916371 20.881914 15.0319283 20.881914"></polygon>
                <polygon id="Fill-80" fill="#E86056" points="19.6528019 19.3416229 18.1125107 19.3416229 18.1125107 20.881914 19.6528019 20.881914"></polygon>
                <polygon id="Fill-81" fill="#E86056" points="24.2736755 19.3416229 22.7333843 19.3416229 22.7333843 20.881914 24.2736755 20.881914"></polygon>
                <polygon id="Fill-82" fill="#E86056" points="15.0319283 22.4222052 13.4916371 22.4222052 13.4916371 23.9624964 15.0319283 23.9624964"></polygon>
                <polygon id="Fill-83" fill="#E86056" points="19.6528019 22.4222052 18.1125107 22.4222052 18.1125107 23.9624964 19.6528019 23.9624964"></polygon>
                <polygon id="Fill-84" fill="#E86056" points="24.2736755 22.4222052 22.7333843 22.4222052 22.7333843 23.9624964 24.2736755 23.9624964"></polygon>
            </g>
        </g>
    </g>
</svg>