<?xml version="1.0" encoding="UTF-8"?>
<svg width="65px" height="65px" viewBox="0 0 65 65" version="1.1" xmlns="http://www.w3.org/2000/svg" xmlns:xlink="http://www.w3.org/1999/xlink">
    <!-- Generator: Sketch 48.2 (47327) - http://www.bohemiancoding.com/sketch -->
    <title>Preferred_Service_Center_Icon</title>
    <desc>Created with Sketch.</desc>
    <defs></defs>
    <g id="Car-Settings:-Preferred-Service-Center-Request" stroke="none" stroke-width="1" fill="none" fill-rule="evenodd" transform="translate(-24.000000, -1468.000000)">
        <g id="Preferred-Service-Center" transform="translate(0.000000, 1367.578125)">
            <g id="Preferred_Service_Center_Icon" transform="translate(24.000000, 100.779688)">
                <g id="Your_Name_Icon" fill="#F4F4F4">
                    <circle id="Oval-4" cx="32.4" cy="32.4" r="32"></circle>
                </g>
                <g id="Group-Copy-3" stroke-linecap="round" stroke-linejoin="round" transform="translate(20.400000, 28.459375)" stroke="#37618D">
                    <path d="M3.59259676,22.763472 C3.00131416,23.3557637 2.0417412,23.3557637 1.45247663,22.763472 C0.861194028,22.1731985 0.861194028,21.2156435 1.45247663,20.6243609 L8.08170307,13.9931165 L10.2218232,16.1332366 L3.59259676,22.763472 L3.59259676,22.763472 Z" id="Stroke-3026"></path>
                    <path d="M8.02391018,13.9852694 L10.2257392,16.1870984" id="Stroke-3027"></path>
                    <path d="M19.9280399,4.28831238 L9.14369101,15.0726613" id="Stroke-3028"></path>
                    <polygon id="Stroke-3029" points="18.6249983 2.98678435 22.1979193 0.504608241 23.7114413 2.01813026 21.1223097 5.48207765"></polygon>
                    <path d="M11.5468366,9.14124565 L8.21802095,6.12320558 C8.50772077,5.43846055 8.60058035,4.68992877 8.49578237,3.96455374 C8.37573553,3.13363141 7.99632506,2.33309506 7.35632241,1.69363114 C6.159631,0.497948744 4.47356748,0.211388575 3.00343309,0.832941617 L4.88928153,2.96095357 L2.87125217,4.97898293 L0.788645873,3.04772884 C0.166083816,4.51786322 0.452643985,6.24126029 1.64933539,7.43896072 C2.84703582,8.63767015 4.60978446,8.90304101 6.07790082,8.28047896 L9.34500757,11.3430746" id="Stroke-3030"></path>
                    <path d="M12.4275681,14.866001 L15.7775589,17.9631856 C15.1560059,19.432311 15.440548,21.1940506 16.6392575,22.391751 C17.8359489,23.5884424 19.5976885,23.8729846 21.0678229,23.2524406 L19.015487,21.1224106 L21.0335164,19.1043812 L23.206934,21.1113114 C23.8294961,19.642186 23.5429359,17.8814554 22.3462445,16.683755 C21.1485441,15.4860546 19.3868044,15.2005034 17.9176791,15.8220565 L14.6293971,12.664172" id="Stroke-3031"></path>
                </g>
                <path d="M22.8325475,23.5171303 C23.815607,21.8224285 24.5228361,20.5856051 24.8747956,19.9445753 C25.1958622,19.3675381 25.6967702,18.9802723 26.2186412,18.9019364 C27.3561657,18.7342316 30.3583035,18.5378403 32.401655,18.5378403 C34.4450064,18.5378403 37.4438343,18.7342316 38.5835654,18.9019364 C39.1032298,18.9802723 39.6063444,19.3675381 39.9252044,19.9445753 C40.2771639,20.5856051 40.984393,21.8224285 41.9674525,23.5171303 L42.0557182,23.6693887 L41.8935299,23.7344846 C41.8747735,23.7400013 41.859327,23.7532411 41.8405705,23.766481 C41.7986443,23.7929607 41.7478915,23.8271636 41.6894154,23.8370935 C39.4584994,24.2850421 35.5626711,24.2872487 32.401655,24.2872487 C29.2373289,24.2872487 25.3415006,24.2850421 23.1105846,23.8370935 C23.0521085,23.8271636 23.0046657,23.7929607 22.9594295,23.766481 C22.940673,23.7532411 22.9252265,23.7400013 22.9064701,23.7344846 L22.7442818,23.6693887 L22.8325475,23.5171303 Z M49.4187968,26.7113459 L48.6267535,25.488466 L49.2099062,25.488466 C51.277052,25.488466 51.2233787,24.4251552 51.2233787,23.2196829 C51.2233787,22.7424261 49.8873498,22.6191226 49.0982078,22.6191226 L48.2713495,22.6191226 C47.8056978,22.6191226 47.4096762,22.8584764 47.1471124,23.2051766 L46.6756581,22.4784117 L46.5581572,22.2782249 C45.3135179,20.129844 44.4561964,18.6342459 44.0108534,17.8291471 C43.3000454,16.5409889 42.1018262,15.6546548 40.8093161,15.4617212 C39.0322961,15.2006081 34.9545791,14.962705 32.3913184,14.962705 C29.8266071,14.962705 25.7459889,15.2006081 23.9689688,15.4617212 C22.6764588,15.6546548 21.4811408,16.5409889 20.7674316,17.8291471 C20.3220886,18.6342459 19.4647671,20.129844 18.2201278,22.2782249 L18.1055281,22.4784117 L17.664537,23.1587565 C17.4005226,22.8381676 17.016106,22.6191226 16.5707631,22.6191226 L15.7424541,22.6191226 C14.9533122,22.6191226 13.6187339,22.7424261 13.6187339,23.2196829 C13.6187339,24.4251552 13.56361,25.488466 15.6322064,25.488466 L16.152982,25.488466 L15.3594882,26.7113459 L15.1622027,26.9521502 C14.6660877,27.5454573 14.3454988,27.9414789 14.2555598,28.0691342 C13.7231791,28.8089548 13.5911719,29.6111524 13.5766657,29.8664631 L13.5766657,30.4177019 L13.5766657,41.2974163 C13.5766657,41.8283464 13.5070355,43.556045 16.1442782,43.556045 L19.836128,43.556045 C20.929902,43.556045 22.1527819,42.7306374 22.1527819,41.5454738 L22.1527819,40.3704647 C22.1527819,40.3704647 23.4143522,40.4843536 25.4311853,40.5925809 M38.9429042,40.6136684 C41.1938639,40.4997067 42.6255031,40.3704647 42.6255031,40.3704647 L42.6255031,41.5454738 C42.6255031,42.7306374 43.848383,43.556045 44.9421569,43.556045 L48.6340067,43.556045 C51.2712495,43.556045 51.1624523,41.8283464 51.1624523,41.2974163 L51.1624523,30.4177019 L51.1624523,29.8809693 C51.147946,29.6111524 51.0551058,28.8089548 50.5227251,28.0691342 C50.4327861,27.9414789 50.1121972,27.5454573 49.6160822,26.9521502 L49.4187968,26.7113459" id="Fill-1-Copy-4" stroke="#37618D" stroke-linecap="round" stroke-linejoin="round"></path>
            </g>
        </g>
    </g>
</svg>