<?xml version="1.0" encoding="UTF-8" standalone="no"?>
<svg width="373px" height="257px" viewBox="0 0 373 257" version="1.1" xmlns="http://www.w3.org/2000/svg" xmlns:xlink="http://www.w3.org/1999/xlink">
    <!-- Generator: Sketch 48.2 (47327) - http://www.bohemiancoding.com/sketch -->
    <title>Group 70</title>
    <desc>Created with Sketch.</desc>
    <defs>
        <ellipse id="path-1" cx="142.180858" cy="49.2946092" rx="141.970859" ry="22.2824218"></ellipse>
        <filter x="-5.3%" y="-33.7%" width="110.6%" height="167.3%" filterUnits="objectBoundingBox" id="filter-2">
            <feOffset dx="0" dy="0" in="SourceAlpha" result="shadowOffsetOuter1"></feOffset>
            <feGaussianBlur stdDeviation="5" in="shadowOffsetOuter1" result="shadowBlurOuter1"></feGaussianBlur>
            <feComposite in="shadowBlurOuter1" in2="SourceAlpha" operator="out" result="shadowBlurOuter1"></feComposite>
            <feColorMatrix values="0 0 0 0 1   0 0 0 0 1   0 0 0 0 1  0 0 0 0.6 0" type="matrix" in="shadowBlurOuter1"></feColorMatrix>
        </filter>
        <path d="M26.0530256,37.0773238 L57.1479421,37.0773238 M76.696212,37.0773238 L83.7356481,37.0773238 C83.6248733,37.0773238 83.4464053,35.8715336 83.2002441,33.4599533 L83.2002441,22.6078419 C83.2002441,18.6142649 79.9554628,15.373101 75.9655032,15.373101 L71.657215,15.373101 L62.3751087,1.90201339 C62.0676322,1.28706041 61.4418271,0.903619142 60.7581441,0.903619142 L31.4862497,0.903619142 C30.7989493,0.903619142 30.1767616,1.28706041 29.8692851,1.90201339 L20.5835614,15.373101 L7.2354644,15.373101 C3.24188741,15.373101 0.000723474093,18.6142649 0.000723474093,22.6078419 L0.000723474093,35.2686385 C0.000723474093,36.2670328 0.811014458,37.0773238 1.80940871,37.0773238" id="path-3"></path>
        <mask id="mask-4" maskContentUnits="userSpaceOnUse" maskUnits="objectBoundingBox" x="0" y="0" width="83.7349247" height="37.4469859" fill="white">
            <use xlink:href="#path-3"></use>
        </mask>
        <path d="M0.673401645,10.6794972 C0.673401645,16.347471 5.27379583,20.9472372 10.940737,20.9472372 C16.6084874,20.9472372 21.2088816,16.347471 21.2088816,10.6794972 C21.2088816,5.0115235 16.6084874,0.41175727 10.940737,0.41175727 C5.27379583,0.41175727 0.673401645,5.0115235 0.673401645,10.6794972" id="path-5"></path>
        <mask id="mask-6" maskContentUnits="userSpaceOnUse" maskUnits="objectBoundingBox" x="0" y="0" width="20.5354799" height="20.5354799" fill="white">
            <use xlink:href="#path-5"></use>
        </mask>
        <path d="M15.7327536,10.6797591 C15.7327536,13.3263149 13.5874355,15.4711092 10.9414035,15.4711092 C8.29484773,15.4711092 6.14952962,13.3263149 6.14952962,10.6797591 C6.14952962,8.03320335 8.29484773,5.88788525 10.9414035,5.88788525 C13.5874355,5.88788525 15.7327536,8.03320335 15.7327536,10.6797591" id="path-7"></path>
        <mask id="mask-8" maskContentUnits="userSpaceOnUse" maskUnits="objectBoundingBox" x="0" y="0" width="9.58322396" height="9.58322396" fill="white">
            <use xlink:href="#path-7"></use>
        </mask>
        <path d="M0.798988955,10.4638385 C0.798988955,16.1318122 5.39938314,20.7315784 11.0663243,20.7315784 C16.7340747,20.7315784 21.3344689,16.1318122 21.3344689,10.4638385 C21.3344689,4.79586475 16.7340747,0.196098517 11.0663243,0.196098517 C5.39938314,0.196098517 0.798988955,4.79586475 0.798988955,10.4638385" id="path-9"></path>
        <mask id="mask-10" maskContentUnits="userSpaceOnUse" maskUnits="objectBoundingBox" x="0" y="0" width="20.5354799" height="20.5354799" fill="white">
            <use xlink:href="#path-9"></use>
        </mask>
        <path d="M15.8583409,9.19081911 C15.8583409,11.8373749 13.7130228,13.9821692 11.0669908,13.9821692 C8.42043504,13.9821692 6.27511693,11.8373749 6.27511693,9.19081911 C6.27511693,6.54426335 8.42043504,4.39894525 11.0669908,4.39894525 C13.7130228,4.39894525 15.8583409,6.54426335 15.8583409,9.19081911" id="path-11"></path>
        <mask id="mask-12" maskContentUnits="userSpaceOnUse" maskUnits="objectBoundingBox" x="0" y="0" width="9.58322396" height="9.58322396" fill="white">
            <use xlink:href="#path-11"></use>
        </mask>
        <polygon id="path-13" points="148.499534 4.4016065 141.16996 15.5321238 159.202495 15.4098627 159.202495 4.27934392"></polygon>
        <mask id="mask-14" maskContentUnits="userSpaceOnUse" maskUnits="objectBoundingBox" x="0" y="0" width="18.0325348" height="11.2527799" fill="white">
            <use xlink:href="#path-13"></use>
        </mask>
        <polygon id="path-15" points="126.901872 4.4016065 119.47016 15.5321238 136.659456 15.4098627 136.659456 4.27934392"></polygon>
        <mask id="mask-16" maskContentUnits="userSpaceOnUse" maskUnits="objectBoundingBox" x="0" y="0" width="17.1892968" height="11.2527799" fill="white">
            <use xlink:href="#path-15"></use>
        </mask>
        <rect id="path-17" x="140.889248" y="19.3675262" width="5.61645725" height="1.87215242" rx="0.936076208"></rect>
        <rect id="path-18" x="130.816307" y="19.4149323" width="5.61645725" height="1.87215242" rx="0.936076208"></rect>
    </defs>
    <g id="SureDrive--Copy-3" stroke="none" stroke-width="1" fill="none" fill-rule="evenodd" transform="translate(-2639.000000, -3077.000000)">
        <g id="Group-44-Copy" transform="translate(2638.000000, 3000.533125)">
            <g id="Group-41-Copy-3" transform="translate(0.000000, 0.316406)">
                <g id="Group-70" transform="translate(1.000000, 76.000000)">
                    <path d="M175.980204,0.334247294 L175.980204,5.16673801 L169.075163,5.16673801 L169.075163,9.99922873 L163.463603,9.99922873 L163.463603,59.9357716 L158.716953,59.9357716 L158.716953,29.3279835 L139.726471,29.3279835 L139.726471,59.1299538 L125.051478,59.1299538 L125.051478,82.0842847 L118.146437,82.0842847 L118.146437,35.773318 L88.3665849,35.773318 L88.3665849,70.0030579 L70.2397184,70.0030579 L70.2397184,45.8393962 L52.5453073,45.8393962 L52.5453073,88.2179235 L39.5975456,88.2179235 L39.5975456,61.1426861 L0.321805148,61.1426861 L0.489128706,256.193901 L372.345366,256.193901 L372.178043,59.1299538 L329.194953,59.1299538 L329.194953,75.6401583 L289.056892,75.6401583 L289.056892,41.8127233 L248.056509,41.8127233 L248.056509,90.1388386 L235.108748,90.1388386 L235.108748,21.6769426 L211.370321,21.6769426 L211.370321,59.9357716 L204.034119,59.9357716 L204.034119,9.19341091 L197.560239,9.19341091 L197.560239,4.36212831 L191.086358,4.36212831 L191.086358,0.334247294 L175.980204,0.334247294 Z M166.37167,15.6363292 L169.666875,15.6363292 L169.666875,12.5628651 L166.37167,12.5628651 L166.37167,15.6363292 Z M227.97971,28.4726326 L231.273621,28.4726326 L231.273621,25.4003767 L227.97971,25.4003767 L227.97971,28.4726326 Z M221.886493,28.4726326 L225.181699,28.4726326 L225.181699,25.4003767 L221.886493,25.4003767 L221.886493,28.4726326 Z M215.793277,28.4726326 L219.087187,28.4726326 L219.087187,25.4003767 L215.793277,25.4003767 L215.793277,28.4726326 Z M215.793277,33.7581694 L219.087187,33.7581694 L219.087187,30.6859134 L215.793277,30.6859134 L215.793277,33.7581694 Z M97.8042084,42.3660435 L101.099414,42.3660435 L101.099414,39.2925794 L97.8042084,39.2925794 L97.8042084,42.3660435 Z M92.0359805,42.3660435 L95.3298911,42.3660435 L95.3298911,39.2925794 L92.0359805,39.2925794 L92.0359805,42.3660435 Z M92.0359805,47.8025955 L95.3298911,47.8025955 L95.3298911,44.7291314 L92.0359805,44.7291314 L92.0359805,47.8025955 Z M264.744879,52.9371169 L268.037495,52.9371169 L268.037495,49.8648609 L264.744879,49.8648609 L264.744879,52.9371169 Z M258.651663,52.9371169 L261.946868,52.9371169 L261.946868,49.8648609 L258.651663,49.8648609 L258.651663,52.9371169 Z M252.558446,52.9371169 L255.852357,52.9371169 L255.852357,49.8648609 L252.558446,49.8648609 L252.558446,52.9371169 Z M264.744879,58.6756996 L268.037495,58.6756996 L268.037495,55.6022355 L264.744879,55.6022355 L264.744879,58.6756996 Z M258.651663,58.6756996 L261.946868,58.6756996 L261.946868,55.6022355 L258.651663,55.6022355 L258.651663,58.6756996 Z M357.2411,64.9676025 L360.536305,64.9676025 L360.536305,61.8941385 L357.2411,61.8941385 L357.2411,64.9676025 Z M351.149178,64.9676025 L354.443088,64.9676025 L354.443088,61.8941385 L351.149178,61.8941385 L351.149178,64.9676025 Z M345.055961,64.9676025 L348.351166,64.9676025 L348.351166,61.8941385 L345.055961,61.8941385 L345.055961,64.9676025 Z M338.847509,64.9676025 L342.14142,64.9676025 L342.14142,61.8941385 L338.847509,61.8941385 L338.847509,64.9676025 Z M138.963848,67.2098782 L142.257759,67.2098782 L142.257759,64.1364141 L138.963848,64.1364141 L138.963848,67.2098782 Z M133.194325,67.2098782 L136.489531,67.2098782 L136.489531,64.1364141 L133.194325,64.1364141 L133.194325,67.2098782 Z M33.3606087,68.3914222 L36.6545193,68.3914222 L36.6545193,65.31675 L33.3606087,65.31675 L33.3606087,68.3914222 Z M27.2686868,68.3914222 L30.5613026,68.3914222 L30.5613026,65.31675 L27.2686868,65.31675 L27.2686868,68.3914222 Z M21.1754702,68.3914222 L24.4693808,68.3914222 L24.4693808,65.31675 L21.1754702,65.31675 L21.1754702,68.3914222 Z M357.2411,71.2099724 L360.536305,71.2099724 L360.536305,68.1365083 L357.2411,68.1365083 L357.2411,71.2099724 Z M351.149178,71.2099724 L354.443088,71.2099724 L354.443088,68.1365083 L351.149178,68.1365083 L351.149178,71.2099724 Z M345.055961,71.2099724 L348.351166,71.2099724 L348.351166,68.1365083 L345.055961,68.1365083 L345.055961,71.2099724 Z M133.194325,72.6464303 L136.489531,72.6464303 L136.489531,69.5729662 L133.194325,69.5729662 L133.194325,72.6464303 Z M357.2411,76.6465245 L360.536305,76.6465245 L360.536305,73.5730604 L357.2411,73.5730604 L357.2411,76.6465245 Z M8.46465249,91.2913876 L11.7585631,91.2913876 L11.7585631,88.2179235 L8.46465249,88.2179235 L8.46465249,91.2913876 Z M2.69512987,91.2913876 L5.98904045,91.2913876 L5.98904045,88.2179235 L2.69512987,88.2179235 L2.69512987,91.2913876 Z" id="Page-1" fill="#E14A43"></path>
                    <g id="Stolen_Car_Illust" transform="translate(35.846281, 92.409532)">
                        <g id="Oval-9">
                            <use fill="black" fill-opacity="1" filter="url(#filter-2)" xlink:href="#path-1"></use>
                            <use fill-opacity="0" fill="#FFFFFF" fill-rule="evenodd" xlink:href="#path-1"></use>
                        </g>
                        <g id="Group-2" transform="translate(93.159531, 41.487057)" fill="#E2231A">
                            <ellipse id="Oval-2" cx="48.7480054" cy="5.12704488" rx="48.6423131" ry="4.92991704"></ellipse>
                        </g>
                        <g id="Group-3" transform="translate(143.705267, 19.705234) scale(-1, 1) translate(-143.705267, -19.705234) translate(101.705267, 0.205234)" stroke="#FFFFFF" stroke-dasharray="1,4" stroke-linecap="square" stroke-width="2">
                            <use id="Fill-1" mask="url(#mask-4)" xlink:href="#path-3"></use>
                        </g>
                        <g id="Group-24" transform="translate(171.414506, 36.630500) scale(-1, 1) translate(-171.414506, -36.630500) translate(160.414506, 26.130500)" stroke="#FFFFFF" stroke-dasharray="1,4" stroke-linecap="square" stroke-width="2">
                            <use id="Fill-6" mask="url(#mask-6)" xlink:href="#path-5"></use>
                            <use id="Fill-10" mask="url(#mask-8)" xlink:href="#path-7"></use>
                        </g>
                        <g id="Group-23" transform="translate(118.888235, 36.434401) scale(-1, 1) translate(-118.888235, -36.434401) translate(107.888235, 25.934401)" stroke="#FFFFFF" stroke-dasharray="1,4" stroke-linecap="square" stroke-width="2">
                            <use id="Fill-6-Copy-2" mask="url(#mask-10)" xlink:href="#path-9"></use>
                            <use id="Fill-10-Copy-2" mask="url(#mask-12)" xlink:href="#path-11"></use>
                        </g>
                        <use id="Path-7" stroke="#FFFFFF" mask="url(#mask-14)" stroke-width="2" stroke-linecap="round" stroke-linejoin="round" stroke-dasharray="1,3" transform="translate(150.186228, 9.905734) scale(-1, 1) translate(-150.186228, -9.905734) " xlink:href="#path-13"></use>
                        <use id="Path-7" stroke="#FFFFFF" mask="url(#mask-16)" stroke-width="2" stroke-linecap="round" stroke-linejoin="round" stroke-dasharray="1,3" xlink:href="#path-15"></use>
                        <g id="Rectangle-9" transform="translate(143.697477, 20.303602) scale(-1, 1) translate(-143.697477, -20.303602) ">
                            <use fill="#FFFFFF" fill-rule="evenodd" xlink:href="#path-17"></use>
                            <rect stroke="#FFFFFF" stroke-width="1" x="141.389248" y="19.8675262" width="4.61645725" height="1" rx="0.5"></rect>
                        </g>
                        <g id="Rectangle-9-Copy" transform="translate(133.624535, 20.351008) scale(-1, 1) translate(-133.624535, -20.351008) ">
                            <use fill="#FFFFFF" fill-rule="evenodd" xlink:href="#path-18"></use>
                            <rect stroke="#FFFFFF" stroke-width="1" x="131.316307" y="19.9149323" width="4.61645725" height="1" rx="0.5"></rect>
                        </g>
                    </g>
                </g>
            </g>
        </g>
    </g>
</svg>