<?xml version="1.0" encoding="UTF-8" standalone="no"?>
<svg width="36px" height="36px" viewBox="0 0 36 36" version="1.1" xmlns="http://www.w3.org/2000/svg" xmlns:xlink="http://www.w3.org/1999/xlink">
    <!-- Generator: Sketch 48.2 (47327) - http://www.bohemiancoding.com/sketch -->
    <title>Select_Gym_Icon</title>
    <desc>Created with Sketch.</desc>
    <defs>
        <circle id="path-1" cx="18.5" cy="18" r="18"></circle>
    </defs>
    <g id="Select_Gym_Icon" stroke="none" stroke-width="1" fill="none" fill-rule="evenodd">
        <g transform="translate(-0.500000, 0.000000)">
            <mask id="mask-2" fill="white">
                <use xlink:href="#path-1"></use>
            </mask>
            <use id="Oval-2-Copy-24" fill="#2B648F" opacity="0.6" xlink:href="#path-1"></use>
            <g id="Gym_Icon" mask="url(#mask-2)" stroke="#FFFFFF" stroke-linecap="round" stroke-linejoin="round">
                <g transform="translate(8.000000, 11.500000)">
                    <path d="M8.18945312,6.71859375 L12.6894531,6.71859375" id="Stroke-412"></path>
                    <path d="M3.68945312,11.2185938 C3.68945312,11.7153938 4.09265313,12.1185938 4.58945313,12.1185938 L7.28945312,12.1185938 C7.78715312,12.1185938 8.18945312,11.7153938 8.18945312,11.2185938 L8.18945312,1.31859375 C8.18945312,0.82089375 7.78715312,0.41859375 7.28945312,0.41859375 L4.58945313,0.41859375 C4.09265313,0.41859375 3.68945312,0.82089375 3.68945312,1.31859375 L3.68945312,11.2185938 L3.68945312,11.2185938 Z" id="Stroke-413"></path>
                    <path d="M0.989453125,8.51859375 C0.989453125,9.01539375 1.39265312,9.41859375 1.88945312,9.41859375 L3.68945312,9.41859375 L3.68945312,3.11859375 L1.88945312,3.11859375 C1.39265312,3.11859375 0.989453125,3.52089375 0.989453125,4.01859375 L0.989453125,8.51859375 L0.989453125,8.51859375 Z" id="Stroke-414"></path>
                    <path d="M0.989453125,6.26859375 L0.089453125,6.26859375" id="Stroke-415"></path>
                    <path d="M17.1894531,11.2185938 C17.1894531,11.7153938 16.7871531,12.1185938 16.2894531,12.1185938 L13.5894531,12.1185938 C13.0926531,12.1185938 12.6894531,11.7153938 12.6894531,11.2185938 L12.6894531,1.31859375 C12.6894531,0.82089375 13.0926531,0.41859375 13.5894531,0.41859375 L16.2894531,0.41859375 C16.7871531,0.41859375 17.1894531,0.82089375 17.1894531,1.31859375 L17.1894531,11.2185938 L17.1894531,11.2185938 Z" id="Stroke-416"></path>
                    <path d="M19.8894531,8.51859375 C19.8894531,9.01539375 19.4871531,9.41859375 18.9894531,9.41859375 L17.1894531,9.41859375 L17.1894531,3.11859375 L18.9894531,3.11859375 C19.4871531,3.11859375 19.8894531,3.52089375 19.8894531,4.01859375 L19.8894531,8.51859375 L19.8894531,8.51859375 Z" id="Stroke-417"></path>
                    <path d="M19.8894531,6.26859375 L20.7894531,6.26859375" id="Stroke-418"></path>
                </g>
            </g>
        </g>
    </g>
</svg>