<?xml version="1.0" encoding="UTF-8" standalone="no"?>
<svg width="37px" height="37px" viewBox="0 0 37 37" version="1.1" xmlns="http://www.w3.org/2000/svg" xmlns:xlink="http://www.w3.org/1999/xlink">
    <!-- Generator: Sketch 48.2 (47327) - http://www.bohemiancoding.com/sketch -->
    <title>Select_People_Icon</title>
    <desc>Created with Sketch.</desc>
    <defs>
        <circle id="path-1" cx="18" cy="18.0564453" r="18"></circle>
    </defs>
    <g id="Select_People_Icon" stroke="none" stroke-width="1" fill="none" fill-rule="evenodd">
        <g transform="translate(0.075000, 0.000000)">
            <mask id="mask-2" fill="white">
                <use xlink:href="#path-1"></use>
            </mask>
            <use id="Oval-2-Copy-22" fill="#2B648F" opacity="0.6" xlink:href="#path-1"></use>
            <g id="People_Icon" transform="translate(9.000000, 8.556445)" stroke="#FFFFFF" stroke-linecap="round" stroke-linejoin="round">
                <path d="M7.18945313,10.5497988 L7.18945313,12.9968988 L2.68135313,14.6069988 C1.60675313,14.9912988 0.889453125,16.0082988 0.889453125,17.1494988 L0.889453125,18.8468988 L17.9894531,18.8468988 L17.9894531,17.1494988 C17.9894531,16.0082988 17.2721531,14.9912988 16.1975531,14.6069988 L11.6894531,12.9968988 L11.6894531,10.3814988" id="Stroke-437"></path>
                <path d="M13.8269531,5.79671875 C13.8269531,8.77841875 11.8118531,11.1967188 9.32695313,11.1967188 C6.84115313,11.1967188 4.82695313,8.77841875 4.82695313,5.79671875 C4.82695313,2.81501875 6.84115313,0.39671875 9.32695313,0.39671875 C11.8118531,0.39671875 13.8269531,2.81501875 13.8269531,5.79671875 L13.8269531,5.79671875 Z" id="Stroke-438"></path>
                <path d="M13.7847431,5.30450875 C13.6335431,5.32250875 13.5291431,5.31710875 13.3770431,5.34680875 C11.8443431,5.64200875 10.8597431,5.08670875 10.0155431,3.60980875 C9.50974312,4.58000875 7.92664312,5.34680875 6.62704312,5.34680875 C5.98714312,5.34680875 5.43634312,5.21540875 4.88464312,4.92740875" id="Stroke-439"></path>
            </g>
        </g>
    </g>
</svg>