<?xml version="1.0" encoding="UTF-8" standalone="no"?>
<!DOCTYPE svg PUBLIC "-//W3C//DTD SVG 1.1//EN"
 "http://www.w3.org/Graphics/SVG/1.1/DTD/svg11.dtd">
<!-- Generated by graphviz version 2.40.1 (20161225.0304)
 -->
<!-- Title: dependencies Pages: 1 -->
<svg width="612pt" height="211pt"
 viewBox="0.00 0.00 612.00 211.00" xmlns="http://www.w3.org/2000/svg" xmlns:xlink="http://www.w3.org/1999/xlink">
<g id="graph0" class="graph" transform="scale(1 1) rotate(0) translate(4 207)">
<title>dependencies</title>
<polygon fill="#ffffff" stroke="transparent" points="-4,4 -4,-207 608,-207 608,4 -4,4"/>
<text text-anchor="start" x="281.0091" y="-42.4" font-family="sans-serif" font-weight="bold" font-size="14.00" fill="#000000">Legend</text>
<polygon fill="#ffffb3" stroke="transparent" points="68,-10 68,-30 88,-30 88,-10 68,-10"/>
<text text-anchor="start" x="91.629" y="-15.4" font-family="sans-serif" font-size="14.00" fill="#000000"> &#160;Declarations</text>
<polygon fill="#8dd3c7" stroke="transparent" points="181,-10 181,-30 201,-30 201,-10 181,-10"/>
<text text-anchor="start" x="204.7251" y="-15.4" font-family="sans-serif" font-size="14.00" fill="#000000"> &#160;Module</text>
<polygon fill="#80b1d3" stroke="transparent" points="267,-10 267,-30 287,-30 287,-10 267,-10"/>
<text text-anchor="start" x="290.7812" y="-15.4" font-family="sans-serif" font-size="14.00" fill="#000000"> &#160;Bootstrap</text>
<polygon fill="#fdb462" stroke="transparent" points="364,-10 364,-30 384,-30 384,-10 364,-10"/>
<text text-anchor="start" x="387.6732" y="-15.4" font-family="sans-serif" font-size="14.00" fill="#000000"> &#160;Providers</text>
<polygon fill="#fb8072" stroke="transparent" points="460,-10 460,-30 480,-30 480,-10 460,-10"/>
<text text-anchor="start" x="483.7258" y="-15.4" font-family="sans-serif" font-size="14.00" fill="#000000"> &#160;Exports</text>
<g id="clust1" class="cluster">
<title>cluster_LoginPageModule</title>
<polygon fill="none" stroke="#000000" stroke-dasharray="1,5" points="8,-70 8,-195 596,-195 596,-70 8,-70"/>
</g>
<g id="clust2" class="cluster">
<title>cluster_LoginPageModule_declarations</title>
<polygon fill="none" stroke="#000000" points="174,-78 174,-130 588,-130 588,-78 174,-78"/>
</g>
<g id="clust9" class="cluster">
<title>cluster_LoginPageModule_providers</title>
<polygon fill="none" stroke="#000000" points="16,-78 16,-130 166,-130 166,-78 16,-78"/>
</g>
<!-- LoginComponent -->
<g id="node1" class="node">
<title>LoginComponent</title>
<polygon fill="#ffffb3" stroke="#000000" points="580.2758,-122 465.7242,-122 465.7242,-86 580.2758,-86 580.2758,-122"/>
<text text-anchor="middle" x="523" y="-99.8" font-family="Times,serif" font-size="14.00" fill="#000000">LoginComponent</text>
</g>
<!-- LoginPageModule -->
<g id="node4" class="node">
<title>LoginPageModule</title>
<polygon fill="#8dd3c7" stroke="#000000" points="399.205,-187 396.205,-191 375.205,-191 372.205,-187 278.795,-187 278.795,-151 399.205,-151 399.205,-187"/>
<text text-anchor="middle" x="339" y="-164.8" font-family="Times,serif" font-size="14.00" fill="#000000">LoginPageModule</text>
</g>
<!-- LoginComponent&#45;&gt;LoginPageModule -->
<g id="edge1" class="edge">
<title>LoginComponent&#45;&gt;LoginPageModule</title>
<path fill="none" stroke="#000000" d="M523,-122.1061C523,-141.3391 523,-169 523,-169 523,-169 409.2485,-169 409.2485,-169"/>
<polygon fill="#000000" stroke="#000000" points="409.2485,-165.5001 399.2485,-169 409.2484,-172.5001 409.2485,-165.5001"/>
</g>
<!-- focusinput -->
<g id="node2" class="node">
<title>focusinput</title>
<polygon fill="#ffffb3" stroke="#000000" points="447.6011,-122 372.3989,-122 372.3989,-86 447.6011,-86 447.6011,-122"/>
<text text-anchor="middle" x="410" y="-99.8" font-family="Times,serif" font-size="14.00" fill="#000000">focusinput</text>
</g>
<!-- focusinput&#45;&gt;LoginPageModule -->
<g id="edge2" class="edge">
<title>focusinput&#45;&gt;LoginPageModule</title>
<path fill="none" stroke="#000000" d="M385.7759,-122.1061C385.7759,-122.1061 385.7759,-140.991 385.7759,-140.991"/>
<polygon fill="#000000" stroke="#000000" points="382.276,-140.9909 385.7759,-150.991 389.276,-140.991 382.276,-140.9909"/>
</g>
<!-- ForgotPasswordComponent -->
<g id="node3" class="node">
<title>ForgotPasswordComponent</title>
<polygon fill="#ffffb3" stroke="#000000" points="354.3201,-122 181.6799,-122 181.6799,-86 354.3201,-86 354.3201,-122"/>
<text text-anchor="middle" x="268" y="-99.8" font-family="Times,serif" font-size="14.00" fill="#000000">ForgotPasswordComponent</text>
</g>
<!-- ForgotPasswordComponent&#45;&gt;LoginPageModule -->
<g id="edge3" class="edge">
<title>ForgotPasswordComponent&#45;&gt;LoginPageModule</title>
<path fill="none" stroke="#000000" d="M316.5288,-122.1061C316.5288,-122.1061 316.5288,-140.991 316.5288,-140.991"/>
<polygon fill="#000000" stroke="#000000" points="313.0288,-140.9909 316.5288,-150.991 320.0288,-140.991 313.0288,-140.9909"/>
</g>
<!-- LoginProvider -->
<g id="node5" class="node">
<title>LoginProvider</title>
<ellipse fill="#fdb462" stroke="#000000" cx="91" cy="-104" rx="67.2177" ry="18"/>
<text text-anchor="middle" x="91" y="-99.8" font-family="Times,serif" font-size="14.00" fill="#000000">LoginProvider</text>
</g>
<!-- LoginProvider&#45;&gt;LoginPageModule -->
<g id="edge4" class="edge">
<title>LoginProvider&#45;&gt;LoginPageModule</title>
<path fill="none" stroke="#000000" d="M91,-122.1061C91,-141.3391 91,-169 91,-169 91,-169 268.6495,-169 268.6495,-169"/>
<polygon fill="#000000" stroke="#000000" points="268.6495,-172.5001 278.6495,-169 268.6495,-165.5001 268.6495,-172.5001"/>
</g>
</g>
</svg>
