<?xml version="1.0" encoding="UTF-8"?>
<svg width="74px" height="79px" viewBox="0 0 74 79" version="1.1" xmlns="http://www.w3.org/2000/svg" xmlns:xlink="http://www.w3.org/1999/xlink">
    <!-- Generator: Sketch 48.1 (47250) - http://www.bohemiancoding.com/sketch -->
    <title>Black_Car_Pin_Icon</title>
    <desc>Created with Sketch.</desc>
    <defs>
        <filter x="-37.9%" y="-126.0%" width="175.8%" height="351.9%" filterUnits="objectBoundingBox" id="filter-1">
            <feGaussianBlur stdDeviation="2.86272321" in="SourceGraphic"></feGaussianBlur>
        </filter>
        <path d="M14.7484674,12.305642 L49.5068321,10.7858074 C50.6868681,10.7342095 51.731756,11.5420215 51.9789557,12.6970279 L61.8577955,58.8545462 C62.1375109,60.1614775 61.3047878,61.4477087 59.9978565,61.727424 C59.6639876,61.7988801 59.3187769,61.7988794 58.9849083,61.727422 L12.8278818,51.8484942 C11.6728807,51.6012909 10.865074,50.5564064 10.9166707,49.3763747 L12.4364927,14.6176187 C12.4913003,13.3641536 13.4950024,12.3604506 14.7484674,12.305642 Z" id="path-2"></path>
        <filter x="-14.7%" y="-14.7%" width="129.4%" height="129.4%" filterUnits="objectBoundingBox" id="filter-3">
            <feMorphology radius="0.5" operator="dilate" in="SourceAlpha" result="shadowSpreadOuter1"></feMorphology>
            <feOffset dx="0" dy="0" in="shadowSpreadOuter1" result="shadowOffsetOuter1"></feOffset>
            <feGaussianBlur stdDeviation="2" in="shadowOffsetOuter1" result="shadowBlurOuter1"></feGaussianBlur>
            <feColorMatrix values="0 0 0 0 1   0 0 0 0 1   0 0 0 0 1  0 0 0 0.5 0" type="matrix" in="shadowBlurOuter1"></feColorMatrix>
        </filter>
    </defs>
    <g id="Symbols" stroke="none" stroke-width="1" fill="none" fill-rule="evenodd">
        <g id="Black_Car_Pin_Icon">
            <g transform="translate(-0.356119, -0.365625)">
                <ellipse id="Oval-8" fill="#B9B5B5" filter="url(#filter-1)" cx="36.4910449" cy="73.485293" rx="11.334375" ry="3.40923828"></ellipse>
                <g id="Rectangle-11" transform="translate(36.414072, 36.283208) rotate(45.000000) translate(-36.414072, -36.283208) ">
                    <use fill="black" fill-opacity="1" filter="url(#filter-3)" xlink:href="#path-2"></use>
                    <use fill="#000000" fill-rule="evenodd" xlink:href="#path-2"></use>
                </g>
                <path d="M43.8363121,33.6282578 C43.8363121,32.6263779 44.8517169,31.8138459 46.1043269,31.8138459 C47.356937,31.8138459 48.3723418,32.6263779 48.3723418,33.6282578 C48.3723418,34.6301378 47.356937,35.4426697 46.1043269,35.4426697 C44.8517169,35.4426697 43.8363121,34.6301378 43.8363121,33.6282578 Z M42.5982673,35.963897 C42.5982673,36.8606992 39.9994135,36.7566618 37.0000159,36.7566618 C33.9995779,36.7566618 31.4007242,36.8606992 31.4007242,35.963897 L31.4007242,35.4822039 C31.4007242,34.5854017 31.5026808,34.3346716 32.4015638,34.3346716 L41.5724587,34.3346716 C42.4713417,34.3346716 42.5982673,34.5854017 42.5982673,35.4822039 L42.5982673,35.963897 Z M25.62769,33.6282578 C25.62769,32.6263779 26.6430948,31.8138459 27.8957049,31.8138459 C29.1483149,31.8138459 30.1637197,32.6263779 30.1637197,33.6282578 C30.1637197,34.6301378 29.1483149,35.4426697 27.8957049,35.4426697 C26.6430948,35.4426697 25.62769,34.6301378 25.62769,33.6282578 Z M27.9706118,28.0913885 C28.8975848,26.4933744 29.5644644,25.3271154 29.8963437,24.7226582 C30.1990925,24.1785427 30.6714222,23.8133715 31.163519,23.739505 C32.2361443,23.5813682 35.0670014,23.3961816 36.9937737,23.3961816 C38.9205459,23.3961816 41.7482819,23.5813682 42.822988,23.739505 C43.3130041,23.8133715 43.7874145,24.1785427 44.0880825,24.7226582 C44.4199618,25.3271154 45.0868414,26.4933744 46.0138144,28.0913885 L46.0970443,28.2349601 L45.9441094,28.2963422 C45.926423,28.301544 45.9118578,28.3140285 45.8941714,28.326513 C45.8546372,28.351482 45.80678,28.3837336 45.7516402,28.3930969 C43.6480044,28.8154887 39.9744446,28.8175694 36.9937737,28.8175694 C34.0099816,28.8175694 30.3364218,28.8154887 28.232786,28.3930969 C28.1776462,28.3837336 28.1329101,28.351482 28.0902548,28.326513 C28.0725684,28.3140285 28.0580032,28.301544 28.0403168,28.2963422 L27.8873819,28.2349601 L27.9706118,28.0913885 Z M49.2056812,30.4259873 L48.6376371,29.5489522 L49.0558674,29.5489522 C50.5384,29.5489522 50.4999062,28.7863582 50.4999062,27.9218076 C50.4999062,27.5795246 49.5417219,27.4910929 48.9757586,27.4910929 L48.3827455,27.4910929 C48.0487855,27.4910929 47.7647635,27.6627545 47.5764558,27.9114039 L47.2383344,27.3901766 L47.1540641,27.246605 C46.2614234,25.7058114 45.6465625,24.6331861 45.3271677,24.0557786 C44.8173846,23.1319267 43.9580358,22.4962583 43.0310628,22.3578886 C41.7566049,22.1706213 38.8321142,22 36.9937737,22 C35.1543928,22 32.2278213,22.1706213 30.9533635,22.3578886 C30.0263904,22.4962583 29.1691224,23.1319267 28.6572585,24.0557786 C28.3378637,24.6331861 27.7230028,25.7058114 26.8303621,27.246605 L26.7481726,27.3901766 L26.431899,27.8781119 C26.2425509,27.6481893 25.9668519,27.4910929 25.6474571,27.4910929 L25.0534037,27.4910929 C24.4874404,27.4910929 23.5302965,27.5795246 23.5302965,27.9218076 C23.5302965,28.7863582 23.4907623,29.5489522 24.9743353,29.5489522 L25.3478295,29.5489522 L24.778745,30.4259873 L24.6372542,30.5986894 C24.2814463,31.0242022 24.0515237,31.3082243 23.9870206,31.3997772 C23.6052034,31.9303678 23.5105294,32.5056945 23.5001256,32.6888003 L23.5001256,33.0841423 L23.5001256,40.8869458 C23.5001256,41.2677226 23.4501877,42.5068077 25.3415872,42.5068077 L27.9893385,42.5068077 C28.7737804,42.5068077 29.6508155,41.9148351 29.6508155,41.0648497 L29.6508155,40.2221469 C29.6508155,40.2221469 32.9352755,40.5186534 36.9927333,40.5186534 C41.0491507,40.5186534 44.3336107,40.2221469 44.3336107,40.2221469 L44.3336107,41.0648497 C44.3336107,41.9148351 45.2106458,42.5068077 45.9950877,42.5068077 L48.642839,42.5068077 C50.5342385,42.5068077 50.4562105,41.2677226 50.4562105,40.8869458 L50.4562105,33.0841423 L50.4562105,32.699204 C50.4458068,32.5056945 50.3792228,31.9303678 49.9974056,31.3997772 C49.9329025,31.3082243 49.7029799,31.0242022 49.347172,30.5986894 L49.2056812,30.4259873 Z" id="Fill-1-Copy" fill="#FEFEFE"></path>
            </g>
        </g>
    </g>
</svg>