<?xml version="1.0" encoding="UTF-8" standalone="no"?>
<svg width="27px" height="31px" viewBox="0 0 27 31" version="1.1" xmlns="http://www.w3.org/2000/svg" xmlns:xlink="http://www.w3.org/1999/xlink">
    <!-- Generator: Sketch 48.2 (47327) - http://www.bohemiancoding.com/sketch -->
    <title>Group 8</title>
    <desc>Created with Sketch.</desc>
    <defs>
        <filter x="-37.9%" y="-206.2%" width="175.8%" height="512.3%" filterUnits="objectBoundingBox" id="filter-1">
            <feGaussianBlur stdDeviation="2.29017857" in="SourceGraphic"></feGaussianBlur>
        </filter>
        <path d="M8.83404948,24.2992238 L5.71318563,20.7042194 C5.45044375,20.4015602 5.56841409,19.9983075 5.97667978,19.8035293 C6.11855277,19.7358436 6.28370261,19.6998526 6.45241605,19.6998526 L12.6941437,19.6998526 C13.1796478,19.6998526 13.5732266,19.991624 13.5732266,20.3515423 C13.5732266,20.4766145 13.5246774,20.5990449 13.4333742,20.7042194 L10.3125103,24.2992238 C10.0497684,24.6018831 9.50580931,24.6893379 9.09754362,24.4945597 C8.99189197,24.4441547 8.90204225,24.3775465 8.83404948,24.2992238 Z" id="path-2"></path>
        <filter x="-93.8%" y="-153.1%" width="287.5%" height="406.2%" filterUnits="objectBoundingBox" id="filter-3">
            <feMorphology radius="0.5" operator="dilate" in="SourceAlpha" result="shadowSpreadOuter1"></feMorphology>
            <feOffset dx="0" dy="0" in="shadowSpreadOuter1" result="shadowOffsetOuter1"></feOffset>
            <feGaussianBlur stdDeviation="2" in="shadowOffsetOuter1" result="shadowBlurOuter1"></feGaussianBlur>
            <feColorMatrix values="0 0 0 0 1   0 0 0 0 1   0 0 0 0 1  0 0 0 0.3 0" type="matrix" in="shadowBlurOuter1"></feColorMatrix>
        </filter>
    </defs>
    <g id="home:-Multiple-Cars_Zoom_Out" stroke="none" stroke-width="1" fill="none" fill-rule="evenodd" transform="translate(-40.000000, -211.000000)">
        <g id="Mini_Car_Pin_2" transform="translate(12.000000, 210.000000)">
            <g id="Group-8" transform="translate(32.000000, 0.000000)">
                <g id="Mini_Car_Indicator">
                    <ellipse id="Oval-8" fill="#B9B5B5" filter="url(#filter-1)" cx="9.57322656" cy="24.9379503" rx="9.0675" ry="1.66638489"></ellipse>
                    <g id="Triangle-2-Copy-2">
                        <use fill="black" fill-opacity="1" filter="url(#filter-3)" xlink:href="#path-2"></use>
                        <use fill="#212121" fill-rule="evenodd" xlink:href="#path-2"></use>
                    </g>
                    <g id="Car-small-Copy-4" transform="translate(0.573227, 0.906250)" fill="#000000">
                        <path d="M14.5008878,7.99925372 C13.7312464,7.99925372 13.1073511,7.55938155 13.1073511,7.01700396 C13.1073511,6.47462637 13.7312464,6.0347542 14.5008878,6.0347542 C15.2705291,6.0347542 15.8944244,6.47462637 15.8944244,7.01700396 C15.8944244,7.55938155 15.2705291,7.99925372 14.5008878,7.99925372 Z M12.3466591,8.28142524 C12.3466591,8.76691795 10.7498452,8.71059629 8.90692499,8.71059629 C7.06336555,8.71059629 5.46655159,8.76691795 5.46655159,8.28142524 L5.46655159,8.02065595 C5.46655159,7.53516324 5.52919682,7.39942803 6.08149756,7.39942803 L11.7163715,7.39942803 C12.2686722,7.39942803 12.3466591,7.53516324 12.3466591,8.02065595 L12.3466591,8.28142524 Z M3.31296223,7.99925372 C2.54332091,7.99925372 1.91942562,7.55938155 1.91942562,7.01700396 C1.91942562,6.47462637 2.54332091,6.0347542 3.31296223,6.0347542 C4.08260354,6.0347542 4.70649883,6.47462637 4.70649883,7.01700396 C4.70649883,7.55938155 4.08260354,7.99925372 3.31296223,7.99925372 Z M3.35898729,4.01956519 C3.92854743,3.15446448 4.33829833,2.52309867 4.54221493,2.19586982 C4.72823289,1.90130754 5.01844647,1.70361851 5.32080556,1.66363013 C5.97985888,1.57802121 7.71922269,1.47776865 8.90308957,1.47776865 C10.0869564,1.47776865 11.8244025,1.57802121 12.4847343,1.66363013 C12.7858149,1.70361851 13.077307,1.90130754 13.2620465,2.19586982 C13.4659631,2.52309867 13.875714,3.15446448 14.4452741,4.01956519 L14.4964131,4.09728908 L14.4024453,4.13051886 C14.3915782,4.13333494 14.3826289,4.14009354 14.3717619,4.14685214 C14.3474709,4.16036934 14.318066,4.17782905 14.2841864,4.182898 C12.9916493,4.41156395 10.7345035,4.41269038 8.90308957,4.41269038 C7.06975792,4.41269038 4.81261217,4.41156395 3.52007501,4.182898 C3.48619545,4.17782905 3.45870826,4.16036934 3.43249954,4.14685214 C3.42163251,4.14009354 3.41268319,4.13333494 3.40181617,4.13051886 L3.30784833,4.09728908 L3.35898729,4.01956519 Z M16.4933894,5.37691721 L16.4064532,5.28342325 L16.0574298,4.80863165 L16.314403,4.80863165 C17.2253157,4.80863165 17.201664,4.39579388 17.201664,3.92776088 C17.201664,3.74246262 16.6129267,3.69458921 16.2651818,3.69458921 L15.9008167,3.69458921 C15.6956217,3.69458921 15.52111,3.78751995 15.4054081,3.92212872 L15.1976561,3.6399572 L15.1458779,3.5622333 C14.5974125,2.72810951 14.2196235,2.14743319 14.0233777,1.83484798 C13.7101516,1.33471163 13.1821419,0.990586287 12.6125817,0.915678478 C11.8295164,0.814299489 10.0326213,0.721931966 8.90308957,0.721931966 C7.7729186,0.721931966 5.97474499,0.814299489 5.19167969,0.915678478 C4.62211955,0.990586287 4.09538828,1.33471163 3.78088369,1.83484798 C3.58463794,2.14743319 3.20684889,2.72810951 2.65838356,3.5622333 L2.60788384,3.6399572 L2.4135558,3.90410578 C2.29721467,3.77963491 2.12781688,3.69458921 1.93157112,3.69458921 L1.56656681,3.69458921 C1.2188219,3.69458921 0.630723882,3.74246262 0.630723882,3.92776088 C0.630723882,4.39579388 0.606432877,4.80863165 1.5179848,4.80863165 L1.74747088,4.80863165 L1.39780825,5.28342325 L1.31087202,5.37691721 C1.09225298,5.6072728 0.950981606,5.76103093 0.911348914,5.81059399 C0.676748944,6.09783446 0.61857838,6.40929324 0.61218601,6.50841937 L0.61218601,6.51405153 L0.61218601,6.72244168 L0.61218601,10.9465662 C0.61218601,11.1527035 0.581502635,11.8234945 1.74363545,11.8234945 L3.37049355,11.8234945 C3.85247823,11.8234945 4.391355,11.5030242 4.391355,11.0428763 L4.391355,10.5866708 C4.391355,10.5866708 6.40942613,10.7471875 8.90245033,10.7471875 C11.3948353,10.7471875 13.4129064,10.5866708 13.4129064,10.5866708 L13.4129064,11.0428763 C13.4129064,11.5030242 13.9517832,11.8234945 14.4337679,11.8234945 L16.060626,11.8234945 C17.2227588,11.8234945 17.174816,11.1527035 17.174816,10.9465662 L17.174816,6.72244168 L17.174816,6.51405153 L17.174816,6.50841937 C17.1684236,6.40929324 17.1275125,6.09783446 16.8929125,5.81059399 C16.8532798,5.76103093 16.7120084,5.6072728 16.4933894,5.37691721 Z" id="Fill-1"></path>
                    </g>
                </g>
            </g>
        </g>
    </g>
</svg>