<?xml version="1.0" encoding="UTF-8"?>
<svg width="30px" height="24px" viewBox="0 0 30 24" version="1.1" xmlns="http://www.w3.org/2000/svg" xmlns:xlink="http://www.w3.org/1999/xlink">
    <!-- Generator: Sketch 48.1 (47250) - http://www.bohemiancoding.com/sketch -->
    <title>Car small</title>
    <desc>Created with Sketch.</desc>
    <defs></defs>
    <g id="Symbols" stroke="none" stroke-width="1" fill="none" fill-rule="evenodd">
        <g id="Car-small" fill="#000000">
            <path d="M24.1681463,15.1315932 C22.8854107,15.1315932 21.8455852,14.2995198 21.8455852,13.2735444 C21.8455852,12.2475691 22.8854107,11.4154956 24.1681463,11.4154956 C25.4508818,11.4154956 26.4907073,12.2475691 26.4907073,13.2735444 C26.4907073,14.2995198 25.4508818,15.1315932 24.1681463,15.1315932 Z M20.5777652,15.6653561 C20.5777652,16.5837266 17.9164086,16.4771871 14.844875,16.4771871 C11.7722759,16.4771871 9.11091932,16.5837266 9.11091932,15.6653561 L9.11091932,15.1720782 C9.11091932,14.2537078 9.21532803,13.9969476 10.1358293,13.9969476 L19.5272858,13.9969476 C20.4477871,13.9969476 20.5777652,14.2537078 20.5777652,15.1720782 L20.5777652,15.6653561 Z M5.52160371,15.1315932 C4.23886818,15.1315932 3.1990427,14.2995198 3.1990427,13.2735444 C3.1990427,12.2475691 4.23886818,11.4154956 5.52160371,11.4154956 C6.80433924,11.4154956 7.84416472,12.2475691 7.84416472,13.2735444 C7.84416472,14.2995198 6.80433924,15.1315932 5.52160371,15.1315932 Z M5.59831215,7.60351247 C6.54757905,5.96706582 7.23049722,4.77275807 7.57035821,4.1537636 C7.88038815,3.59656204 8.36407746,3.22260841 8.86800927,3.14696537 C9.96643147,2.98502533 12.8653712,2.79538503 14.8384826,2.79538503 C16.8115941,2.79538503 19.7073376,2.98502533 20.8078906,3.14696537 C21.3096916,3.22260841 21.7955117,3.59656204 22.1034108,4.1537636 C22.4432718,4.77275807 23.12619,5.96706582 24.0754569,7.60351247 L24.1606885,7.75053698 L24.0040754,7.81339528 C23.9859637,7.81872226 23.9710482,7.83150699 23.9529365,7.84429173 C23.9124515,7.86986121 23.8634433,7.90288846 23.8069774,7.91247701 C21.6527488,8.34502736 17.8908392,8.34715815 14.8384826,8.34715815 C11.7829299,8.34715815 8.02102028,8.34502736 5.86679168,7.91247701 C5.81032574,7.90288846 5.76451376,7.86986121 5.72083257,7.84429173 C5.70272085,7.83150699 5.68780532,7.81872226 5.66969361,7.81339528 L5.51308055,7.75053698 L5.59831215,7.60351247 Z M27.4889823,10.1711143 L27.3440886,9.99425876 L26.762383,9.09613081 L27.1906717,9.09613081 C28.7088596,9.09613081 28.6694399,8.31519631 28.6694399,7.4298531 C28.6694399,7.07933816 27.6882112,6.98877958 27.1086363,6.98877958 L26.5013612,6.98877958 C26.1593694,6.98877958 25.8685166,7.16456975 25.6756801,7.41919915 L25.3294268,6.88543627 L25.2431298,6.73841177 C24.3290209,5.16056184 23.6993725,4.06213964 23.3722962,3.47084544 C22.8502527,2.52477471 21.9702365,1.87381839 21.0209695,1.73212087 C19.7158607,1.54034977 16.7210355,1.365625 14.8384826,1.365625 C12.9548643,1.365625 9.95790831,1.54034977 8.65279949,1.73212087 C7.70353258,1.87381839 6.82564714,2.52477471 6.30147282,3.47084544 C5.97439657,4.06213964 5.34474815,5.16056184 4.43063927,6.73841177 L4.34647307,6.88543627 L4.02259301,7.38510651 C3.82869112,7.14965422 3.54636146,6.98877958 3.21928521,6.98877958 L2.61094469,6.98877958 C2.03136983,6.98877958 1.05120647,7.07933816 1.05120647,7.4298531 C1.05120647,8.31519631 1.01072146,9.09613081 2.52997467,9.09613081 L2.91245146,9.09613081 L2.32968042,9.99425876 L2.1847867,10.1711143 C1.82042163,10.6068609 1.58496934,10.8977137 1.51891486,10.9914684 C1.12791491,11.5348199 1.03096397,12.1239833 1.02031002,12.3114928 L1.02031002,12.3221467 L1.02031002,12.7163429 L1.02031002,20.7068051 C1.02031002,21.0967396 0.969171059,22.365625 2.90605909,22.365625 L5.61748926,22.365625 C6.42079705,22.365625 7.318925,21.7594153 7.318925,20.8889876 L7.318925,20.0260177 C7.318925,20.0260177 10.6823769,20.3296552 14.8374172,20.3296552 C18.9913922,20.3296552 22.354844,20.0260177 22.354844,20.0260177 L22.354844,20.8889876 C22.354844,21.7594153 23.252972,22.365625 24.0562798,22.365625 L26.7677099,22.365625 C28.704598,22.365625 28.6246934,21.0967396 28.6246934,20.7068051 L28.6246934,12.7163429 L28.6246934,12.3221467 L28.6246934,12.3114928 C28.6140394,12.1239833 28.5458541,11.5348199 28.1548542,10.9914684 C28.0887997,10.8977137 27.8533474,10.6068609 27.4889823,10.1711143 Z" id="Fill-1"></path>
        </g>
    </g>
</svg>