<?xml version="1.0" encoding="UTF-8" standalone="no"?>
<!DOCTYPE svg PUBLIC "-//W3C//DTD SVG 1.1//EN"
 "http://www.w3.org/Graphics/SVG/1.1/DTD/svg11.dtd">
<!-- Generated by graphviz version 2.40.1 (20161225.0304)
 -->
<!-- Title: dependencies Pages: 1 -->
<svg width="595pt" height="211pt"
 viewBox="0.00 0.00 595.00 211.00" xmlns="http://www.w3.org/2000/svg" xmlns:xlink="http://www.w3.org/1999/xlink">
<g id="graph0" class="graph" transform="scale(1 1) rotate(0) translate(4 207)">
<title>dependencies</title>
<polygon fill="#ffffff" stroke="transparent" points="-4,4 -4,-207 591,-207 591,4 -4,4"/>
<text text-anchor="start" x="272.5091" y="-42.4" font-family="sans-serif" font-weight="bold" font-size="14.00" fill="#000000">Legend</text>
<polygon fill="#ffffb3" stroke="transparent" points="59.5,-10 59.5,-30 79.5,-30 79.5,-10 59.5,-10"/>
<text text-anchor="start" x="83.129" y="-15.4" font-family="sans-serif" font-size="14.00" fill="#000000"> &#160;Declarations</text>
<polygon fill="#8dd3c7" stroke="transparent" points="172.5,-10 172.5,-30 192.5,-30 192.5,-10 172.5,-10"/>
<text text-anchor="start" x="196.2251" y="-15.4" font-family="sans-serif" font-size="14.00" fill="#000000"> &#160;Module</text>
<polygon fill="#80b1d3" stroke="transparent" points="258.5,-10 258.5,-30 278.5,-30 278.5,-10 258.5,-10"/>
<text text-anchor="start" x="282.2812" y="-15.4" font-family="sans-serif" font-size="14.00" fill="#000000"> &#160;Bootstrap</text>
<polygon fill="#fdb462" stroke="transparent" points="355.5,-10 355.5,-30 375.5,-30 375.5,-10 355.5,-10"/>
<text text-anchor="start" x="379.1732" y="-15.4" font-family="sans-serif" font-size="14.00" fill="#000000"> &#160;Providers</text>
<polygon fill="#fb8072" stroke="transparent" points="451.5,-10 451.5,-30 471.5,-30 471.5,-10 451.5,-10"/>
<text text-anchor="start" x="475.2258" y="-15.4" font-family="sans-serif" font-size="14.00" fill="#000000"> &#160;Exports</text>
<g id="clust1" class="cluster">
<title>cluster_AccountSetupModule</title>
<polygon fill="none" stroke="#000000" stroke-dasharray="1,5" points="8,-70 8,-195 579,-195 579,-70 8,-70"/>
</g>
<g id="clust2" class="cluster">
<title>cluster_AccountSetupModule_declarations</title>
<polygon fill="none" stroke="#000000" points="395,-78 395,-130 571,-130 571,-78 395,-78"/>
</g>
<g id="clust7" class="cluster">
<title>cluster_AccountSetupModule_providers</title>
<polygon fill="none" stroke="#000000" points="16,-78 16,-130 387,-130 387,-78 16,-78"/>
</g>
<!-- AccountSetupComponent -->
<g id="node1" class="node">
<title>AccountSetupComponent</title>
<polygon fill="#ffffb3" stroke="#000000" points="563.147,-122 402.853,-122 402.853,-86 563.147,-86 563.147,-122"/>
<text text-anchor="middle" x="483" y="-99.8" font-family="Times,serif" font-size="14.00" fill="#000000">AccountSetupComponent</text>
</g>
<!-- AccountSetupModule -->
<g id="node2" class="node">
<title>AccountSetupModule</title>
<polygon fill="#8dd3c7" stroke="#000000" points="366.3641,-187 363.3641,-191 342.3641,-191 339.3641,-187 227.6359,-187 227.6359,-151 366.3641,-151 366.3641,-187"/>
<text text-anchor="middle" x="297" y="-164.8" font-family="Times,serif" font-size="14.00" fill="#000000">AccountSetupModule</text>
</g>
<!-- AccountSetupComponent&#45;&gt;AccountSetupModule -->
<g id="edge1" class="edge">
<title>AccountSetupComponent&#45;&gt;AccountSetupModule</title>
<path fill="none" stroke="#000000" d="M483,-122.1061C483,-141.3391 483,-169 483,-169 483,-169 376.524,-169 376.524,-169"/>
<polygon fill="#000000" stroke="#000000" points="376.5241,-165.5001 366.524,-169 376.524,-172.5001 376.5241,-165.5001"/>
</g>
<!-- AccSetupProvider -->
<g id="node3" class="node">
<title>AccSetupProvider</title>
<ellipse fill="#fdb462" stroke="#000000" cx="297" cy="-104" rx="81.6616" ry="18"/>
<text text-anchor="middle" x="297" y="-99.8" font-family="Times,serif" font-size="14.00" fill="#000000">AccSetupProvider</text>
</g>
<!-- AccSetupProvider&#45;&gt;AccountSetupModule -->
<g id="edge2" class="edge">
<title>AccSetupProvider&#45;&gt;AccountSetupModule</title>
<path fill="none" stroke="#000000" d="M297,-122.1061C297,-122.1061 297,-140.991 297,-140.991"/>
<polygon fill="#000000" stroke="#000000" points="293.5001,-140.9909 297,-150.991 300.5001,-140.991 293.5001,-140.9909"/>
</g>
<!-- SharedAPIProvider -->
<g id="node4" class="node">
<title>SharedAPIProvider</title>
<ellipse fill="#fdb462" stroke="#000000" cx="111" cy="-104" rx="86.8165" ry="18"/>
<text text-anchor="middle" x="111" y="-99.8" font-family="Times,serif" font-size="14.00" fill="#000000">SharedAPIProvider</text>
</g>
<!-- SharedAPIProvider&#45;&gt;AccountSetupModule -->
<g id="edge3" class="edge">
<title>SharedAPIProvider&#45;&gt;AccountSetupModule</title>
<path fill="none" stroke="#000000" d="M111,-122.1061C111,-141.3391 111,-169 111,-169 111,-169 217.476,-169 217.476,-169"/>
<polygon fill="#000000" stroke="#000000" points="217.476,-172.5001 227.476,-169 217.4759,-165.5001 217.476,-172.5001"/>
</g>
</g>
</svg>
