<?xml version="1.0" encoding="UTF-8" standalone="no"?>
<svg width="73px" height="80px" viewBox="0 0 73 80" version="1.1" xmlns="http://www.w3.org/2000/svg" xmlns:xlink="http://www.w3.org/1999/xlink">
    <!-- Generator: Sketch 48.2 (47327) - http://www.bohemiancoding.com/sketch -->
    <title>Red_Car_Pin_Icon</title>
    <desc>Created with Sketch.</desc>
    <defs>
        <filter x="-38.9%" y="-129.2%" width="177.8%" height="358.5%" filterUnits="objectBoundingBox" id="filter-1">
            <feGaussianBlur stdDeviation="2.86272321" in="SourceGraphic"></feGaussianBlur>
        </filter>
        <path d="M14.4142387,13.0421535 L48.1314367,11.5657995 C49.3117841,11.5141163 50.3569123,12.3223002 50.6038503,13.4776845 L60.188429,58.322431 C60.4677738,59.6294416 59.6346861,60.9154366 58.3276755,61.1947814 C57.9937861,61.2661429 57.6485752,61.2660443 57.3147265,61.194492 L12.5383337,51.5977653 C11.3837109,51.3503001 10.5762763,50.3056559 10.627788,49.1259358 L12.102404,15.3542699 C12.1571358,14.1008016 13.1607771,13.097038 14.4142387,13.0421535 Z" id="path-2"></path>
        <filter x="-15.1%" y="-15.1%" width="130.2%" height="130.2%" filterUnits="objectBoundingBox" id="filter-3">
            <feMorphology radius="0.5" operator="dilate" in="SourceAlpha" result="shadowSpreadOuter1"></feMorphology>
            <feOffset dx="0" dy="0" in="shadowSpreadOuter1" result="shadowOffsetOuter1"></feOffset>
            <feGaussianBlur stdDeviation="2" in="shadowOffsetOuter1" result="shadowBlurOuter1"></feGaussianBlur>
            <feColorMatrix values="0 0 0 0 1   0 0 0 0 1   0 0 0 0 1  0 0 0 0.5 0" type="matrix" in="shadowBlurOuter1"></feColorMatrix>
        </filter>
    </defs>
    <g id="Symbols" stroke="none" stroke-width="1" fill="none" fill-rule="evenodd">
        <g id="Red_Car_Pin_Icon">
            <g id="Group">
                <g id="Blue_Car_Pin_Icon">
                    <g transform="translate(0.626711, 0.634375)" id="Blue_Car_Pin">
                        <g transform="translate(0.506310, 0.000000)">
                            <ellipse id="Oval-8" fill="#B9B5B5" filter="url(#filter-1)" cx="35.5179504" cy="72.6755387" rx="11.032125" ry="3.32292845"></ellipse>
                            <g id="Rectangle-11" transform="translate(35.443031, 36.415279) rotate(45.000000) translate(-35.443031, -36.415279) ">
                                <use fill="black" fill-opacity="1" filter="url(#filter-3)" xlink:href="#path-2"></use>
                                <use fill="#E2231A" fill-rule="evenodd" xlink:href="#path-2"></use>
                            </g>
                            <path d="M42.6673438,33.8275424 C42.6673438,32.8510265 43.6556711,32.059065 44.8748782,32.059065 C46.0940853,32.059065 47.0824127,32.8510265 47.0824127,33.8275424 C47.0824127,34.8040584 46.0940853,35.5960199 44.8748782,35.5960199 C43.6556711,35.5960199 42.6673438,34.8040584 42.6673438,33.8275424 Z M41.4623135,36.1040515 C41.4623135,36.9781498 38.9327625,36.8767463 36.0133488,36.8767463 C33.0929225,36.8767463 30.5633715,36.9781498 30.5633715,36.1040515 L30.5633715,35.6345532 C30.5633715,34.7604548 30.6626093,34.5160724 31.5375221,34.5160724 L40.4638598,34.5160724 C41.3387726,34.5160724 41.4623135,34.7604548 41.4623135,35.6345532 L41.4623135,36.1040515 Z M24.944285,33.8275424 C24.944285,32.8510265 25.9326123,32.059065 27.1518194,32.059065 C28.3710265,32.059065 29.3593539,32.8510265 29.3593539,33.8275424 C29.3593539,34.8040584 28.3710265,35.5960199 27.1518194,35.5960199 C25.9326123,35.5960199 24.944285,34.8040584 24.944285,33.8275424 Z M27.2247288,28.4308471 C28.1269826,26.873289 28.7760787,25.7365555 29.0991078,25.147401 C29.3937833,24.6170606 29.8535176,24.2611343 30.3324918,24.1891378 C31.3765138,24.0350044 34.1318814,23.8545061 36.007273,23.8545061 C37.8826647,23.8545061 40.6349944,24.0350044 41.6810417,24.1891378 C42.1579906,24.2611343 42.6197501,24.6170606 42.9124003,25.147401 C43.2354295,25.7365555 43.8845256,26.873289 44.7867794,28.4308471 L44.8677898,28.5707839 L44.7189331,28.630612 C44.7017184,28.6356822 44.6875416,28.6478506 44.6703269,28.660019 C44.6318469,28.6843559 44.5852659,28.7157909 44.5315965,28.7249173 C42.4840576,29.1366156 38.9084594,29.1386436 36.007273,29.1386436 C33.1030488,29.1386436 29.5274505,29.1366156 27.4799117,28.7249173 C27.4262423,28.7157909 27.3826992,28.6843559 27.3411813,28.660019 C27.3239666,28.6478506 27.3097898,28.6356822 27.2925751,28.630612 L27.1437184,28.5707839 L27.2247288,28.4308471 Z M47.8935297,30.7063421 L47.3406335,29.8515104 L47.7477109,29.8515104 C49.1907094,29.8515104 49.153242,29.1082226 49.153242,28.2655593 C49.153242,27.9319417 48.2206093,27.8457487 47.6697384,27.8457487 L47.092539,27.8457487 C46.7674846,27.8457487 46.4910365,28.0130645 46.3077504,28.255419 L45.9786454,27.7473873 L45.8966224,27.6074505 C45.0277854,26.1056643 44.4293208,25.060194 44.1184432,24.4974045 C43.6222543,23.5969412 42.7858215,22.9773657 41.8835678,22.842499 C40.6430954,22.6599727 37.7965911,22.4936709 36.007273,22.4936709 C34.2169423,22.4936709 31.3684128,22.6599727 30.1279404,22.842499 C29.2256867,22.9773657 28.3912791,23.5969412 27.8930649,24.4974045 C27.5821874,25.060194 26.9837228,26.1056643 26.1148858,27.6074505 L26.034888,27.7473873 L25.7270483,28.2229698 C25.5427496,27.9988681 25.2744025,27.8457487 24.9635249,27.8457487 L24.3853129,27.8457487 C23.8344419,27.8457487 22.9028219,27.9319417 22.9028219,28.2655593 C22.9028219,29.1082226 22.8643419,29.8515104 24.308353,29.8515104 L24.6718874,29.8515104 L24.1179785,30.7063421 L23.9802607,30.8746719 C23.6339411,31.2894123 23.4101498,31.5662439 23.3473667,31.655479 C22.9757313,32.172637 22.8835819,32.7333985 22.8734556,32.9118687 L22.8734556,33.297202 L22.8734556,40.9024661 C22.8734556,41.273603 22.8248493,42.4813189 24.6658116,42.4813189 L27.2429562,42.4813189 C28.0064796,42.4813189 28.8601271,41.9043329 28.8601271,41.0758661 L28.8601271,40.2544976 C28.8601271,40.2544976 32.0570015,40.5434977 36.0062604,40.5434977 C39.9545067,40.5434977 43.1513811,40.2544976 43.1513811,40.2544976 L43.1513811,41.0758661 C43.1513811,41.9043329 44.0050286,42.4813189 44.768552,42.4813189 L47.3456966,42.4813189 C49.1866588,42.4813189 49.1107115,41.273603 49.1107115,40.9024661 L49.1107115,33.297202 L49.1107115,32.922009 C49.1005852,32.7333985 49.0357769,32.172637 48.6641415,31.655479 C48.6013584,31.5662439 48.3775671,31.2894123 48.0312474,30.8746719 L47.8935297,30.7063421 Z" id="Fill-1-Copy" fill="#FEFEFE"></path>
                        </g>
                    </g>
                </g>
            </g>
        </g>
    </g>
</svg>