<?xml version="1.0" encoding="UTF-8" standalone="no"?>
<svg width="640px" height="1136px" viewBox="0 0 640 1136" version="1.1" xmlns="http://www.w3.org/2000/svg" xmlns:xlink="http://www.w3.org/1999/xlink">
    <!-- Generator: Sketch 48.2 (47327) - http://www.bohemiancoding.com/sketch -->
    <title>Rectangle 3 + Page 1 + Page 1 + Path 10 + Path 10 Copy + Path 10 Copy 2 + Path 10 Copy 3 + Path 10 Copy 4 + Line + Line Copy + Line Copy 2 + Line Copy 3 + Line Copy 4 + Rectangle 3 Mask</title>
    <desc>Created with Sketch.</desc>
    <defs>
        <rect id="path-1" x="0" y="0" width="640" height="1138.34667"></rect>
    </defs>
    <g id="568h@2x" stroke="none" stroke-width="1" fill="none" fill-rule="evenodd">
        <g id="Rectangle-3-+-Page-1-+-Page-1-+-Path-10-+-Path-10-Copy-+-Path-10-Copy-2-+-Path-10-Copy-3-+-Path-10-Copy-4-+-Line-+-Line-Copy-+-Line-Copy-2-+-Line-Copy-3-+-Line-Copy-4-+-Rectangle-3-Mask" transform="translate(0.000000, -0.000000)">
            <mask id="mask-2" fill="white">
                <use xlink:href="#path-1"></use>
            </mask>
            <use id="Mask" fill="#FFFFFF" xlink:href="#path-1"></use>
            <rect id="Rectangle-3" fill="#FFFFFF" mask="url(#mask-2)" x="0" y="0" width="640" height="1138.34667"></rect>
            <g id="Page-1" mask="url(#mask-2)">
                <g transform="translate(-2.560000, 927.006420)">
                    <polygon id="Fill-1" stroke="none" fill="#E7EAED" fill-rule="evenodd" points="642.56 0.56691358 369.72392 28.5780844 2.56 66.2735802 0.567838617 211.916175 642.481106 211.916175"></polygon>
                    <polygon id="Stroke-3" stroke="#E7EBE8" stroke-width="0.56943" fill="none" points="434.085697 105.170354 322.413041 115.545508 296.083189 84.0110373 411.351702 77.1533465"></polygon>
                </g>
            </g>
            <g id="Page-1" mask="url(#mask-2)">
                <g transform="translate(190.293333, 401.920000)">
                    <path d="M33.7030927,86.9033952 L11.917171,86.9033952 C7.17135061,86.9033952 4.9137032,85.9296593 4.9137032,80.3966078 L4.9137032,21.215525 C4.9137032,19.9831404 4.04422079,19.0182797 2.93418993,19.0182797 L1.97826042,19.0182797 C0.868229555,19.0182797 0,19.9831404 0,21.215525 L0,80.3966078 C0,88.0318131 3.78613235,91.5869635 11.917171,91.5869635 L33.7030927,91.5869635 C34.9609607,91.5869635 35.8730402,90.7438198 35.8730402,89.5824369 L35.8730402,88.8090268 C35.8730402,87.6691979 35.0023049,86.9033952 33.7030927,86.9033952" id="Fill-1" fill="#212121"></path>
                    <path d="M58.4651751,38.298251 C45.5419602,38.298251 38.4257353,46.633329 38.4257353,61.7706118 L38.4257353,68.5385836 C38.4257353,83.6745985 45.5419602,92.0096765 58.4651751,92.0096765 C71.3883899,92.0096765 78.5046148,83.6745985 78.5046148,68.5385836 L78.5046148,61.7706118 C78.5046148,46.633329 71.3883899,38.298251 58.4651751,38.298251 M73.5909116,61.7706118 L73.5909116,68.5385836 C73.5909116,81.3112602 68.6433813,87.5200946 58.4651751,87.5200946 C48.2869688,87.5200946 43.3406914,81.3112602 43.3406914,68.5385836 L43.3406914,61.7706118 C43.3406914,48.9979351 48.2869688,42.7878328 58.4651751,42.7878328 C68.6433813,42.7878328 73.5909116,48.9979351 73.5909116,61.7706118" id="Fill-3" fill="#212121"></path>
                    <path d="M109.430375,86.7465578 L125.75259,86.7465578 C130.497157,86.7465578 132.754805,85.7728219 132.754805,80.2397704 L132.754805,21.0586875 C132.754805,19.826303 133.624287,18.8614423 134.735571,18.8614423 L135.690247,18.8614423 C136.800278,18.8614423 137.669761,19.826303 137.669761,21.0586875 L137.669761,80.2397704 C137.669761,87.8749757 133.882376,91.4301261 125.75259,91.4301261 L109.430375,91.4301261 C108.17376,91.4301261 107.260428,90.5869824 107.260428,89.4255995 L107.260428,88.6521894 C107.260428,87.5123605 108.132416,86.7465578 109.430375,86.7465578" id="Fill-5" fill="#212121"></path>
                    <path d="M167.065408,38.298251 C160.699644,38.298251 157.341988,38.7027064 153.449363,39.1718239 C152.130105,39.3493279 150.94365,39.6422094 150.94365,41.2676384 L150.94365,41.8495977 C150.94365,42.4315571 151.11905,42.8867279 151.464838,43.2036992 C151.903338,43.6068868 152.579881,43.7539615 153.533304,43.6563343 L154.915205,43.5067238 C158.707602,43.0895896 161.448852,42.7878328 167.065408,42.7878328 C175.801576,42.7878328 178.7508,46.235213 178.7508,56.450565 L178.7508,59.5720986 L171.747332,59.5720986 C154.956549,59.5720986 147.79021,64.1352179 147.79021,74.824759 L147.79021,76.0812333 C147.79021,80.8700361 149.249788,92.0096765 162.765604,92.0096765 C167.65425,92.0096765 172.857363,90.4768032 178.655583,87.3235724 L178.655583,89.1366484 C178.655583,90.40073 179.67165,91.4302529 180.920748,91.4302529 L181.398086,91.4302529 C182.64969,91.4302529 183.664503,90.40073 183.664503,89.1366484 L183.664503,56.450565 C183.664503,47.9988415 181.777701,38.298251 167.065408,38.298251 Z M152.703913,74.824759 C152.703913,66.7774909 157.509871,64.0629484 171.747332,64.0629484 L178.7508,64.0629484 L178.7508,82.7325597 C172.377519,86.1761362 167.883523,87.5200946 162.765604,87.5200946 C156.089132,87.5200946 152.703913,83.6720627 152.703913,76.0812333 L152.703913,74.824759 Z" id="Fill-7" fill="#212121"></path>
                    <path d="M214.040886,42.7875793 C217.144212,42.7875793 220.848908,43.0715856 225.35418,43.6548128 C226.110906,43.7816014 226.773667,43.642134 227.214672,43.2643041 C227.580506,42.9498686 227.774699,42.4946978 227.774699,41.9457034 L227.774699,41.2686527 C227.774699,39.9652666 227.178339,39.3769678 225.646096,39.1715704 C221.040595,38.6162366 216.809699,38.2979974 214.040886,38.2979974 C201.611297,38.2979974 194.765689,46.6343433 194.765689,61.7703582 L194.765689,68.2467164 C194.765689,83.3484984 201.791708,92.0094229 214.040886,92.0094229 C216.809699,92.0094229 221.040595,91.6911837 225.646096,91.13585 L225.651107,91.13585 C227.178339,90.9291846 227.774699,90.3421537 227.774699,89.0400355 L227.774699,88.3629848 C227.774699,87.8127225 227.580506,87.3575517 227.213419,87.0431162 C226.773667,86.6640185 226.112159,86.5270868 225.366709,86.6526075 C220.848908,87.2371026 217.144212,87.5211089 214.040886,87.5211089 C204.377604,87.5211089 199.680645,81.2159153 199.680645,68.2467164 L199.680645,61.7703582 C199.680645,48.9976815 204.377604,42.7875793 214.040886,42.7875793" id="Fill-9" fill="#212121"></path>
                    <path d="M269.722214,88.4055857 L246.462933,63.528408 L269.599434,42.1214323 C270.327344,41.4912933 270.584179,40.5720765 270.272218,39.7200575 C269.95274,38.8426809 269.129613,38.2987581 268.126075,38.2987581 C267.225271,38.2987581 266.304422,38.6474266 265.590293,39.2661546 L242.680559,60.9419219 L242.680559,21.0580536 C242.680559,19.8877955 241.666998,18.8608084 240.511865,18.8608084 L239.936804,18.8608084 C238.78167,18.8608084 237.768109,19.8877955 237.768109,21.0580536 L237.768109,89.8129384 C237.768109,90.9831966 238.78167,92.0101837 239.936804,92.0101837 L240.511865,92.0101837 C241.666998,92.0101837 242.680559,90.9831966 242.680559,89.8129384 L242.680559,66.3557922 L265.199402,90.7435662 C266.253054,91.8085899 267.107503,92.0101837 268.317762,92.0101837 C269.256152,92.0101837 269.974038,91.5968531 270.286,90.8741584 C270.620512,90.1007484 270.406274,89.1561738 269.722214,88.4055857" id="Fill-11" fill="#212121"></path>
                    <polygon id="Fill-13" fill="#DE2827" points="110.678095 -0.000380365594 81.3199086 110.877458 86.4653903 110.877458 115.823577 -0.000380365594"></polygon>
                    <path d="M289.409852,45.7569667 L288.690712,45.7569667 C288.585472,45.7569667 288.515312,45.6859651 288.515312,45.5794627 L288.515312,41.320636 C288.515312,39.9196227 288.357452,39.4948811 286.674866,39.4948811 L286.674866,45.5794627 C286.674866,45.6859651 286.604706,45.7569667 286.499466,45.7569667 L285.764039,45.7569667 C285.658799,45.7569667 285.587387,45.6859651 285.587387,45.5794627 L285.587387,39.4948811 C284.85196,39.4948811 284.22052,39.5481323 283.730653,39.6013835 L283.730653,45.5794627 C283.730653,45.6859651 283.678033,45.7569667 283.572793,45.7569667 L282.853654,45.7569667 C282.748414,45.7569667 282.678254,45.6859651 282.678254,45.5794627 L282.678254,38.9966022 C282.678254,38.7671149 282.748414,38.678363 282.941354,38.6606126 C283.95742,38.5541102 285.0449,38.4831086 286.131126,38.4831086 C288.550392,38.4831086 289.585252,38.9268685 289.585252,41.320636 L289.585252,45.5794627 C289.585252,45.6859651 289.515092,45.7569667 289.409852,45.7569667 M281.748634,39.4948811 L280.048508,39.4948811 L280.048508,45.4729604 C280.048508,45.6149635 279.925728,45.7569667 279.767868,45.7569667 L279.206588,45.7569667 C279.048728,45.7569667 278.943489,45.6149635 278.943489,45.4729604 L278.943489,39.4948811 L277.208282,39.4948811 C277.067962,39.4948811 276.927642,39.4226116 276.927642,39.2463756 L276.927642,38.8026157 C276.927642,38.6428622 277.067962,38.5363598 277.208282,38.5363598 L281.748634,38.5363598 C281.888954,38.5363598 282.046814,38.6428622 282.046814,38.8026157 L282.046814,39.2463756 C282.046814,39.4226116 281.888954,39.4948811 281.748634,39.4948811" id="Fill-16" fill="#212121"></path>
                    <g id="Group" stroke-width="1" fill="none" transform="translate(0.000000, 128.056417)">
                        <path d="M9.75449015,36.3122354 C6.5271318,36.3122354 4.12916446,35.985121 2.10078978,35.6580066 C1.31650161,35.5185392 1.22379023,35.33216 1.22379023,34.8186665 L1.22379023,32.9523393 C1.22379023,32.4388458 1.59213004,32.2055549 2.00682554,32.2055549 L2.14589262,32.2055549 C4.26697867,32.391934 7.63340409,32.4857575 9.75449015,32.4857575 C15.2871045,32.4857575 16.7629694,30.2454042 16.7629694,26.9793316 C16.7629694,24.6464226 15.4249187,23.3392329 11.2303551,20.7261212 L6.75640454,17.9735422 C2.51548528,15.3604306 0.39314637,12.9806098 0.39314637,9.2466876 C0.39314637,3.60079429 4.40479289,0.98768266 11.414525,0.98768266 C14.1344765,0.98768266 17.6850718,1.26788531 19.437818,1.54808797 C19.8988692,1.6406436 20.2208534,1.87393449 20.2208534,2.34178418 L20.2208534,4.34757874 C20.2208534,4.81416054 19.8988692,5.09436319 19.437818,5.09436319 L19.3451067,5.09436319 C17.316732,4.95489581 14.0893736,4.81416054 11.414525,4.81416054 C6.66494601,4.81416054 4.63657134,5.84114764 4.63657134,9.2466876 C4.63657134,11.4401292 6.15753913,12.7473189 9.66303162,14.8938488 L13.9052037,17.4600487 C19.2536481,20.6792095 21.1442086,23.2466772 21.1442086,26.9793316 C21.1442086,31.4587704 18.8376998,36.3122354 9.75449015,36.3122354" id="Fill-18" fill="#EA202C"></path>
                        <path d="M45.1158637,35.9853746 L42.8106078,35.9853746 C42.3032009,35.9853746 41.9348611,35.5657045 41.9348611,35.052211 L41.9348611,34.1646913 C39.3990795,35.6126163 37.3230963,36.312489 34.601892,36.312489 C29.0692777,36.312489 26.5798518,32.8131255 26.5798518,26.6068269 L26.5798518,11.2540036 C26.5798518,10.7405101 26.9945473,10.32084 27.5007013,10.32084 L29.7157516,10.32084 C30.2219057,10.32084 30.6366012,10.7405101 30.6366012,11.2540036 L30.6366012,26.6068269 C30.6366012,31.3195566 32.2051775,32.7649459 35.7094171,32.7649459 C37.6463333,32.7649459 39.813775,32.0194293 41.9348611,30.9455304 L41.9348611,11.2540036 C41.9348611,10.7861539 42.3495566,10.32084 42.8557106,10.32084 L45.1158637,10.32084 C45.5769149,10.32084 45.9916104,10.7405101 45.9916104,11.2540036 L45.9916104,35.052211 C45.9916104,35.5657045 45.6232706,35.9853746 45.1158637,35.9853746" id="Fill-20" fill="#EA202C"></path>
                        <path d="M62.6791579,13.540508 C60.5580718,13.540508 58.6224085,14.0996454 56.3158997,15.4993908 L56.3158997,35.0527181 C56.3158997,35.518032 55.9012042,35.9858817 55.3950502,35.9858817 L53.1348971,35.9858817 C52.6738459,35.9858817 52.2591504,35.5662117 52.2591504,35.0527181 L52.2591504,11.2532429 C52.2591504,10.7410172 52.6274902,10.3200793 53.1348971,10.3200793 L55.301086,10.3200793 C55.8097457,10.3200793 56.1780855,10.7410172 56.1780855,11.2532429 L56.1780855,12.2333182 C58.4833415,10.600282 60.6044275,9.99423278 62.6791579,9.99423278 C63.3256318,9.99423278 63.647616,10.2731675 63.647616,10.8335729 L63.647616,12.7468118 C63.647616,13.2603053 63.3256318,13.540508 62.6791579,13.540508" id="Fill-23" fill="#EA202C"></path>
                        <path d="M82.3662944,20.9131343 C82.3662944,15.6399993 80.3830225,13.587293 76.3262732,13.587293 C72.3609824,13.587293 70.1471849,15.8732902 70.1471849,20.9131343 L70.1471849,21.3328044 L82.3662944,21.3328044 L82.3662944,20.9131343 Z M85.5936527,24.4594095 L70.1471849,24.4594095 L70.1471849,25.1136384 C70.1471849,30.6657081 72.3146267,32.7196824 76.5555459,32.7196824 C79.2303946,32.7196824 82.6431757,32.5320353 84.7642617,32.2061888 L84.9947873,32.2061888 C85.36438,32.2061888 85.7327198,32.3925679 85.7327198,32.8591497 L85.7327198,34.4452743 C85.7327198,35.0525913 85.5485499,35.3784379 84.8093646,35.5191731 C82.1821245,36.0313988 79.6463429,36.3128693 76.5555459,36.3128693 C71.2534572,36.3128693 66.0891827,33.7923133 66.0891827,25.1136384 L66.0891827,20.9131343 C66.0891827,14.2402539 69.7324894,9.99410599 76.3262732,9.99410599 C83.0578712,9.99410599 86.4693994,14.2871657 86.4693994,20.9131343 L86.4693994,23.4324224 C86.4693994,24.0397395 86.1474153,24.4594095 85.5936527,24.4594095 Z" id="Fill-25" fill="#EA202C"></path>
                        <path d="M111.595562,15.499898 C111.595562,7.053246 107.35339,4.6277814 101.819523,4.6277814 C99.6533337,4.6277814 98.2238244,4.67342527 96.7016038,4.76724878 L96.7016038,32.579581 C98.1774687,32.6721367 99.6533337,32.6721367 101.819523,32.6721367 C107.35339,32.6721367 111.595562,30.1984924 111.595562,21.8000201 L111.595562,15.499898 Z M101.819523,36.3122354 C98.3152829,36.3122354 94.7646876,36.0789445 93.4278897,35.8456536 C92.8290243,35.7518301 92.4606845,35.3790718 92.4606845,34.6779312 L92.4606845,2.62071894 C92.4606845,1.96775801 92.8290243,1.54808797 93.4278897,1.45426446 C94.7646876,1.22097356 98.3152829,0.98768266 101.819523,0.98768266 C110.350222,0.98768266 115.791378,5.42020972 115.791378,15.499898 L115.791378,21.8000201 C115.791378,31.7858848 110.350222,36.3122354 101.819523,36.3122354 Z" id="Fill-28" fill="#EA202C"></path>
                        <path d="M131.970391,13.540508 C129.849305,13.540508 127.913642,14.0996454 125.607133,15.4993908 L125.607133,35.0527181 C125.607133,35.518032 125.192438,35.9858817 124.686284,35.9858817 L122.42613,35.9858817 C121.965079,35.9858817 121.550384,35.5662117 121.550384,35.0527181 L121.550384,11.2532429 C121.550384,10.7410172 121.918724,10.3200793 122.42613,10.3200793 L124.592319,10.3200793 C125.100979,10.3200793 125.469319,10.7410172 125.469319,11.2532429 L125.469319,12.2333182 C127.774575,10.600282 129.895661,9.99423278 131.970391,9.99423278 C132.616865,9.99423278 132.938849,10.2731675 132.938849,10.8335729 L132.938849,12.7468118 C132.938849,13.2603053 132.616865,13.540508 131.970391,13.540508" id="Fill-30" fill="#EA202C"></path>
                        <path d="M140.959386,35.9853746 L138.745589,35.9853746 C138.239435,35.9853746 137.823486,35.5657045 137.823486,35.052211 L137.823486,11.2540036 C137.823486,10.7405101 138.239435,10.32084 138.745589,10.32084 L140.959386,10.32084 C141.466793,10.32084 141.881488,10.7405101 141.881488,11.2540036 L141.881488,35.052211 C141.881488,35.5657045 141.466793,35.9853746 140.959386,35.9853746 M141.050845,6.2141595 L138.699233,6.2141595 C138.193079,6.2141595 137.778383,5.79448946 137.778383,5.28099591 L137.778383,1.54707366 C137.778383,1.03484799 138.193079,0.615177954 138.699233,0.615177954 L141.050845,0.615177954 C141.559504,0.615177954 141.9742,1.03484799 141.9742,1.54707366 L141.9742,5.28099591 C141.9742,5.79448946 141.559504,6.2141595 141.050845,6.2141595" id="Fill-32" fill="#EA202C"></path>
                        <path d="M168.162534,11.4405096 L161.93709,33.6525924 C161.338225,35.7522105 159.770901,36.3126158 157.787629,36.3126158 C155.80561,36.3126158 154.237034,35.7522105 153.636916,33.6525924 L147.412725,11.4405096 C147.366369,11.3010422 147.366369,11.2072187 147.366369,11.1133951 C147.366369,10.6468133 147.64325,10.3209668 148.104301,10.3209668 L150.641336,10.3209668 C151.009676,10.3209668 151.33166,10.5999016 151.517083,11.2072187 L156.819171,31.5517064 C157.096053,32.672517 157.326578,32.9058079 157.787629,32.9058079 C158.202325,32.9058079 158.479206,32.672517 158.756087,31.5517064 L164.059429,11.2072187 C164.242346,10.5999016 164.565583,10.3209668 164.935176,10.3209668 L167.470957,10.3209668 C167.930756,10.3209668 168.20889,10.6468133 168.20889,11.1133951 C168.20889,11.2072187 168.20889,11.3010422 168.162534,11.4405096" id="Fill-34" fill="#EA202C"></path>
                        <path d="M187.663747,20.9131343 C187.663747,15.6399993 185.681728,13.587293 181.623725,13.587293 C177.658435,13.587293 175.444637,15.8732902 175.444637,20.9131343 L175.444637,21.3328044 L187.663747,21.3328044 L187.663747,20.9131343 Z M190.891105,24.4594095 L175.444637,24.4594095 L175.444637,25.1136384 C175.444637,30.6657081 177.612079,32.7196824 181.852998,32.7196824 C184.527847,32.7196824 187.940628,32.5320353 190.061714,32.2061888 L190.29224,32.2061888 C190.661832,32.2061888 191.030172,32.3925679 191.030172,32.8591497 L191.030172,34.4452743 C191.030172,35.0525913 190.844749,35.3784379 190.10807,35.5191731 C187.479577,36.0313988 184.942542,36.3128693 181.852998,36.3128693 C176.550909,36.3128693 171.386635,33.7923133 171.386635,25.1136384 L171.386635,20.9131343 C171.386635,14.2402539 175.029942,9.99410599 181.623725,9.99410599 C188.355323,9.99410599 191.766852,14.2871657 191.766852,20.9131343 L191.766852,23.4324224 C191.766852,24.0397395 191.444868,24.4594095 190.891105,24.4594095 Z" id="Fill-37" fill="#EA202C"></path>
                        <path d="M207.080642,17.3551945 L206.361502,17.3551945 C206.256262,17.3551945 206.186102,17.284193 206.186102,17.1776906 L206.186102,12.9201317 C206.186102,11.5191184 206.028242,11.093109 204.345656,11.093109 L204.345656,17.1776906 C204.345656,17.284193 204.275496,17.3551945 204.170256,17.3551945 L203.43483,17.3551945 C203.32959,17.3551945 203.258177,17.284193 203.258177,17.1776906 L203.258177,11.093109 C202.52275,11.093109 201.89131,11.1463602 201.401443,11.1996113 L201.401443,17.1776906 C201.401443,17.284193 201.348823,17.3551945 201.243583,17.3551945 L200.524444,17.3551945 C200.419204,17.3551945 200.349044,17.284193 200.349044,17.1776906 L200.349044,10.5960979 C200.349044,10.3653428 200.419204,10.2765908 200.612144,10.2588404 C201.62821,10.1523381 202.71569,10.0813365 203.801916,10.0813365 C206.221182,10.0813365 207.256042,10.5250964 207.256042,12.9201317 L207.256042,17.1776906 C207.256042,17.284193 207.185882,17.3551945 207.080642,17.3551945 M199.419424,11.093109 L197.719298,11.093109 L197.719298,17.0711882 C197.719298,17.2131914 197.596518,17.3551945 197.438658,17.3551945 L196.877379,17.3551945 C196.719519,17.3551945 196.614279,17.2131914 196.614279,17.0711882 L196.614279,11.093109 L194.879072,11.093109 C194.738753,11.093109 194.598433,11.0221074 194.598433,10.8446035 L194.598433,10.4008436 C194.598433,10.24109 194.738753,10.1345877 194.879072,10.1345877 L199.419424,10.1345877 C199.559744,10.1345877 199.717604,10.24109 199.717604,10.4008436 L199.717604,10.8446035 C199.717604,11.0221074 199.559744,11.093109 199.419424,11.093109" id="Fill-40" fill="#EA202C"></path>
                    </g>
                </g>
            </g>
            <path d="M119.04,972.403753 C119.04,972.403753 177.351111,1032.99042 293.973333,1154.16375" id="Path-10" stroke="#FFFFFF" stroke-width="22.23" mask="url(#mask-2)"></path>
            <path d="M365.013597,949.345325 C371.805154,955.615388 438.937289,1023.8882 566.41,1154.16375" id="Path-10-Copy" stroke="#FFFFFF" stroke-width="22.23" mask="url(#mask-2)"></path>
            <path d="M556.389714,1016.16681 C563.181272,1022.43688 630.313406,1090.70969 757.786117,1220.98524" id="Path-10-Copy-2" stroke="#FFFFFF" stroke-width="6.84" mask="url(#mask-2)"></path>
            <path d="M18.3630474,987.618588 C25.1546051,993.888651 49.1847004,1017.10912 90.4533333,1057.28" id="Path-10-Copy-3" stroke="#FFFFFF" stroke-width="6.84" mask="url(#mask-2)"></path>
            <path d="M46.949714,1095.75063 C53.7412717,1102.02069 77.771367,1125.24116 119.04,1165.41204" id="Path-10-Copy-4" stroke="#FFFFFF" stroke-width="6.84" mask="url(#mask-2)"></path>
            <path d="M0.853333333,1034.85922 L656.213333,966.592553" id="Line" stroke="#FFFFFF" stroke-width="8.55" stroke-linecap="square" mask="url(#mask-2)"></path>
            <path d="M0.853333333,1067.80642 L192,1047.89333" id="Line-Copy" stroke="#FFFFFF" stroke-width="8.55" stroke-linecap="square" mask="url(#mask-2)"></path>
            <path d="M448.853333,1025.31042 L640,1005.39733" id="Line-Copy-2" stroke="#FFFFFF" stroke-width="8.55" stroke-linecap="square" mask="url(#mask-2)"></path>
            <path d="M0,1102.50667 L214.613333,1076.736" id="Line-Copy-3" stroke="#FFFFFF" stroke-width="8.55" stroke-linecap="square" mask="url(#mask-2)"></path>
            <path d="M283.306667,1138.34667 C283.306667,1138.34667 367.075556,1129.75644 534.613333,1112.576" id="Line-Copy-4" stroke="#FFFFFF" stroke-width="8.55" stroke-linecap="square" mask="url(#mask-2)"></path>
            <rect id="Rectangle-3" mask="url(#mask-2)" x="0" y="1" width="640" height="1136"></rect>
        </g>
    </g>
</svg>