<?xml version="1.0" encoding="UTF-8"?>
<svg width="128px" height="27px" viewBox="0 0 128 27" version="1.1" xmlns="http://www.w3.org/2000/svg" xmlns:xlink="http://www.w3.org/1999/xlink">
    <!-- Generator: Sketch 48.2 (47327) - http://www.bohemiancoding.com/sketch -->
    <title>Lojack_Logo</title>
    <desc>Created with Sketch.</desc>
    <defs></defs>
    <g id="Main-Nav-Pane-" stroke="none" stroke-width="1" fill="none" fill-rule="evenodd" transform="translate(-25.000000, -616.000000)">
        <g id="Lojack_Logo" transform="translate(25.000000, 615.000000)">
            <g id="Lo/Jack_Black" transform="translate(0.000000, 0.859375)">
                <g id="Logo-/-LoJack-Suredrive">
                    <path d="M8.10209882,21.0595449 L2.86494118,21.0595449 C1.72408471,21.0595449 1.18136471,20.8265562 1.18136471,19.5026461 L1.18136471,5.34220787 C1.18136471,5.04733146 0.972348235,4.81646629 0.705505882,4.81646629 L0.475708235,4.81646629 C0.208865882,4.81646629 0.000150588235,5.04733146 0.000150588235,5.34220787 L0.000150588235,19.5026461 C0.000150588235,21.3295449 0.910305882,22.1801966 2.86494118,22.1801966 L8.10209882,22.1801966 C8.40448,22.1801966 8.62373647,21.9784551 8.62373647,21.7005674 L8.62373647,21.5155112 C8.62373647,21.2427809 8.41441882,21.0595449 8.10209882,21.0595449" id="Fill-1" fill="#212121"></path>
                    <path d="M14.0545506,9.46720112 C10.9479153,9.46720112 9.23723294,11.4615607 9.23723294,15.0835045 L9.23723294,16.7028978 C9.23723294,20.3245382 10.9479153,22.3188978 14.0545506,22.3188978 C17.1611859,22.3188978 18.8718682,20.3245382 18.8718682,16.7028978 L18.8718682,15.0835045 C18.8718682,11.4615607 17.1611859,9.46720112 14.0545506,9.46720112 M17.6906541,15.0835045 L17.6906541,16.7028978 C17.6906541,19.7590551 16.5013082,21.2446618 14.0545506,21.2446618 C11.6077929,21.2446618 10.4187482,19.7590551 10.4187482,16.7028978 L10.4187482,15.0835045 C10.4187482,12.0273472 11.6077929,10.5414371 14.0545506,10.5414371 C16.5013082,10.5414371 17.6906541,12.0273472 17.6906541,15.0835045" id="Fill-3" fill="#212121"></path>
                    <path d="M30.2298955,21.0595449 C31.3704508,21.0595449 31.9131708,20.8265562 31.9131708,19.5026461 L31.9131708,5.34220787 C31.9131708,5.04733146 32.1221873,4.81646629 32.3893308,4.81646629 L32.6188273,4.81646629 C32.8856696,4.81646629 33.0946861,5.04733146 33.0946861,5.34220787 L33.0946861,19.5026461 C33.0946861,21.3295449 32.1842296,22.1801966 30.2298955,22.1801966 L26.3061685,22.1801966 C26.0040885,22.1801966 25.7845308,21.9784551 25.7845308,21.7005674 L25.7845308,21.5155112 C25.7845308,21.2427809 25.9941496,21.0595449 26.3061685,21.0595449 L30.2298955,21.0595449 Z" id="Fill-5" fill="#212121"></path>
                    <path d="M40.1611595,9.46720112 C38.6308819,9.46720112 37.8237289,9.5639764 36.8879736,9.6762236 C36.5708348,9.71869551 36.2856207,9.78877416 36.2856207,10.1776955 L36.2856207,10.3169427 C36.2856207,10.4561899 36.3277854,10.5651 36.4109101,10.6409427 C36.5163219,10.7374146 36.6789572,10.7726056 36.9081525,10.7492461 L37.2403501,10.7134483 C38.1520113,10.6136393 38.8109854,10.5414371 40.1611595,10.5414371 C42.2612631,10.5414371 42.9702325,11.3663022 42.9702325,13.8105607 L42.9702325,14.5574596 L41.286656,14.5574596 C37.2502889,14.5574596 35.5275595,15.649291 35.5275595,18.2070101 L35.5275595,18.5076506 C35.5275595,19.653482 35.8784301,22.3188978 39.1275219,22.3188978 C40.3027125,22.3188978 41.5534984,21.9521225 42.9473431,21.1976393 L42.9473431,21.6314596 C42.9473431,21.9339202 43.1915972,22.1802573 43.4918701,22.1802573 L43.6066184,22.1802573 C43.9074936,22.1802573 44.1514466,21.9339202 44.1514466,21.6314596 L44.1514466,13.8105607 C44.1514466,11.788291 43.6978748,9.46720112 40.1611595,9.46720112 Z M36.7087736,18.2070101 C36.7087736,16.2815157 37.8640866,15.6319989 41.286656,15.6319989 L42.9702325,15.6319989 L42.9702325,20.0991337 C41.4381478,20.9230888 40.3578278,21.2446618 39.1275219,21.2446618 C37.5225525,21.2446618 36.7087736,20.3239315 36.7087736,18.5076506 L36.7087736,18.2070101 Z" id="Fill-7" fill="#212121"></path>
                    <path d="M51.4536809,10.5413764 C52.1996951,10.5413764 53.0902739,10.6093315 54.1733045,10.748882 C54.3552151,10.7792191 54.5145374,10.7458483 54.6205515,10.6554438 C54.7084951,10.5802079 54.7551774,10.4712978 54.7551774,10.3399382 L54.7551774,10.1779382 C54.7551774,9.86607303 54.6118174,9.72530899 54.2434786,9.67616292 C53.1363539,9.54328652 52.1192809,9.46714045 51.4536809,9.46714045 C48.4657092,9.46714045 46.8200809,11.4618034 46.8200809,15.0834438 L46.8200809,16.6330618 C46.8200809,20.2465112 48.5090786,22.3188371 51.4536809,22.3188371 C52.1192809,22.3188371 53.1363539,22.242691 54.2434786,22.1098146 L54.2446833,22.1098146 C54.6118174,22.0603652 54.7551774,21.9199045 54.7551774,21.6083427 L54.7551774,21.4463427 C54.7551774,21.3146798 54.7084951,21.2057697 54.6202504,21.1305337 C54.5145374,21.0398258 54.3555162,21.0070618 54.1763162,21.0370955 C53.0902739,21.1769494 52.1996951,21.2449045 51.4536809,21.2449045 C49.1307068,21.2449045 48.0015962,19.7362416 48.0015962,16.6330618 L48.0015962,15.0834438 C48.0015962,12.0272865 49.1307068,10.5413764 51.4536809,10.5413764" id="Fill-9" fill="#212121"></path>
                    <path d="M64.8390174,21.4565056 L59.2476762,15.5040674 L64.8095021,10.3819551 C64.9844856,10.2311798 65.0462268,10.011236 64.9712339,9.80737079 C64.8944339,9.5974382 64.6965609,9.46729213 64.4553186,9.46729213 C64.2387727,9.46729213 64.017408,9.5507191 63.8457374,9.69876404 L58.3384245,14.885191 L58.3384245,5.34205618 C58.3384245,5.06204494 58.0947727,4.81631461 57.817088,4.81631461 L57.678848,4.81631461 C57.4011633,4.81631461 57.1575115,5.06204494 57.1575115,5.34205618 L57.1575115,21.7932472 C57.1575115,22.0732584 57.4011633,22.3189888 57.678848,22.3189888 L57.817088,22.3189888 C58.0947727,22.3189888 58.3384245,22.0732584 58.3384245,21.7932472 L58.3384245,16.1805843 L63.7517704,22.0159213 C64.0050598,22.2707528 64.2104621,22.3189888 64.5013986,22.3189888 C64.7269798,22.3189888 64.8995539,22.2200899 64.9745468,22.0471685 C65.0549609,21.8621124 65.0034598,21.6361011 64.8390174,21.4565056" id="Fill-11" fill="#212121"></path>
                    <path d="M67.4546748,11.9245045 C66.7803407,11.9245045 66.2349101,11.3747966 66.2349101,10.6955494 C66.2349101,10.0159989 66.7803407,9.46659438 67.4546748,9.46659438 C68.1293101,9.46659438 68.6798607,10.0159989 68.6798607,10.6955494 C68.6798607,11.3747966 68.1293101,11.9245045 67.4546748,11.9245045 Z M67.4546748,9.6719764 C66.8956913,9.6719764 66.4433242,10.1324933 66.4433242,10.6955494 C66.4433242,11.2586056 66.8956913,11.7145719 67.4546748,11.7145719 C68.0139595,11.7145719 68.4708442,11.2586056 68.4708442,10.6955494 C68.4708442,10.1324933 68.0139595,9.6719764 67.4546748,9.6719764 Z M67.9964913,11.4330438 L67.7700066,11.4330438 C67.7474184,11.4330438 67.7299501,11.4151449 67.721216,11.3972461 L67.4104019,10.8696843 C67.4061854,10.8608865 67.3793807,10.8475382 67.3661289,10.8475382 L67.2775831,10.8475382 L67.2284913,10.8475382 L67.2284913,11.3747966 C67.2284913,11.4014933 67.2065054,11.4330438 67.1757854,11.4330438 L66.9712866,11.4330438 C66.9402654,11.4330438 66.9182795,11.4014933 66.9182795,11.3747966 L66.9182795,10.0475494 C66.9182795,9.96685281 66.9447831,9.93560562 67.0155595,9.92680787 C67.0824207,9.91770674 67.2775831,9.90890899 67.3887172,9.90890899 C67.7654889,9.90890899 67.9916725,10.0251 67.9916725,10.3782236 L67.9916725,10.4049202 C67.9916725,10.6239539 67.8805384,10.7401449 67.7166984,10.7983921 L68.0359454,11.3481 C68.0407642,11.3568978 68.0449807,11.3702461 68.0449807,11.3835944 C68.0449807,11.4060438 68.0317289,11.4330438 67.9964913,11.4330438 Z M67.6944113,10.3782236 C67.6944113,10.230482 67.6100819,10.1770888 67.4104019,10.1770888 L67.2733666,10.1770888 L67.2197572,10.1770888 L67.2197572,10.6060551 C67.2507784,10.6060551 67.3887172,10.6106056 67.4104019,10.6106056 C67.6145995,10.6106056 67.6944113,10.5435607 67.6944113,10.4049202 L67.6944113,10.3782236 Z" id="Fill-16" fill="#212121"></path>
                    <polygon id="Fill-13" fill="#FF261C" points="26.6061101 0.303340449 19.5486419 26.8334191 20.7855736 26.8334191 27.8430419 0.303340449"></polygon>
                    <path d="M76.9310419,22.2342573 C76.1009995,22.2342573 75.4844913,22.1508303 74.9628536,22.0671 C74.7613666,22.0313022 74.7378748,21.983673 74.7378748,21.8520101 L74.7378748,21.3745045 C74.7378748,21.2428416 74.8324442,21.1833809 74.9393619,21.1833809 L74.9749007,21.1833809 C75.5200301,21.2310101 76.3856113,21.2549764 76.9310419,21.2549764 C78.3541007,21.2549764 78.7332819,20.681909 78.7332819,19.8458191 C78.7332819,19.248482 78.3896395,18.9141674 77.3105242,18.2455382 L76.1603313,17.5405045 C75.0694701,16.8718753 74.5243407,16.2627067 74.5243407,15.3073921 C74.5243407,13.8621337 75.5558701,13.1935045 77.3581101,13.1935045 C78.0574419,13.1935045 78.9703078,13.2654034 79.4211689,13.3366955 C79.5395313,13.3606618 79.622656,13.4204258 79.622656,13.5399539 L79.622656,14.0532573 C79.622656,14.1727854 79.5395313,14.2443809 79.4211689,14.2443809 L79.3970748,14.2443809 C78.8757384,14.2085831 78.045696,14.1727854 77.3581101,14.1727854 C76.1365384,14.1727854 75.6152019,14.4355045 75.6152019,15.3073921 C75.6152019,15.8689315 76.0064301,16.2029427 76.9075501,16.7526506 L77.9981101,17.4094483 C79.3735831,18.2334034 79.8599831,18.8905045 79.8599831,19.8458191 C79.8599831,20.9922573 79.2669666,22.2342573 76.9310419,22.2342573" id="Fill-18" fill="#FF261C"></path>
                    <path d="M86.0242522,22.150709 L85.4312358,22.150709 C85.3011275,22.150709 85.2059558,22.0433157 85.2059558,21.9119562 L85.2059558,21.6850348 C84.5539087,22.0554506 84.0205252,22.234136 83.3205911,22.234136 C81.8981346,22.234136 81.2578334,21.3385854 81.2578334,19.750136 L81.2578334,15.8208775 C81.2578334,15.689518 81.3644499,15.5821247 81.4948593,15.5821247 L82.0640828,15.5821247 C82.1944922,15.5821247 82.3014099,15.689518 82.3014099,15.8208775 L82.3014099,19.750136 C82.3014099,20.9563382 82.704384,21.3264506 83.605504,21.3264506 C84.1033487,21.3264506 84.6608264,21.135327 85.2059558,20.8607764 L85.2059558,15.8208775 C85.2059558,15.7013494 85.3128734,15.5821247 85.4429816,15.5821247 L86.0242522,15.5821247 C86.1429158,15.5821247 86.2495322,15.689518 86.2495322,15.8208775 L86.2495322,21.9119562 C86.2495322,22.0433157 86.1546616,22.150709 86.0242522,22.150709" id="Fill-20" fill="#FF261C"></path>
                    <path d="M90.5407247,16.4062011 C89.9949929,16.4062011 89.4971482,16.5493921 88.9044329,16.907673 L88.9044329,21.9117742 C88.9044329,22.0313022 88.7978165,22.1508303 88.6671059,22.1508303 L88.0864376,22.1508303 C87.9677741,22.1508303 87.8611576,22.0431337 87.8611576,21.9117742 L87.8611576,15.8206955 C87.8611576,15.6896393 87.9560282,15.5819427 88.0864376,15.5819427 L88.6436141,15.5819427 C88.7740235,15.5819427 88.8688941,15.6896393 88.8688941,15.8206955 L88.8688941,16.0715831 C89.4616094,15.6538416 90.0073412,15.4985157 90.5407247,15.4985157 C90.7066729,15.4985157 90.7894965,15.5701112 90.7894965,15.7136056 L90.7894965,16.2029427 C90.7894965,16.3346056 90.7066729,16.4062011 90.5407247,16.4062011" id="Fill-22" fill="#FF261C"></path>
                    <path d="M95.6030795,18.2930764 C95.6030795,16.9436831 95.0931878,16.4179416 94.0499125,16.4179416 C93.0301289,16.4179416 92.4609054,17.0031438 92.4609054,18.2930764 L92.4609054,18.4004697 L95.6030795,18.4004697 L95.6030795,18.2930764 Z M96.4331219,19.2007618 L92.4609054,19.2007618 L92.4609054,19.3679191 C92.4609054,20.7892112 93.0183831,21.3146494 94.1089431,21.3146494 C94.7965289,21.3146494 95.6741572,21.2670202 96.2195878,21.1832899 L96.2789195,21.1832899 C96.3737901,21.1832899 96.4686607,21.2312225 96.4686607,21.3504472 L96.4686607,21.7566607 C96.4686607,21.9119865 96.4210748,21.9954135 96.2313336,22.0312112 C95.5554936,22.1625708 94.9034466,22.2341663 94.1089431,22.2341663 C92.7455172,22.2341663 91.4176301,21.5892 91.4176301,19.3679191 L91.4176301,18.2930764 C91.4176301,16.5850989 92.3542889,15.4984247 94.0499125,15.4984247 C95.7807736,15.4984247 96.6584019,16.5972337 96.6584019,18.2930764 L96.6584019,18.9380427 C96.6584019,19.0933685 96.5752772,19.2007618 96.4331219,19.2007618 Z" id="Fill-24" fill="#FF261C"></path>
                    <path d="M103.118968,16.907764 C103.118968,14.7459438 102.028408,14.1249438 100.60535,14.1249438 C100.048173,14.1249438 99.6807379,14.1367753 99.2892085,14.1607416 L99.2892085,21.2787303 C99.6686908,21.3026966 100.048173,21.3026966 100.60535,21.3026966 C102.028408,21.3026966 103.118968,20.6695618 103.118968,18.5198764 L103.118968,16.907764 Z M100.60535,22.2343483 C99.7042296,22.2343483 98.7913638,22.1745843 98.4474202,22.1148202 C98.2935191,22.0908539 98.1986485,21.9955955 98.1986485,21.8163034 L98.1986485,13.6116404 C98.1986485,13.4441798 98.2935191,13.3367865 98.4474202,13.3128202 C98.7913638,13.2530562 99.7042296,13.1935955 100.60535,13.1935955 C102.799119,13.1935955 104.198084,14.3278989 104.198084,16.907764 L104.198084,18.5198764 C104.198084,21.0757753 102.799119,22.2343483 100.60535,22.2343483 Z" id="Fill-26" fill="#FF261C"></path>
                    <path d="M108.358686,16.4062011 C107.812954,16.4062011 107.31511,16.5493921 106.722394,16.907673 L106.722394,21.9117742 C106.722394,22.0313022 106.615778,22.1508303 106.485067,22.1508303 L105.904399,22.1508303 C105.785736,22.1508303 105.679119,22.0431337 105.679119,21.9117742 L105.679119,15.8206955 C105.679119,15.6896393 105.77399,15.5819427 105.904399,15.5819427 L106.461576,15.5819427 C106.591985,15.5819427 106.686856,15.6896393 106.686856,15.8206955 L106.686856,16.0715831 C107.279571,15.6538416 107.825303,15.4985157 108.358686,15.4985157 C108.524634,15.4985157 108.607458,15.5701112 108.607458,15.7136056 L108.607458,16.2029427 C108.607458,16.3346056 108.524634,16.4062011 108.358686,16.4062011" id="Fill-28" fill="#FF261C"></path>
                    <path d="M110.670155,22.150709 L110.100932,22.150709 C109.970522,22.150709 109.863605,22.0433157 109.863605,21.9119562 L109.863605,15.8208775 C109.863605,15.689518 109.970522,15.5821247 110.100932,15.5821247 L110.670155,15.5821247 C110.800565,15.5821247 110.907181,15.689518 110.907181,15.8208775 L110.907181,21.9119562 C110.907181,22.0433157 110.800565,22.150709 110.670155,22.150709 M110.693647,14.5312483 L110.088885,14.5312483 C109.958776,14.5312483 109.851859,14.4235517 109.851859,14.2921921 L109.851859,13.3365742 C109.851859,13.205518 109.958776,13.0978213 110.088885,13.0978213 L110.693647,13.0978213 C110.824358,13.0978213 110.930974,13.205518 110.930974,13.3365742 L110.930974,14.2921921 C110.930974,14.4235517 110.824358,14.5312483 110.693647,14.5312483" id="Fill-30" fill="#FF261C"></path>
                    <path d="M117.664858,15.8687798 L116.064407,21.5533416 C115.910204,22.0909146 115.50723,22.2341056 114.997338,22.2341056 C114.487447,22.2341056 114.084171,22.0909146 113.93027,21.5533416 L112.329517,15.8687798 C112.31747,15.832982 112.31747,15.8090157 112.31747,15.7850494 C112.31747,15.6655213 112.388548,15.5820944 112.507211,15.5820944 L113.15956,15.5820944 C113.254129,15.5820944 113.337254,15.6536899 113.38484,15.8090157 L114.748265,21.0160719 C114.819343,21.3027573 114.878675,21.362218 114.997338,21.362218 C115.103955,21.362218 115.175032,21.3027573 115.246411,21.0160719 L116.609837,15.8090157 C116.657122,15.6536899 116.740247,15.5820944 116.835117,15.5820944 L117.487164,15.5820944 C117.605828,15.5820944 117.676905,15.6655213 117.676905,15.7850494 C117.676905,15.8090157 117.676905,15.832982 117.664858,15.8687798" id="Fill-32" fill="#FF261C"></path>
                    <path d="M122.679567,18.2930764 C122.679567,16.9436831 122.169976,16.4179416 121.1264,16.4179416 C120.106616,16.4179416 119.537393,17.0031438 119.537393,18.2930764 L119.537393,18.4004697 L122.679567,18.4004697 L122.679567,18.2930764 Z M123.509609,19.2007618 L119.537393,19.2007618 L119.537393,19.3679191 C119.537393,20.7892112 120.094871,21.3146494 121.185732,21.3146494 C121.873318,21.3146494 122.750645,21.2670202 123.296075,21.1832899 L123.355407,21.1832899 C123.450579,21.1832899 123.545148,21.2312225 123.545148,21.3504472 L123.545148,21.7566607 C123.545148,21.9119865 123.497864,21.9954135 123.308122,22.0312112 C122.632282,22.1625708 121.980235,22.2341663 121.185732,22.2341663 C119.822306,22.2341663 118.494419,21.5892 118.494419,19.3679191 L118.494419,18.2930764 C118.494419,16.5850989 119.431078,15.4984247 121.1264,15.4984247 C122.857562,15.4984247 123.734889,16.5972337 123.734889,18.2930764 L123.734889,18.9380427 C123.734889,19.0933685 123.652066,19.2007618 123.509609,19.2007618 Z" id="Fill-34" fill="#FF261C"></path>
                    <path d="M127.673103,15.7597787 L127.488482,15.7597787 C127.461376,15.7597787 127.443004,15.741273 127.443004,15.714273 L127.443004,14.6245652 C127.443004,14.2656775 127.402647,14.1567674 126.969856,14.1567674 L126.969856,15.714273 C126.969856,15.741273 126.951785,15.7597787 126.924981,15.7597787 L126.735541,15.7597787 C126.708435,15.7597787 126.690364,15.741273 126.690364,15.714273 L126.690364,14.1567674 C126.500924,14.1567674 126.33859,14.1704191 126.212397,14.1840708 L126.212397,15.714273 C126.212397,15.741273 126.198844,15.7597787 126.17204,15.7597787 L125.986816,15.7597787 C125.960011,15.7597787 125.941941,15.741273 125.941941,15.714273 L125.941941,14.0296551 C125.941941,13.9704978 125.960011,13.9477449 126.009705,13.9431944 C126.271127,13.9161944 126.550317,13.8976888 126.83011,13.8976888 C127.452341,13.8976888 127.717978,14.0111494 127.717978,14.6245652 L127.717978,15.714273 C127.717978,15.741273 127.700209,15.7597787 127.673103,15.7597787 M125.703108,14.1567674 L125.2658,14.1567674 L125.2658,15.6869697 C125.2658,15.7233742 125.234176,15.7597787 125.193818,15.7597787 L125.049254,15.7597787 C125.008595,15.7597787 124.981489,15.7233742 124.981489,15.6869697 L124.981489,14.1567674 L124.535447,14.1567674 C124.499305,14.1567674 124.463164,14.1385652 124.463164,14.0930596 L124.463164,13.9795989 C124.463164,13.9386438 124.499305,13.9113404 124.535447,13.9113404 L125.703108,13.9113404 C125.738948,13.9113404 125.779607,13.9386438 125.779607,13.9795989 L125.779607,14.0930596 C125.779607,14.1385652 125.738948,14.1567674 125.703108,14.1567674" id="Fill-36" fill="#FF261C"></path>
                </g>
            </g>
        </g>
    </g>
</svg>