<?xml version="1.0" encoding="UTF-8"?>
<svg width="23px" height="22px" viewBox="0 0 23 22" version="1.1" xmlns="http://www.w3.org/2000/svg" xmlns:xlink="http://www.w3.org/1999/xlink">
    <!-- Generator: Sketch 48.2 (47327) - http://www.bohemiancoding.com/sketch -->
    <title>My Family_Icon</title>
    <desc>Created with Sketch.</desc>
    <defs></defs>
    <g id="Main-Nav-Pane-" stroke="none" stroke-width="1" fill="none" fill-rule="evenodd" transform="translate(-24.000000, -326.000000)" stroke-linejoin="round">
        <g id="My-Family" transform="translate(24.000000, 323.379531)" stroke="#37618D" stroke-width="0.71">
            <g id="My-Family_Icon" transform="translate(0.000000, 2.000000)">
                <g id="Group-8" transform="translate(0.500000, 0.926425)">
                    <path d="M13.33125,2.99029616 C13.33125,4.30224616 12.2682,5.36529616 10.95625,5.36529616 C9.6443,5.36529616 8.58125,4.30224616 8.58125,2.99029616 C8.58125,1.67834616 9.6443,0.615296165 10.95625,0.615296165 C12.2682,0.615296165 13.33125,1.67834616 13.33125,2.99029616 Z" id="Stroke-1"></path>
                    <path d="M19.03125,3.94029616 C19.03125,4.72689616 18.39285,5.36529616 17.60625,5.36529616 C16.81965,5.36529616 16.18125,4.72689616 16.18125,3.94029616 C16.18125,3.15369616 16.81965,2.51529616 17.60625,2.51529616 C18.39285,2.51529616 19.03125,3.15369616 19.03125,3.94029616 Z" id="Stroke-3"></path>
                    <path d="M5.73125,3.94029616 C5.73125,4.72689616 5.09285,5.36529616 4.30625,5.36529616 C3.51965,5.36529616 2.88125,4.72689616 2.88125,3.94029616 C2.88125,3.15369616 3.51965,2.51529616 4.30625,2.51529616 C5.09285,2.51529616 5.73125,3.15369616 5.73125,3.94029616 Z" id="Stroke-5"></path>
                    <path d="M15.70625,16.9535862 C19.36185,17.2613862 21.88125,17.9130862 21.88125,18.6654862 C21.88125,19.7142862 16.99065,20.5654862 10.95625,20.5654862 C4.9228,20.5654862 0.03125,19.7142862 0.03125,18.6654862 C0.03125,17.9149862 2.5345,17.2661362 6.16635,16.9573862" id="Stroke-7" stroke-linecap="round"></path>
                    <path d="M13.33125,15.8152962 L8.58125,15.8152962 L8.58125,9.64029616 C8.58125,8.32834616 9.6443,7.26529616 10.95625,7.26529616 C12.2682,7.26529616 13.33125,8.32834616 13.33125,9.64029616 L13.33125,15.8152962 Z" id="Stroke-9"></path>
                    <path d="M19.03125,13.9152962 L16.18125,13.9152962 L16.18125,8.69029616 C16.18125,7.90369616 16.81965,7.26529616 17.60625,7.26529616 C18.39285,7.26529616 19.03125,7.90369616 19.03125,8.69029616 L19.03125,13.9152962 Z" id="Stroke-11"></path>
                    <path d="M5.73125,13.9152962 L2.88125,13.9152962 L2.88125,8.69029616 C2.88125,7.90369616 3.51965,7.26529616 4.30625,7.26529616 C5.09285,7.26529616 5.73125,7.90369616 5.73125,8.69029616 L5.73125,13.9152962 Z" id="Stroke-13"></path>
                </g>
            </g>
        </g>
    </g>
</svg>