<?xml version="1.0" encoding="UTF-8"?>
<svg width="18px" height="19px" viewBox="0 0 18 19" version="1.1" xmlns="http://www.w3.org/2000/svg" xmlns:xlink="http://www.w3.org/1999/xlink">
    <!-- Generator: Sketch 48.2 (47327) - http://www.bohemiancoding.com/sketch -->
    <title>user_Icon</title>
    <desc>Created with Sketch.</desc>
    <defs></defs>
    <g id="Main-Nav-Pane-" stroke="none" stroke-width="1" fill="none" fill-rule="evenodd" transform="translate(-27.000000, -235.000000)" stroke-linecap="round" stroke-linejoin="round">
        <g id="My-Profile" transform="translate(27.000000, 231.000000)" stroke="#37618D" stroke-width="0.7">
            <g id="user_Icon" transform="translate(0.000000, 4.350119)">
                <path d="M6.60849375,9.94023195 L6.60849375,12.3360312 L2.19490106,13.9123773 C1.14282885,14.2886208 0.44056625,15.2843006 0.44056625,16.4015766 L0.44056625,18.0633925 L17.1820837,18.0633925 L17.1820837,16.4015766 C17.1820837,15.2843006 16.4798211,14.2886208 15.4277489,13.9123773 L11.0141562,12.3360312 L11.0141562,9.77546018" id="Stroke-437"></path>
                <path d="M13.1068459,5.286795 C13.1068459,8.20598697 11.1339903,10.57359 8.70118343,10.57359 C6.26749547,10.57359 4.29552094,8.20598697 4.29552094,5.286795 C4.29552094,2.36760303 6.26749547,0 8.70118343,0 C11.1339903,0 13.1068459,2.36760303 13.1068459,5.286795 L13.1068459,5.286795 Z" id="Stroke-438"></path>
                <path d="M13.0655208,4.80490363 C12.9174906,4.82252628 12.8152792,4.81723949 12.6663678,4.84631686 C11.1657991,5.13532832 10.2018402,4.59166957 9.37533791,3.14573114 C8.88014144,4.09559197 7.33022938,4.84631686 6.05787405,4.84631686 C5.43138884,4.84631686 4.89213575,4.71767152 4.35200153,4.43570912" id="Stroke-439"></path>
            </g>
        </g>
    </g>
</svg>