<?xml version="1.0" encoding="UTF-8" standalone="no"?>
<!DOCTYPE svg PUBLIC "-//W3C//DTD SVG 1.1//EN"
 "http://www.w3.org/Graphics/SVG/1.1/DTD/svg11.dtd">
<!-- Generated by graphviz version 2.40.1 (20161225.0304)
 -->
<!-- Title: dependencies Pages: 1 -->
<svg width="1707pt" height="211pt"
 viewBox="0.00 0.00 1707.00 211.00" xmlns="http://www.w3.org/2000/svg" xmlns:xlink="http://www.w3.org/1999/xlink">
<g id="graph0" class="graph" transform="scale(1 1) rotate(0) translate(4 207)">
<title>dependencies</title>
<polygon fill="#ffffff" stroke="transparent" points="-4,4 -4,-207 1703,-207 1703,4 -4,4"/>
<text text-anchor="start" x="828.5091" y="-42.4" font-family="sans-serif" font-weight="bold" font-size="14.00" fill="#000000">Legend</text>
<polygon fill="#ffffb3" stroke="transparent" points="615.5,-10 615.5,-30 635.5,-30 635.5,-10 615.5,-10"/>
<text text-anchor="start" x="639.129" y="-15.4" font-family="sans-serif" font-size="14.00" fill="#000000"> &#160;Declarations</text>
<polygon fill="#8dd3c7" stroke="transparent" points="728.5,-10 728.5,-30 748.5,-30 748.5,-10 728.5,-10"/>
<text text-anchor="start" x="752.2251" y="-15.4" font-family="sans-serif" font-size="14.00" fill="#000000"> &#160;Module</text>
<polygon fill="#80b1d3" stroke="transparent" points="814.5,-10 814.5,-30 834.5,-30 834.5,-10 814.5,-10"/>
<text text-anchor="start" x="838.2812" y="-15.4" font-family="sans-serif" font-size="14.00" fill="#000000"> &#160;Bootstrap</text>
<polygon fill="#fdb462" stroke="transparent" points="911.5,-10 911.5,-30 931.5,-30 931.5,-10 911.5,-10"/>
<text text-anchor="start" x="935.1732" y="-15.4" font-family="sans-serif" font-size="14.00" fill="#000000"> &#160;Providers</text>
<polygon fill="#fb8072" stroke="transparent" points="1007.5,-10 1007.5,-30 1027.5,-30 1027.5,-10 1007.5,-10"/>
<text text-anchor="start" x="1031.2258" y="-15.4" font-family="sans-serif" font-size="14.00" fill="#000000"> &#160;Exports</text>
<g id="clust1" class="cluster">
<title>cluster_CarListPageModule</title>
<polygon fill="none" stroke="#000000" stroke-dasharray="1,5" points="8,-70 8,-195 1691,-195 1691,-70 8,-70"/>
</g>
<g id="clust2" class="cluster">
<title>cluster_CarListPageModule_declarations</title>
<polygon fill="none" stroke="#000000" points="186,-78 186,-130 1683,-130 1683,-78 186,-78"/>
</g>
<g id="clust14" class="cluster">
<title>cluster_CarListPageModule_providers</title>
<polygon fill="none" stroke="#000000" points="16,-78 16,-130 178,-130 178,-78 16,-78"/>
</g>
<!-- CarListPageComponent -->
<g id="node1" class="node">
<title>CarListPageComponent</title>
<polygon fill="#ffffb3" stroke="#000000" points="1675.0351,-122 1524.9649,-122 1524.9649,-86 1675.0351,-86 1675.0351,-122"/>
<text text-anchor="middle" x="1600" y="-99.8" font-family="Times,serif" font-size="14.00" fill="#000000">CarListPageComponent</text>
</g>
<!-- CarListPageModule -->
<g id="node9" class="node">
<title>CarListPageModule</title>
<polygon fill="#8dd3c7" stroke="#000000" points="967.252,-187 964.252,-191 943.252,-191 940.252,-187 838.748,-187 838.748,-151 967.252,-151 967.252,-187"/>
<text text-anchor="middle" x="903" y="-164.8" font-family="Times,serif" font-size="14.00" fill="#000000">CarListPageModule</text>
</g>
<!-- CarListPageComponent&#45;&gt;CarListPageModule -->
<g id="edge1" class="edge">
<title>CarListPageComponent&#45;&gt;CarListPageModule</title>
<path fill="none" stroke="#000000" d="M1600,-122.0109C1600,-144.4852 1600,-180 1600,-180 1600,-180 977.3228,-180 977.3228,-180"/>
<polygon fill="#000000" stroke="#000000" points="977.3228,-176.5001 967.3228,-180 977.3227,-183.5001 977.3228,-176.5001"/>
</g>
<!-- CarSettingsComponent -->
<g id="node2" class="node">
<title>CarSettingsComponent</title>
<polygon fill="#ffffb3" stroke="#000000" points="1506.1582,-122 1359.8418,-122 1359.8418,-86 1506.1582,-86 1506.1582,-122"/>
<text text-anchor="middle" x="1433" y="-99.8" font-family="Times,serif" font-size="14.00" fill="#000000">CarSettingsComponent</text>
</g>
<!-- CarSettingsComponent&#45;&gt;CarListPageModule -->
<g id="edge2" class="edge">
<title>CarSettingsComponent&#45;&gt;CarListPageModule</title>
<path fill="none" stroke="#000000" d="M1433,-122.1289C1433,-142.5724 1433,-173 1433,-173 1433,-173 977.4585,-173 977.4585,-173"/>
<polygon fill="#000000" stroke="#000000" points="977.4586,-169.5001 967.4585,-173 977.4585,-176.5001 977.4586,-169.5001"/>
</g>
<!-- CarNameComponent -->
<g id="node3" class="node">
<title>CarNameComponent</title>
<polygon fill="#ffffb3" stroke="#000000" points="1341.4706,-122 1206.5294,-122 1206.5294,-86 1341.4706,-86 1341.4706,-122"/>
<text text-anchor="middle" x="1274" y="-99.8" font-family="Times,serif" font-size="14.00" fill="#000000">CarNameComponent</text>
</g>
<!-- CarNameComponent&#45;&gt;CarListPageModule -->
<g id="edge3" class="edge">
<title>CarNameComponent&#45;&gt;CarListPageModule</title>
<path fill="none" stroke="#000000" d="M1274,-122.2667C1274,-140.5552 1274,-166 1274,-166 1274,-166 977.6233,-166 977.6233,-166"/>
<polygon fill="#000000" stroke="#000000" points="977.6233,-162.5001 967.6233,-166 977.6232,-169.5001 977.6233,-162.5001"/>
</g>
<!-- RequestServiceComponent -->
<g id="node4" class="node">
<title>RequestServiceComponent</title>
<polygon fill="#ffffb3" stroke="#000000" points="1188.4115,-122 1019.5885,-122 1019.5885,-86 1188.4115,-86 1188.4115,-122"/>
<text text-anchor="middle" x="1104" y="-99.8" font-family="Times,serif" font-size="14.00" fill="#000000">RequestServiceComponent</text>
</g>
<!-- RequestServiceComponent&#45;&gt;CarListPageModule -->
<g id="edge4" class="edge">
<title>RequestServiceComponent&#45;&gt;CarListPageModule</title>
<path fill="none" stroke="#000000" d="M1104,-122.0091C1104,-138.0494 1104,-159 1104,-159 1104,-159 977.427,-159 977.427,-159"/>
<polygon fill="#000000" stroke="#000000" points="977.4271,-155.5001 967.427,-159 977.427,-162.5001 977.4271,-155.5001"/>
</g>
<!-- DateCustomChooserComponent -->
<g id="node5" class="node">
<title>DateCustomChooserComponent</title>
<polygon fill="#ffffb3" stroke="#000000" points="1001.9776,-122 804.0224,-122 804.0224,-86 1001.9776,-86 1001.9776,-122"/>
<text text-anchor="middle" x="903" y="-99.8" font-family="Times,serif" font-size="14.00" fill="#000000">DateCustomChooserComponent</text>
</g>
<!-- DateCustomChooserComponent&#45;&gt;CarListPageModule -->
<g id="edge5" class="edge">
<title>DateCustomChooserComponent&#45;&gt;CarListPageModule</title>
<path fill="none" stroke="#000000" d="M903,-122.1061C903,-122.1061 903,-140.991 903,-140.991"/>
<polygon fill="#000000" stroke="#000000" points="899.5001,-140.9909 903,-150.991 906.5001,-140.991 899.5001,-140.9909"/>
</g>
<!-- TimeCustomChooserComponent -->
<g id="node6" class="node">
<title>TimeCustomChooserComponent</title>
<polygon fill="#ffffb3" stroke="#000000" points="785.5996,-122 584.4004,-122 584.4004,-86 785.5996,-86 785.5996,-122"/>
<text text-anchor="middle" x="685" y="-99.8" font-family="Times,serif" font-size="14.00" fill="#000000">TimeCustomChooserComponent</text>
</g>
<!-- TimeCustomChooserComponent&#45;&gt;CarListPageModule -->
<g id="edge6" class="edge">
<title>TimeCustomChooserComponent&#45;&gt;CarListPageModule</title>
<path fill="none" stroke="#000000" d="M685,-122.0091C685,-138.0494 685,-159 685,-159 685,-159 828.4776,-159 828.4776,-159"/>
<polygon fill="#000000" stroke="#000000" points="828.4777,-162.5001 838.4776,-159 828.4776,-155.5001 828.4777,-162.5001"/>
</g>
<!-- RequestNotificationComponent -->
<g id="node7" class="node">
<title>RequestNotificationComponent</title>
<polygon fill="#ffffb3" stroke="#000000" points="566.0828,-122 371.9172,-122 371.9172,-86 566.0828,-86 566.0828,-122"/>
<text text-anchor="middle" x="469" y="-99.8" font-family="Times,serif" font-size="14.00" fill="#000000">RequestNotificationComponent</text>
</g>
<!-- RequestNotificationComponent&#45;&gt;CarListPageModule -->
<g id="edge7" class="edge">
<title>RequestNotificationComponent&#45;&gt;CarListPageModule</title>
<path fill="none" stroke="#000000" d="M469,-122.2667C469,-140.5552 469,-166 469,-166 469,-166 828.4944,-166 828.4944,-166"/>
<polygon fill="#000000" stroke="#000000" points="828.4945,-169.5001 838.4944,-166 828.4944,-162.5001 828.4945,-169.5001"/>
</g>
<!-- SpeedSettingsComponent -->
<g id="node8" class="node">
<title>SpeedSettingsComponent</title>
<polygon fill="#ffffb3" stroke="#000000" points="354.1582,-122 193.8418,-122 193.8418,-86 354.1582,-86 354.1582,-122"/>
<text text-anchor="middle" x="274" y="-99.8" font-family="Times,serif" font-size="14.00" fill="#000000">SpeedSettingsComponent</text>
</g>
<!-- SpeedSettingsComponent&#45;&gt;CarListPageModule -->
<g id="edge8" class="edge">
<title>SpeedSettingsComponent&#45;&gt;CarListPageModule</title>
<path fill="none" stroke="#000000" d="M274,-122.1289C274,-142.5724 274,-173 274,-173 274,-173 828.6419,-173 828.6419,-173"/>
<polygon fill="#000000" stroke="#000000" points="828.642,-176.5001 838.6419,-173 828.6419,-169.5001 828.642,-176.5001"/>
</g>
<!-- CarListProvider -->
<g id="node10" class="node">
<title>CarListProvider</title>
<ellipse fill="#fdb462" stroke="#000000" cx="97" cy="-104" rx="73.0094" ry="18"/>
<text text-anchor="middle" x="97" y="-99.8" font-family="Times,serif" font-size="14.00" fill="#000000">CarListProvider</text>
</g>
<!-- CarListProvider&#45;&gt;CarListPageModule -->
<g id="edge9" class="edge">
<title>CarListProvider&#45;&gt;CarListPageModule</title>
<path fill="none" stroke="#000000" d="M97,-122.0109C97,-144.4852 97,-180 97,-180 97,-180 828.7428,-180 828.7428,-180"/>
<polygon fill="#000000" stroke="#000000" points="828.7429,-183.5001 838.7428,-180 828.7428,-176.5001 828.7429,-183.5001"/>
</g>
</g>
</svg>
