<?xml version="1.0" encoding="UTF-8" standalone="no"?>
<!DOCTYPE svg PUBLIC "-//W3C//DTD SVG 1.1//EN"
 "http://www.w3.org/Graphics/SVG/1.1/DTD/svg11.dtd">
<!-- Generated by graphviz version 2.40.1 (20161225.0304)
 -->
<!-- Title: dependencies Pages: 1 -->
<svg width="504pt" height="211pt"
 viewBox="0.00 0.00 504.00 211.00" xmlns="http://www.w3.org/2000/svg" xmlns:xlink="http://www.w3.org/1999/xlink">
<g id="graph0" class="graph" transform="scale(1 1) rotate(0) translate(4 207)">
<title>dependencies</title>
<polygon fill="#ffffff" stroke="transparent" points="-4,4 -4,-207 500,-207 500,4 -4,4"/>
<text text-anchor="start" x="227.0091" y="-42.4" font-family="sans-serif" font-weight="bold" font-size="14.00" fill="#000000">Legend</text>
<polygon fill="#ffffb3" stroke="transparent" points="14,-10 14,-30 34,-30 34,-10 14,-10"/>
<text text-anchor="start" x="37.629" y="-15.4" font-family="sans-serif" font-size="14.00" fill="#000000"> &#160;Declarations</text>
<polygon fill="#8dd3c7" stroke="transparent" points="127,-10 127,-30 147,-30 147,-10 127,-10"/>
<text text-anchor="start" x="150.7251" y="-15.4" font-family="sans-serif" font-size="14.00" fill="#000000"> &#160;Module</text>
<polygon fill="#80b1d3" stroke="transparent" points="213,-10 213,-30 233,-30 233,-10 213,-10"/>
<text text-anchor="start" x="236.7812" y="-15.4" font-family="sans-serif" font-size="14.00" fill="#000000"> &#160;Bootstrap</text>
<polygon fill="#fdb462" stroke="transparent" points="310,-10 310,-30 330,-30 330,-10 310,-10"/>
<text text-anchor="start" x="333.6732" y="-15.4" font-family="sans-serif" font-size="14.00" fill="#000000"> &#160;Providers</text>
<polygon fill="#fb8072" stroke="transparent" points="406,-10 406,-30 426,-30 426,-10 406,-10"/>
<text text-anchor="start" x="429.7258" y="-15.4" font-family="sans-serif" font-size="14.00" fill="#000000"> &#160;Exports</text>
<g id="clust1" class="cluster">
<title>cluster_MyfamilyPageModule</title>
<polygon fill="none" stroke="#000000" stroke-dasharray="1,5" points="53,-70 53,-195 443,-195 443,-70 53,-70"/>
</g>
<g id="clust2" class="cluster">
<title>cluster_MyfamilyPageModule_declarations</title>
<polygon fill="none" stroke="#000000" points="255,-78 255,-130 435,-130 435,-78 255,-78"/>
</g>
<g id="clust7" class="cluster">
<title>cluster_MyfamilyPageModule_providers</title>
<polygon fill="none" stroke="#000000" points="61,-78 61,-130 247,-130 247,-78 61,-78"/>
</g>
<!-- MyfamilyPageComponent -->
<g id="node1" class="node">
<title>MyfamilyPageComponent</title>
<polygon fill="#ffffb3" stroke="#000000" points="427.0365,-122 262.9635,-122 262.9635,-86 427.0365,-86 427.0365,-122"/>
<text text-anchor="middle" x="345" y="-99.8" font-family="Times,serif" font-size="14.00" fill="#000000">MyfamilyPageComponent</text>
</g>
<!-- MyfamilyPageModule -->
<g id="node2" class="node">
<title>MyfamilyPageModule</title>
<polygon fill="#8dd3c7" stroke="#000000" points="320.2534,-187 317.2534,-191 296.2534,-191 293.2534,-187 177.7466,-187 177.7466,-151 320.2534,-151 320.2534,-187"/>
<text text-anchor="middle" x="249" y="-164.8" font-family="Times,serif" font-size="14.00" fill="#000000">MyfamilyPageModule</text>
</g>
<!-- MyfamilyPageComponent&#45;&gt;MyfamilyPageModule -->
<g id="edge1" class="edge">
<title>MyfamilyPageComponent&#45;&gt;MyfamilyPageModule</title>
<path fill="none" stroke="#000000" d="M291.5544,-122.1061C291.5544,-122.1061 291.5544,-140.991 291.5544,-140.991"/>
<polygon fill="#000000" stroke="#000000" points="288.0544,-140.9909 291.5544,-150.991 295.0544,-140.991 288.0544,-140.9909"/>
</g>
<!-- MyFamilyProvider -->
<g id="node3" class="node">
<title>MyFamilyProvider</title>
<ellipse fill="#fdb462" stroke="#000000" cx="154" cy="-104" rx="85.1314" ry="18"/>
<text text-anchor="middle" x="154" y="-99.8" font-family="Times,serif" font-size="14.00" fill="#000000">MyFamilyProvider</text>
</g>
<!-- MyFamilyProvider&#45;&gt;MyfamilyPageModule -->
<g id="edge2" class="edge">
<title>MyFamilyProvider&#45;&gt;MyfamilyPageModule</title>
<path fill="none" stroke="#000000" d="M208.3445,-118.104C208.3445,-118.104 208.3445,-140.7209 208.3445,-140.7209"/>
<polygon fill="#000000" stroke="#000000" points="204.8446,-140.7209 208.3445,-150.7209 211.8446,-140.7209 204.8446,-140.7209"/>
</g>
</g>
</svg>
