<?xml version="1.0" encoding="UTF-8" standalone="no"?>
<svg width="18px" height="16px" viewBox="0 0 18 16" version="1.1" xmlns="http://www.w3.org/2000/svg" xmlns:xlink="http://www.w3.org/1999/xlink">
    <!-- Generator: Sketch 48.2 (47327) - http://www.bohemiancoding.com/sketch -->
    <title>Alert_Mini_White</title>
    <desc>Created with Sketch.</desc>
    <defs></defs>
    <g id="Symbols" stroke="none" stroke-width="1" fill="none" fill-rule="evenodd">
        <g id="Alert_Mini_White">
            <path d="M9.23440255,1.11630164 L16.9484185,14.6158295 C17.0224012,14.7452992 16.9774201,14.91023 16.8479504,14.9842127 C16.807154,15.0075249 16.7609801,15.019787 16.7139928,15.019787 L1.28596096,15.019787 C1.13684408,15.019787 1.01596096,14.8989039 1.01596096,14.749787 C1.01596096,14.7027998 1.02822309,14.6566259 1.05153531,14.6158295 L8.76555125,1.11630164 C8.83953394,0.98683193 9.0044647,0.941850813 9.13393441,1.01583351 C9.17579286,1.03975262 9.21048344,1.0744432 9.23440255,1.11630164 Z" id="Triangle-3" fill="#FFFFFF"></path>
            <path d="M8.87816076,10.3449305 L8.87816076,6.00378055" id="Stroke-3" stroke="#E2231A" stroke-width="0.81" stroke-linecap="round" stroke-linejoin="round"></path>
            <path d="M8.8622951,11.8846123 C8.43484713,11.892291 8.09314472,12.2455114 8.09954364,12.6729594 C8.10722235,13.0978478 8.45276411,13.4369906 8.87637272,13.4369906 L8.89045035,13.4369906 C9.31789831,13.4293119 9.65960073,13.0748117 9.65320181,12.6473637 C9.6455231,12.2224753 9.29998133,11.8846123 8.87765251,11.8846123 L8.8622951,11.8846123 Z" id="Fill-5" fill="#E2231A"></path>
        </g>
    </g>
</svg>