<?xml version="1.0" encoding="UTF-8" standalone="no"?>
<svg width="47px" height="38px" viewBox="0 0 47 38" version="1.1" xmlns="http://www.w3.org/2000/svg" xmlns:xlink="http://www.w3.org/1999/xlink">
    <!-- Generator: Sketch 48.2 (47327) - http://www.bohemiancoding.com/sketch -->
    <title>CarHealth_Tooltip Icon</title>
    <desc>Created with Sketch.</desc>
    <defs></defs>
    <g id="Symbols" stroke="none" stroke-width="1" fill="none" fill-rule="evenodd">
        <g id="CarHealth_Tooltip-Icon">
            <g id="Group" transform="translate(3.000000, 7.000000)">
                <g id="Car-Issue_Icon" transform="translate(0.811768, 0.835449)" stroke="#E2231A" stroke-linecap="round" stroke-linejoin="round">
                    <g id="Car_Icon" transform="translate(0.011134, 0.056237)">
                        <g id="Car-Icon" transform="translate(0.026781, 0.095503)">
                            <g id="Page-1" transform="translate(17.532316, 7.618776) scale(-1, 1) translate(-17.532316, -7.618776) translate(0.032316, 0.118776)">
                                <path d="M34.5581416,7.16889525 C33.9608445,5.85410758 33.5584967,4.78251316 32.3267914,4.78251316 L28.5945339,4.78251316 C26.8054123,1.59417105 25.0783559,2.34933881e-13 23.4133647,1.06124376e-13 C18.0096366,-3.1243817e-13 20.6554677,-3.28177305e-13 16.9934262,-6.43250807e-14 C14.5520652,1.115758e-13 12.2253528,1.59417105 10.013289,4.78251316 L4.75340159,4.78251316 C1.74779821,4.78251316 0.273585769,6.90699134 0.330764278,11.1559477 L3.30589793,11.1559477 L30.6558233,11.1559477 L31.9021226,11.1559477 C29.9373407,11.1559477 30.1232789,11.1559477 32.4599373,11.1559477 C34.7965957,11.1559477 35.4959971,9.82693022 34.5581416,7.16889525 Z" id="Stroke-9"></path>
                                <path d="M18.5003088,2.05698703 C17.1734226,2.05698703 16.2598283,2.1217783 15.7595259,2.25136084 C15.2592235,2.38094338 14.3701134,3.07962104 13.0921955,4.34739383" id="Path-2"></path>
                                <path d="M30.7695364,10.8404032 C30.7695364,12.6818019 29.275068,14.1762703 27.4336694,14.1762703 C25.5922707,14.1762703 24.0978023,12.6818019 24.0978023,10.8404032 C24.0978023,8.99900459 25.5922707,7.50453613 27.4336694,7.50453613 C29.275068,7.50453613 30.7695364,8.99900459 30.7695364,10.8404032 Z" id="Stroke-1" fill="#FFFFFF"></path>
                                <path d="M11.7592745,10.8404032 C11.7592745,12.6818019 10.264806,14.1762703 8.42340739,14.1762703 C6.58200876,14.1762703 5.08754031,12.6818019 5.08754031,10.8404032 C5.08754031,8.99900459 6.58200876,7.50453613 8.42340739,7.50453613 C10.264806,7.50453613 11.7592745,8.99900459 11.7592745,10.8404032 Z" id="Stroke-5" fill="#FFFFFF"></path>
                            </g>
                        </g>
                    </g>
                </g>
                <g id="Alert_mini_Icon" transform="translate(18.811768, 7.435485)">
                    <path d="M11.0098986,0.379856375 L21.3719415,18.5134315 C21.440444,18.6333108 21.3987948,18.7860245 21.2789155,18.854527 C21.241141,18.8761124 21.1983875,18.8874662 21.1548807,18.8874662 L0.43079492,18.8874662 C0.292723732,18.8874662 0.18079492,18.7755374 0.18079492,18.6374662 C0.18079492,18.5939595 0.192148749,18.5512059 0.213734134,18.5134315 L10.575777,0.379856375 C10.6442795,0.259977013 10.7969932,0.218327831 10.9168726,0.286830324 C10.9556304,0.308977649 10.9877513,0.341098555 11.0098986,0.379856375 Z" id="Triangle-3" fill="#E2231A"></path>
                    <path d="M10.6320972,12.7188299 L10.6320972,6.99053126" id="Stroke-3" stroke="#FFFFFF" stroke-width="0.75" stroke-linecap="round" stroke-linejoin="round"></path>
                    <path d="M10.6111619,14.7504937 C10.0471294,14.7606261 9.59624115,15.2267128 9.60468475,15.7907453 C9.61481707,16.3514003 10.0707715,16.7989111 10.6297378,16.7989111 L10.6483137,16.7989111 C11.2123462,16.7887788 11.6632345,16.3210034 11.6547909,15.7569709 C11.6446585,15.1963158 11.1887041,14.7504937 10.6314265,14.7504937 L10.6111619,14.7504937 Z" id="Fill-5" fill="#FFFFFF"></path>
                </g>
            </g>
        </g>
    </g>
</svg>