<?xml version="1.0" encoding="UTF-8" standalone="no"?>
<svg width="78px" height="78px" viewBox="0 0 78 78" version="1.1" xmlns="http://www.w3.org/2000/svg" xmlns:xlink="http://www.w3.org/1999/xlink">
    <!-- Generator: Sketch 49 (51002) - http://www.bohemiancoding.com/sketch -->
    <title>Car Photo</title>
    <desc>Created with Sketch.</desc>
    <defs>
        <circle id="path-1" cx="38.5" cy="38.5" r="38.5"></circle>
    </defs>
    <g id="-" stroke="none" stroke-width="1" fill="none" fill-rule="evenodd">
        <g id="Home_First-Car-Photo" transform="translate(-149.000000, -426.000000)">
            <g id="Bottom_Card" transform="translate(17.000000, 422.000000)">
                <g id="Car-Photo" transform="translate(132.500000, 4.500000)">
                    <g id="Absent-Car-Photo">
                        <mask id="mask-2" fill="white">
                            <use xlink:href="#path-1"></use>
                        </mask>
                        <use id="Oval-2" fill="#DDDDDD" xlink:href="#path-1"></use>
                        <path d="M50.9415044,38.3906251 C50.9415044,36.5672891 52.7894545,35.0885504 55.0690979,35.0885504 C57.3487412,35.0885504 59.1966913,36.5672891 59.1966913,38.3906251 C59.1966913,40.2139612 57.3487412,41.6926999 55.0690979,41.6926999 C52.7894545,41.6926999 50.9415044,40.2139612 50.9415044,38.3906251 Z M48.6883686,42.641289 C48.6883686,44.2733925 43.9586766,44.0840534 38.500029,44.0840534 C33.0394879,44.0840534 28.309796,44.2733925 28.309796,42.641289 L28.309796,41.7646488 C28.309796,40.1325453 28.4953483,39.676238 30.1312386,39.676238 L46.8214846,39.676238 C48.4573748,39.676238 48.6883686,40.1325453 48.6883686,41.7646488 L48.6883686,42.641289 Z M17.8033666,38.3906251 C17.8033666,36.5672891 19.6513167,35.0885504 21.93096,35.0885504 C24.2106034,35.0885504 26.0585535,36.5672891 26.0585535,38.3906251 C26.0585535,40.2139612 24.2106034,41.6926999 21.93096,41.6926999 C19.6513167,41.6926999 17.8033666,40.2139612 17.8033666,38.3906251 Z M22.0672842,28.3139956 C23.754296,25.4057463 24.96796,23.2832544 25.5719519,22.183194 C26.1229288,21.1929502 26.9825285,20.5283698 27.8781027,20.393939 C29.8301893,20.1061435 34.9821076,19.7691198 38.4886686,19.7691198 C41.9952296,19.7691198 47.1414677,20.1061435 49.0973411,20.393939 C49.9891285,20.5283698 50.852515,21.1929502 51.3997052,22.183194 C52.0036971,23.2832544 53.217361,25.4057463 54.9043728,28.3139956 L55.0558441,28.5752837 L54.7775156,28.6869938 C54.7453279,28.6964607 54.7188205,28.7191814 54.6866328,28.7419021 C54.6146839,28.7873435 54.5275879,28.8460386 54.4272382,28.8630792 C50.5988006,29.6317961 43.9132352,29.6355829 38.4886686,29.6355829 C33.0584218,29.6355829 26.3728565,29.6317961 22.5444189,28.8630792 C22.4440691,28.8460386 22.3626533,28.7873435 22.2850242,28.7419021 C22.2528366,28.7191814 22.2263291,28.6964607 22.1941414,28.6869938 L21.9158129,28.5752837 L22.0672842,28.3139956 Z M60.7132979,32.5627661 L59.6795062,30.9666371 L60.4406495,30.9666371 C63.1387324,30.9666371 63.0686769,29.5787812 63.0686769,28.0053728 C63.0686769,27.382447 61.3248634,27.2215087 60.2948584,27.2215087 L59.2156252,27.2215087 C58.6078466,27.2215087 58.0909507,27.5339183 57.7482468,27.9864389 L57.1328946,27.0378498 L56.9795299,26.7765617 C55.355,23.972449 54.2360056,22.0203623 53.6547344,20.96953 C52.7269726,19.2881984 51.1630312,18.1313362 49.4760194,17.8795151 C47.1566148,17.5387047 41.8342914,17.2281885 38.4886686,17.2281885 C35.1411524,17.2281885 29.8150422,17.5387047 27.4956376,17.8795151 C25.8086258,18.1313362 24.2484712,19.2881984 23.3169226,20.96953 C22.7356514,22.0203623 21.616657,23.972449 19.9921271,26.7765617 L19.8425492,27.0378498 L19.2669582,27.9258504 C18.9223609,27.5074109 18.4206122,27.2215087 17.839341,27.2215087 L16.7582145,27.2215087 C15.7282095,27.2215087 13.9862893,27.382447 13.9862893,28.0053728 C13.9862893,29.5787812 13.9143405,30.9666371 16.6143167,30.9666371 L17.2940443,30.9666371 L16.2583591,32.5627661 L16.0008579,32.8770691 C15.353318,33.6514662 14.9348785,34.1683621 14.8174882,34.3349806 C14.1226135,35.3006102 13.9503149,36.3476557 13.931381,36.6808926 L13.931381,37.4003814 L13.931381,51.6008176 C13.931381,52.2937989 13.8404982,54.5488281 17.2826839,54.5488281 L22.1013653,54.5488281 C23.5289824,54.5488281 25.1251115,53.4714884 25.1251115,51.9245875 L25.1251115,50.3909404 C25.1251115,50.3909404 31.1025484,50.930557 38.4867752,50.930557 C45.8691086,50.930557 51.8465456,50.3909404 51.8465456,50.3909404 L51.8465456,51.9245875 C51.8465456,53.4714884 53.4426746,54.5488281 54.8702918,54.5488281 L59.6889731,54.5488281 C63.1311588,54.5488281 62.9891545,52.2937989 62.9891545,51.6008176 L62.9891545,37.4003814 L62.9891545,36.6998265 C62.9702206,36.3476557 62.8490435,35.3006102 62.1541688,34.3349806 C62.0367786,34.1683621 61.618339,33.6514662 60.9707992,32.8770691 L60.7132979,32.5627661 Z" id="Fill-1-Copy" fill="#C4C4C4" mask="url(#mask-2)"></path>
                    </g>
                </g>
            </g>
        </g>
    </g>
</svg>