<?xml version="1.0" encoding="UTF-8"?>
<svg width="22px" height="27px" viewBox="0 0 22 27" version="1.1" xmlns="http://www.w3.org/2000/svg" xmlns:xlink="http://www.w3.org/1999/xlink">
    <!-- Generator: Sketch 48.1 (47250) - http://www.bohemiancoding.com/sketch -->
    <title>Gray_Notification</title>
    <desc>Created with Sketch.</desc>
    <defs></defs>
    <g id="Symbols" stroke="none" stroke-width="1" fill="none" fill-rule="evenodd">
        <g id="Gray_Notification" stroke="#B2B2B2" stroke-width="1.75">
            <g id="Black-Notification" transform="translate(0.500000, 0.724609)">
                <path d="M20.1462879,17.0931866 C19.6835308,16.7155633 19.3674399,16.189588 19.3206584,15.5944941 L18.7525376,8.42723736 C18.7525376,3.88943581 15.074082,0.210558712 10.5362804,0.210558712 C5.99890032,0.210558712 2.32002322,3.88943581 2.32002322,8.42723736 L1.75190243,15.5944941 C1.70512097,16.189588 1.38903003,16.7155633 0.926272894,17.0931866 C0.425584843,17.5028405 0.130566631,18.1539878 0.230029914,18.8679319 C0.367002655,19.850764 1.27818748,20.5419495 2.27071303,20.5419495 L18.8022693,20.5419495 C19.7943734,20.5419495 20.7055582,19.850764 20.8425309,18.8679319 C20.9424157,18.1539878 20.646976,17.5028405 20.1462879,17.0931866 Z" id="Stroke-1"></path>
                <path d="M7.37545529,21.8608916 C7.37545529,23.606978 8.79027835,25.021801 10.5363647,25.021801 C12.2824511,25.021801 13.6972741,23.606978 13.6972741,21.8608916" id="Stroke-3"></path>
            </g>
        </g>
    </g>
</svg>