<?xml version="1.0" encoding="UTF-8" standalone="no"?>
<svg width="37px" height="38px" viewBox="0 0 37 38" version="1.1" xmlns="http://www.w3.org/2000/svg" xmlns:xlink="http://www.w3.org/1999/xlink">
    <!-- Generator: Sketch 48.2 (47327) - http://www.bohemiancoding.com/sketch -->
    <title>Group</title>
    <desc>Created with Sketch.</desc>
    <defs></defs>
    <g id="Tooltips_Admin-Preivileges" stroke="none" stroke-width="1" fill="none" fill-rule="evenodd" transform="translate(-1.000000, 0.000000)" stroke-linejoin="round">
        <g id="Group" transform="translate(0.000000, -1.000000)" stroke="#E2231A">
            <g id="Your_Name_Icon" transform="translate(0.500000, 0.986111)">
                <g id="user_Icon" transform="translate(0.680929, 0.903160)">
                    <path d="M13.6197611,20.0025955 L13.6197611,24.8236303 L4.52357664,27.9956903 C2.35531068,28.7528002 0.907984072,30.7563931 0.907984072,33.0046727 L0.907984072,36.3487225 L35.4113788,36.3487225 L35.4113788,33.0046727 C35.4113788,30.7563931 33.9640522,28.7528002 31.7957862,27.9956903 L22.6996018,24.8236303 L22.6996018,19.6710275" id="Stroke-437"></path>
                    <path d="M27.0125261,10.6385467 C27.0125261,16.5127976 22.9465735,21.2770934 17.9326854,21.2770934 C12.9169814,21.2770934 8.8528447,16.5127976 8.8528447,10.6385467 C8.8528447,4.76429583 12.9169814,0 17.9326854,0 C22.9465735,0 27.0125261,4.76429583 27.0125261,10.6385467 L27.0125261,10.6385467 Z" id="Stroke-438"></path>
                    <path d="M26.9273572,9.66884317 C26.6222746,9.70430499 26.4116223,9.69366645 26.1047237,9.75217845 C23.0121299,10.3337523 21.0254608,9.23975512 19.3220826,6.3301126 C18.3015085,8.24150482 15.1072206,9.75217845 12.4849626,9.75217845 C11.1938092,9.75217845 10.0824367,9.49330715 8.96924826,8.92591799" id="Stroke-439"></path>
                </g>
            </g>
        </g>
    </g>
</svg>