<?xml version="1.0" encoding="UTF-8"?>
<svg width="15px" height="10px" viewBox="0 0 15 10" version="1.1" xmlns="http://www.w3.org/2000/svg" xmlns:xlink="http://www.w3.org/1999/xlink">
    <!-- Generator: Sketch 48.1 (47250) - http://www.bohemiancoding.com/sketch -->
    <title>Hide_PW_Icon</title>
    <desc>Created with Sketch.</desc>
    <defs></defs>
    <g id="Symbols" stroke="none" stroke-width="1" fill="none" fill-rule="evenodd" stroke-linecap="round" stroke-linejoin="round">
        <g id="Hide_PW_Icon" stroke="#B6B6B6" stroke-width="0.75">
            <path d="M2.804,7.20015 C1.541,6.18015 0.856,5.10115 0.856,5.10115 C0.856,5.10115 2.956,1.02215 7.561,1.02215 C8.712,1.02215 9.7,1.27715 10.533,1.66015" id="Stroke-1"></path>
            <path d="M12.303,2.81055 C13.564,3.90655 14.144,5.10155 14.144,5.10155 C14.144,5.10155 11.68,8.97855 7.5,8.97855 C6.473,8.97855 5.549,8.74455 4.741,8.39155" id="Stroke-3"></path>
            <path d="M10.1888,4.39445 C10.2328,4.58945 10.2558,4.79245 10.2558,5.00045 C10.2558,6.52245 9.0218,7.75645 7.5008,7.75645 C6.9778,7.75645 6.4908,7.61145 6.0748,7.35945" id="Stroke-5"></path>
            <path d="M4.8675,5.81975 C4.7875,5.56075 4.7435,5.28575 4.7435,5.00075 C4.7435,3.47875 5.9775,2.24475 7.5005,2.24475 C8.0705,2.24475 8.6005,2.41775 9.0405,2.71575" id="Stroke-7"></path>
            <path d="M7.4485,3.80365 C7.4485,3.80365 6.2635,3.80365 6.2635,4.98865" id="Stroke-9"></path>
            <path d="M2.1194,8.97845 L13.0364,1.02145" id="Stroke-11"></path>
        </g>
    </g>
</svg>