<?xml version="1.0" encoding="utf-8"?>
<!-- Generator: Adobe Illustrator 21.1.0, SVG Export Plug-In . SVG Version: 6.00 Build 0)  -->
<svg version="1.1" id="Layer_1" xmlns="http://www.w3.org/2000/svg" xmlns:xlink="http://www.w3.org/1999/xlink" x="0px" y="0px"
	 viewBox="0 0 313 269" style="enable-background:new 0 0 313 269;" xml:space="preserve">
<style type="text/css">
	.st0{fill:#FFFFFF;}
	.st1{fill:#2B648F;}
	.st2{font-family:'NeoSansStd-Regular';}
	.st3{font-size:11.7612px;}
	.st4{fill:none;stroke:#DAE5EE;stroke-width:14.1134;stroke-linecap:round;}
</style>
<g>
	<polygon id="path-5" class="st0" points="279.3,180.9 281.7,181.5 281.1,183.8 278.7,183.2 	"/>
</g>
<g>
	<polygon id="path-3" class="st0" points="28,115.9 30.4,116.5 29.8,118.8 27.4,118.2 	"/>
</g>
<g>
	<polygon id="path-1" class="st0" points="184.1,30.3 186.6,30.9 185.9,33.4 183.5,32.7 	"/>
</g>
<title>Group</title>
<desc>Created with Sketch.</desc>
<g id="Group" transform="translate(28.000000, 201.000000)">
	
		<g id="Page-1-Copy-2" transform="translate(159.109675, 156.229457) rotate(14.500000) translate(-159.109675, -156.229457) translate(27.609675, 29.229457)">
		<g id="Group-3" transform="translate(129.591009, 0.457710)">
			<g id="Clip-2">
			</g>
			<path id="Fill-1" class="st1" d="M-80.3-188c0,0.7-0.6,1.2-1.2,1.2s-1.2-0.6-1.2-1.2c0-0.7,0.6-1.2,1.2-1.2
				C-80.8-189.2-80.3-188.6-80.3-188"/>
		</g>
		<path id="Fill-4" class="st1" d="M16.9-183.7c0.2,0.7-0.2,1.3-0.9,1.5c-0.7,0.2-1.3-0.2-1.5-0.9s0.2-1.3,0.9-1.5
			C16.1-184.8,16.7-184.4,16.9-183.7"/>
		<path id="Fill-6" class="st1" d="M-13.5-172c0.3,0.6,0.1,1.3-0.5,1.7c-0.6,0.3-1.3,0.1-1.7-0.5c-0.3-0.6-0.1-1.3,0.5-1.7
			C-14.6-172.8-13.8-172.6-13.5-172"/>
		<path id="Fill-8" class="st1" d="M-40.1-153.1c0.5,0.5,0.4,1.3-0.1,1.7c-0.5,0.5-1.3,0.4-1.7-0.1c-0.5-0.5-0.4-1.3,0.1-1.7
			S-40.5-153.6-40.1-153.1"/>
		<path id="Fill-10" class="st1" d="M-61.1-128.2c0.6,0.4,0.7,1.1,0.4,1.7c-0.4,0.6-1.1,0.7-1.7,0.4c-0.6-0.4-0.7-1.1-0.4-1.7
			C-62.4-128.4-61.7-128.5-61.1-128.2"/>
		<path id="Fill-12" class="st1" d="M-75.2-98.8c0.6,0.2,1,0.9,0.8,1.6c-0.2,0.6-0.9,1-1.6,0.8s-1-0.9-0.8-1.6
			C-76.6-98.7-75.9-99-75.2-98.8"/>
		<g id="Group-16" transform="translate(0.039269, 122.097893)">
			<g id="Clip-15">
			</g>
			<path id="Fill-14" class="st1" d="M-81.7-188.9c0.7,0,1.2,0.6,1.2,1.3s-0.6,1.2-1.3,1.2c-0.7,0-1.2-0.6-1.2-1.3
				C-83-188.5-82.4-189-81.7-188.9"/>
		</g>
		<path id="Fill-17" class="st1" d="M-79.9-34.3c0.7-0.1,1.3,0.3,1.4,1s-0.3,1.3-1,1.4s-1.3-0.3-1.4-1C-81-33.5-80.6-34.2-79.9-34.3
			"/>
		<path id="Fill-19" class="st1" d="M-70.1-3.2c0.6-0.3,1.3,0,1.6,0.6c0.3,0.6,0,1.3-0.6,1.6s-1.3,0-1.6-0.6
			C-71-2.2-70.7-2.9-70.1-3.2"/>
		<path id="Fill-21" class="st1" d="M-52.9,24.5c0.5-0.4,1.3-0.4,1.7,0.2c0.4,0.5,0.4,1.3-0.2,1.7c-0.5,0.4-1.3,0.4-1.7-0.2
			C-53.5,25.7-53.4,24.9-52.9,24.5"/>
		<path id="Fill-23" class="st1" d="M-29.4,47c0.4-0.5,1.2-0.7,1.7-0.3s0.7,1.2,0.3,1.7s-1.2,0.7-1.7,0.3
			C-29.6,48.4-29.8,47.6-29.4,47"/>
		<path id="Fill-25" class="st1" d="M-1,63c0.3-0.6,1-0.9,1.6-0.7c0.6,0.3,0.9,1,0.7,1.6c-0.3,0.6-1,0.9-1.6,0.7S-1.2,63.7-1,63"/>
		<path id="Fill-35" class="st1" d="M147.5,26.4c-0.5-0.4-0.6-1.2-0.2-1.7c0.4-0.5,1.2-0.6,1.7-0.2s0.6,1.2,0.2,1.7
			C148.8,26.8,148,26.8,147.5,26.4"/>
		<path id="Fill-37" class="st1" d="M165.2-1c-0.6-0.3-0.9-1-0.6-1.6c0.3-0.6,1-0.9,1.6-0.6c0.6,0.3,0.9,1,0.6,1.6
			S165.8-0.7,165.2-1"/>
		<path id="Fill-39" class="st1" d="M175.6-31.9c-0.7-0.1-1.1-0.8-1-1.4c0.1-0.7,0.8-1.1,1.4-1c0.7,0.1,1.1,0.8,1,1.4
			C176.9-32.2,176.3-31.7,175.6-31.9"/>
		<g id="Group-43" transform="translate(259.142748, 122.097893)">
			<g id="Clip-42">
			</g>
			<path id="Fill-41" class="st1" d="M-81.2-186.5c-0.7,0-1.3-0.5-1.3-1.2s0.5-1.3,1.2-1.3s1.3,0.5,1.3,1.2S-80.5-186.5-81.2-186.5"
				/>
		</g>
		<path id="Fill-44" class="st1" d="M172.1-96.5c-0.6,0.2-1.3-0.1-1.6-0.8c-0.2-0.6,0.1-1.3,0.8-1.6c0.6-0.2,1.3,0.1,1.6,0.8
			C173.1-97.4,172.8-96.7,172.1-96.5"/>
		<path id="Fill-46" class="st1" d="M158.5-126.1c-0.6,0.4-1.3,0.2-1.7-0.4s-0.2-1.3,0.4-1.7c0.6-0.4,1.3-0.2,1.7,0.4
			C159.3-127.2,159.1-126.5,158.5-126.1"/>
		<path id="Fill-48" class="st1" d="M138-151.4c-0.5,0.5-1.2,0.5-1.7,0.1c-0.5-0.5-0.5-1.2-0.1-1.7c0.5-0.5,1.2-0.5,1.7-0.1
			S138.5-151.9,138-151.4"/>
		<path id="Fill-50" class="st1" d="M111.8-170.8c-0.3,0.6-1.1,0.8-1.7,0.5s-0.8-1.1-0.5-1.7c0.3-0.6,1.1-0.8,1.7-0.5
			S112.1-171.4,111.8-170.8"/>
		<path id="Fill-52" class="st1" d="M81.6-183.1c-0.2,0.7-0.8,1.1-1.5,0.9c-0.7-0.2-1.1-0.8-0.9-1.5s0.8-1.1,1.5-0.9
			C81.4-184.4,81.8-183.8,81.6-183.1"/>
	</g>
	<text transform="matrix(1 0 0 1 30.901 67.1186)" class="st1 st2 st3">25</text>
	<text transform="matrix(1 0 0 1 -14.9259 16.9306)" class="st1 st2 st3">35</text>
	<text transform="matrix(1 0 0 1 -27.5573 -47.7477)" class="st1 st2 st3">45</text>
	<text transform="matrix(1 0 0 1 -7.8318 -117.7788)" class="st1 st2 st3">55</text>
	<text transform="matrix(1 0 0 1 43.3812 -170.3752)" class="st1 st2 st3">65</text>
	<text transform="matrix(1 0 0 1 117.9055 -190.9069)" class="st1 st2 st3">75</text>
	<text transform="matrix(1 0 0 1 199.5566 -169.2458)" class="st1 st2 st3">85</text>
	<text transform="matrix(1 0 0 1 249.4818 -117.7788)" class="st1 st2 st3">95</text>
	<text transform="matrix(1 0 0 1 263.7897 -48.1473)" class="st1 st2 st3">105</text>
	<text transform="matrix(1 0 0 1 253.0014 16.5395)" class="st1 st2 st3">115</text>
	<text transform="matrix(1 0 0 1 206.0596 68.0972)" class="st1 st2 st3">125</text>
	<path id="Oval-15-Copy-2" class="st4" d="M185.8,38.7c18-13.5,31.8-33,37.9-56.5c14.2-54.9-18.8-110.9-73.7-125.1
		C95.1-157.1,39-124.1,24.8-69.2c-11,42.7,6.5,86.1,40.6,110"/>
</g>
</svg>
