<?xml version="1.0" encoding="UTF-8" standalone="no"?>
<!DOCTYPE svg PUBLIC "-//W3C//DTD SVG 1.1//EN"
 "http://www.w3.org/Graphics/SVG/1.1/DTD/svg11.dtd">
<!-- Generated by graphviz version 2.40.1 (20161225.0304)
 -->
<!-- Title: dependencies Pages: 1 -->
<svg width="6128pt" height="284pt"
 viewBox="0.00 0.00 6128.00 284.00" xmlns="http://www.w3.org/2000/svg" xmlns:xlink="http://www.w3.org/1999/xlink">
<g id="graph0" class="graph" transform="scale(1 1) rotate(0) translate(4 280)">
<title>dependencies</title>
<polygon fill="#ffffff" stroke="transparent" points="-4,4 -4,-280 6124,-280 6124,4 -4,4"/>
<text text-anchor="start" x="3039.0091" y="-42.4" font-family="sans-serif" font-weight="bold" font-size="14.00" fill="#000000">Legend</text>
<polygon fill="#ffffb3" stroke="transparent" points="2826,-10 2826,-30 2846,-30 2846,-10 2826,-10"/>
<text text-anchor="start" x="2849.629" y="-15.4" font-family="sans-serif" font-size="14.00" fill="#000000"> &#160;Declarations</text>
<polygon fill="#8dd3c7" stroke="transparent" points="2939,-10 2939,-30 2959,-30 2959,-10 2939,-10"/>
<text text-anchor="start" x="2962.7251" y="-15.4" font-family="sans-serif" font-size="14.00" fill="#000000"> &#160;Module</text>
<polygon fill="#80b1d3" stroke="transparent" points="3025,-10 3025,-30 3045,-30 3045,-10 3025,-10"/>
<text text-anchor="start" x="3048.7812" y="-15.4" font-family="sans-serif" font-size="14.00" fill="#000000"> &#160;Bootstrap</text>
<polygon fill="#fdb462" stroke="transparent" points="3122,-10 3122,-30 3142,-30 3142,-10 3122,-10"/>
<text text-anchor="start" x="3145.6732" y="-15.4" font-family="sans-serif" font-size="14.00" fill="#000000"> &#160;Providers</text>
<polygon fill="#fb8072" stroke="transparent" points="3218,-10 3218,-30 3238,-30 3238,-10 3218,-10"/>
<text text-anchor="start" x="3241.7258" y="-15.4" font-family="sans-serif" font-size="14.00" fill="#000000"> &#160;Exports</text>
<g id="clust1" class="cluster">
<title>cluster_AppModule</title>
<polygon fill="none" stroke="#000000" stroke-dasharray="1,5" points="8,-70 8,-268 6112,-268 6112,-70 8,-70"/>
</g>
<g id="clust2" class="cluster">
<title>cluster_AppModule_declarations</title>
<polygon fill="none" stroke="#000000" points="3242,-78 3242,-130 6104,-130 6104,-78 3242,-78"/>
</g>
<g id="clust20" class="cluster">
<title>cluster_AppModule_imports</title>
<polygon fill="none" stroke="#000000" points="1563,-78 1563,-130 3234,-130 3234,-78 1563,-78"/>
</g>
<g id="clust22" class="cluster">
<title>cluster_AppModule_bootstrap</title>
<polygon fill="none" stroke="#000000" points="3122,-208 3122,-260 3210,-260 3210,-208 3122,-208"/>
</g>
<g id="clust23" class="cluster">
<title>cluster_AppModule_providers</title>
<polygon fill="none" stroke="#000000" points="16,-78 16,-130 1555,-130 1555,-78 16,-78"/>
</g>
<!-- LojackAppComponent -->
<g id="node1" class="node">
<title>LojackAppComponent</title>
<polygon fill="#ffffb3" stroke="#000000" points="6096.3117,-122 5951.6883,-122 5951.6883,-86 6096.3117,-86 6096.3117,-122"/>
<text text-anchor="middle" x="6024" y="-99.8" font-family="Times,serif" font-size="14.00" fill="#000000">LojackAppComponent</text>
</g>
<!-- AppModule -->
<g id="node18" class="node">
<title>AppModule</title>
<polygon fill="#8dd3c7" stroke="#000000" points="3207.6571,-187 3204.6571,-191 3183.6571,-191 3180.6571,-187 3124.3429,-187 3124.3429,-151 3207.6571,-151 3207.6571,-187"/>
<text text-anchor="middle" x="3166" y="-164.8" font-family="Times,serif" font-size="14.00" fill="#000000">AppModule</text>
</g>
<!-- LojackAppComponent&#45;&gt;AppModule -->
<g id="edge1" class="edge">
<title>LojackAppComponent&#45;&gt;AppModule</title>
<path fill="none" stroke="#000000" d="M6024,-122.3802C6024,-146.2785 6024,-185 6024,-185 6024,-185 3217.7809,-185 3217.7809,-185"/>
<polygon fill="#000000" stroke="#000000" points="3217.7809,-181.5001 3207.7809,-185 3217.7809,-188.5001 3217.7809,-181.5001"/>
</g>
<!-- HomePage -->
<g id="node2" class="node">
<title>HomePage</title>
<polygon fill="#ffffb3" stroke="#000000" points="5933.9248,-122 5856.0752,-122 5856.0752,-86 5933.9248,-86 5933.9248,-122"/>
<text text-anchor="middle" x="5895" y="-99.8" font-family="Times,serif" font-size="14.00" fill="#000000">HomePage</text>
</g>
<!-- HomePage&#45;&gt;AppModule -->
<g id="edge2" class="edge">
<title>HomePage&#45;&gt;AppModule</title>
<path fill="none" stroke="#000000" d="M5895,-122.3228C5895,-145.6602 5895,-183 5895,-183 5895,-183 3217.774,-183 3217.774,-183"/>
<polygon fill="#000000" stroke="#000000" points="3217.7741,-179.5001 3207.774,-183 3217.774,-186.5001 3217.7741,-179.5001"/>
</g>
<!-- AccSetupStepsComponent -->
<g id="node3" class="node">
<title>AccSetupStepsComponent</title>
<polygon fill="#ffffb3" stroke="#000000" points="5838.0884,-122 5671.9116,-122 5671.9116,-86 5838.0884,-86 5838.0884,-122"/>
<text text-anchor="middle" x="5755" y="-99.8" font-family="Times,serif" font-size="14.00" fill="#000000">AccSetupStepsComponent</text>
</g>
<!-- AccSetupStepsComponent&#45;&gt;AppModule -->
<g id="edge3" class="edge">
<title>AccSetupStepsComponent&#45;&gt;AppModule</title>
<path fill="none" stroke="#000000" d="M5755,-122.2479C5755,-145.0179 5755,-181 5755,-181 5755,-181 3217.7156,-181 3217.7156,-181"/>
<polygon fill="#000000" stroke="#000000" points="3217.7157,-177.5001 3207.7156,-181 3217.7156,-184.5001 3217.7157,-177.5001"/>
</g>
<!-- AddPersonComponent -->
<g id="node4" class="node">
<title>AddPersonComponent</title>
<polygon fill="#ffffb3" stroke="#000000" points="5653.5421,-122 5510.4579,-122 5510.4579,-86 5653.5421,-86 5653.5421,-122"/>
<text text-anchor="middle" x="5582" y="-99.8" font-family="Times,serif" font-size="14.00" fill="#000000">AddPersonComponent</text>
</g>
<!-- AddPersonComponent&#45;&gt;AppModule -->
<g id="edge4" class="edge">
<title>AddPersonComponent&#45;&gt;AppModule</title>
<path fill="none" stroke="#000000" d="M5582,-122.1554C5582,-144.3519 5582,-179 5582,-179 5582,-179 3217.6797,-179 3217.6797,-179"/>
<polygon fill="#000000" stroke="#000000" points="3217.6797,-175.5001 3207.6797,-179 3217.6796,-182.5001 3217.6797,-175.5001"/>
</g>
<!-- PasswordVerificationComponent -->
<g id="node5" class="node">
<title>PasswordVerificationComponent</title>
<polygon fill="#ffffb3" stroke="#000000" points="5492.1204,-122 5289.8796,-122 5289.8796,-86 5492.1204,-86 5492.1204,-122"/>
<text text-anchor="middle" x="5391" y="-99.8" font-family="Times,serif" font-size="14.00" fill="#000000">PasswordVerificationComponent</text>
</g>
<!-- PasswordVerificationComponent&#45;&gt;AppModule -->
<g id="edge5" class="edge">
<title>PasswordVerificationComponent&#45;&gt;AppModule</title>
<path fill="none" stroke="#000000" d="M5391,-122.0449C5391,-143.6623 5391,-177 5391,-177 5391,-177 3217.971,-177 3217.971,-177"/>
<polygon fill="#000000" stroke="#000000" points="3217.971,-173.5001 3207.971,-177 3217.971,-180.5001 3217.971,-173.5001"/>
</g>
<!-- PersonaldetailsComponent -->
<g id="node6" class="node">
<title>PersonaldetailsComponent</title>
<polygon fill="#ffffb3" stroke="#000000" points="5272.0856,-122 5105.9144,-122 5105.9144,-86 5272.0856,-86 5272.0856,-122"/>
<text text-anchor="middle" x="5189" y="-99.8" font-family="Times,serif" font-size="14.00" fill="#000000">PersonaldetailsComponent</text>
</g>
<!-- PersonaldetailsComponent&#45;&gt;AppModule -->
<g id="edge6" class="edge">
<title>PersonaldetailsComponent&#45;&gt;AppModule</title>
<path fill="none" stroke="#000000" d="M5189,-122.2843C5189,-143.3211 5189,-175 5189,-175 5189,-175 3217.7889,-175 3217.7889,-175"/>
<polygon fill="#000000" stroke="#000000" points="3217.7889,-171.5001 3207.7889,-175 3217.7888,-178.5001 3217.7889,-171.5001"/>
</g>
<!-- NotificationPage -->
<g id="node7" class="node">
<title>NotificationPage</title>
<polygon fill="#ffffb3" stroke="#000000" points="5088.3613,-122 4977.6387,-122 4977.6387,-86 5088.3613,-86 5088.3613,-122"/>
<text text-anchor="middle" x="5033" y="-99.8" font-family="Times,serif" font-size="14.00" fill="#000000">NotificationPage</text>
</g>
<!-- NotificationPage&#45;&gt;AppModule -->
<g id="edge7" class="edge">
<title>NotificationPage&#45;&gt;AppModule</title>
<path fill="none" stroke="#000000" d="M5033,-122.1289C5033,-142.5724 5033,-173 5033,-173 5033,-173 3218.0566,-173 3218.0566,-173"/>
<polygon fill="#000000" stroke="#000000" points="3218.0566,-169.5001 3208.0566,-173 3218.0566,-176.5001 3218.0566,-169.5001"/>
</g>
<!-- NotificationRecievedComponent -->
<g id="node8" class="node">
<title>NotificationRecievedComponent</title>
<polygon fill="#ffffb3" stroke="#000000" points="4959.5674,-122 4758.4326,-122 4758.4326,-86 4959.5674,-86 4959.5674,-122"/>
<text text-anchor="middle" x="4859" y="-99.8" font-family="Times,serif" font-size="14.00" fill="#000000">NotificationRecievedComponent</text>
</g>
<!-- NotificationRecievedComponent&#45;&gt;AppModule -->
<g id="edge8" class="edge">
<title>NotificationRecievedComponent&#45;&gt;AppModule</title>
<path fill="none" stroke="#000000" d="M4859,-122.308C4859,-142.1455 4859,-171 4859,-171 4859,-171 3217.8497,-171 3217.8497,-171"/>
<polygon fill="#000000" stroke="#000000" points="3217.8497,-167.5001 3207.8497,-171 3217.8496,-174.5001 3217.8497,-167.5001"/>
</g>
<!-- MaploaderComponent -->
<g id="node9" class="node">
<title>MaploaderComponent</title>
<polygon fill="#ffffb3" stroke="#000000" points="4739.972,-122 4598.028,-122 4598.028,-86 4739.972,-86 4739.972,-122"/>
<text text-anchor="middle" x="4669" y="-99.8" font-family="Times,serif" font-size="14.00" fill="#000000">MaploaderComponent</text>
</g>
<!-- MaploaderComponent&#45;&gt;AppModule -->
<g id="edge9" class="edge">
<title>MaploaderComponent&#45;&gt;AppModule</title>
<path fill="none" stroke="#000000" d="M4669,-122.1061C4669,-141.3391 4669,-169 4669,-169 4669,-169 3217.7675,-169 3217.7675,-169"/>
<polygon fill="#000000" stroke="#000000" points="3217.7675,-165.5001 3207.7675,-169 3217.7675,-172.5001 3217.7675,-165.5001"/>
</g>
<!-- TripdetailsComponent -->
<g id="node10" class="node">
<title>TripdetailsComponent</title>
<polygon fill="#ffffb3" stroke="#000000" points="4579.9818,-122 4438.0182,-122 4438.0182,-86 4579.9818,-86 4579.9818,-122"/>
<text text-anchor="middle" x="4509" y="-99.8" font-family="Times,serif" font-size="14.00" fill="#000000">TripdetailsComponent</text>
</g>
<!-- TripdetailsComponent&#45;&gt;AppModule -->
<g id="edge10" class="edge">
<title>TripdetailsComponent&#45;&gt;AppModule</title>
<path fill="none" stroke="#000000" d="M4509,-122.2222C4509,-140.8285 4509,-167 4509,-167 4509,-167 3217.666,-167 3217.666,-167"/>
<polygon fill="#000000" stroke="#000000" points="3217.666,-163.5001 3207.666,-167 3217.666,-170.5001 3217.666,-163.5001"/>
</g>
<!-- MyprofilePage -->
<g id="node11" class="node">
<title>MyprofilePage</title>
<polygon fill="#ffffb3" stroke="#000000" points="4419.9734,-122 4320.0266,-122 4320.0266,-86 4419.9734,-86 4419.9734,-122"/>
<text text-anchor="middle" x="4370" y="-99.8" font-family="Times,serif" font-size="14.00" fill="#000000">MyprofilePage</text>
</g>
<!-- MyprofilePage&#45;&gt;AppModule -->
<g id="edge11" class="edge">
<title>MyprofilePage&#45;&gt;AppModule</title>
<path fill="none" stroke="#000000" d="M4370,-122.302C4370,-140.2699 4370,-165 4370,-165 4370,-165 3217.794,-165 3217.794,-165"/>
<polygon fill="#000000" stroke="#000000" points="3217.7941,-161.5001 3207.794,-165 3217.794,-168.5001 3217.7941,-161.5001"/>
</g>
<!-- TooltipAlertComponent -->
<g id="node12" class="node">
<title>TooltipAlertComponent</title>
<polygon fill="#ffffb3" stroke="#000000" points="4301.8201,-122 4150.1799,-122 4150.1799,-86 4301.8201,-86 4301.8201,-122"/>
<text text-anchor="middle" x="4226" y="-99.8" font-family="Times,serif" font-size="14.00" fill="#000000">TooltipAlertComponent</text>
</g>
<!-- TooltipAlertComponent&#45;&gt;AppModule -->
<g id="edge12" class="edge">
<title>TooltipAlertComponent&#45;&gt;AppModule</title>
<path fill="none" stroke="#000000" d="M4226,-122.0225C4226,-139.3734 4226,-163 4226,-163 4226,-163 3217.8797,-163 3217.8797,-163"/>
<polygon fill="#000000" stroke="#000000" points="3217.8798,-159.5001 3207.8797,-163 3217.8797,-166.5001 3217.8798,-159.5001"/>
</g>
<!-- GeoZoneComponent -->
<g id="node13" class="node">
<title>GeoZoneComponent</title>
<polygon fill="#ffffb3" stroke="#000000" points="4132.9215,-122 3999.0785,-122 3999.0785,-86 4132.9215,-86 4132.9215,-122"/>
<text text-anchor="middle" x="4066" y="-99.8" font-family="Times,serif" font-size="14.00" fill="#000000">GeoZoneComponent</text>
</g>
<!-- GeoZoneComponent&#45;&gt;AppModule -->
<g id="edge13" class="edge">
<title>GeoZoneComponent&#45;&gt;AppModule</title>
<path fill="none" stroke="#000000" d="M4066,-122.0352C4066,-138.7344 4066,-161 4066,-161 4066,-161 3217.9023,-161 3217.9023,-161"/>
<polygon fill="#000000" stroke="#000000" points="3217.9024,-157.5001 3207.9023,-161 3217.9023,-164.5001 3217.9024,-157.5001"/>
</g>
<!-- PlaceIconsComponent -->
<g id="node14" class="node">
<title>PlaceIconsComponent</title>
<polygon fill="#ffffb3" stroke="#000000" points="3980.9692,-122 3839.0308,-122 3839.0308,-86 3980.9692,-86 3980.9692,-122"/>
<text text-anchor="middle" x="3910" y="-99.8" font-family="Times,serif" font-size="14.00" fill="#000000">PlaceIconsComponent</text>
</g>
<!-- PlaceIconsComponent&#45;&gt;AppModule -->
<g id="edge14" class="edge">
<title>PlaceIconsComponent&#45;&gt;AppModule</title>
<path fill="none" stroke="#000000" d="M3910,-122.0091C3910,-138.0494 3910,-159 3910,-159 3910,-159 3217.8633,-159 3217.8633,-159"/>
<polygon fill="#000000" stroke="#000000" points="3217.8633,-155.5001 3207.8633,-159 3217.8632,-162.5001 3217.8633,-155.5001"/>
</g>
<!-- PlaceSearchComponent -->
<g id="node15" class="node">
<title>PlaceSearchComponent</title>
<polygon fill="#ffffb3" stroke="#000000" points="3820.7366,-122 3671.2634,-122 3671.2634,-86 3820.7366,-86 3820.7366,-122"/>
<text text-anchor="middle" x="3746" y="-99.8" font-family="Times,serif" font-size="14.00" fill="#000000">PlaceSearchComponent</text>
</g>
<!-- PlaceSearchComponent&#45;&gt;AppModule -->
<g id="edge15" class="edge">
<title>PlaceSearchComponent&#45;&gt;AppModule</title>
<path fill="none" stroke="#000000" d="M3746,-122.2396C3746,-137.5706 3746,-157 3746,-157 3746,-157 3217.7122,-157 3217.7122,-157"/>
<polygon fill="#000000" stroke="#000000" points="3217.7122,-153.5001 3207.7122,-157 3217.7121,-160.5001 3217.7122,-153.5001"/>
</g>
<!-- CollisionDetailsComponent -->
<g id="node16" class="node">
<title>CollisionDetailsComponent</title>
<polygon fill="#ffffb3" stroke="#000000" points="3653.3285,-122 3480.6715,-122 3480.6715,-86 3653.3285,-86 3653.3285,-122"/>
<text text-anchor="middle" x="3567" y="-99.8" font-family="Times,serif" font-size="14.00" fill="#000000">CollisionDetailsComponent</text>
</g>
<!-- CollisionDetailsComponent&#45;&gt;AppModule -->
<g id="edge16" class="edge">
<title>CollisionDetailsComponent&#45;&gt;AppModule</title>
<path fill="none" stroke="#000000" d="M3567,-122.1243C3567,-136.7832 3567,-155 3567,-155 3567,-155 3217.7792,-155 3217.7792,-155"/>
<polygon fill="#000000" stroke="#000000" points="3217.7793,-151.5001 3207.7792,-155 3217.7792,-158.5001 3217.7793,-151.5001"/>
</g>
<!-- CollisionImpactTooltipComponent -->
<g id="node17" class="node">
<title>CollisionImpactTooltipComponent</title>
<polygon fill="#ffffb3" stroke="#000000" points="3462.2715,-122 3249.7285,-122 3249.7285,-86 3462.2715,-86 3462.2715,-122"/>
<text text-anchor="middle" x="3356" y="-99.8" font-family="Times,serif" font-size="14.00" fill="#000000">CollisionImpactTooltipComponent</text>
</g>
<!-- CollisionImpactTooltipComponent&#45;&gt;AppModule -->
<g id="edge17" class="edge">
<title>CollisionImpactTooltipComponent&#45;&gt;AppModule</title>
<path fill="none" stroke="#000000" d="M3356,-122.2458C3356,-136.1772 3356,-153 3356,-153 3356,-153 3217.6963,-153 3217.6963,-153"/>
<polygon fill="#000000" stroke="#000000" points="3217.6963,-149.5001 3207.6963,-153 3217.6963,-156.5001 3217.6963,-149.5001"/>
</g>
<!-- IonicApp  -->
<g id="node29" class="node">
<title>IonicApp </title>
<polygon fill="#80b1d3" stroke="#000000" points="3202.3734,-252 3129.6266,-252 3129.6266,-216 3202.3734,-216 3202.3734,-252"/>
<text text-anchor="middle" x="3166" y="-229.8" font-family="Times,serif" font-size="14.00" fill="#000000">IonicApp </text>
</g>
<!-- AppModule&#45;&gt;IonicApp  -->
<g id="edge28" class="edge">
<title>AppModule&#45;&gt;IonicApp </title>
<path fill="none" stroke="#000000" stroke-dasharray="1,5" d="M3166,-187.1061C3166,-187.1061 3166,-205.991 3166,-205.991"/>
<polygon fill="#000000" stroke="#000000" points="3162.5001,-205.9909 3166,-215.991 3169.5001,-205.991 3162.5001,-205.9909"/>
</g>
<!-- LoginPageModule -->
<g id="node19" class="node">
<title>LoginPageModule</title>
<polygon fill="#8dd3c7" stroke="#000000" points="3226.205,-122 3223.205,-126 3202.205,-126 3199.205,-122 3105.795,-122 3105.795,-86 3226.205,-86 3226.205,-122"/>
<text text-anchor="middle" x="3166" y="-99.8" font-family="Times,serif" font-size="14.00" fill="#000000">LoginPageModule</text>
</g>
<!-- LoginPageModule&#45;&gt;AppModule -->
<g id="edge18" class="edge">
<title>LoginPageModule&#45;&gt;AppModule</title>
<path fill="none" stroke="#000000" d="M3166,-122.1061C3166,-122.1061 3166,-140.991 3166,-140.991"/>
<polygon fill="#000000" stroke="#000000" points="3162.5001,-140.9909 3166,-150.991 3169.5001,-140.991 3162.5001,-140.9909"/>
</g>
<!-- AccountSetupModule -->
<g id="node20" class="node">
<title>AccountSetupModule</title>
<polygon fill="#8dd3c7" stroke="#000000" points="3087.3641,-122 3084.3641,-126 3063.3641,-126 3060.3641,-122 2948.6359,-122 2948.6359,-86 3087.3641,-86 3087.3641,-122"/>
<text text-anchor="middle" x="3018" y="-99.8" font-family="Times,serif" font-size="14.00" fill="#000000">AccountSetupModule</text>
</g>
<!-- AccountSetupModule&#45;&gt;AppModule -->
<g id="edge19" class="edge">
<title>AccountSetupModule&#45;&gt;AppModule</title>
<path fill="none" stroke="#000000" d="M3018,-122.2458C3018,-136.1772 3018,-153 3018,-153 3018,-153 3113.985,-153 3113.985,-153"/>
<polygon fill="#000000" stroke="#000000" points="3113.9851,-156.5001 3123.985,-153 3113.985,-149.5001 3113.9851,-156.5001"/>
</g>
<!-- MyfamilyPageModule -->
<g id="node21" class="node">
<title>MyfamilyPageModule</title>
<polygon fill="#8dd3c7" stroke="#000000" points="2930.2534,-122 2927.2534,-126 2906.2534,-126 2903.2534,-122 2787.7466,-122 2787.7466,-86 2930.2534,-86 2930.2534,-122"/>
<text text-anchor="middle" x="2859" y="-99.8" font-family="Times,serif" font-size="14.00" fill="#000000">MyfamilyPageModule</text>
</g>
<!-- MyfamilyPageModule&#45;&gt;AppModule -->
<g id="edge20" class="edge">
<title>MyfamilyPageModule&#45;&gt;AppModule</title>
<path fill="none" stroke="#000000" d="M2859,-122.1243C2859,-136.7832 2859,-155 2859,-155 2859,-155 3114.2771,-155 3114.2771,-155"/>
<polygon fill="#000000" stroke="#000000" points="3114.2771,-158.5001 3124.2771,-155 3114.2771,-151.5001 3114.2771,-158.5001"/>
</g>
<!-- MyprofilePageModule -->
<g id="node22" class="node">
<title>MyprofilePageModule</title>
<polygon fill="#8dd3c7" stroke="#000000" points="2769.524,-122 2766.524,-126 2745.524,-126 2742.524,-122 2626.476,-122 2626.476,-86 2769.524,-86 2769.524,-122"/>
<text text-anchor="middle" x="2698" y="-99.8" font-family="Times,serif" font-size="14.00" fill="#000000">MyprofilePageModule</text>
</g>
<!-- MyprofilePageModule&#45;&gt;AppModule -->
<g id="edge21" class="edge">
<title>MyprofilePageModule&#45;&gt;AppModule</title>
<path fill="none" stroke="#000000" d="M2698,-122.2396C2698,-137.5706 2698,-157 2698,-157 2698,-157 3114.0563,-157 3114.0563,-157"/>
<polygon fill="#000000" stroke="#000000" points="3114.0563,-160.5001 3124.0563,-157 3114.0562,-153.5001 3114.0563,-160.5001"/>
</g>
<!-- CarListPageModule -->
<g id="node23" class="node">
<title>CarListPageModule</title>
<polygon fill="#8dd3c7" stroke="#000000" points="2608.252,-122 2605.252,-126 2584.252,-126 2581.252,-122 2479.748,-122 2479.748,-86 2608.252,-86 2608.252,-122"/>
<text text-anchor="middle" x="2544" y="-99.8" font-family="Times,serif" font-size="14.00" fill="#000000">CarListPageModule</text>
</g>
<!-- CarListPageModule&#45;&gt;AppModule -->
<g id="edge22" class="edge">
<title>CarListPageModule&#45;&gt;AppModule</title>
<path fill="none" stroke="#000000" d="M2544,-122.0091C2544,-138.0494 2544,-159 2544,-159 2544,-159 3114.223,-159 3114.223,-159"/>
<polygon fill="#000000" stroke="#000000" points="3114.223,-162.5001 3124.223,-159 3114.223,-155.5001 3114.223,-162.5001"/>
</g>
<!-- CoreModule -->
<g id="node24" class="node">
<title>CoreModule</title>
<polygon fill="#8dd3c7" stroke="#000000" points="2461.2619,-122 2458.2619,-126 2437.2619,-126 2434.2619,-122 2374.7381,-122 2374.7381,-86 2461.2619,-86 2461.2619,-122"/>
<text text-anchor="middle" x="2418" y="-99.8" font-family="Times,serif" font-size="14.00" fill="#000000">CoreModule</text>
</g>
<!-- CoreModule&#45;&gt;AppModule -->
<g id="edge23" class="edge">
<title>CoreModule&#45;&gt;AppModule</title>
<path fill="none" stroke="#000000" d="M2418,-122.0352C2418,-138.7344 2418,-161 2418,-161 2418,-161 3114.1815,-161 3114.1815,-161"/>
<polygon fill="#000000" stroke="#000000" points="3114.1815,-164.5001 3124.1815,-161 3114.1814,-157.5001 3114.1815,-164.5001"/>
</g>
<!-- CarLocationHomePageModule -->
<g id="node25" class="node">
<title>CarLocationHomePageModule</title>
<polygon fill="#8dd3c7" stroke="#000000" points="2356.4482,-122 2353.4482,-126 2332.4482,-126 2329.4482,-122 2165.5518,-122 2165.5518,-86 2356.4482,-86 2356.4482,-122"/>
<text text-anchor="middle" x="2261" y="-99.8" font-family="Times,serif" font-size="14.00" fill="#000000">CarLocationHomePageModule</text>
</g>
<!-- CarLocationHomePageModule&#45;&gt;AppModule -->
<g id="edge24" class="edge">
<title>CarLocationHomePageModule&#45;&gt;AppModule</title>
<path fill="none" stroke="#000000" d="M2261,-122.0225C2261,-139.3734 2261,-163 2261,-163 2261,-163 3114.165,-163 3114.165,-163"/>
<polygon fill="#000000" stroke="#000000" points="3114.165,-166.5001 3124.165,-163 3114.165,-159.5001 3114.165,-166.5001"/>
</g>
<!-- CollisionSupportPageModule -->
<g id="node26" class="node">
<title>CollisionSupportPageModule</title>
<polygon fill="#8dd3c7" stroke="#000000" points="2147.4395,-122 2144.4395,-126 2123.4395,-126 2120.4395,-122 1964.5605,-122 1964.5605,-86 2147.4395,-86 2147.4395,-122"/>
<text text-anchor="middle" x="2056" y="-99.8" font-family="Times,serif" font-size="14.00" fill="#000000">CollisionSupportPageModule</text>
</g>
<!-- CollisionSupportPageModule&#45;&gt;AppModule -->
<g id="edge25" class="edge">
<title>CollisionSupportPageModule&#45;&gt;AppModule</title>
<path fill="none" stroke="#000000" d="M2056,-122.302C2056,-140.2699 2056,-165 2056,-165 2056,-165 3114.1779,-165 3114.1779,-165"/>
<polygon fill="#000000" stroke="#000000" points="3114.178,-168.5001 3124.1779,-165 3114.1779,-161.5001 3114.178,-168.5001"/>
</g>
<!-- TripwireBreachPageModule -->
<g id="node27" class="node">
<title>TripwireBreachPageModule</title>
<polygon fill="#8dd3c7" stroke="#000000" points="1946.8792,-122 1943.8792,-126 1922.8792,-126 1919.8792,-122 1771.1208,-122 1771.1208,-86 1946.8792,-86 1946.8792,-122"/>
<text text-anchor="middle" x="1859" y="-99.8" font-family="Times,serif" font-size="14.00" fill="#000000">TripwireBreachPageModule</text>
</g>
<!-- TripwireBreachPageModule&#45;&gt;AppModule -->
<g id="edge26" class="edge">
<title>TripwireBreachPageModule&#45;&gt;AppModule</title>
<path fill="none" stroke="#000000" d="M1859,-122.2222C1859,-140.8285 1859,-167 1859,-167 1859,-167 3113.9941,-167 3113.9941,-167"/>
<polygon fill="#000000" stroke="#000000" points="3113.9941,-170.5001 3123.9941,-167 3113.994,-163.5001 3113.9941,-170.5001"/>
</g>
<!-- ChangepasswordPageModule -->
<g id="node28" class="node">
<title>ChangepasswordPageModule</title>
<polygon fill="#8dd3c7" stroke="#000000" points="1753.3988,-122 1750.3988,-126 1729.3988,-126 1726.3988,-122 1570.6012,-122 1570.6012,-86 1753.3988,-86 1753.3988,-122"/>
<text text-anchor="middle" x="1662" y="-99.8" font-family="Times,serif" font-size="14.00" fill="#000000">ChangepasswordPageModule</text>
</g>
<!-- ChangepasswordPageModule&#45;&gt;AppModule -->
<g id="edge27" class="edge">
<title>ChangepasswordPageModule&#45;&gt;AppModule</title>
<path fill="none" stroke="#000000" d="M1662,-122.1061C1662,-141.3391 1662,-169 1662,-169 1662,-169 3114.2047,-169 3114.2047,-169"/>
<polygon fill="#000000" stroke="#000000" points="3114.2047,-172.5001 3124.2047,-169 3114.2047,-165.5001 3114.2047,-172.5001"/>
</g>
<!-- MyHttpLogInterceptor -->
<g id="node30" class="node">
<title>MyHttpLogInterceptor</title>
<ellipse fill="#fdb462" stroke="#000000" cx="1447" cy="-104" rx="99.5597" ry="18"/>
<text text-anchor="middle" x="1447" y="-99.8" font-family="Times,serif" font-size="14.00" fill="#000000">MyHttpLogInterceptor</text>
</g>
<!-- MyHttpLogInterceptor&#45;&gt;AppModule -->
<g id="edge29" class="edge">
<title>MyHttpLogInterceptor&#45;&gt;AppModule</title>
<path fill="none" stroke="#000000" d="M1447,-122.308C1447,-142.1455 1447,-171 1447,-171 1447,-171 3113.9345,-171 3113.9345,-171"/>
<polygon fill="#000000" stroke="#000000" points="3113.9345,-174.5001 3123.9345,-171 3113.9345,-167.5001 3113.9345,-174.5001"/>
</g>
<!-- LoginProvider -->
<g id="node31" class="node">
<title>LoginProvider</title>
<ellipse fill="#fdb462" stroke="#000000" cx="1262" cy="-104" rx="67.2177" ry="18"/>
<text text-anchor="middle" x="1262" y="-99.8" font-family="Times,serif" font-size="14.00" fill="#000000">LoginProvider</text>
</g>
<!-- LoginProvider&#45;&gt;AppModule -->
<g id="edge30" class="edge">
<title>LoginProvider&#45;&gt;AppModule</title>
<path fill="none" stroke="#000000" d="M1262,-122.1289C1262,-142.5724 1262,-173 1262,-173 1262,-173 3114.0132,-173 3114.0132,-173"/>
<polygon fill="#000000" stroke="#000000" points="3114.0133,-176.5001 3124.0132,-173 3114.0132,-169.5001 3114.0133,-176.5001"/>
</g>
<!-- SharedProvider -->
<g id="node32" class="node">
<title>SharedProvider</title>
<ellipse fill="#fdb462" stroke="#000000" cx="1106" cy="-104" rx="71.2075" ry="18"/>
<text text-anchor="middle" x="1106" y="-99.8" font-family="Times,serif" font-size="14.00" fill="#000000">SharedProvider</text>
</g>
<!-- SharedProvider&#45;&gt;AppModule -->
<g id="edge31" class="edge">
<title>SharedProvider&#45;&gt;AppModule</title>
<path fill="none" stroke="#000000" d="M1106,-122.2843C1106,-143.3211 1106,-175 1106,-175 1106,-175 3113.9172,-175 3113.9172,-175"/>
<polygon fill="#000000" stroke="#000000" points="3113.9173,-178.5001 3123.9172,-175 3113.9172,-171.5001 3113.9173,-178.5001"/>
</g>
<!-- PushNotificationsProvider -->
<g id="node33" class="node">
<title>PushNotificationsProvider</title>
<ellipse fill="#fdb462" stroke="#000000" cx="903" cy="-104" rx="113.4799" ry="18"/>
<text text-anchor="middle" x="903" y="-99.8" font-family="Times,serif" font-size="14.00" fill="#000000">PushNotificationsProvider</text>
</g>
<!-- PushNotificationsProvider&#45;&gt;AppModule -->
<g id="edge32" class="edge">
<title>PushNotificationsProvider&#45;&gt;AppModule</title>
<path fill="none" stroke="#000000" d="M903,-122.0449C903,-143.6623 903,-177 903,-177 903,-177 3114.2999,-177 3114.2999,-177"/>
<polygon fill="#000000" stroke="#000000" points="3114.2999,-180.5001 3124.2999,-177 3114.2998,-173.5001 3114.2999,-180.5001"/>
</g>
<!-- MapLoaderProvider -->
<g id="node34" class="node">
<title>MapLoaderProvider</title>
<ellipse fill="#fdb462" stroke="#000000" cx="682" cy="-104" rx="89.1684" ry="18"/>
<text text-anchor="middle" x="682" y="-99.8" font-family="Times,serif" font-size="14.00" fill="#000000">MapLoaderProvider</text>
</g>
<!-- MapLoaderProvider&#45;&gt;AppModule -->
<g id="edge33" class="edge">
<title>MapLoaderProvider&#45;&gt;AppModule</title>
<path fill="none" stroke="#000000" d="M682,-122.1554C682,-144.3519 682,-179 682,-179 682,-179 3114.1865,-179 3114.1865,-179"/>
<polygon fill="#000000" stroke="#000000" points="3114.1865,-182.5001 3124.1865,-179 3114.1864,-175.5001 3114.1865,-182.5001"/>
</g>
<!-- LojackMapProvider -->
<g id="node35" class="node">
<title>LojackMapProvider</title>
<ellipse fill="#fdb462" stroke="#000000" cx="486" cy="-104" rx="88.6063" ry="18"/>
<text text-anchor="middle" x="486" y="-99.8" font-family="Times,serif" font-size="14.00" fill="#000000">LojackMapProvider</text>
</g>
<!-- LojackMapProvider&#45;&gt;AppModule -->
<g id="edge34" class="edge">
<title>LojackMapProvider&#45;&gt;AppModule</title>
<path fill="none" stroke="#000000" d="M486,-122.2479C486,-145.0179 486,-181 486,-181 486,-181 3114.1729,-181 3114.1729,-181"/>
<polygon fill="#000000" stroke="#000000" points="3114.173,-184.5001 3124.1729,-181 3114.1729,-177.5001 3114.173,-184.5001"/>
</g>
<!-- SharedAPIProvider -->
<g id="node36" class="node">
<title>SharedAPIProvider</title>
<ellipse fill="#fdb462" stroke="#000000" cx="293" cy="-104" rx="86.8165" ry="18"/>
<text text-anchor="middle" x="293" y="-99.8" font-family="Times,serif" font-size="14.00" fill="#000000">SharedAPIProvider</text>
</g>
<!-- SharedAPIProvider&#45;&gt;AppModule -->
<g id="edge35" class="edge">
<title>SharedAPIProvider&#45;&gt;AppModule</title>
<path fill="none" stroke="#000000" d="M293,-122.3228C293,-145.6602 293,-183 293,-183 293,-183 3114.2789,-183 3114.2789,-183"/>
<polygon fill="#000000" stroke="#000000" points="3114.2789,-186.5001 3124.2789,-183 3114.2789,-179.5001 3114.2789,-186.5001"/>
</g>
<!-- ApiStatusProvider -->
<g id="node37" class="node">
<title>ApiStatusProvider</title>
<ellipse fill="#fdb462" stroke="#000000" cx="106" cy="-104" rx="82.2603" ry="18"/>
<text text-anchor="middle" x="106" y="-99.8" font-family="Times,serif" font-size="14.00" fill="#000000">ApiStatusProvider</text>
</g>
<!-- ApiStatusProvider&#45;&gt;AppModule -->
<g id="edge36" class="edge">
<title>ApiStatusProvider&#45;&gt;AppModule</title>
<path fill="none" stroke="#000000" d="M106,-122.3802C106,-146.2785 106,-185 106,-185 106,-185 3114.1962,-185 3114.1962,-185"/>
<polygon fill="#000000" stroke="#000000" points="3114.1962,-188.5001 3124.1962,-185 3114.1961,-181.5001 3114.1962,-188.5001"/>
</g>
</g>
</svg>
