<?xml version="1.0" encoding="UTF-8" standalone="no"?>
<!DOCTYPE svg PUBLIC "-//W3C//DTD SVG 1.1//EN"
 "http://www.w3.org/Graphics/SVG/1.1/DTD/svg11.dtd">
<!-- Generated by graphviz version 2.40.1 (20161225.0304)
 -->
<!-- Title: dependencies Pages: 1 -->
<svg width="617pt" height="284pt"
 viewBox="0.00 0.00 617.00 284.00" xmlns="http://www.w3.org/2000/svg" xmlns:xlink="http://www.w3.org/1999/xlink">
<g id="graph0" class="graph" transform="scale(1 1) rotate(0) translate(4 280)">
<title>dependencies</title>
<polygon fill="#ffffff" stroke="transparent" points="-4,4 -4,-280 613,-280 613,4 -4,4"/>
<text text-anchor="start" x="283.5091" y="-42.4" font-family="sans-serif" font-weight="bold" font-size="14.00" fill="#000000">Legend</text>
<polygon fill="#ffffb3" stroke="transparent" points="70.5,-10 70.5,-30 90.5,-30 90.5,-10 70.5,-10"/>
<text text-anchor="start" x="94.129" y="-15.4" font-family="sans-serif" font-size="14.00" fill="#000000"> &#160;Declarations</text>
<polygon fill="#8dd3c7" stroke="transparent" points="183.5,-10 183.5,-30 203.5,-30 203.5,-10 183.5,-10"/>
<text text-anchor="start" x="207.2251" y="-15.4" font-family="sans-serif" font-size="14.00" fill="#000000"> &#160;Module</text>
<polygon fill="#80b1d3" stroke="transparent" points="269.5,-10 269.5,-30 289.5,-30 289.5,-10 269.5,-10"/>
<text text-anchor="start" x="293.2812" y="-15.4" font-family="sans-serif" font-size="14.00" fill="#000000"> &#160;Bootstrap</text>
<polygon fill="#fdb462" stroke="transparent" points="366.5,-10 366.5,-30 386.5,-30 386.5,-10 366.5,-10"/>
<text text-anchor="start" x="390.1732" y="-15.4" font-family="sans-serif" font-size="14.00" fill="#000000"> &#160;Providers</text>
<polygon fill="#fb8072" stroke="transparent" points="462.5,-10 462.5,-30 482.5,-30 482.5,-10 462.5,-10"/>
<text text-anchor="start" x="486.2258" y="-15.4" font-family="sans-serif" font-size="14.00" fill="#000000"> &#160;Exports</text>
<g id="clust1" class="cluster">
<title>cluster_ComponentsModule</title>
<polygon fill="none" stroke="#000000" stroke-dasharray="1,5" points="8,-70 8,-268 601,-268 601,-70 8,-70"/>
</g>
<g id="clust2" class="cluster">
<title>cluster_ComponentsModule_declarations</title>
<polygon fill="none" stroke="#000000" points="17,-78 17,-130 585,-130 585,-78 17,-78"/>
</g>
<g id="clust7" class="cluster">
<title>cluster_ComponentsModule_exports</title>
<polygon fill="none" stroke="#000000" points="16,-208 16,-260 593,-260 593,-208 16,-208"/>
</g>
<!-- CarDetailsDrawerComponent -->
<g id="node1" class="node">
<title>CarDetailsDrawerComponent</title>
<polygon fill="#ffffb3" stroke="#000000" points="576.6601,-122 393.3399,-122 393.3399,-86 576.6601,-86 576.6601,-122"/>
<text text-anchor="middle" x="485" y="-99.8" font-family="Times,serif" font-size="14.00" fill="#000000">CarDetailsDrawerComponent</text>
</g>
<!-- ComponentsModule -->
<g id="node4" class="node">
<title>ComponentsModule</title>
<polygon fill="#8dd3c7" stroke="#000000" points="359.3272,-187 356.3272,-191 335.3272,-191 332.3272,-187 228.6728,-187 228.6728,-151 359.3272,-151 359.3272,-187"/>
<text text-anchor="middle" x="294" y="-164.8" font-family="Times,serif" font-size="14.00" fill="#000000">ComponentsModule</text>
</g>
<!-- CarDetailsDrawerComponent&#45;&gt;ComponentsModule -->
<g id="edge1" class="edge">
<title>CarDetailsDrawerComponent&#45;&gt;ComponentsModule</title>
<path fill="none" stroke="#000000" d="M517.2767,-122.0225C517.2767,-139.3734 517.2767,-163 517.2767,-163 517.2767,-163 369.1811,-163 369.1811,-163"/>
<polygon fill="#000000" stroke="#000000" points="369.1811,-159.5001 359.1811,-163 369.181,-166.5001 369.1811,-159.5001"/>
</g>
<!-- CarSliderCardComponent -->
<g id="node2" class="node">
<title>CarSliderCardComponent</title>
<polygon fill="#ffffb3" stroke="#000000" points="375.1951,-122 212.8049,-122 212.8049,-86 375.1951,-86 375.1951,-122"/>
<text text-anchor="middle" x="294" y="-99.8" font-family="Times,serif" font-size="14.00" fill="#000000">CarSliderCardComponent</text>
</g>
<!-- CarSliderCardComponent&#45;&gt;ComponentsModule -->
<g id="edge2" class="edge">
<title>CarSliderCardComponent&#45;&gt;ComponentsModule</title>
<path fill="none" stroke="#000000" d="M294,-122.1061C294,-122.1061 294,-140.991 294,-140.991"/>
<polygon fill="#000000" stroke="#000000" points="290.5001,-140.9909 294,-150.991 297.5001,-140.991 290.5001,-140.9909"/>
</g>
<!-- DragCarDetailsComponent -->
<g id="node3" class="node">
<title>DragCarDetailsComponent</title>
<polygon fill="#ffffb3" stroke="#000000" points="194.6783,-122 25.3217,-122 25.3217,-86 194.6783,-86 194.6783,-122"/>
<text text-anchor="middle" x="110" y="-99.8" font-family="Times,serif" font-size="14.00" fill="#000000">DragCarDetailsComponent</text>
</g>
<!-- DragCarDetailsComponent&#45;&gt;ComponentsModule -->
<g id="edge3" class="edge">
<title>DragCarDetailsComponent&#45;&gt;ComponentsModule</title>
<path fill="none" stroke="#000000" d="M135.0353,-122.0225C135.0353,-139.3734 135.0353,-163 135.0353,-163 135.0353,-163 218.4252,-163 218.4252,-163"/>
<polygon fill="#000000" stroke="#000000" points="218.4252,-166.5001 228.4252,-163 218.4252,-159.5001 218.4252,-166.5001"/>
</g>
<!-- CarDetailsDrawerComponent  -->
<g id="node5" class="node">
<title>CarDetailsDrawerComponent </title>
<polygon fill="#fb8072" stroke="#000000" points="585.1603,-252 398.8397,-252 398.8397,-216 585.1603,-216 585.1603,-252"/>
<text text-anchor="middle" x="492" y="-229.8" font-family="Times,serif" font-size="14.00" fill="#000000">CarDetailsDrawerComponent </text>
</g>
<!-- ComponentsModule&#45;&gt;CarDetailsDrawerComponent  -->
<g id="edge4" class="edge">
<title>ComponentsModule&#45;&gt;CarDetailsDrawerComponent </title>
<path fill="none" stroke="#000000" stroke-dasharray="5,2" d="M359.2778,-175C405.0046,-175 457.9733,-175 457.9733,-175 457.9733,-175 457.9733,-205.9775 457.9733,-205.9775"/>
<polygon fill="#000000" stroke="#000000" points="454.4734,-205.9774 457.9733,-215.9775 461.4734,-205.9775 454.4734,-205.9774"/>
</g>
<!-- DragCarDetailsComponent  -->
<g id="node6" class="node">
<title>DragCarDetailsComponent </title>
<polygon fill="#fb8072" stroke="#000000" points="380.1785,-252 207.8215,-252 207.8215,-216 380.1785,-216 380.1785,-252"/>
<text text-anchor="middle" x="294" y="-229.8" font-family="Times,serif" font-size="14.00" fill="#000000">DragCarDetailsComponent </text>
</g>
<!-- ComponentsModule&#45;&gt;DragCarDetailsComponent  -->
<g id="edge5" class="edge">
<title>ComponentsModule&#45;&gt;DragCarDetailsComponent </title>
<path fill="none" stroke="#000000" stroke-dasharray="5,2" d="M294,-187.1061C294,-187.1061 294,-205.991 294,-205.991"/>
<polygon fill="#000000" stroke="#000000" points="290.5001,-205.9909 294,-215.991 297.5001,-205.991 290.5001,-205.9909"/>
</g>
<!-- CarSliderCardComponent  -->
<g id="node7" class="node">
<title>CarSliderCardComponent </title>
<polygon fill="#fb8072" stroke="#000000" points="189.6953,-252 24.3047,-252 24.3047,-216 189.6953,-216 189.6953,-252"/>
<text text-anchor="middle" x="107" y="-229.8" font-family="Times,serif" font-size="14.00" fill="#000000">CarSliderCardComponent </text>
</g>
<!-- ComponentsModule&#45;&gt;CarSliderCardComponent  -->
<g id="edge6" class="edge">
<title>ComponentsModule&#45;&gt;CarSliderCardComponent </title>
<path fill="none" stroke="#000000" stroke-dasharray="5,2" d="M228.6983,-175C165.8304,-175 80.2231,-175 80.2231,-175 80.2231,-175 80.2231,-205.9775 80.2231,-205.9775"/>
<polygon fill="#000000" stroke="#000000" points="76.7232,-205.9774 80.2231,-215.9775 83.7232,-205.9775 76.7232,-205.9774"/>
</g>
</g>
</svg>
