<?xml version="1.0" encoding="UTF-8" standalone="no"?>
<svg width="44px" height="44px" viewBox="0 0 44 44" version="1.1" xmlns="http://www.w3.org/2000/svg" xmlns:xlink="http://www.w3.org/1999/xlink">
    <!-- Generator: Sketch 49 (51002) - http://www.bohemiancoding.com/sketch -->
    <title>Select_Location_Icon Copy 2</title>
    <desc>Created with Sketch.</desc>
    <defs>
        <circle id="path-1" cx="18.7024148" cy="18" r="18"></circle>
        <filter x="-16.7%" y="-16.7%" width="133.3%" height="133.3%" filterUnits="objectBoundingBox" id="filter-3">
            <feOffset dx="0" dy="0" in="SourceAlpha" result="shadowOffsetOuter1"></feOffset>
            <feGaussianBlur stdDeviation="2" in="shadowOffsetOuter1" result="shadowBlurOuter1"></feGaussianBlur>
            <feColorMatrix values="0 0 0 0 0   0 0 0 0 0   0 0 0 0 0  0 0 0 0.158769248 0" type="matrix" in="shadowBlurOuter1"></feColorMatrix>
        </filter>
    </defs>
    <g id="Symbols" stroke="none" stroke-width="1" fill="none" fill-rule="evenodd">
        <g id="Select_Location_Icon-Copy-2" transform="translate(3.000000, 3.000000)">
            <g transform="translate(0.500000, 0.864844)">
                <mask id="mask-2" fill="white">
                    <use xlink:href="#path-1"></use>
                </mask>
                <g id="Oval-2-Copy-19">
                    <use fill="black" fill-opacity="1" filter="url(#filter-3)" xlink:href="#path-1"></use>
                    <use fill="#F4F4F4" fill-rule="evenodd" xlink:href="#path-1"></use>
                </g>
                <g id="Light_Gray_Location_Pin" transform="translate(11.202415, 8.818182)" stroke="#2B648F" stroke-linecap="round" stroke-linejoin="round" stroke-width="0.972">
                    <path d="M10.9641023,16.6786936 L4.05574103,16.6786936" id="Stroke-358"></path>
                    <path d="M3.71270222,2.84150014 L9.8364616,2.57373696 C10.199676,2.55785531 10.521292,2.80649903 10.5973806,3.16200919 L12.3378413,11.2939924 C12.4239385,11.6962657 12.1676271,12.0921682 11.7653538,12.1782654 C11.662589,12.2002598 11.5563332,12.2002598 11.4535684,12.1782654 L3.32158514,10.4378047 C2.96607498,10.3617161 2.71743126,10.0401001 2.73331292,9.67688565 L3.0010761,3.55312627 C3.01794604,3.16730972 3.32688567,2.85837009 3.71270222,2.84150014 Z" id="Rectangle-11" transform="translate(7.543542, 7.383889) rotate(45.000000) translate(-7.543542, -7.383889) "></path>
                </g>
            </g>
        </g>
    </g>
</svg>