<?xml version="1.0" encoding="UTF-8" standalone="no"?>
<svg width="44px" height="44px" viewBox="0 0 44 44" version="1.1" xmlns="http://www.w3.org/2000/svg" xmlns:xlink="http://www.w3.org/1999/xlink">
    <!-- Generator: Sketch 49 (51002) - http://www.bohemiancoding.com/sketch -->
    <title>Select_People_Icon Copy 2</title>
    <desc>Created with Sketch.</desc>
    <defs>
        <circle id="path-1" cx="18" cy="18.0562274" r="18"></circle>
        <filter x="-16.7%" y="-16.7%" width="133.3%" height="133.3%" filterUnits="objectBoundingBox" id="filter-3">
            <feOffset dx="0" dy="0" in="SourceAlpha" result="shadowOffsetOuter1"></feOffset>
            <feGaussianBlur stdDeviation="2" in="shadowOffsetOuter1" result="shadowBlurOuter1"></feGaussianBlur>
            <feColorMatrix values="0 0 0 0 0   0 0 0 0 0   0 0 0 0 0  0 0 0 0.158769248 0" type="matrix" in="shadowBlurOuter1"></feColorMatrix>
        </filter>
    </defs>
    <g id="Symbols" stroke="none" stroke-width="1" fill="none" fill-rule="evenodd">
        <g id="Select_People_Icon-Copy-2" transform="translate(4.000000, 4.000000)">
            <g transform="translate(0.357143, 0.364844)">
                <mask id="mask-2" fill="white">
                    <use xlink:href="#path-1"></use>
                </mask>
                <g id="Oval-2-Copy-22">
                    <use fill="black" fill-opacity="1" filter="url(#filter-3)" xlink:href="#path-1"></use>
                    <use fill="#F4F4F4" fill-rule="evenodd" xlink:href="#path-1"></use>
                </g>
                <g id="People_Icon" transform="translate(9.000000, 8.523409)" stroke="#2B648F" stroke-linecap="round" stroke-linejoin="round" stroke-width="0.972">
                    <path d="M6.30455176,10.5090659 L6.30455176,12.9467177 L1.81385755,14.5506011 C0.743406588,14.9334173 0.0288760859,15.9464906 0.0288760859,17.0832845 L0.0288760859,18.7741308 L17.0628529,18.7741308 L17.0628529,17.0832845 C17.0628529,15.9464906 16.3483224,14.9334173 15.2778715,14.5506011 L10.7871772,12.9467177 L10.7871772,10.3414157" id="Stroke-437"></path>
                    <path d="M12.9164243,5.7743376 C12.9164243,8.74452524 10.9091047,11.1534882 8.43379887,11.1534882 C5.95759655,11.1534882 3.95117338,8.74452524 3.95117338,5.7743376 C3.95117338,2.80414995 5.95759655,0.395187017 8.43379887,0.395187017 C10.9091047,0.395187017 12.9164243,2.80414995 12.9164243,5.7743376 L12.9164243,5.7743376 Z" id="Stroke-438"></path>
                    <path d="M12.8743773,5.28402802 C12.7237611,5.30195852 12.6197642,5.29657937 12.4682515,5.3261647 C10.9414692,5.62022493 9.96067076,5.06706895 9.11973022,3.59587126 C8.61588311,4.56232532 7.03889547,5.3261647 5.74431323,5.3261647 C5.10688389,5.3261647 4.55821053,5.19527204 4.00864064,4.90838401" id="Stroke-439"></path>
                </g>
            </g>
        </g>
    </g>
</svg>