<?xml version="1.0" encoding="UTF-8" standalone="no"?>
<svg width="44px" height="44px" viewBox="0 0 44 44" version="1.1" xmlns="http://www.w3.org/2000/svg" xmlns:xlink="http://www.w3.org/1999/xlink">
    <!-- Generator: Sketch 49 (51002) - http://www.bohemiancoding.com/sketch -->
    <title>Select_Grocery_Icon Copy 2</title>
    <desc>Created with Sketch.</desc>
    <defs>
        <circle id="path-1" cx="18" cy="18" r="18"></circle>
        <filter x="-16.7%" y="-16.7%" width="133.3%" height="133.3%" filterUnits="objectBoundingBox" id="filter-3">
            <feOffset dx="0" dy="0" in="SourceAlpha" result="shadowOffsetOuter1"></feOffset>
            <feGaussianBlur stdDeviation="2" in="shadowOffsetOuter1" result="shadowBlurOuter1"></feGaussianBlur>
            <feColorMatrix values="0 0 0 0 0   0 0 0 0 0   0 0 0 0 0  0 0 0 0.158769248 0" type="matrix" in="shadowBlurOuter1"></feColorMatrix>
        </filter>
    </defs>
    <g id="Symbols" stroke="none" stroke-width="1" fill="none" fill-rule="evenodd">
        <g id="Select_Grocery_Icon-Copy-2" transform="translate(4.000000, 3.000000)">
            <g transform="translate(0.071429, 0.864844)">
                <mask id="mask-2" fill="white">
                    <use xlink:href="#path-1"></use>
                </mask>
                <g id="Oval-2-Copy-23">
                    <use fill="black" fill-opacity="1" filter="url(#filter-3)" xlink:href="#path-1"></use>
                    <use fill="#F4F4F4" fill-rule="evenodd" xlink:href="#path-1"></use>
                </g>
                <g id="Grocery_Icon" transform="translate(6.500000, 8.500000)" stroke="#2B648F" stroke-linecap="round" stroke-linejoin="round" stroke-width="0.972">
                    <g id="Group" transform="translate(10.733203, 9.671719) scale(-1, 1) translate(-10.733203, -9.671719) translate(0.733203, 0.671719)">
                        <path d="M5.775,16.5 C5.775,17.1831 5.2206,17.7375 4.5375,17.7375 C3.8544,17.7375 3.3,17.1831 3.3,16.5 C3.3,15.8169 3.8544,15.2625 4.5375,15.2625 C5.2206,15.2625 5.775,15.8169 5.775,16.5 L5.775,16.5 Z" id="Stroke-1537"></path>
                        <path d="M14.85,16.5 C14.85,17.1831 14.2956,17.7375 13.6125,17.7375 C12.9294,17.7375 12.375,17.1831 12.375,16.5 C12.375,15.8169 12.9294,15.2625 13.6125,15.2625 C14.2956,15.2625 14.85,15.8169 14.85,16.5 L14.85,16.5 Z" id="Stroke-1538"></path>
                        <polyline id="Stroke-1539" points="19.3875 1.2375 16.9125 1.2375 13.6125 15.2625 4.5375 15.2625"></polyline>
                        <polyline id="Stroke-1540" points="14.025 13.6125 3.3 13.6125 0.825 6.1875 15.726975 6.1875"></polyline>
                        <polyline id="Stroke-1541" points="9.075 6.1875 12.375 2.8875 15.73935 6.1875"></polyline>
                        <polyline id="Stroke-1542" points="4.95 6.1875 2.475 0.669075 0.4125 1.65 2.475 6.1875"></polyline>
                        <polyline id="Stroke-1543" points="7.425 6.1875 7.425 3.7125 11.55 3.7125"></polyline>
                    </g>
                </g>
            </g>
        </g>
    </g>
</svg>