<?xml version="1.0" encoding="UTF-8"?>
<svg width="21px" height="20px" viewBox="0 0 21 20" version="1.1" xmlns="http://www.w3.org/2000/svg" xmlns:xlink="http://www.w3.org/1999/xlink">
    <!-- Generator: Sketch 48.2 (47327) - http://www.bohemiancoding.com/sketch -->
    <title>Work_Icon Copy</title>
    <desc>Created with Sketch.</desc>
    <defs></defs>
    <g id="Artboard" stroke="none" stroke-width="1" fill="none" fill-rule="evenodd" transform="translate(-638.000000, -1544.000000)" stroke-linecap="round" stroke-linejoin="round">
        <g id="Work_Icon-Copy" transform="translate(638.343750, 1544.099414)" stroke="#B6B6B6">
            <path d="M19.2108398,7.08421875 C19.2108398,5.60101875 18.0962648,4.38421875 16.7358398,4.38421875 L2.71083984,4.38421875 C1.34958984,4.38421875 0.235839844,5.60101875 0.235839844,7.08421875 L0.235839844,16.0842187 C0.235839844,17.5692187 1.34958984,18.7842187 2.71083984,18.7842187 L16.7358398,18.7842187 C18.0962648,18.7842187 19.2108398,17.5692187 19.2108398,16.0842187 L19.2108398,7.08421875 L19.2108398,7.08421875 Z" id="Stroke-5556"></path>
            <path d="M6.83583984,4.38421875 L6.83583984,2.58421875 C6.83583984,1.59421875 7.57751484,0.78421875 8.48583984,0.78421875 L10.9608398,0.78421875 C11.8683398,0.78421875 12.6108398,1.59421875 12.6108398,2.58421875 L12.6108398,4.38421875" id="Stroke-5557"></path>
        </g>
    </g>
</svg>