<?xml version="1.0" encoding="UTF-8"?>
<svg width="21px" height="22px" viewBox="0 0 21 22" version="1.1" xmlns="http://www.w3.org/2000/svg" xmlns:xlink="http://www.w3.org/1999/xlink">
    <!-- Generator: Sketch 48.2 (47327) - http://www.bohemiancoding.com/sketch -->
    <title>Shopping_Icon Copy</title>
    <desc>Created with Sketch.</desc>
    <defs></defs>
    <g id="Artboard" stroke="none" stroke-width="1" fill="none" fill-rule="evenodd" transform="translate(-868.000000, -1543.000000)" stroke-linecap="round" stroke-linejoin="round">
        <g id="Shopping_Icon-Copy" transform="translate(869.156250, 1543.099414)" stroke="#B6B6B6">
            <path d="M14.6812436,20.6990285 L2.32472189,20.6990285 C1.22015239,20.6990285 0.324721892,19.803598 0.324721892,18.6990285 L0.324721892,9.78598505 C0.324721892,8.68141555 1.22015239,7.78598505 2.32472189,7.78598505 L14.6812436,7.78598505 C15.7858131,7.78598505 16.6812436,8.68141555 16.6812436,9.78598505 L16.6812436,18.6990285 C16.6812436,19.803598 15.7858131,20.6990285 14.6812436,20.6990285 Z" id="Stroke-1407"></path>
            <path d="M4.62906972,6.06424592 L4.62906972,4.77294158 C4.62906972,2.63368071 6.36372189,0.899028533 8.50298276,0.899028533 C10.6431045,0.899028533 12.3768958,2.63368071 12.3768958,4.77294158 L12.3768958,6.06424592" id="Stroke-1408"></path>
            <polygon id="Stroke-1409" points="17.1436167 1.6245694 18.969521 3.45219549 15.9263471 6.49450853 14.098721 6.49450853 14.098721 4.66860418"></polygon>
        </g>
    </g>
</svg>