<?xml version="1.0" encoding="UTF-8"?>
<svg width="19px" height="21px" viewBox="0 0 19 21" version="1.1" xmlns="http://www.w3.org/2000/svg" xmlns:xlink="http://www.w3.org/1999/xlink">
    <!-- Generator: Sketch 48.2 (47327) - http://www.bohemiancoding.com/sketch -->
    <title>People_Icon Copy</title>
    <desc>Created with Sketch.</desc>
    <defs></defs>
    <g id="Artboard" stroke="none" stroke-width="1" fill="none" fill-rule="evenodd" transform="translate(-732.000000, -1543.000000)" stroke-linecap="round" stroke-linejoin="round">
        <g id="People_Icon-Copy" transform="translate(732.468750, 1544.099414)" stroke="#B6B6B6">
            <path d="M7.18945313,10.5497988 L7.18945313,12.9968988 L2.68135313,14.6069988 C1.60675313,14.9912988 0.889453125,16.0082988 0.889453125,17.1494988 L0.889453125,18.8468988 L17.9894531,18.8468988 L17.9894531,17.1494988 C17.9894531,16.0082988 17.2721531,14.9912988 16.1975531,14.6069988 L11.6894531,12.9968988 L11.6894531,10.3814988" id="Stroke-437"></path>
            <path d="M13.8269531,5.79671875 C13.8269531,8.77841875 11.8118531,11.1967188 9.32695313,11.1967188 C6.84115313,11.1967188 4.82695313,8.77841875 4.82695313,5.79671875 C4.82695313,2.81501875 6.84115313,0.39671875 9.32695313,0.39671875 C11.8118531,0.39671875 13.8269531,2.81501875 13.8269531,5.79671875 L13.8269531,5.79671875 Z" id="Stroke-438"></path>
            <path d="M13.7847431,5.30450875 C13.6335431,5.32250875 13.5291431,5.31710875 13.3770431,5.34680875 C11.8443431,5.64200875 10.8597431,5.08670875 10.0155431,3.60980875 C9.50974312,4.58000875 7.92664312,5.34680875 6.62704312,5.34680875 C5.98714312,5.34680875 5.43634312,5.21540875 4.88464312,4.92740875" id="Stroke-439"></path>
        </g>
    </g>
</svg>