<?xml version="1.0" encoding="UTF-8" standalone="no"?>
<!DOCTYPE svg PUBLIC "-//W3C//DTD SVG 1.1//EN"
 "http://www.w3.org/Graphics/SVG/1.1/DTD/svg11.dtd">
<!-- Generated by graphviz version 2.40.1 (20161225.0304)
 -->
<!-- Title: dependencies Pages: 1 -->
<svg width="1413pt" height="211pt"
 viewBox="0.00 0.00 1413.00 211.00" xmlns="http://www.w3.org/2000/svg" xmlns:xlink="http://www.w3.org/1999/xlink">
<g id="graph0" class="graph" transform="scale(1 1) rotate(0) translate(4 207)">
<title>dependencies</title>
<polygon fill="#ffffff" stroke="transparent" points="-4,4 -4,-207 1409,-207 1409,4 -4,4"/>
<text text-anchor="start" x="681.5091" y="-42.4" font-family="sans-serif" font-weight="bold" font-size="14.00" fill="#000000">Legend</text>
<polygon fill="#ffffb3" stroke="transparent" points="468.5,-10 468.5,-30 488.5,-30 488.5,-10 468.5,-10"/>
<text text-anchor="start" x="492.129" y="-15.4" font-family="sans-serif" font-size="14.00" fill="#000000"> &#160;Declarations</text>
<polygon fill="#8dd3c7" stroke="transparent" points="581.5,-10 581.5,-30 601.5,-30 601.5,-10 581.5,-10"/>
<text text-anchor="start" x="605.2251" y="-15.4" font-family="sans-serif" font-size="14.00" fill="#000000"> &#160;Module</text>
<polygon fill="#80b1d3" stroke="transparent" points="667.5,-10 667.5,-30 687.5,-30 687.5,-10 667.5,-10"/>
<text text-anchor="start" x="691.2812" y="-15.4" font-family="sans-serif" font-size="14.00" fill="#000000"> &#160;Bootstrap</text>
<polygon fill="#fdb462" stroke="transparent" points="764.5,-10 764.5,-30 784.5,-30 784.5,-10 764.5,-10"/>
<text text-anchor="start" x="788.1732" y="-15.4" font-family="sans-serif" font-size="14.00" fill="#000000"> &#160;Providers</text>
<polygon fill="#fb8072" stroke="transparent" points="860.5,-10 860.5,-30 880.5,-30 880.5,-10 860.5,-10"/>
<text text-anchor="start" x="884.2258" y="-15.4" font-family="sans-serif" font-size="14.00" fill="#000000"> &#160;Exports</text>
<g id="clust1" class="cluster">
<title>cluster_CarLocationHomePageModule</title>
<polygon fill="none" stroke="#000000" stroke-dasharray="1,5" points="8,-70 8,-195 1397,-195 1397,-70 8,-70"/>
</g>
<g id="clust2" class="cluster">
<title>cluster_CarLocationHomePageModule_declarations</title>
<polygon fill="none" stroke="#000000" points="995,-78 995,-130 1389,-130 1389,-78 995,-78"/>
</g>
<g id="clust8" class="cluster">
<title>cluster_CarLocationHomePageModule_providers</title>
<polygon fill="none" stroke="#000000" points="16,-78 16,-130 987,-130 987,-78 16,-78"/>
</g>
<!-- CarLocationHomePageComponent -->
<g id="node1" class="node">
<title>CarLocationHomePageComponent</title>
<polygon fill="#ffffb3" stroke="#000000" points="1381.231,-122 1168.769,-122 1168.769,-86 1381.231,-86 1381.231,-122"/>
<text text-anchor="middle" x="1275" y="-99.8" font-family="Times,serif" font-size="14.00" fill="#000000">CarLocationHomePageComponent</text>
</g>
<!-- CarLocationHomePageModule -->
<g id="node3" class="node">
<title>CarLocationHomePageModule</title>
<polygon fill="#8dd3c7" stroke="#000000" points="803.4482,-187 800.4482,-191 779.4482,-191 776.4482,-187 612.5518,-187 612.5518,-151 803.4482,-151 803.4482,-187"/>
<text text-anchor="middle" x="708" y="-164.8" font-family="Times,serif" font-size="14.00" fill="#000000">CarLocationHomePageModule</text>
</g>
<!-- CarLocationHomePageComponent&#45;&gt;CarLocationHomePageModule -->
<g id="edge1" class="edge">
<title>CarLocationHomePageComponent&#45;&gt;CarLocationHomePageModule</title>
<path fill="none" stroke="#000000" d="M1275,-122.2921C1275,-144.2057 1275,-178 1275,-178 1275,-178 813.5427,-178 813.5427,-178"/>
<polygon fill="#000000" stroke="#000000" points="813.5427,-174.5001 803.5427,-178 813.5426,-181.5001 813.5427,-174.5001"/>
</g>
<!-- TripHistoryComponent -->
<g id="node2" class="node">
<title>TripHistoryComponent</title>
<polygon fill="#ffffb3" stroke="#000000" points="1150.9298,-122 1003.0702,-122 1003.0702,-86 1150.9298,-86 1150.9298,-122"/>
<text text-anchor="middle" x="1077" y="-99.8" font-family="Times,serif" font-size="14.00" fill="#000000">TripHistoryComponent</text>
</g>
<!-- TripHistoryComponent&#45;&gt;CarLocationHomePageModule -->
<g id="edge2" class="edge">
<title>TripHistoryComponent&#45;&gt;CarLocationHomePageModule</title>
<path fill="none" stroke="#000000" d="M1077,-122.1061C1077,-141.3391 1077,-169 1077,-169 1077,-169 813.5065,-169 813.5065,-169"/>
<polygon fill="#000000" stroke="#000000" points="813.5066,-165.5001 803.5065,-169 813.5065,-172.5001 813.5066,-165.5001"/>
</g>
<!-- AccSetupProvider -->
<g id="node4" class="node">
<title>AccSetupProvider</title>
<ellipse fill="#fdb462" stroke="#000000" cx="897" cy="-104" rx="81.6616" ry="18"/>
<text text-anchor="middle" x="897" y="-99.8" font-family="Times,serif" font-size="14.00" fill="#000000">AccSetupProvider</text>
</g>
<!-- AccSetupProvider&#45;&gt;CarLocationHomePageModule -->
<g id="edge3" class="edge">
<title>AccSetupProvider&#45;&gt;CarLocationHomePageModule</title>
<path fill="none" stroke="#000000" d="M897,-122.027C897,-138.3976 897,-160 897,-160 897,-160 813.6074,-160 813.6074,-160"/>
<polygon fill="#000000" stroke="#000000" points="813.6074,-156.5001 803.6074,-160 813.6074,-163.5001 813.6074,-156.5001"/>
</g>
<!-- LojackMapProvider -->
<g id="node5" class="node">
<title>LojackMapProvider</title>
<ellipse fill="#fdb462" stroke="#000000" cx="708" cy="-104" rx="88.6063" ry="18"/>
<text text-anchor="middle" x="708" y="-99.8" font-family="Times,serif" font-size="14.00" fill="#000000">LojackMapProvider</text>
</g>
<!-- LojackMapProvider&#45;&gt;CarLocationHomePageModule -->
<g id="edge4" class="edge">
<title>LojackMapProvider&#45;&gt;CarLocationHomePageModule</title>
<path fill="none" stroke="#000000" d="M708,-122.1061C708,-122.1061 708,-140.991 708,-140.991"/>
<polygon fill="#000000" stroke="#000000" points="704.5001,-140.9909 708,-150.991 711.5001,-140.991 704.5001,-140.9909"/>
</g>
<!-- CarLocationHomeProvider -->
<g id="node6" class="node">
<title>CarLocationHomeProvider</title>
<ellipse fill="#fdb462" stroke="#000000" cx="485" cy="-104" rx="116.3126" ry="18"/>
<text text-anchor="middle" x="485" y="-99.8" font-family="Times,serif" font-size="14.00" fill="#000000">CarLocationHomeProvider</text>
</g>
<!-- CarLocationHomeProvider&#45;&gt;CarLocationHomePageModule -->
<g id="edge5" class="edge">
<title>CarLocationHomeProvider&#45;&gt;CarLocationHomePageModule</title>
<path fill="none" stroke="#000000" d="M485,-122.027C485,-138.3976 485,-160 485,-160 485,-160 602.4575,-160 602.4575,-160"/>
<polygon fill="#000000" stroke="#000000" points="602.4575,-163.5001 612.4575,-160 602.4574,-156.5001 602.4575,-163.5001"/>
</g>
<!-- LoginProvider -->
<g id="node7" class="node">
<title>LoginProvider</title>
<ellipse fill="#fdb462" stroke="#000000" cx="283" cy="-104" rx="67.2177" ry="18"/>
<text text-anchor="middle" x="283" y="-99.8" font-family="Times,serif" font-size="14.00" fill="#000000">LoginProvider</text>
</g>
<!-- LoginProvider&#45;&gt;CarLocationHomePageModule -->
<g id="edge6" class="edge">
<title>LoginProvider&#45;&gt;CarLocationHomePageModule</title>
<path fill="none" stroke="#000000" d="M283,-122.1061C283,-141.3391 283,-169 283,-169 283,-169 602.3569,-169 602.3569,-169"/>
<polygon fill="#000000" stroke="#000000" points="602.3569,-172.5001 612.3569,-169 602.3568,-165.5001 602.3569,-172.5001"/>
</g>
<!-- SharedAPIProvider -->
<g id="node8" class="node">
<title>SharedAPIProvider</title>
<ellipse fill="#fdb462" stroke="#000000" cx="111" cy="-104" rx="86.8165" ry="18"/>
<text text-anchor="middle" x="111" y="-99.8" font-family="Times,serif" font-size="14.00" fill="#000000">SharedAPIProvider</text>
</g>
<!-- SharedAPIProvider&#45;&gt;CarLocationHomePageModule -->
<g id="edge7" class="edge">
<title>SharedAPIProvider&#45;&gt;CarLocationHomePageModule</title>
<path fill="none" stroke="#000000" d="M111,-122.2921C111,-144.2057 111,-178 111,-178 111,-178 602.4127,-178 602.4127,-178"/>
<polygon fill="#000000" stroke="#000000" points="602.4128,-181.5001 612.4127,-178 602.4127,-174.5001 602.4128,-181.5001"/>
</g>
</g>
</svg>
