<?xml version="1.0" encoding="UTF-8"?>
<svg width="1051px" height="458px" viewBox="0 0 1051 458" version="1.1" xmlns="http://www.w3.org/2000/svg" xmlns:xlink="http://www.w3.org/1999/xlink">
    <!-- Generator: Sketch 48.2 (47327) - http://www.bohemiancoding.com/sketch -->
    <title>Group</title>
    <desc>Created with Sketch.</desc>
    <defs></defs>
    <g id="Artboard" stroke="none" stroke-width="1" fill="none" fill-rule="evenodd" transform="translate(0.000000, -52.000000)">
        <g id="Group" transform="translate(0.000000, 52.000000)" fill="#E14A43">
            <path d="M186.453188,94.2436523 L192.691091,94.2436523 L192.428315,43.2998268 L198.958658,43.2998268 L200.958658,48.1732456 L205.489001,48.1732456 L236.599399,48.1732456 L236.834648,109.824643 L249.895334,109.824643 L249.895334,81.0770488 L291.253303,81.0770488 L291.253303,110.199511 L331.74143,110.199511 L331.74143,127.886974 L375.099399,127.886974 L375.099399,457.537598 L0,457.537598 L0.191091088,109.824643 L6.28278291,109.681321 L6.19109109,108.243652 L16.8689305,108.243652 L16.8689305,80.887207 L39.6182856,80.887207 L39.7099774,109.824643 L52.7706637,109.824643 L52.6789718,85.1388406 L70.5277056,85.1388406 L70.9061304,108.243652 L75.548513,108.243652 L75.6910911,85.1388406 L85.6910911,78.7436523 L85.6910911,108.243652 L88.1910911,108.243652 L88.8126664,74.9849706 L101.691091,62.7436523 L115.691091,75.0287824 L115.691091,101.743652 L125.817509,101.699841 L125.817509,98.5453124 L140.62049,98.5453124 L140.62117,47.6156213 L159.777278,47.6156213 L159.691091,109.824643 L164.479139,109.824643 L164.565326,28.1182899 L170.225827,28.1182899 L170.225827,23.2436523 L186.191091,23.2436523 L186.453188,94.2436523 Z M138.470899,104.93732 L138.470899,101.835832 L135.149567,101.835832 L135.149567,104.93732 L138.470899,104.93732 Z M132.325846,104.93732 L132.325846,101.835832 L129.003208,101.835832 L129.003208,104.93732 L132.325846,104.93732 Z M132.325846,110.056461 L132.325846,106.954973 L129.003208,106.954973 L129.003208,110.056461 L132.325846,110.056461 Z M207.412306,58.8035082 L207.412306,55.7020201 L204.090973,55.7020201 L204.090973,58.8035082 L207.412306,58.8035082 Z M201.267253,58.8035082 L201.267253,55.7020201 L197.944614,55.7020201 L197.944614,58.8035082 L201.267253,58.8035082 Z M260.159821,88.5780506 L263.481153,88.5780506 L263.481153,85.4765625 L260.159821,85.4765625 L260.159821,88.5780506 Z M260.159821,94.1617495 L263.481153,94.1617495 L263.481153,91.0602613 L260.159821,91.0602613 L260.159821,94.1617495 Z M254.013462,88.5780506 L257.3361,88.5780506 L257.3361,85.4765625 L254.013462,85.4765625 L254.013462,88.5780506 Z M226.412306,63.9226488 L226.412306,60.8211607 L223.090973,60.8211607 L223.090973,63.9226488 L226.412306,63.9226488 Z M207.412306,63.9226488 L207.412306,60.8211607 L204.090973,60.8211607 L204.090973,63.9226488 L207.412306,63.9226488 Z M260.159821,105.329147 L263.481153,105.329147 L263.481153,102.227659 L260.159821,102.227659 L260.159821,105.329147 Z M201.265947,69.5063477 L201.265947,66.4048595 L197.944614,66.4048595 L197.944614,69.5063477 L201.265947,69.5063477 Z M260.159821,110.912846 L263.481153,110.912846 L263.481153,107.811358 L260.159821,107.811358 L260.159821,110.912846 Z M260.159821,99.7454483 L263.481153,99.7454483 L263.481153,96.6439602 L260.159821,96.6439602 L260.159821,99.7454483 Z M260.159821,116.496545 L263.481153,116.496545 L263.481153,113.395057 L260.159821,113.395057 L260.159821,116.496545 Z M201.267253,63.9226488 L201.267253,60.8211607 L197.944614,60.8211607 L197.944614,63.9226488 L201.267253,63.9226488 Z M94.8697917,105.45891 L94.8697917,102.357422 L91.5484592,102.357422 L91.5484592,105.45891 L94.8697917,105.45891 Z M77.1398113,124.945801 L77.1398113,121.844313 L73.8184788,121.844313 L73.8184788,124.945801 L77.1398113,124.945801 Z M77.1398113,114.945801 L77.1398113,111.844313 L73.8184788,111.844313 L73.8184788,114.945801 L77.1398113,114.945801 Z M68.1398113,124.945801 L68.1398113,121.844313 L64.8184788,121.844313 L64.8184788,124.945801 L68.1398113,124.945801 Z M68.1398113,114.945801 L68.1398113,111.844313 L64.8184788,111.844313 L64.8184788,114.945801 L68.1398113,114.945801 Z M157.084181,74.773723 L157.084181,71.6722349 L153.762848,71.6722349 L153.762848,74.773723 L157.084181,74.773723 Z M94.8697917,81.2113286 L94.8697917,78.1098405 L91.5471532,78.1098405 L91.5471532,81.2113286 L94.8697917,81.2113286 Z M68.1398113,90.6982194 L68.1398113,87.5967313 L64.8171727,87.5967313 L64.8171727,90.6982194 L68.1398113,90.6982194 Z M23.0993993,87.0273066 L23.0993993,83.9258184 L19.7767607,83.9258184 L19.7767607,87.0273066 L23.0993993,87.0273066 Z M29.7190282,87.1309979 L29.7190282,84.0295098 L26.3963896,84.0295098 L26.3963896,87.1309979 L29.7190282,87.1309979 Z M36.4220378,87.1309979 L36.4220378,84.0295098 L33.0993993,84.0295098 L33.0993993,87.1309979 L36.4220378,87.1309979 Z M150.939128,74.773723 L150.939128,71.6722349 L147.616489,71.6722349 L147.616489,74.773723 L150.939128,74.773723 Z M94.8697917,88.3457715 L94.8697917,85.2442834 L91.5471532,85.2442834 L91.5471532,88.3457715 L94.8697917,88.3457715 Z M68.1398113,97.8326623 L68.1398113,94.7311742 L64.8171727,94.7311742 L64.8171727,97.8326623 L68.1398113,97.8326623 Z M23.0993993,109.161749 L23.0993993,106.060261 L19.7767607,106.060261 L19.7767607,109.161749 L23.0993993,109.161749 Z M23.0993993,101.161749 L23.0993993,98.0602613 L19.7767607,98.0602613 L19.7767607,101.161749 L23.0993993,101.161749 Z M29.7190282,101.265441 L29.7190282,98.1639527 L26.3963896,98.1639527 L26.3963896,101.265441 L29.7190282,101.265441 Z M36.4220378,101.265441 L36.4220378,98.1639527 L33.0993993,98.1639527 L33.0993993,101.265441 L36.4220378,101.265441 Z M23.0993993,94.1617495 L23.0993993,91.0602613 L19.7767607,91.0602613 L19.7767607,94.1617495 L23.0993993,94.1617495 Z M29.7190282,94.2654408 L29.7190282,91.1639527 L26.3963896,91.1639527 L26.3963896,94.2654408 L29.7190282,94.2654408 Z M36.4220378,94.2654408 L36.4220378,91.1639527 L33.0993993,91.1639527 L33.0993993,94.2654408 L36.4220378,94.2654408 Z M150.939128,79.8928637 L150.939128,76.7913755 L147.616489,76.7913755 L147.616489,79.8928637 L150.939128,79.8928637 Z M157.085487,86.8928637 L157.085487,83.7913755 L153.762848,83.7913755 L153.762848,86.8928637 L157.085487,86.8928637 Z M157.085487,79.8928637 L157.085487,76.7913755 L153.762848,76.7913755 L153.762848,79.8928637 L157.085487,79.8928637 Z M150.939128,55.8928637 L150.939128,52.7913755 L147.616489,52.7913755 L147.616489,55.8928637 L150.939128,55.8928637 Z M157.085487,55.8928637 L157.085487,52.7913755 L153.762848,52.7913755 L153.762848,55.8928637 L157.085487,55.8928637 Z M170.583659,56.3733324 L170.583659,53.2718443 L167.26102,53.2718443 L167.26102,56.3733324 L170.583659,56.3733324 Z M184.158366,76.3244671 L184.158366,73.222979 L180.835727,73.222979 L180.835727,76.3244671 L184.158366,76.3244671 Z M170.583659,94.2344806 L170.583659,91.1329925 L167.26102,91.1329925 L167.26102,94.2344806 L170.583659,94.2344806 Z M170.582353,67.0761719 L170.582353,63.9746838 L167.26102,63.9746838 L167.26102,67.0761719 L170.582353,67.0761719 Z M184.15706,87.0273066 L184.15706,83.9258184 L180.835727,83.9258184 L180.835727,87.0273066 L184.15706,87.0273066 Z M170.582353,104.93732 L170.582353,101.835832 L167.26102,101.835832 L167.26102,104.93732 L170.582353,104.93732 Z M170.583659,61.492473 L170.583659,58.3909849 L167.26102,58.3909849 L167.26102,61.492473 L170.583659,61.492473 Z M184.158366,81.4436077 L184.158366,78.3421196 L180.835727,78.3421196 L180.835727,81.4436077 L184.158366,81.4436077 Z M170.583659,99.3536212 L170.583659,96.2521331 L167.26102,96.2521331 L167.26102,99.3536212 L170.583659,99.3536212 Z M324.256989,121.646102 L327.578321,121.646102 L327.578321,118.544614 L324.256989,118.544614 L324.256989,121.646102 Z M324.256989,127.229801 L327.578321,127.229801 L327.578321,124.128312 L324.256989,124.128312 L324.256989,127.229801 Z M318.11063,121.646102 L321.433268,121.646102 L321.433268,118.544614 L318.11063,118.544614 L318.11063,121.646102 Z M254.013462,105.329147 L257.3361,105.329147 L257.3361,102.227659 L254.013462,102.227659 L254.013462,105.329147 Z M220.013462,94.1617495 L223.3361,94.1617495 L223.3361,91.0602613 L220.013462,91.0602613 L220.013462,94.1617495 Z M220.013462,110.912846 L223.3361,110.912846 L223.3361,107.811358 L220.013462,107.811358 L220.013462,110.912846 Z M220.013462,99.7454483 L223.3361,99.7454483 L223.3361,96.6439602 L220.013462,96.6439602 L220.013462,99.7454483 Z M220.013462,116.496545 L223.3361,116.496545 L223.3361,113.395057 L220.013462,113.395057 L220.013462,116.496545 Z M229.013462,94.1617495 L232.3361,94.1617495 L232.3361,91.0602613 L229.013462,91.0602613 L229.013462,94.1617495 Z M229.013462,110.912846 L232.3361,110.912846 L232.3361,107.811358 L229.013462,107.811358 L229.013462,110.912846 Z M202.013462,110.912846 L205.3361,110.912846 L205.3361,107.811358 L202.013462,107.811358 L202.013462,110.912846 Z M202.013462,99.7454483 L205.3361,99.7454483 L205.3361,96.6439602 L202.013462,96.6439602 L202.013462,99.7454483 Z M202.013462,116.496545 L205.3361,116.496545 L205.3361,113.395057 L202.013462,113.395057 L202.013462,116.496545 Z M211.013462,94.1617495 L214.3361,94.1617495 L214.3361,91.0602613 L211.013462,91.0602613 L211.013462,94.1617495 Z M211.013462,110.912846 L214.3361,110.912846 L214.3361,107.811358 L211.013462,107.811358 L211.013462,110.912846 Z M229.013462,99.7454483 L232.3361,99.7454483 L232.3361,96.6439602 L229.013462,96.6439602 L229.013462,99.7454483 Z M229.013462,116.496545 L232.3361,116.496545 L232.3361,113.395057 L229.013462,113.395057 L229.013462,116.496545 Z M254.013462,94.1617495 L257.3361,94.1617495 L257.3361,91.0602613 L254.013462,91.0602613 L254.013462,94.1617495 Z M254.013462,110.912846 L257.3361,110.912846 L257.3361,107.811358 L254.013462,107.811358 L254.013462,110.912846 Z M254.013462,99.7454483 L257.3361,99.7454483 L257.3361,96.6439602 L254.013462,96.6439602 L254.013462,99.7454483 Z M254.013462,116.496545 L257.3361,116.496545 L257.3361,113.395057 L254.013462,113.395057 L254.013462,116.496545 Z" id="Combined-Shape-Copy"></path>
            <path d="M464.064205,52.7752481 L463.810825,77.4834228 L439.72819,77.4834228 L439.72819,104 L436.430722,103.856678 L436.691091,16.2436523 L398.637679,16.4624023 L398,58 L388.476508,57.9073529 L388.5,113 L386.082153,99.8598155 L374.798618,38.5375977 L358.798618,38.5375977 L359.22819,110.153404 L353.00468,110.153404 L352.191091,77.7436523 L340.147146,77.7436523 L340.449155,110.153404 L337.72819,110.153404 L337.725986,100.575599 L314.739536,100.575599 L308.798618,100.575599 L308.798618,89.2146547 L303.480747,89.2146547 L303.498498,100.575599 L299.1077,100.575599 L299.1077,457.537598 L676.207099,457.537598 L676.461118,117.153404 L670.191091,117.153404 L669.691091,16.9624023 L663.798618,16.9624023 L658.191091,16.9624023 L643.691091,16.9624023 L643.191091,77.7436523 L638.468922,77.7436523 L638.288852,24.0375977 L616.298618,0.462402344 L594.930883,24.0375977 L594.84913,115.199511 L588.361003,115.199511 L588.361003,86.0770488 L588.298618,56.0375977 L585.798618,56.0921238 L585.798618,45.5375977 L579.298618,45.5375977 L579.298618,56.0375977 L564.236233,56.0921238 L564.298618,86.0375977 L544.539829,86.0770488 L535.750139,86.0770488 L535.942348,60.765653 L524.019321,44.765653 L511.996886,60.765653 L511.798618,115.199511 L505.398433,115.199511 L504.988559,52.9624023 L483.922021,39.8660614 L464.064205,52.7752481 Z M528.751134,67.620612 L532.073772,67.620612 L532.073772,64.5215612 L528.751134,64.5215612 L528.751134,67.620612 Z M522.604775,67.620612 L525.92872,67.620612 L525.92872,64.5215612 L522.604775,64.5215612 L522.604775,67.620612 Z M516.458416,67.620612 L519.781055,67.620612 L519.781055,64.5215612 L516.458416,64.5215612 L516.458416,67.620612 Z M516.458416,72.9522468 L519.781055,72.9522468 L519.781055,69.853196 L516.458416,69.853196 L516.458416,72.9522468 Z M370.316277,67.6218306 L373.640222,67.6218306 L373.640222,64.5215612 L370.316277,64.5215612 L370.316277,67.6218306 Z M364.497741,67.6218306 L367.82038,67.6218306 L367.82038,64.5215612 L364.497741,64.5215612 L364.497741,67.6218306 Z M364.497741,61.706458 L367.82038,61.706458 L367.82038,58.6061886 L364.497741,58.6061886 L364.497741,61.706458 Z M565.836952,92.2984644 L569.158285,92.2984644 L569.158285,89.1994136 L565.836952,89.1994136 L565.836952,92.2984644 Z M618.334164,38.723905 L621.655496,38.723905 L621.655496,35.6248542 L618.334164,35.6248542 L618.334164,38.723905 Z M660.400418,84.7212624 L663.72175,84.7212624 L663.72175,81.6222116 L660.400418,81.6222116 L660.400418,84.7212624 Z M559.690594,92.2984644 L563.014538,92.2984644 L563.014538,89.1994136 L559.690594,89.1994136 L559.690594,92.2984644 Z M612.187805,38.723905 L615.511749,38.723905 L615.511749,35.6248542 L612.187805,35.6248542 L612.187805,38.723905 Z M654.254059,84.7212624 L657.578004,84.7212624 L657.578004,81.6222116 L654.254059,81.6222116 L654.254059,84.7212624 Z M553.544235,92.2984644 L556.866873,92.2984644 L556.866873,89.1994136 L553.544235,89.1994136 L553.544235,92.2984644 Z M606.041446,38.723905 L609.364084,38.723905 L609.364084,35.6248542 L606.041446,35.6248542 L606.041446,38.723905 Z M648.1077,84.7212624 L651.430339,84.7212624 L651.430339,81.6222116 L648.1077,81.6222116 L648.1077,84.7212624 Z M468.836952,97.0870964 L472.158285,97.0870964 L472.158285,93.986827 L468.836952,93.986827 L468.836952,97.0870964 Z M468.836952,90.0870964 L472.158285,90.0870964 L472.158285,86.986827 L468.836952,86.986827 L468.836952,90.0870964 Z M468.836952,83.0870964 L472.158285,83.0870964 L472.158285,79.986827 L468.836952,79.986827 L468.836952,83.0870964 Z M468.836952,76.0870964 L472.158285,76.0870964 L472.158285,72.986827 L468.836952,72.986827 L468.836952,76.0870964 Z M442.836952,97.0870964 L446.158285,97.0870964 L446.158285,93.986827 L442.836952,93.986827 L442.836952,97.0870964 Z M442.836952,90.0870964 L446.158285,90.0870964 L446.158285,86.986827 L442.836952,86.986827 L442.836952,90.0870964 Z M442.836952,83.0870964 L446.158285,83.0870964 L446.158285,79.986827 L442.836952,79.986827 L442.836952,83.0870964 Z M451.836952,97.0870964 L455.158285,97.0870964 L455.158285,93.986827 L451.836952,93.986827 L451.836952,97.0870964 Z M451.836952,90.0870964 L455.158285,90.0870964 L455.158285,86.986827 L451.836952,86.986827 L451.836952,90.0870964 Z M451.836952,83.0870964 L455.158285,83.0870964 L455.158285,79.986827 L451.836952,79.986827 L451.836952,83.0870964 Z M416.836952,110.087096 L420.158285,110.087096 L420.158285,106.986827 L416.836952,106.986827 L416.836952,110.087096 Z M416.836952,103.087096 L420.158285,103.087096 L420.158285,99.986827 L416.836952,99.986827 L416.836952,103.087096 Z M416.836952,96.0870964 L420.158285,96.0870964 L420.158285,92.986827 L416.836952,92.986827 L416.836952,96.0870964 Z M487.836952,73.7565928 L491.158285,73.7565928 L491.158285,70.6563233 L487.836952,70.6563233 L487.836952,73.7565928 Z M487.836952,66.7565928 L491.158285,66.7565928 L491.158285,63.6563233 L487.836952,63.6563233 L487.836952,66.7565928 Z M487.836952,59.7565928 L491.158285,59.7565928 L491.158285,56.6563233 L487.836952,56.6563233 L487.836952,59.7565928 Z M487.836952,52.7565928 L491.158285,52.7565928 L491.158285,49.6563233 L487.836952,49.6563233 L487.836952,52.7565928 Z M495.836952,66.7565928 L499.158285,66.7565928 L499.158285,63.6563233 L495.836952,63.6563233 L495.836952,66.7565928 Z M495.836952,59.7565928 L499.158285,59.7565928 L499.158285,56.6563233 L495.836952,56.6563233 L495.836952,59.7565928 Z M495.836952,73.7565928 L499.158285,73.7565928 L499.158285,70.6563233 L495.836952,70.6563233 L495.836952,73.7565928 Z M565.836952,98.0870964 L569.158285,98.0870964 L569.158285,94.986827 L565.836952,94.986827 L565.836952,98.0870964 Z M618.334164,44.5125371 L621.655496,44.5125371 L621.655496,41.4122676 L618.334164,41.4122676 L618.334164,44.5125371 Z M581.452309,63.1001647 L584.773641,63.1001647 L584.773641,59.9998953 L581.452309,59.9998953 L581.452309,63.1001647 Z M559.690594,98.0870964 L563.014538,98.0870964 L563.014538,94.986827 L559.690594,94.986827 L559.690594,98.0870964 Z M654.252753,70.5626718 L657.576698,70.5626718 L657.576698,67.4624023 L654.252753,67.4624023 L654.252753,70.5626718 Z M612.187805,44.5125371 L615.511749,44.5125371 L615.511749,41.4122676 L612.187805,41.4122676 L612.187805,44.5125371 Z M575.30595,63.1001647 L578.629895,63.1001647 L578.629895,59.9998953 L575.30595,59.9998953 L575.30595,63.1001647 Z M626.139883,104.433874 L629.463827,104.433874 L629.463827,101.333605 L626.139883,101.333605 L626.139883,104.433874 Z M619.99483,104.433874 L623.317468,104.433874 L623.317468,101.333605 L619.99483,101.333605 L619.99483,104.433874 Z M613.848471,104.433874 L617.172416,104.433874 L617.172416,101.333605 L613.848471,101.333605 L613.848471,104.433874 Z M607.585872,104.433874 L610.90851,104.433874 L610.90851,101.333605 L607.585872,101.333605 L607.585872,104.433874 Z M442.958916,106.695706 L446.281555,106.695706 L446.281555,103.595437 L442.958916,103.595437 L442.958916,106.695706 Z M332.434653,107.887555 L335.757292,107.887555 L335.757292,104.786067 L332.434653,104.786067 L332.434653,107.887555 Z M314.128591,107.887555 L317.451229,107.887555 L317.451229,104.786067 L314.128591,104.786067 L314.128591,107.887555 Z M314.128591,113.730418 L317.451229,113.730418 L317.451229,110.628929 L314.128591,110.628929 L314.128591,113.730418 Z M326.2896,107.887555 L329.610933,107.887555 L329.610933,104.786067 L326.2896,104.786067 L326.2896,107.887555 Z M326.2896,113.730418 L329.610933,113.730418 L329.610933,110.628929 L326.2896,110.628929 L326.2896,113.730418 Z M307.983538,107.887555 L311.30487,107.887555 L311.30487,104.786067 L307.983538,104.786067 L307.983538,107.887555 Z M307.983538,113.730418 L311.30487,113.730418 L311.30487,110.628929 L307.983538,110.628929 L307.983538,113.730418 Z M320.143241,107.887555 L323.46588,107.887555 L323.46588,104.786067 L320.143241,104.786067 L320.143241,107.887555 Z M320.143241,113.730418 L323.46588,113.730418 L323.46588,110.628929 L320.143241,110.628929 L320.143241,113.730418 Z M301.837179,107.887555 L305.159818,107.887555 L305.159818,104.786067 L301.837179,104.786067 L301.837179,107.887555 Z M301.837179,113.730418 L305.159818,113.730418 L305.159818,110.628929 L301.837179,110.628929 L301.837179,113.730418 Z M626.139883,110.730687 L629.463827,110.730687 L629.463827,107.630418 L626.139883,107.630418 L626.139883,110.730687 Z M619.99483,110.730687 L619.99483,107.630418 L623.317468,107.630418 L623.317468,110.730687 L619.99483,110.730687 Z M469.123861,53.4022684 L472.158285,53.4022684 L472.158285,56.4366923 L469.123861,56.4366923 L469.123861,53.4022684 Z M626.139883,115.214655 L629.463827,115.214655 L629.463827,112.114385 L626.139883,112.114385 L626.139883,115.214655 Z M632.139883,95.2146547 L635.463827,95.2146547 L635.463827,92.1143852 L632.139883,92.1143852 L632.139883,95.2146547 Z M662.107656,22.2859438 L665.431601,22.2859438 L665.431601,19.1856743 L662.107656,19.1856743 L662.107656,22.2859438 Z M654.445684,47.1529421 L657.769629,47.1529421 L657.769629,44.0526726 L654.445684,44.0526726 L654.445684,47.1529421 Z M654.445684,63.0626718 L657.769629,63.0626718 L657.769629,59.9624023 L654.445684,59.9624023 L654.445684,63.0626718 Z M610.524526,83.0870964 L613.848471,83.0870964 L613.848471,79.986827 L610.524526,79.986827 L610.524526,83.0870964 Z M524.119735,99.16452 L527.44368,99.16452 L527.44368,96.0642505 L524.119735,96.0642505 L524.119735,99.16452 Z M415.173674,29.3360785 L418.497619,29.3360785 L418.497619,26.235809 L415.173674,26.235809 L415.173674,29.3360785 Z M402.525785,29.4727818 L405.849729,29.4727818 L405.849729,26.3725124 L402.525785,26.3725124 L402.525785,29.4727818 Z M402.525785,47.0299994 L405.849729,47.0299994 L405.849729,43.92973 L402.525785,43.92973 L402.525785,47.0299994 Z M407.511702,47.0299994 L410.835646,47.0299994 L410.835646,43.92973 L407.511702,43.92973 L407.511702,47.0299994 Z M392.783755,72.4880614 L396.1077,72.4880614 L396.1077,69.3877919 L392.783755,69.3877919 L392.783755,72.4880614 Z M421.173674,46.0626718 L424.497619,46.0626718 L424.497619,42.9624023 L421.173674,42.9624023 L421.173674,46.0626718 Z M405.849729,89.2146547 L409.173674,89.2146547 L409.173674,86.1143852 L405.849729,86.1143852 L405.849729,89.2146547 Z M422.835646,72.0870964 L426.159591,72.0870964 L426.159591,68.986827 L422.835646,68.986827 L422.835646,72.0870964 Z M370.497741,101.536962 L373.821686,101.536962 L373.821686,98.4366923 L370.497741,98.4366923 L370.497741,101.536962 Z M344.783755,93.66452 L348.1077,93.66452 L348.1077,90.5642505 L344.783755,90.5642505 L344.783755,93.66452 Z M618.332858,59.5369617 L621.656802,59.5369617 L621.656802,56.4366923 L618.332858,56.4366923 L618.332858,59.5369617 Z M632.139883,89.2146547 L635.463827,89.2146547 L635.463827,86.1143852 L632.139883,86.1143852 L632.139883,89.2146547 Z M618.187805,23.3360785 L621.511749,23.3360785 L621.511749,20.235809 L618.187805,20.235809 L618.187805,23.3360785 Z M654.445684,41.1529421 L657.769629,41.1529421 L657.769629,38.0526726 L654.445684,38.0526726 L654.445684,41.1529421 Z M654.445684,57.0626718 L657.769629,57.0626718 L657.769629,53.9624023 L654.445684,53.9624023 L654.445684,57.0626718 Z M610.524526,77.0870964 L613.848471,77.0870964 L613.848471,73.986827 L610.524526,73.986827 L610.524526,77.0870964 Z M524.119735,93.16452 L527.44368,93.16452 L527.44368,90.0642505 L524.119735,90.0642505 L524.119735,93.16452 Z M415.173674,23.3360785 L418.497619,23.3360785 L418.497619,20.235809 L415.173674,20.235809 L415.173674,23.3360785 Z M402.525785,23.4727818 L405.849729,23.4727818 L405.849729,20.3725124 L402.525785,20.3725124 L402.525785,23.4727818 Z M402.525785,41.0299994 L405.849729,41.0299994 L405.849729,37.92973 L402.525785,37.92973 L402.525785,41.0299994 Z M407.511702,41.0299994 L410.835646,41.0299994 L410.835646,37.92973 L407.511702,37.92973 L407.511702,41.0299994 Z M392.783755,66.4880614 L396.1077,66.4880614 L396.1077,63.3877919 L392.783755,63.3877919 L392.783755,66.4880614 Z M421.173674,40.0626718 L424.497619,40.0626718 L424.497619,36.9624023 L421.173674,36.9624023 L421.173674,40.0626718 Z M405.849729,83.2146547 L409.173674,83.2146547 L409.173674,80.1143852 L405.849729,80.1143852 L405.849729,83.2146547 Z M422.835646,66.0870964 L426.159591,66.0870964 L426.159591,62.986827 L422.835646,62.986827 L422.835646,66.0870964 Z M370.497741,95.5369617 L373.821686,95.5369617 L373.821686,92.4366923 L370.497741,92.4366923 L370.497741,95.5369617 Z M344.783755,87.66452 L348.1077,87.66452 L348.1077,84.5642505 L344.783755,84.5642505 L344.783755,87.66452 Z M618.332858,53.5369617 L621.656802,53.5369617 L621.656802,50.4366923 L618.332858,50.4366923 L618.332858,53.5369617 Z M626.139883,84.2146547 L629.463827,84.2146547 L629.463827,81.1143852 L626.139883,81.1143852 L626.139883,84.2146547 Z M612.187805,18.3360785 L615.511749,18.3360785 L615.511749,15.235809 L612.187805,15.235809 L612.187805,18.3360785 Z M648.445684,36.1529421 L651.769629,36.1529421 L651.769629,33.0526726 L648.445684,33.0526726 L648.445684,36.1529421 Z M648.445684,52.0626718 L651.769629,52.0626718 L651.769629,48.9624023 L648.445684,48.9624023 L648.445684,52.0626718 Z M604.524526,72.0870964 L607.848471,72.0870964 L607.848471,68.986827 L604.524526,68.986827 L604.524526,72.0870964 Z M518.119735,88.16452 L521.44368,88.16452 L521.44368,85.0642505 L518.119735,85.0642505 L518.119735,88.16452 Z M541.194931,114.536962 L544.518875,114.536962 L544.518875,111.436692 L541.194931,111.436692 L541.194931,114.536962 Z M409.173674,23.3360785 L412.497619,23.3360785 L412.497619,20.235809 L409.173674,20.235809 L409.173674,23.3360785 Z M415.173674,35.0626718 L418.497619,35.0626718 L418.497619,31.9624023 L415.173674,31.9624023 L415.173674,35.0626718 Z M402.525785,35.1993751 L405.849729,35.1993751 L405.849729,32.0991057 L402.525785,32.0991057 L402.525785,35.1993751 Z M402.525785,52.7565928 L405.849729,52.7565928 L405.849729,49.6563233 L402.525785,49.6563233 L402.525785,52.7565928 Z M407.511702,52.7565928 L410.835646,52.7565928 L410.835646,49.6563233 L407.511702,49.6563233 L407.511702,52.7565928 Z M392.783755,78.2146547 L396.1077,78.2146547 L396.1077,75.1143852 L392.783755,75.1143852 L392.783755,78.2146547 Z M399.849729,78.2146547 L403.173674,78.2146547 L403.173674,75.1143852 L399.849729,75.1143852 L399.849729,78.2146547 Z M416.835646,61.0870964 L420.159591,61.0870964 L420.159591,57.986827 L416.835646,57.986827 L416.835646,61.0870964 Z M364.497741,90.5369617 L367.821686,90.5369617 L367.821686,87.4366923 L364.497741,87.4366923 L364.497741,90.5369617 Z" id="Page-1-Copy-4"></path>
            <path d="M834.374264,13.2542277 L834.298618,68.5375977 L816.215983,68.4834228 L816.215983,98.5453124 L801.413002,98.5453124 L801.413002,121.699841 L794.447738,121.699841 L794.298618,68.1732456 L775.298618,54.887207 L751.298618,54.887207 L735.298618,68.1732456 L735.274465,127.886974 L715.213779,127.886974 L715.213779,100.575599 L703.691091,100.575599 L694.286689,36.2436523 L675.691091,36.2436523 L675.595493,457.537598 L1050.69489,457.537598 L1050.79862,52.387207 L1007.44065,52.387207 L1007.51932,127.886974 L1003.68414,127.863906 L1003.68414,73.7436523 L988.691091,73.7436523 L988.013441,127.76965 L983.691091,127.743652 L983.691091,63.2436523 L978.298618,56.5375977 L971.691091,63.2436523 L971.691091,127.886974 L967.031194,127.886974 L966.848796,81.0770488 L925.490827,81.0770488 L912.237932,81.0770488 L912.430141,60.765653 L905.298618,60.765653 L900.298618,60.765653 L900.298618,27.0375977 L888.484679,27.0375977 L888.484679,99.3581582 L881.084494,99.3581582 L881.298618,12.387207 L834.374264,13.2542277 Z M843.09357,54.6723561 L846.417514,54.6723561 L846.417514,51.5720866 L843.09357,51.5720866 L843.09357,54.6723561 Z M873.848452,21.1884694 L877.172397,21.1884694 L877.172397,18.0881999 L873.848452,18.0881999 L873.848452,21.1884694 Z M905.238927,67.620612 L908.561565,67.620612 L908.561565,64.5215612 L905.238927,64.5215612 L905.238927,67.620612 Z M1024.88134,59.1899264 L1028.20398,59.1899264 L1028.20398,56.0908756 L1024.88134,56.0908756 L1024.88134,59.1899264 Z M954.617463,113.829738 L957.940102,113.829738 L957.940102,110.730687 L954.617463,110.730687 L954.617463,113.829738 Z M777.116074,98.0858778 L780.438712,98.0858778 L780.438712,94.986827 L777.116074,94.986827 L777.116074,98.0858778 Z M872.187786,42.847153 L875.510425,42.847153 L875.510425,39.7481022 L872.187786,39.7481022 L872.187786,42.847153 Z M872.188439,59.4862578 L875.511078,59.4862578 L875.511078,56.387207 L872.188439,56.387207 L872.188439,59.4862578 Z M892.946209,83.2777545 L896.268848,83.2777545 L896.268848,80.1787037 L892.946209,80.1787037 L892.946209,83.2777545 Z M905.595493,73.2777545 L908.918132,73.2777545 L908.918132,70.1787037 L905.595493,70.1787037 L905.595493,73.2777545 Z M851.595493,90.1455716 L854.918132,90.1455716 L854.918132,87.0465208 L851.595493,87.0465208 L851.595493,90.1455716 Z M1043.59549,60.120612 L1046.91813,60.120612 L1046.91813,57.0215612 L1043.59549,57.0215612 L1043.59549,60.120612 Z M998.074497,80.1787037 L1001.39714,80.1787037 L1001.39714,77.0796529 L998.074497,77.0796529 L998.074497,80.1787037 Z M990.671665,100.145572 L993.994303,100.145572 L993.994303,97.0465208 L990.671665,97.0465208 L990.671665,100.145572 Z M977.715122,68.6291783 L981.03776,68.6291783 L981.03776,65.5301276 L977.715122,65.5301276 L977.715122,68.6291783 Z M977.713816,90.4862578 L981.036454,90.4862578 L981.036454,87.387207 L977.713816,87.387207 L977.713816,90.4862578 Z M959.271548,87.387207 L962.594187,87.387207 L962.594187,84.2881562 L959.271548,84.2881562 L959.271548,87.387207 Z M872.18648,101.486258 L875.509119,101.486258 L875.509119,98.387207 L872.18648,98.387207 L872.18648,101.486258 Z M905.237621,98.387207 L908.560259,98.387207 L908.560259,95.2881562 L905.237621,95.2881562 L905.237621,98.387207 Z M872.189092,69.4862578 L875.511731,69.4862578 L875.511731,66.387207 L872.189092,66.387207 L872.189092,69.4862578 Z M892.946862,93.2777545 L896.269501,93.2777545 L896.269501,90.1787037 L892.946862,90.1787037 L892.946862,93.2777545 Z M905.596146,83.2777545 L908.918785,83.2777545 L908.918785,80.1787037 L905.596146,80.1787037 L905.596146,83.2777545 Z M851.596146,100.145572 L854.918785,100.145572 L854.918785,97.0465208 L851.596146,97.0465208 L851.596146,100.145572 Z M1043.59615,70.120612 L1046.91878,70.120612 L1046.91878,67.0215612 L1043.59615,67.0215612 L1043.59615,70.120612 Z M998.07515,90.1787037 L1001.39779,90.1787037 L1001.39779,87.0796529 L998.07515,87.0796529 L998.07515,90.1787037 Z M990.672318,110.145572 L993.994957,110.145572 L993.994957,107.046521 L990.672318,107.046521 L990.672318,110.145572 Z M977.715775,78.6291783 L981.038414,78.6291783 L981.038414,75.5301276 L977.715775,75.5301276 L977.715775,78.6291783 Z M977.714469,100.486258 L981.037107,100.486258 L981.037107,97.387207 L977.714469,97.387207 L977.714469,100.486258 Z M959.272201,97.387207 L962.59484,97.387207 L962.59484,94.2881562 L959.272201,94.2881562 L959.272201,97.387207 Z M678.985965,50.9462038 L682.308603,50.9462038 L682.308603,47.847153 L678.985965,47.847153 L678.985965,50.9462038 Z M684.471331,81.7282291 L687.793969,81.7282291 L687.793969,78.6291783 L684.471331,78.6291783 L684.471331,81.7282291 Z M690.616384,95.8376816 L693.939022,95.8376816 L693.939022,92.7386308 L690.616384,92.7386308 L690.616384,95.8376816 Z M905.238274,108.387207 L908.560912,108.387207 L908.560912,105.288156 L905.238274,105.288156 L905.238274,108.387207 Z M872.189745,79.4862578 L875.512384,79.4862578 L875.512384,76.387207 L872.189745,76.387207 L872.189745,79.4862578 Z M872.189092,64.4862578 L875.511731,64.4862578 L875.511731,61.387207 L872.189092,61.387207 L872.189092,64.4862578 Z M892.946862,88.2777545 L896.269501,88.2777545 L896.269501,85.1787037 L892.946862,85.1787037 L892.946862,88.2777545 Z M905.596146,78.2777545 L908.918785,78.2777545 L908.918785,75.1787037 L905.596146,75.1787037 L905.596146,78.2777545 Z M851.596146,95.1455716 L854.918785,95.1455716 L854.918785,92.0465208 L851.596146,92.0465208 L851.596146,95.1455716 Z M1043.59615,65.120612 L1046.91878,65.120612 L1046.91878,62.0215612 L1043.59615,62.0215612 L1043.59615,65.120612 Z M998.07515,85.1787037 L1001.39779,85.1787037 L1001.39779,82.0796529 L998.07515,82.0796529 L998.07515,85.1787037 Z M990.672318,105.145572 L993.994957,105.145572 L993.994957,102.046521 L990.672318,102.046521 L990.672318,105.145572 Z M977.715775,73.6291783 L981.038414,73.6291783 L981.038414,70.5301276 L977.715775,70.5301276 L977.715775,73.6291783 Z M977.714469,95.4862578 L981.037107,95.4862578 L981.037107,92.387207 L977.714469,92.387207 L977.714469,95.4862578 Z M959.272201,92.387207 L962.59484,92.387207 L962.59484,89.2881562 L959.272201,89.2881562 L959.272201,92.387207 Z M678.985965,45.9462038 L682.308603,45.9462038 L682.308603,42.847153 L678.985965,42.847153 L678.985965,45.9462038 Z M684.471331,76.7282291 L687.793969,76.7282291 L687.793969,73.6291783 L684.471331,73.6291783 L684.471331,76.7282291 Z M690.616384,90.8376816 L693.939022,90.8376816 L693.939022,87.7386308 L690.616384,87.7386308 L690.616384,90.8376816 Z M905.238274,103.387207 L908.560912,103.387207 L908.560912,100.288156 L905.238274,100.288156 L905.238274,103.387207 Z M872.189745,74.4862578 L875.512384,74.4862578 L875.512384,71.387207 L872.189745,71.387207 L872.189745,74.4862578 Z M892.947515,98.2777545 L896.270154,98.2777545 L896.270154,95.1787037 L892.947515,95.1787037 L892.947515,98.2777545 Z M905.596799,88.2777545 L908.919438,88.2777545 L908.919438,85.1787037 L905.596799,85.1787037 L905.596799,88.2777545 Z M851.596799,105.145572 L854.919438,105.145572 L854.919438,102.046521 L851.596799,102.046521 L851.596799,105.145572 Z M1043.5968,75.120612 L1046.91944,75.120612 L1046.91944,72.0215612 L1043.5968,72.0215612 L1043.5968,75.120612 Z M998.075803,95.1787037 L1001.39844,95.1787037 L1001.39844,92.0796529 L998.075803,92.0796529 L998.075803,95.1787037 Z M990.672971,115.145572 L993.99561,115.145572 L993.99561,112.046521 L990.672971,112.046521 L990.672971,115.145572 Z M977.716428,83.6291783 L981.039067,83.6291783 L981.039067,80.5301276 L977.716428,80.5301276 L977.716428,83.6291783 Z M977.715122,105.486258 L981.03776,105.486258 L981.03776,102.387207 L977.715122,102.387207 L977.715122,105.486258 Z M959.272854,102.387207 L962.595493,102.387207 L962.595493,99.2881562 L959.272854,99.2881562 L959.272854,102.387207 Z M678.986618,55.9462038 L682.309256,55.9462038 L682.309256,52.847153 L678.986618,52.847153 L678.986618,55.9462038 Z M684.471984,86.7282291 L687.794623,86.7282291 L687.794623,83.6291783 L684.471984,83.6291783 L684.471984,86.7282291 Z M690.617037,100.837682 L693.939675,100.837682 L693.939675,97.7386308 L690.617037,97.7386308 L690.617037,100.837682 Z M905.238927,113.387207 L908.561565,113.387207 L908.561565,110.288156 L905.238927,110.288156 L905.238927,113.387207 Z M872.190398,84.4862578 L875.513037,84.4862578 L875.513037,81.387207 L872.190398,81.387207 L872.190398,84.4862578 Z M777.115421,113.829738 L780.438059,113.829738 L780.438059,110.730687 L777.115421,110.730687 L777.115421,113.829738 Z M899.092568,67.620612 L902.416513,67.620612 L902.416513,64.5215612 L899.092568,64.5215612 L899.092568,67.620612 Z M1018.73498,59.1899264 L1022.05893,59.1899264 L1022.05893,56.0908756 L1018.73498,56.0908756 L1018.73498,59.1899264 Z M948.471104,113.829738 L951.795049,113.829738 L951.795049,110.730687 L948.471104,110.730687 L948.471104,113.829738 Z M770.969715,98.0858778 L774.29366,98.0858778 L774.29366,94.986827 L770.969715,94.986827 L770.969715,98.0858778 Z M866.041427,42.847153 L869.365372,42.847153 L869.365372,39.7481022 L866.041427,39.7481022 L866.041427,42.847153 Z M866.04208,59.4862578 L869.366025,59.4862578 L869.366025,56.387207 L866.04208,56.387207 L866.04208,59.4862578 Z M866.042733,64.4862578 L869.366678,64.4862578 L869.366678,61.387207 L866.042733,61.387207 L866.042733,64.4862578 Z M770.969062,113.829738 L774.293007,113.829738 L774.293007,110.730687 L770.969062,110.730687 L770.969062,113.829738 Z M892.946209,67.620612 L896.268848,67.620612 L896.268848,64.5215612 L892.946209,64.5215612 L892.946209,67.620612 Z M1012.58863,59.1899264 L1015.91126,59.1899264 L1015.91126,56.0908756 L1012.58863,56.0908756 L1012.58863,59.1899264 Z M942.324745,113.829738 L945.647384,113.829738 L945.647384,110.730687 L942.324745,110.730687 L942.324745,113.829738 Z M764.823356,98.0858778 L768.145995,98.0858778 L768.145995,94.986827 L764.823356,94.986827 L764.823356,98.0858778 Z M859.895068,42.847153 L863.217707,42.847153 L863.217707,39.7481022 L859.895068,39.7481022 L859.895068,42.847153 Z M859.895721,59.4862578 L863.21836,59.4862578 L863.21836,56.387207 L859.895721,56.387207 L859.895721,59.4862578 Z M859.896374,64.4862578 L863.219013,64.4862578 L863.219013,61.387207 L859.896374,61.387207 L859.896374,64.4862578 Z M764.822703,113.829738 L768.145342,113.829738 L768.145342,110.730687 L764.822703,110.730687 L764.822703,113.829738 Z M892.946209,72.9522468 L896.268848,72.9522468 L896.268848,69.853196 L892.946209,69.853196 L892.946209,72.9522468 Z M1012.58863,64.5215612 L1015.91126,64.5215612 L1015.91126,61.4225104 L1012.58863,61.4225104 L1012.58863,64.5215612 Z M859.895068,48.1787878 L863.217707,48.1787878 L863.217707,45.079737 L859.895068,45.079737 L859.895068,48.1787878 Z M764.822703,119.161373 L768.145342,119.161373 L768.145342,116.062322 L764.822703,116.062322 L764.822703,119.161373 Z M741.984228,81.7288385 L745.308173,81.7288385 L745.308173,78.628569 L741.984228,78.628569 L741.984228,81.7288385 Z M741.985534,72.706458 L745.308173,72.706458 L745.308173,69.6061886 L741.985534,69.6061886 L741.985534,72.706458 Z M741.984228,90.4874765 L745.306867,90.4874765 L745.306867,87.387207 L741.984228,87.387207 L741.984228,90.4874765 Z M942.324745,92.2984644 L945.646078,92.2984644 L945.646078,89.1994136 L942.324745,89.1994136 L942.324745,92.2984644 Z M936.178386,92.2984644 L939.502331,92.2984644 L939.502331,89.1994136 L936.178386,89.1994136 L936.178386,92.2984644 Z M930.032028,92.2984644 L933.354666,92.2984644 L933.354666,89.1994136 L930.032028,89.1994136 L930.032028,92.2984644 Z M942.324745,98.0870964 L945.646078,98.0870964 L945.646078,94.986827 L942.324745,94.986827 L942.324745,98.0870964 Z M936.178386,98.0870964 L939.502331,98.0870964 L939.502331,94.986827 L936.178386,94.986827 L936.178386,98.0870964 Z M1035.62768,104.433874 L1038.95162,104.433874 L1038.95162,101.333605 L1035.62768,101.333605 L1035.62768,104.433874 Z M1029.48262,104.433874 L1032.80526,104.433874 L1032.80526,101.333605 L1029.48262,101.333605 L1029.48262,104.433874 Z M1023.33626,104.433874 L1026.66021,104.433874 L1026.66021,101.333605 L1023.33626,101.333605 L1023.33626,104.433874 Z M1017.07366,104.433874 L1020.3963,104.433874 L1020.3963,101.333605 L1017.07366,101.333605 L1017.07366,104.433874 Z M815.446709,106.695706 L818.769348,106.695706 L818.769348,103.595437 L815.446709,103.595437 L815.446709,106.695706 Z M809.626867,106.695706 L812.950812,106.695706 L812.950812,103.595437 L809.626867,103.595437 L809.626867,106.695706 Z M708.922446,107.887555 L712.245085,107.887555 L712.245085,104.786067 L708.922446,104.786067 L708.922446,107.887555 Z M690.616384,107.887555 L693.939022,107.887555 L693.939022,104.786067 L690.616384,104.786067 L690.616384,107.887555 Z M828.616384,82.7304176 L831.939022,82.7304176 L831.939022,79.6289294 L828.616384,79.6289294 L828.616384,82.7304176 Z M840.777393,76.8875552 L844.098726,76.8875552 L844.098726,73.7860671 L840.777393,73.7860671 L840.777393,76.8875552 Z M840.777393,82.7304176 L844.098726,82.7304176 L844.098726,79.6289294 L840.777393,79.6289294 L840.777393,82.7304176 Z M822.471331,76.8875552 L825.792663,76.8875552 L825.792663,73.7860671 L822.471331,73.7860671 L822.471331,76.8875552 Z M822.471331,82.7304176 L825.792663,82.7304176 L825.792663,79.6289294 L822.471331,79.6289294 L822.471331,82.7304176 Z M850.243779,27.1328199 L853.566417,27.1328199 L853.566417,24.0313318 L850.243779,24.0313318 L850.243779,27.1328199 Z M862.404788,21.2899575 L865.726121,21.2899575 L865.726121,18.1884694 L862.404788,18.1884694 L862.404788,21.2899575 Z M862.404788,27.1328199 L865.726121,27.1328199 L865.726121,24.0313318 L862.404788,24.0313318 L862.404788,27.1328199 Z M844.098726,21.2899575 L847.420058,21.2899575 L847.420058,18.1884694 L844.098726,18.1884694 L844.098726,21.2899575 Z M844.098726,27.1328199 L847.420058,27.1328199 L847.420058,24.0313318 L844.098726,24.0313318 L844.098726,27.1328199 Z M766.616384,71.7304176 L769.939022,71.7304176 L769.939022,68.6289294 L766.616384,68.6289294 L766.616384,71.7304176 Z M778.777393,65.8875552 L782.098726,65.8875552 L782.098726,62.7860671 L778.777393,62.7860671 L778.777393,65.8875552 Z M778.777393,71.7304176 L782.098726,71.7304176 L782.098726,68.6289294 L778.777393,68.6289294 L778.777393,71.7304176 Z M760.471331,65.8875552 L763.792663,65.8875552 L763.792663,62.7860671 L760.471331,62.7860671 L760.471331,65.8875552 Z M760.471331,71.7304176 L763.792663,71.7304176 L763.792663,68.6289294 L760.471331,68.6289294 L760.471331,71.7304176 Z M702.777393,107.887555 L706.098726,107.887555 L706.098726,104.786067 L702.777393,104.786067 L702.777393,107.887555 Z M684.471331,107.887555 L687.792663,107.887555 L687.792663,104.786067 L684.471331,104.786067 L684.471331,107.887555 Z M696.631034,107.887555 L699.953673,107.887555 L699.953673,104.786067 L696.631034,104.786067 L696.631034,107.887555 Z M678.324972,107.887555 L681.647611,107.887555 L681.647611,104.786067 L678.324972,104.786067 L678.324972,107.887555 Z M1035.62768,110.730687 L1038.95162,110.730687 L1038.95162,107.630418 L1035.62768,107.630418 L1035.62768,110.730687 Z M1029.48262,110.730687 L1032.80526,110.730687 L1032.80526,107.630418 L1029.48262,107.630418 L1029.48262,110.730687 Z M1023.33626,110.730687 L1026.66021,110.730687 L1026.66021,107.630418 L1023.33626,107.630418 L1023.33626,110.730687 Z M809.626867,112.179673 L812.950812,112.179673 L812.950812,109.079404 L809.626867,109.079404 L809.626867,112.179673 Z M1035.62768,116.214655 L1038.95162,116.214655 L1038.95162,113.114385 L1035.62768,113.114385 L1035.62768,116.214655 Z" id="Page-1-Copy-5"></path>
            <rect id="Rectangle-16-Copy-5" x="819.798618" y="48.5063477" width="21.4277344" height="21"></rect>
            <rect id="Rectangle-16-Copy-6" transform="translate(724.890415, 105.588135) rotate(-270.000000) translate(-724.890415, -105.588135) " x="701.015171" y="99.5021973" width="47.7504883" height="12.171875"></rect>
            <ellipse id="Oval-15-Copy" cx="274.954763" cy="72.6635469" rx="14.0253906" ry="3.45843618"></ellipse>
            <rect id="Rectangle-19-Copy" x="272.28326" y="69.2051107" width="5.34300595" height="12.2572917"></rect>
            <rect id="Rectangle" x="63" y="110.785156" width="987.798618" height="48.4648438"></rect>
            <rect id="Rectangle-2" x="762.595493" y="107.387207" width="23" height="12"></rect>
            <rect id="Rectangle-2-Copy" x="937.060337" y="107.387207" width="23" height="12"></rect>
            <rect id="Rectangle-2-Copy-2" x="895.931431" y="109.785156" width="23" height="12"></rect>
        </g>
    </g>
</svg>