<?xml version="1.0" encoding="UTF-8" standalone="no"?>
<svg width="373px" height="257px" viewBox="0 0 373 257" version="1.1" xmlns="http://www.w3.org/2000/svg" xmlns:xlink="http://www.w3.org/1999/xlink">
    <!-- Generator: Sketch 48.2 (47327) - http://www.bohemiancoding.com/sketch -->
    <title>Group 67</title>
    <desc>Created with Sketch.</desc>
    <defs>
        <rect id="path-1" x="49.1534373" y="23.9082675" width="6.97677463" height="2.32559154" rx="1.16279577"></rect>
        <rect id="path-2" x="61.6660659" y="23.9671554" width="6.97677463" height="2.32559154" rx="1.16279577"></rect>
    </defs>
    <g id="SureDrive--Copy-3" stroke="none" stroke-width="1" fill="none" fill-rule="evenodd" transform="translate(-979.000000, -3077.000000)">
        <g id="Group-61" transform="translate(978.000000, 3000.000000)">
            <g id="Group-41" transform="translate(0.559899, 0.849531)">
                <g id="Group-67" transform="translate(1.000000, 76.000000)">
                    <path d="M175.980204,0.334247294 L175.980204,5.16673801 L169.075163,5.16673801 L169.075163,9.99922873 L163.463603,9.99922873 L163.463603,59.9357716 L158.716953,59.9357716 L158.716953,29.3279835 L139.726471,29.3279835 L139.726471,59.1299538 L125.051478,59.1299538 L125.051478,82.0842847 L118.146437,82.0842847 L118.146437,35.773318 L88.3665849,35.773318 L88.3665849,70.0030579 L70.2397184,70.0030579 L70.2397184,45.8393962 L52.5453073,45.8393962 L52.5453073,88.2179235 L39.5975456,88.2179235 L39.5975456,61.1426861 L0.321805148,61.1426861 L0.489128706,256.193901 L372.345366,256.193901 L372.178043,59.1299538 L329.194953,59.1299538 L329.194953,75.6401583 L289.056892,75.6401583 L289.056892,41.8127233 L248.056509,41.8127233 L248.056509,90.1388386 L235.108748,90.1388386 L235.108748,21.6769426 L211.370321,21.6769426 L211.370321,59.9357716 L204.034119,59.9357716 L204.034119,9.19341091 L197.560239,9.19341091 L197.560239,4.36212831 L191.086358,4.36212831 L191.086358,0.334247294 L175.980204,0.334247294 Z M166.37167,15.6363292 L169.666875,15.6363292 L169.666875,12.5628651 L166.37167,12.5628651 L166.37167,15.6363292 Z M227.97971,28.4726326 L231.273621,28.4726326 L231.273621,25.4003767 L227.97971,25.4003767 L227.97971,28.4726326 Z M221.886493,28.4726326 L225.181699,28.4726326 L225.181699,25.4003767 L221.886493,25.4003767 L221.886493,28.4726326 Z M215.793277,28.4726326 L219.087187,28.4726326 L219.087187,25.4003767 L215.793277,25.4003767 L215.793277,28.4726326 Z M215.793277,33.7581694 L219.087187,33.7581694 L219.087187,30.6859134 L215.793277,30.6859134 L215.793277,33.7581694 Z M97.8042084,42.3660435 L101.099414,42.3660435 L101.099414,39.2925794 L97.8042084,39.2925794 L97.8042084,42.3660435 Z M92.0359805,42.3660435 L95.3298911,42.3660435 L95.3298911,39.2925794 L92.0359805,39.2925794 L92.0359805,42.3660435 Z M92.0359805,47.8025955 L95.3298911,47.8025955 L95.3298911,44.7291314 L92.0359805,44.7291314 L92.0359805,47.8025955 Z M264.744879,52.9371169 L268.037495,52.9371169 L268.037495,49.8648609 L264.744879,49.8648609 L264.744879,52.9371169 Z M258.651663,52.9371169 L261.946868,52.9371169 L261.946868,49.8648609 L258.651663,49.8648609 L258.651663,52.9371169 Z M252.558446,52.9371169 L255.852357,52.9371169 L255.852357,49.8648609 L252.558446,49.8648609 L252.558446,52.9371169 Z M264.744879,58.6756996 L268.037495,58.6756996 L268.037495,55.6022355 L264.744879,55.6022355 L264.744879,58.6756996 Z M258.651663,58.6756996 L261.946868,58.6756996 L261.946868,55.6022355 L258.651663,55.6022355 L258.651663,58.6756996 Z M357.2411,64.9676025 L360.536305,64.9676025 L360.536305,61.8941385 L357.2411,61.8941385 L357.2411,64.9676025 Z M351.149178,64.9676025 L354.443088,64.9676025 L354.443088,61.8941385 L351.149178,61.8941385 L351.149178,64.9676025 Z M345.055961,64.9676025 L348.351166,64.9676025 L348.351166,61.8941385 L345.055961,61.8941385 L345.055961,64.9676025 Z M338.847509,64.9676025 L342.14142,64.9676025 L342.14142,61.8941385 L338.847509,61.8941385 L338.847509,64.9676025 Z M138.963848,67.2098782 L142.257759,67.2098782 L142.257759,64.1364141 L138.963848,64.1364141 L138.963848,67.2098782 Z M133.194325,67.2098782 L136.489531,67.2098782 L136.489531,64.1364141 L133.194325,64.1364141 L133.194325,67.2098782 Z M33.3606087,68.3914222 L36.6545193,68.3914222 L36.6545193,65.31675 L33.3606087,65.31675 L33.3606087,68.3914222 Z M27.2686868,68.3914222 L30.5613026,68.3914222 L30.5613026,65.31675 L27.2686868,65.31675 L27.2686868,68.3914222 Z M21.1754702,68.3914222 L24.4693808,68.3914222 L24.4693808,65.31675 L21.1754702,65.31675 L21.1754702,68.3914222 Z M357.2411,71.2099724 L360.536305,71.2099724 L360.536305,68.1365083 L357.2411,68.1365083 L357.2411,71.2099724 Z M351.149178,71.2099724 L354.443088,71.2099724 L354.443088,68.1365083 L351.149178,68.1365083 L351.149178,71.2099724 Z M345.055961,71.2099724 L348.351166,71.2099724 L348.351166,68.1365083 L345.055961,68.1365083 L345.055961,71.2099724 Z M133.194325,72.6464303 L136.489531,72.6464303 L136.489531,69.5729662 L133.194325,69.5729662 L133.194325,72.6464303 Z M357.2411,76.6465245 L360.536305,76.6465245 L360.536305,73.5730604 L357.2411,73.5730604 L357.2411,76.6465245 Z M8.46465249,91.2913876 L11.7585631,91.2913876 L11.7585631,88.2179235 L8.46465249,88.2179235 L8.46465249,91.2913876 Z M2.69512987,91.2913876 L5.98904045,91.2913876 L5.98904045,88.2179235 L2.69512987,88.2179235 L2.69512987,91.2913876 Z" id="Page-1" fill="#E14A43"></path>
                    <g id="Car_Illustration" transform="translate(121.170030, 87.359074)">
                        <g id="Group-2" transform="translate(0.000000, 26.676194)">
                            <polygon id="Page-1" fill="#FFFFFF" points="118.148314 0.282077126 116.463874 14.5525703 127.264362 24.0299479 113.171922 26.8377251 95.9126032 15.6293921 92.7457237 1.61328192 105.796693 7.6252222"></polygon>
                            <ellipse id="Oval-2" fill="#E2231A" cx="60.5548715" cy="46.682312" rx="60.4235804" ry="6.12395299"></ellipse>
                        </g>
                        <g id="Group-25" transform="translate(61.480672, 40.944057) scale(-1, 1) rotate(-14.000000) translate(-61.480672, -40.944057) translate(7.615672, 12.594057)">
                            <g id="Page-1" transform="translate(0.459663, 0.708046)">
                                <g id="Group-3" transform="translate(0.000000, 0.206784)" fill="#F49F9B">
                                    <path d="M47.1827007,13.7929924 L44.0776888,13.7929924 L40.2042875,21.5397949 C39.8088591,22.3216648 39.0180022,22.7800023 38.1911973,22.7800023 C37.8541844,22.7800023 37.5126781,22.6991192 37.1846522,22.5418465 C36.07925,21.9846519 35.6298995,20.6366004 36.1870941,19.5267047 L40.6805991,10.5396948 C41.062547,9.77579897 41.8354298,9.29948745 42.6891958,9.29948745 L47.1827007,9.29948745 C48.4184146,9.29948745 49.4294532,10.3060326 49.4294532,11.5462399 C49.4294532,12.7864473 48.4184146,13.7929924 47.1827007,13.7929924 M103.351513,40.7540221 L103.351513,27.2735073 C103.351513,22.3126778 99.3208387,18.2864974 94.3645027,18.2864974 L89.0127383,18.2864974 L77.482487,1.5526849 C77.1005391,0.788789063 76.3231627,0.312477538 75.4738903,0.312477538 L39.1122834,0.312477538 C38.2585175,0.312477538 37.4856347,0.788789063 37.1036867,1.5526849 L25.5689419,18.2864974 L8.98790861,18.2864974 C4.02707914,18.2864974 0.000898700991,22.3126778 0.000898700991,27.2735073 L0.000898700991,43.0007746 C0.000898700991,44.240982 1.00744381,45.2475271 2.24765118,45.2475271 L8.08022061,45.2475271 C7.94541546,44.5195793 7.86453237,43.7691639 7.86453237,43.0007746 C7.86453237,36.1841276 13.405024,30.643636 20.221671,30.643636 C27.0338245,30.643636 32.5788096,36.1841276 32.5788096,43.0007746 C32.5788096,43.7691639 32.4979265,44.5195793 32.3631214,45.2475271 L70.98929,45.2475271 C70.8544848,44.5195793 70.7736017,43.7691639 70.7736017,43.0007746 C70.7736017,36.1841276 76.3140933,30.643636 83.1307404,30.643636 C89.9428939,30.643636 95.487879,36.1841276 95.487879,43.0007746 C95.487879,43.7691639 95.4069959,44.5195793 95.2721907,45.2475271 L104.016593,45.2475271 C105.252306,45.2475271 106.263345,44.240982 106.263345,43.0007746 C106.263345,41.7605672 105.252306,40.7540221 104.016593,40.7540221 L103.351513,40.7540221 Z" id="Fill-1"></path>
                                </g>
                                <path d="M10.1112848,43.2075582 C10.1112848,48.7795044 14.6452313,53.3179444 20.221671,53.3179444 C25.7936171,53.3179444 30.3320571,48.7795044 30.3320571,43.2075582 C30.3320571,37.6311186 25.7936171,33.0971721 20.221671,33.0971721 C14.6452313,33.0971721 10.1112848,37.6311186 10.1112848,43.2075582 Z" id="Fill-4" fill="#000000"></path>
                                <path d="M83.1307404,33.0971721 C77.5543007,33.0971721 73.0203542,37.6311186 73.0203542,43.2075582 C73.0203542,48.7795044 77.5543007,53.3179444 83.1307404,53.3179444 C88.7026865,53.3179444 93.2411265,48.7795044 93.2411265,43.2075582 C93.2411265,37.6311186 88.7026865,33.0971721 83.1307404,33.0971721" id="Fill-6" fill="#000000"></path>
                            </g>
                            <g id="Group-24" transform="translate(7.908363, 29.241779)">
                                <path d="M0.0265008939,13.2660932 C0.0265008939,20.3068617 5.74111992,26.0207007 12.7806058,26.0207007 C19.8210968,26.0207007 25.5357159,20.3068617 25.5357159,13.2660932 C25.5357159,6.22532469 19.8210968,0.511485719 12.7806058,0.511485719 C5.74111992,0.511485719 0.0265008939,6.22532469 0.0265008939,13.2660932" id="Fill-6" fill="#B90B02"></path>
                                <path d="M18.7332585,13.2664185 C18.7332585,16.5539755 16.06834,19.2182434 12.7814337,19.2182434 C9.49387673,19.2182434 6.82895822,16.5539755 6.82895822,13.2664185 C6.82895822,9.97886156 9.49387673,7.31394304 12.7814337,7.31394304 C16.06834,7.31394304 18.7332585,9.97886156 18.7332585,13.2664185" id="Fill-10" fill="#FFE0DF"></path>
                            </g>
                            <g id="Group-23" transform="translate(70.605693, 30.534107)">
                                <path d="M0.182505706,12.9480751 C0.182505706,19.9888436 5.89712473,25.7026826 12.9366106,25.7026826 C19.9771016,25.7026826 25.6917207,19.9888436 25.6917207,12.9480751 C25.6917207,5.90730657 19.9771016,0.193467592 12.9366106,0.193467592 C5.89712473,0.193467592 0.182505706,5.90730657 0.182505706,12.9480751" id="Fill-6-Copy-2" fill="#B90B02"></path>
                                <path d="M18.8892633,12.9484004 C18.8892633,16.2359573 16.2243448,18.9002252 12.9374385,18.9002252 C9.64988154,18.9002252 6.98496303,16.2359573 6.98496303,12.9484004 C6.98496303,9.66084343 9.64988154,6.99592491 12.9374385,6.99592491 C16.2243448,6.99592491 18.8892633,9.66084343 18.8892633,12.9484004" id="Fill-10-Copy-2" fill="#FFE0DF"></path>
                            </g>
                            <polygon id="Path-7" fill="#F49F9B" points="40.8849892 4.55787846 28.8100622 26.292747 57.8010653 26.292747 57.8010653 4.55787559"></polygon>
                            <polygon id="Path-7" fill="#E5E5E5" points="41.3577233 4.55787846 31.241266 19.920491 56.130212 19.7517432 56.130212 4.38912865"></polygon>
                            <polygon id="Path-7" fill="#E5E5E5" transform="translate(73.528610, 12.154810) scale(-1, 1) translate(-73.528610, -12.154810) " points="71.9234974 4.55787846 61.6660659 19.920491 85.3911542 19.7517432 85.3911542 4.38912865"></polygon>
                            <g id="Rectangle-9">
                                <use fill="#D8D8D8" fill-rule="evenodd" xlink:href="#path-1"></use>
                                <rect stroke="#979797" stroke-width="0.972" x="49.6394373" y="24.3942675" width="6.00477463" height="1.35359154" rx="0.676795771"></rect>
                            </g>
                            <g id="Rectangle-9-Copy">
                                <use fill="#D8D8D8" fill-rule="evenodd" xlink:href="#path-2"></use>
                                <rect stroke="#979797" stroke-width="0.972" x="62.1520659" y="24.4531554" width="6.00477463" height="1.35359154" rx="0.676795771"></rect>
                            </g>
                        </g>
                    </g>
                </g>
            </g>
        </g>
    </g>
</svg>