<?xml version="1.0" encoding="UTF-8" standalone="no"?>
<svg width="373px" height="257px" viewBox="0 0 373 257" version="1.1" xmlns="http://www.w3.org/2000/svg" xmlns:xlink="http://www.w3.org/1999/xlink">
    <!-- Generator: Sketch 48.2 (47327) - http://www.bohemiancoding.com/sketch -->
    <title>Group 67</title>
    <desc>Created with Sketch.</desc>
    <defs>
        <polygon id="path-1" points="0.000589497126 0.736871408 70.7396551 0.736871408 70.7396551 30.2111382 0.000589497126 30.2111382"></polygon>
        <rect id="path-3" x="31.9631949" y="16.2137883" width="4.57637038" height="1.52545679" rx="0.762728396"></rect>
        <rect id="path-4" x="40.170773" y="16.2524155" width="4.57637038" height="1.52545679" rx="0.762728396"></rect>
        <polygon id="path-5" points="0.000589497126 0.736871408 70.7396551 0.736871408 70.7396551 30.2111382 0.000589497126 30.2111382"></polygon>
    </defs>
    <g id="SureDrive--Copy-3" stroke="none" stroke-width="1" fill="none" fill-rule="evenodd" transform="translate(-1395.000000, -3078.000000)">
        <g id="Group-62" transform="translate(1393.000000, 3002.000000)">
            <g id="Group-42" transform="translate(0.803634, 0.153125)">
                <g id="Group-41-Copy" transform="translate(0.000000, 0.316406)">
                    <g id="Group-67" transform="translate(1.000000, 76.000000)">
                        <path d="M175.980204,0.334247294 L175.980204,5.16673801 L169.075163,5.16673801 L169.075163,9.99922873 L163.463603,9.99922873 L163.463603,59.9357716 L158.716953,59.9357716 L158.716953,29.3279835 L139.726471,29.3279835 L139.726471,59.1299538 L125.051478,59.1299538 L125.051478,82.0842847 L118.146437,82.0842847 L118.146437,35.773318 L88.3665849,35.773318 L88.3665849,70.0030579 L70.2397184,70.0030579 L70.2397184,45.8393962 L52.5453073,45.8393962 L52.5453073,88.2179235 L39.5975456,88.2179235 L39.5975456,61.1426861 L0.321805148,61.1426861 L0.489128706,256.193901 L372.345366,256.193901 L372.178043,59.1299538 L329.194953,59.1299538 L329.194953,75.6401583 L289.056892,75.6401583 L289.056892,41.8127233 L248.056509,41.8127233 L248.056509,90.1388386 L235.108748,90.1388386 L235.108748,21.6769426 L211.370321,21.6769426 L211.370321,59.9357716 L204.034119,59.9357716 L204.034119,9.19341091 L197.560239,9.19341091 L197.560239,4.36212831 L191.086358,4.36212831 L191.086358,0.334247294 L175.980204,0.334247294 Z M166.37167,15.6363292 L169.666875,15.6363292 L169.666875,12.5628651 L166.37167,12.5628651 L166.37167,15.6363292 Z M227.97971,28.4726326 L231.273621,28.4726326 L231.273621,25.4003767 L227.97971,25.4003767 L227.97971,28.4726326 Z M221.886493,28.4726326 L225.181699,28.4726326 L225.181699,25.4003767 L221.886493,25.4003767 L221.886493,28.4726326 Z M215.793277,28.4726326 L219.087187,28.4726326 L219.087187,25.4003767 L215.793277,25.4003767 L215.793277,28.4726326 Z M215.793277,33.7581694 L219.087187,33.7581694 L219.087187,30.6859134 L215.793277,30.6859134 L215.793277,33.7581694 Z M97.8042084,42.3660435 L101.099414,42.3660435 L101.099414,39.2925794 L97.8042084,39.2925794 L97.8042084,42.3660435 Z M92.0359805,42.3660435 L95.3298911,42.3660435 L95.3298911,39.2925794 L92.0359805,39.2925794 L92.0359805,42.3660435 Z M92.0359805,47.8025955 L95.3298911,47.8025955 L95.3298911,44.7291314 L92.0359805,44.7291314 L92.0359805,47.8025955 Z M264.744879,52.9371169 L268.037495,52.9371169 L268.037495,49.8648609 L264.744879,49.8648609 L264.744879,52.9371169 Z M258.651663,52.9371169 L261.946868,52.9371169 L261.946868,49.8648609 L258.651663,49.8648609 L258.651663,52.9371169 Z M252.558446,52.9371169 L255.852357,52.9371169 L255.852357,49.8648609 L252.558446,49.8648609 L252.558446,52.9371169 Z M264.744879,58.6756996 L268.037495,58.6756996 L268.037495,55.6022355 L264.744879,55.6022355 L264.744879,58.6756996 Z M258.651663,58.6756996 L261.946868,58.6756996 L261.946868,55.6022355 L258.651663,55.6022355 L258.651663,58.6756996 Z M357.2411,64.9676025 L360.536305,64.9676025 L360.536305,61.8941385 L357.2411,61.8941385 L357.2411,64.9676025 Z M351.149178,64.9676025 L354.443088,64.9676025 L354.443088,61.8941385 L351.149178,61.8941385 L351.149178,64.9676025 Z M345.055961,64.9676025 L348.351166,64.9676025 L348.351166,61.8941385 L345.055961,61.8941385 L345.055961,64.9676025 Z M338.847509,64.9676025 L342.14142,64.9676025 L342.14142,61.8941385 L338.847509,61.8941385 L338.847509,64.9676025 Z M138.963848,67.2098782 L142.257759,67.2098782 L142.257759,64.1364141 L138.963848,64.1364141 L138.963848,67.2098782 Z M133.194325,67.2098782 L136.489531,67.2098782 L136.489531,64.1364141 L133.194325,64.1364141 L133.194325,67.2098782 Z M33.3606087,68.3914222 L36.6545193,68.3914222 L36.6545193,65.31675 L33.3606087,65.31675 L33.3606087,68.3914222 Z M27.2686868,68.3914222 L30.5613026,68.3914222 L30.5613026,65.31675 L27.2686868,65.31675 L27.2686868,68.3914222 Z M21.1754702,68.3914222 L24.4693808,68.3914222 L24.4693808,65.31675 L21.1754702,65.31675 L21.1754702,68.3914222 Z M357.2411,71.2099724 L360.536305,71.2099724 L360.536305,68.1365083 L357.2411,68.1365083 L357.2411,71.2099724 Z M351.149178,71.2099724 L354.443088,71.2099724 L354.443088,68.1365083 L351.149178,68.1365083 L351.149178,71.2099724 Z M345.055961,71.2099724 L348.351166,71.2099724 L348.351166,68.1365083 L345.055961,68.1365083 L345.055961,71.2099724 Z M133.194325,72.6464303 L136.489531,72.6464303 L136.489531,69.5729662 L133.194325,69.5729662 L133.194325,72.6464303 Z M357.2411,76.6465245 L360.536305,76.6465245 L360.536305,73.5730604 L357.2411,73.5730604 L357.2411,76.6465245 Z M8.46465249,91.2913876 L11.7585631,91.2913876 L11.7585631,88.2179235 L8.46465249,88.2179235 L8.46465249,91.2913876 Z M2.69512987,91.2913876 L5.98904045,91.2913876 L5.98904045,88.2179235 L2.69512987,88.2179235 L2.69512987,91.2913876 Z" id="Page-1" fill="#E14A43"></path>
                        <g id="Phone_cars" transform="translate(66.921371, 57.605703)">
                            <g id="two_Cars" transform="translate(34.582931, 47.391424)">
                                <g id="Group" transform="translate(0.288174, 0.140893)">
                                    <g id="Group-2" transform="translate(0.000000, 30.479247)" fill="#E2231A">
                                        <ellipse id="Oval-2" cx="39.7205779" cy="4.17759012" rx="39.6344583" ry="4.01696752"></ellipse>
                                    </g>
                                    <g id="Group-25" transform="translate(36.715829, 19.184949) scale(-1, 1) translate(-36.715829, -19.184949) translate(0.670829, 0.149949)">
                                        <g id="Page-1" transform="translate(0.022827, 0.464438)">
                                            <g id="Group-3" transform="translate(0.000000, 0.135638)">
                                                <mask id="mask-2" fill="white">
                                                    <use xlink:href="#path-1"></use>
                                                </mask>
                                                <g id="Clip-2"></g>
                                                <path d="M30.9491886,9.5787388 L28.912476,9.5787388 L26.3717434,14.660204 C26.1123647,15.1730665 25.5936072,15.4737101 25.0512699,15.4737101 C24.8302084,15.4737101 24.6061995,15.4206553 24.3910331,15.3174933 C23.6659516,14.9520051 23.3712031,14.0677594 23.7366913,13.3397305 L26.6841769,7.44475921 C26.9347132,6.94368665 27.4416807,6.63125317 28.001703,6.63125317 L30.9491886,6.63125317 C31.7597472,6.63125317 32.4229314,7.29148995 32.4229314,8.10499599 C32.4229314,8.91850202 31.7597472,9.5787388 30.9491886,9.5787388 M67.792759,27.2636526 L67.792759,18.4211957 C67.792759,15.1671716 65.1488644,12.5262244 61.8977877,12.5262244 L58.3873324,12.5262244 L50.8241383,1.54978794 C50.573602,1.04871539 50.063687,0.736281911 49.5066122,0.736281911 L25.6554504,0.736281911 C25.0954281,0.736281911 24.5884606,1.04871539 24.3379243,1.54978794 L16.7717827,12.5262244 L5.89556076,12.5262244 C2.64153662,12.5262244 0.000589497126,15.1671716 0.000589497126,18.4211957 L0.000589497126,28.7373954 C0.000589497126,29.5509014 0.660826278,30.2111382 1.47433231,30.2111382 L5.30016866,30.2111382 C5.21174409,29.7336455 5.15868935,29.2414154 5.15868935,28.7373954 C5.15868935,24.2660597 8.79293913,20.6318099 13.2642748,20.6318099 C17.7326631,20.6318099 21.3698603,24.2660597 21.3698603,28.7373954 C21.3698603,29.2414154 21.3168056,29.7336455 21.228381,30.2111382 L46.5649675,30.2111382 C46.4765429,29.7336455 46.4234882,29.2414154 46.4234882,28.7373954 C46.4234882,24.2660597 50.057738,20.6318099 54.5290737,20.6318099 C58.9974619,20.6318099 62.6346591,24.2660597 62.6346591,28.7373954 C62.6346591,29.2414154 62.5816044,29.7336455 62.4931798,30.2111382 L68.2290139,30.2111382 C69.0395724,30.2111382 69.7027567,29.5509014 69.7027567,28.7373954 C69.7027567,27.9238894 69.0395724,27.2636526 68.2290139,27.2636526 L67.792759,27.2636526 Z" id="Fill-1" fill="#F49F9B" mask="url(#mask-2)"></path>
                                            </g>
                                            <path d="M6.63243217,28.8730338 C6.63243217,32.527916 9.60644517,35.5048764 13.2642748,35.5048764 C16.919157,35.5048764 19.8961175,32.527916 19.8961175,28.8730338 C19.8961175,25.2152041 16.919157,22.2411911 13.2642748,22.2411911 C9.60644517,22.2411911 6.63243217,25.2152041 6.63243217,28.8730338 Z" id="Fill-4" fill="#000000"></path>
                                            <path d="M54.5290737,22.2411911 C50.871244,22.2411911 47.897231,25.2152041 47.897231,28.8730338 C47.897231,32.527916 50.871244,35.5048764 54.5290737,35.5048764 C58.1839558,35.5048764 61.1609163,32.527916 61.1609163,28.8730338 C61.1609163,25.2152041 58.1839558,22.2411911 54.5290737,22.2411911" id="Fill-6" fill="#000000"></path>
                                        </g>
                                        <g id="Group-24" transform="translate(4.377440, 19.712271)">
                                            <path d="M0.548697373,8.70180838 C0.548697373,13.3201551 4.29716491,17.068111 8.91467031,17.068111 C13.5328351,17.068111 17.2813026,13.3201551 17.2813026,8.70180838 C17.2813026,4.08346163 13.5328351,0.335505763 8.91467031,0.335505763 C4.29716491,0.335505763 0.548697373,4.08346163 0.548697373,8.70180838" id="Fill-6" fill="#B90B02"></path>
                                            <path d="M12.8192745,8.70202177 C12.8192745,10.8584736 11.0712384,12.6060829 8.91521338,12.6060829 C6.75876157,12.6060829 5.01072544,10.8584736 5.01072544,8.70202177 C5.01072544,6.54556996 6.75876157,4.79753383 8.91521338,4.79753383 C11.0712384,4.79753383 12.8192745,6.54556996 12.8192745,8.70202177" id="Fill-10" fill="#FFE0DF"></path>
                                        </g>
                                        <g id="Group-23" transform="translate(45.503349, 20.600616)">
                                            <path d="M0.651027725,8.45255588 C0.651027725,13.0709026 4.39949527,16.8188585 9.01700066,16.8188585 C13.6351654,16.8188585 17.383633,13.0709026 17.383633,8.45255588 C17.383633,3.83420913 13.6351654,0.0862532585 9.01700066,0.0862532585 C4.39949527,0.0862532585 0.651027725,3.83420913 0.651027725,8.45255588" id="Fill-6-Copy-2" fill="#B90B02"></path>
                                            <path d="M12.9216049,8.45276926 C12.9216049,10.6092211 11.1735688,12.3568304 9.01754373,12.3568304 C6.86109192,12.3568304 5.11305579,10.6092211 5.11305579,8.45276926 C5.11305579,6.29631746 6.86109192,4.54828132 9.01754373,4.54828132 C11.1735688,4.54828132 12.9216049,6.29631746 12.9216049,8.45276926" id="Fill-10-Copy-2" fill="#FFE0DF"></path>
                                        </g>
                                        <polygon id="Path-7" fill="#F49F9B" points="26.5395596 3.5210253 18.619089 17.7778723 37.6355507 17.7778723 37.6355507 3.52102342"></polygon>
                                        <polygon id="Path-7" fill="#E5E5E5" points="26.8496465 3.5210253 20.2138215 13.598032 36.5395653 13.487343 36.5395653 3.41033495"></polygon>
                                        <polygon id="Path-7" fill="#E5E5E5" transform="translate(47.951932, 8.504183) scale(-1, 1) translate(-47.951932, -8.504183) " points="46.8990691 3.5210253 40.170773 13.598032 55.7330919 13.487343 55.7330919 3.41033495"></polygon>
                                        <g id="Rectangle-9">
                                            <use fill="#D8D8D8" fill-rule="evenodd" xlink:href="#path-3"></use>
                                            <rect stroke="#979797" stroke-width="0.6561" x="32.2912449" y="16.5418383" width="3.92027038" height="1" rx="0.5"></rect>
                                        </g>
                                        <g id="Rectangle-9-Copy">
                                            <use fill="#D8D8D8" fill-rule="evenodd" xlink:href="#path-4"></use>
                                            <rect stroke="#979797" stroke-width="0.6561" x="40.498823" y="16.5804655" width="3.92027038" height="1" rx="0.5"></rect>
                                        </g>
                                    </g>
                                </g>
                                <g id="Group-Copy" transform="translate(82.620431, 0.140893)">
                                    <g id="Group-2" transform="translate(0.000000, 30.479247)" fill="#E2231A">
                                        <ellipse id="Oval-2" cx="39.7205779" cy="4.17759012" rx="39.6344583" ry="4.01696752"></ellipse>
                                    </g>
                                    <g id="Group-25" transform="translate(36.715829, 19.184949) scale(-1, 1) translate(-36.715829, -19.184949) translate(0.670829, 0.149949)">
                                        <g id="Page-1" transform="translate(0.022827, 0.464438)">
                                            <g id="Group-3" transform="translate(0.000000, 0.135638)">
                                                <mask id="mask-6" fill="white">
                                                    <use xlink:href="#path-5"></use>
                                                </mask>
                                                <g id="Clip-2"></g>
                                                <path d="M30.9491886,9.5787388 L28.912476,9.5787388 L26.3717434,14.660204 C26.1123647,15.1730665 25.5936072,15.4737101 25.0512699,15.4737101 C24.8302084,15.4737101 24.6061995,15.4206553 24.3910331,15.3174933 C23.6659516,14.9520051 23.3712031,14.0677594 23.7366913,13.3397305 L26.6841769,7.44475921 C26.9347132,6.94368665 27.4416807,6.63125317 28.001703,6.63125317 L30.9491886,6.63125317 C31.7597472,6.63125317 32.4229314,7.29148995 32.4229314,8.10499599 C32.4229314,8.91850202 31.7597472,9.5787388 30.9491886,9.5787388 M67.792759,27.2636526 L67.792759,18.4211957 C67.792759,15.1671716 65.1488644,12.5262244 61.8977877,12.5262244 L58.3873324,12.5262244 L50.8241383,1.54978794 C50.573602,1.04871539 50.063687,0.736281911 49.5066122,0.736281911 L25.6554504,0.736281911 C25.0954281,0.736281911 24.5884606,1.04871539 24.3379243,1.54978794 L16.7717827,12.5262244 L5.89556076,12.5262244 C2.64153662,12.5262244 0.000589497126,15.1671716 0.000589497126,18.4211957 L0.000589497126,28.7373954 C0.000589497126,29.5509014 0.660826278,30.2111382 1.47433231,30.2111382 L5.30016866,30.2111382 C5.21174409,29.7336455 5.15868935,29.2414154 5.15868935,28.7373954 C5.15868935,24.2660597 8.79293913,20.6318099 13.2642748,20.6318099 C17.7326631,20.6318099 21.3698603,24.2660597 21.3698603,28.7373954 C21.3698603,29.2414154 21.3168056,29.7336455 21.228381,30.2111382 L46.5649675,30.2111382 C46.4765429,29.7336455 46.4234882,29.2414154 46.4234882,28.7373954 C46.4234882,24.2660597 50.057738,20.6318099 54.5290737,20.6318099 C58.9974619,20.6318099 62.6346591,24.2660597 62.6346591,28.7373954 C62.6346591,29.2414154 62.5816044,29.7336455 62.4931798,30.2111382 L68.2290139,30.2111382 C69.0395724,30.2111382 69.7027567,29.5509014 69.7027567,28.7373954 C69.7027567,27.9238894 69.0395724,27.2636526 68.2290139,27.2636526 L67.792759,27.2636526 Z" id="Fill-1" fill="#FFD3D1" mask="url(#mask-6)"></path>
                                            </g>
                                            <path d="M6.63243217,28.8730338 C6.63243217,32.527916 9.60644517,35.5048764 13.2642748,35.5048764 C16.919157,35.5048764 19.8961175,32.527916 19.8961175,28.8730338 C19.8961175,25.2152041 16.919157,22.2411911 13.2642748,22.2411911 C9.60644517,22.2411911 6.63243217,25.2152041 6.63243217,28.8730338 Z" id="Fill-4" fill="#000000"></path>
                                            <path d="M54.5290737,22.2411911 C50.871244,22.2411911 47.897231,25.2152041 47.897231,28.8730338 C47.897231,32.527916 50.871244,35.5048764 54.5290737,35.5048764 C58.1839558,35.5048764 61.1609163,32.527916 61.1609163,28.8730338 C61.1609163,25.2152041 58.1839558,22.2411911 54.5290737,22.2411911" id="Fill-6" fill="#000000"></path>
                                        </g>
                                        <g id="Group-24" transform="translate(4.377440, 19.712271)">
                                            <path d="M0.548697373,8.70180838 C0.548697373,13.3201551 4.29716491,17.068111 8.91467031,17.068111 C13.5328351,17.068111 17.2813026,13.3201551 17.2813026,8.70180838 C17.2813026,4.08346163 13.5328351,0.335505763 8.91467031,0.335505763 C4.29716491,0.335505763 0.548697373,4.08346163 0.548697373,8.70180838" id="Fill-6" fill="#8E1711"></path>
                                            <path d="M12.8192745,8.70202177 C12.8192745,10.8584736 11.0712384,12.6060829 8.91521338,12.6060829 C6.75876157,12.6060829 5.01072544,10.8584736 5.01072544,8.70202177 C5.01072544,6.54556996 6.75876157,4.79753383 8.91521338,4.79753383 C11.0712384,4.79753383 12.8192745,6.54556996 12.8192745,8.70202177" id="Fill-10" fill="#FFE0DF"></path>
                                        </g>
                                        <g id="Group-23" transform="translate(45.503349, 20.600616)">
                                            <path d="M0.651027725,8.45255588 C0.651027725,13.0709026 4.39949527,16.8188585 9.01700066,16.8188585 C13.6351654,16.8188585 17.383633,13.0709026 17.383633,8.45255588 C17.383633,3.83420913 13.6351654,0.0862532585 9.01700066,0.0862532585 C4.39949527,0.0862532585 0.651027725,3.83420913 0.651027725,8.45255588" id="Fill-6-Copy-2" fill="#8E1711"></path>
                                            <path d="M12.9216049,8.45276926 C12.9216049,10.6092211 11.1735688,12.3568304 9.01754373,12.3568304 C6.86109192,12.3568304 5.11305579,10.6092211 5.11305579,8.45276926 C5.11305579,6.29631746 6.86109192,4.54828132 9.01754373,4.54828132 C11.1735688,4.54828132 12.9216049,6.29631746 12.9216049,8.45276926" id="Fill-10-Copy-2" fill="#FFE0DF"></path>
                                        </g>
                                        <polygon id="Path-7" fill="#FFD3D1" points="26.5395596 3.5210253 18.619089 17.7778723 37.6355507 17.7778723 37.6355507 3.52102342"></polygon>
                                        <polygon id="Path-7" fill="#CE8989" points="26.8496465 3.5210253 20.2138215 13.598032 36.5395653 13.487343 36.5395653 3.41033495"></polygon>
                                        <polygon id="Path-7" fill="#CE8989" transform="translate(47.951932, 8.504183) scale(-1, 1) translate(-47.951932, -8.504183) " points="46.8990691 3.5210253 40.170773 13.598032 55.7330919 13.487343 55.7330919 3.41033495"></polygon>
                                        <rect id="Rectangle-9" fill="#CE8989" x="31.9631949" y="16.2137883" width="4.57637038" height="1.52545679" rx="0.762728396"></rect>
                                        <rect id="Rectangle-9-Copy" fill="#CE8989" x="40.170773" y="16.2524155" width="4.57637038" height="1.52545679" rx="0.762728396"></rect>
                                    </g>
                                </g>
                            </g>
                            <g id="Phone">
                                <g transform="translate(0.000000, 0.526228)">
                                    <path d="M8.81716312,0.348715964 L223.292323,0.348715964 C227.76583,0.348715964 231.392323,3.97520949 231.392323,8.44871596 L231.392323,106.928511 C231.392323,111.402018 227.76583,115.028511 223.292323,115.028511 L8.81716312,115.028511 C4.34365665,115.028511 0.717163123,111.402018 0.717163123,106.928511 L0.717163123,8.44871596 C0.717163123,3.97520949 4.34365665,0.348715964 8.81716312,0.348715964 Z M18.7098256,7.86277908 L18.7098256,107.514448 L213.399661,107.514448 L213.399661,7.86277908 L18.7098256,7.86277908 Z" id="Combined-Shape" fill="#FFFFFF"></path>
                                    <rect id="Rectangle-15" fill="#E2E2E2" x="8.86197863" y="48.4616072" width="3.69080256" height="18.4540128" rx="1.84540128"></rect>
                                    <circle id="Oval-13" fill="#E2E2E2" cx="221.509334" cy="57.6886136" r="5.07485352"></circle>
                                </g>
                            </g>
                        </g>
                    </g>
                </g>
            </g>
        </g>
    </g>
</svg>