<?xml version="1.0" encoding="UTF-8" standalone="no"?>
<svg width="373px" height="257px" viewBox="0 0 373 257" version="1.1" xmlns="http://www.w3.org/2000/svg" xmlns:xlink="http://www.w3.org/1999/xlink">
    <!-- Generator: Sketch 48.2 (47327) - http://www.bohemiancoding.com/sketch -->
    <title>Group 68</title>
    <desc>Created with Sketch.</desc>
    <defs>
        <rect id="path-1" x="30.2748755" y="68.520584" width="4.97186012" height="1.65728671" rx="0.828643354"></rect>
        <polygon id="path-2" points="0.000640441444 0.800551805 76.8529733 0.800551805 76.8529733 32.8219836 0.000640441444 32.8219836"></polygon>
        <rect id="path-4" x="34.7954531" y="17.6149833" width="4.97186012" height="1.65728671" rx="0.828643354"></rect>
        <rect id="path-5" x="43.7123298" y="17.6569486" width="4.97186012" height="1.65728671" rx="0.828643354"></rect>
    </defs>
    <g id="SureDrive--Copy-3" stroke="none" stroke-width="1" fill="none" fill-rule="evenodd" transform="translate(-1810.000000, -3077.000000)">
        <g id="Group-64" transform="translate(1809.000000, 3000.000000)">
            <g id="Group-43" transform="translate(0.047370, 0.533125)">
                <g id="Group-68" transform="translate(1.000000, 76.000000)">
                    <g id="Group-41-Copy-2" transform="translate(0.000000, 0.316406)" fill="#E14A43">
                        <path d="M175.980204,0.334247294 L175.980204,5.16673801 L169.075163,5.16673801 L169.075163,9.99922873 L163.463603,9.99922873 L163.463603,59.9357716 L158.716953,59.9357716 L158.716953,29.3279835 L139.726471,29.3279835 L139.726471,59.1299538 L125.051478,59.1299538 L125.051478,82.0842847 L118.146437,82.0842847 L118.146437,35.773318 L88.3665849,35.773318 L88.3665849,70.0030579 L70.2397184,70.0030579 L70.2397184,45.8393962 L52.5453073,45.8393962 L52.5453073,88.2179235 L39.5975456,88.2179235 L39.5975456,61.1426861 L0.321805148,61.1426861 L0.489128706,256.193901 L372.345366,256.193901 L372.178043,59.1299538 L329.194953,59.1299538 L329.194953,75.6401583 L289.056892,75.6401583 L289.056892,41.8127233 L248.056509,41.8127233 L248.056509,90.1388386 L235.108748,90.1388386 L235.108748,21.6769426 L211.370321,21.6769426 L211.370321,59.9357716 L204.034119,59.9357716 L204.034119,9.19341091 L197.560239,9.19341091 L197.560239,4.36212831 L191.086358,4.36212831 L191.086358,0.334247294 L175.980204,0.334247294 Z M166.37167,15.6363292 L169.666875,15.6363292 L169.666875,12.5628651 L166.37167,12.5628651 L166.37167,15.6363292 Z M227.97971,28.4726326 L231.273621,28.4726326 L231.273621,25.4003767 L227.97971,25.4003767 L227.97971,28.4726326 Z M221.886493,28.4726326 L225.181699,28.4726326 L225.181699,25.4003767 L221.886493,25.4003767 L221.886493,28.4726326 Z M215.793277,28.4726326 L219.087187,28.4726326 L219.087187,25.4003767 L215.793277,25.4003767 L215.793277,28.4726326 Z M215.793277,33.7581694 L219.087187,33.7581694 L219.087187,30.6859134 L215.793277,30.6859134 L215.793277,33.7581694 Z M97.8042084,42.3660435 L101.099414,42.3660435 L101.099414,39.2925794 L97.8042084,39.2925794 L97.8042084,42.3660435 Z M92.0359805,42.3660435 L95.3298911,42.3660435 L95.3298911,39.2925794 L92.0359805,39.2925794 L92.0359805,42.3660435 Z M92.0359805,47.8025955 L95.3298911,47.8025955 L95.3298911,44.7291314 L92.0359805,44.7291314 L92.0359805,47.8025955 Z M264.744879,52.9371169 L268.037495,52.9371169 L268.037495,49.8648609 L264.744879,49.8648609 L264.744879,52.9371169 Z M258.651663,52.9371169 L261.946868,52.9371169 L261.946868,49.8648609 L258.651663,49.8648609 L258.651663,52.9371169 Z M252.558446,52.9371169 L255.852357,52.9371169 L255.852357,49.8648609 L252.558446,49.8648609 L252.558446,52.9371169 Z M264.744879,58.6756996 L268.037495,58.6756996 L268.037495,55.6022355 L264.744879,55.6022355 L264.744879,58.6756996 Z M258.651663,58.6756996 L261.946868,58.6756996 L261.946868,55.6022355 L258.651663,55.6022355 L258.651663,58.6756996 Z M357.2411,64.9676025 L360.536305,64.9676025 L360.536305,61.8941385 L357.2411,61.8941385 L357.2411,64.9676025 Z M351.149178,64.9676025 L354.443088,64.9676025 L354.443088,61.8941385 L351.149178,61.8941385 L351.149178,64.9676025 Z M345.055961,64.9676025 L348.351166,64.9676025 L348.351166,61.8941385 L345.055961,61.8941385 L345.055961,64.9676025 Z M338.847509,64.9676025 L342.14142,64.9676025 L342.14142,61.8941385 L338.847509,61.8941385 L338.847509,64.9676025 Z M138.963848,67.2098782 L142.257759,67.2098782 L142.257759,64.1364141 L138.963848,64.1364141 L138.963848,67.2098782 Z M133.194325,67.2098782 L136.489531,67.2098782 L136.489531,64.1364141 L133.194325,64.1364141 L133.194325,67.2098782 Z M33.3606087,68.3914222 L36.6545193,68.3914222 L36.6545193,65.31675 L33.3606087,65.31675 L33.3606087,68.3914222 Z M27.2686868,68.3914222 L30.5613026,68.3914222 L30.5613026,65.31675 L27.2686868,65.31675 L27.2686868,68.3914222 Z M21.1754702,68.3914222 L24.4693808,68.3914222 L24.4693808,65.31675 L21.1754702,65.31675 L21.1754702,68.3914222 Z M357.2411,71.2099724 L360.536305,71.2099724 L360.536305,68.1365083 L357.2411,68.1365083 L357.2411,71.2099724 Z M351.149178,71.2099724 L354.443088,71.2099724 L354.443088,68.1365083 L351.149178,68.1365083 L351.149178,71.2099724 Z M345.055961,71.2099724 L348.351166,71.2099724 L348.351166,68.1365083 L345.055961,68.1365083 L345.055961,71.2099724 Z M133.194325,72.6464303 L136.489531,72.6464303 L136.489531,69.5729662 L133.194325,69.5729662 L133.194325,72.6464303 Z M357.2411,76.6465245 L360.536305,76.6465245 L360.536305,73.5730604 L357.2411,73.5730604 L357.2411,76.6465245 Z M8.46465249,91.2913876 L11.7585631,91.2913876 L11.7585631,88.2179235 L8.46465249,88.2179235 L8.46465249,91.2913876 Z M2.69512987,91.2913876 L5.98904045,91.2913876 L5.98904045,88.2179235 L2.69512987,88.2179235 L2.69512987,91.2913876 Z" id="Page-1"></path>
                    </g>
                    <g id="Towing_Illust" transform="translate(87.599039, 59.542109)">
                        <g id="Group-22" transform="translate(0.090999, 0.044889)">
                            <g id="Towing_Icon_White" transform="translate(0.191664, 0.416076)">
                                <g id="Towing_Icon" transform="translate(0.020876, 0.452267)">
                                    <polyline id="Stroke-9" fill="#F6D0CE" points="11.5198556 96.5991624 0.522461527 96.5991624 0.522461527 72.4048953 9.32037681 63.60698 20.3177709 43.8116707 40.1130803 43.8116707 40.1130803 87.8012471"></polyline>
                                    <polygon id="Stroke-13" fill="#F6D0CE" points="40.1130803 87.8012471 101.698487 87.8012471 101.698487 74.6043741 40.1130803 74.6043741"></polygon>
                                    <rect id="Rectangle-8" fill="#F49F9B" x="0.522461527" y="87.8012471" width="101.443283" height="8.79791528"></rect>
                                    <path d="M127.53534,74.1330653 C127.53534,78.9895146 123.593874,81.8312412 118.737424,81.8312412 C113.880975,81.8312412 109.939509,77.3399055 109.939509,72.4834562 C109.939509,67.627007 113.880975,63.1356712 118.737424,63.1356712 L107.182421,1.00779173" id="Stroke-16" stroke="#D8D8D8" stroke-width="1.215" stroke-linecap="round" stroke-linejoin="round" transform="translate(117.358880, 41.419516) rotate(-21.000000) translate(-117.358880, -41.419516) "></path>
                                </g>
                            </g>
                            <g id="Group-20" transform="translate(9.693629, 85.449636)">
                                <path d="M0.207817837,10.9712671 C0.207817837,16.9444386 5.05592493,21.7918839 11.0280083,21.7918839 C17.0009445,21.7918839 21.8490515,16.9444386 21.8490515,10.9712671 C21.8490515,4.99809554 17.0009445,0.150650225 11.0280083,0.150650225 C5.05592493,0.150650225 0.207817837,4.99809554 0.207817837,10.9712671" id="Fill-6" fill="#B90B02"></path>
                                <path d="M16.0780559,10.9715431 C16.0780559,13.7606053 13.817221,16.0208883 11.0287107,16.0208883 C8.23964843,16.0208883 5.97881349,13.7606053 5.97881349,10.9715431 C5.97881349,8.18248082 8.23964843,5.92164588 11.0287107,5.92164588 C13.817221,5.92164588 16.0780559,8.18248082 16.0780559,10.9715431" id="Fill-10" fill="#CCBEBE"></path>
                            </g>
                            <g id="Group-20-Copy" transform="translate(70.976225, 85.449636)">
                                <path d="M0.207817837,10.9712671 C0.207817837,16.9444386 5.05592493,21.7918839 11.0280083,21.7918839 C17.0009445,21.7918839 21.8490515,16.9444386 21.8490515,10.9712671 C21.8490515,4.99809554 17.0009445,0.150650225 11.0280083,0.150650225 C5.05592493,0.150650225 0.207817837,4.99809554 0.207817837,10.9712671" id="Fill-6" fill="#B90B02"></path>
                                <path d="M16.0780559,10.9715431 C16.0780559,13.7606053 13.817221,16.0208883 11.0287107,16.0208883 C8.23964843,16.0208883 5.97881349,13.7606053 5.97881349,10.9715431 C5.97881349,8.18248082 8.23964843,5.92164588 11.0287107,5.92164588 C13.817221,5.92164588 16.0780559,8.18248082 16.0780559,10.9715431" id="Fill-10" fill="#CCBEBE"></path>
                            </g>
                            <polygon id="Path-7" fill="#CCBEBE" points="23.40386 48.3552092 14.9502531 63.5717016 35.2467356 63.5717016 35.2467356 48.3552072"></polygon>
                            <g id="Rectangle-9">
                                <use fill="#D8D8D8" fill-rule="evenodd" xlink:href="#path-1"></use>
                                <rect stroke="#979797" stroke-width="0.81" x="30.6798755" y="68.925584" width="4.16186012" height="1" rx="0.5"></rect>
                            </g>
                            <polygon id="Path-8" fill="#D8D8D8" points="53.3654009 71.1331668 91.688419 6.88575427 91.688419 11.3943446 62.310265 75.2724623"></polygon>
                            <polygon id="Stroke-14" fill="#F49F9B" transform="translate(53.808170, 72.290030) scale(-1, 1) translate(-53.808170, -72.290030) " points="62.7549036 75.506909 62.7549036 69.0731505 53.0332556 69.0731505 44.8614356 75.506909"></polygon>
                            <g id="Group-21" transform="translate(88.234660, 2.571443)">
                                <path d="M9.40142356,4.3143115 C9.40142356,6.68695717 7.47738263,8.61212526 5.10360981,8.61212526 C2.73096413,8.61212526 0.806923198,6.68695717 0.806923198,4.3143115 C0.806923198,1.94166582 2.73096413,0.0164977422 5.10360981,0.0164977422 C7.47738263,0.0164977422 9.40142356,1.94166582 9.40142356,4.3143115 Z" id="Stroke-13" fill="#666666" transform="translate(5.104173, 4.314311) scale(-1, 1) translate(-5.104173, -4.314311) "></path>
                                <path d="M6.80860986,4.3143115 C6.80860986,5.25516044 6.04502232,6.01874798 5.10417338,6.01874798 C4.16332444,6.01874798 3.3997369,5.25516044 3.3997369,4.3143115 C3.3997369,3.37346256 4.16332444,2.60987502 5.10417338,2.60987502 C6.04502232,2.60987502 6.80860986,3.37346256 6.80860986,4.3143115 Z" id="Stroke-16" fill="#D8D8D8" transform="translate(5.104173, 4.314311) scale(-1, 1) translate(-5.104173, -4.314311) "></path>
                            </g>
                        </g>
                        <g id="Group-25" transform="translate(171.162998, 82.366459) rotate(27.000000) translate(-171.162998, -82.366459) translate(132.282998, 61.711459)">
                            <g id="Page-1" transform="translate(0.094800, 0.504575)">
                                <g id="Group-3" transform="translate(0.000000, 0.147360)">
                                    <mask id="mask-3" fill="white">
                                        <use xlink:href="#path-2"></use>
                                    </mask>
                                    <g id="Clip-2"></g>
                                    <path d="M33.6238163,10.406533 L31.4110911,10.406533 L28.6507885,15.9271383 C28.3689942,16.4843223 27.8054057,16.8109475 27.2161996,16.8109475 C26.9760341,16.8109475 26.7326663,16.7533077 26.4989052,16.6412305 C25.7111622,16.2441568 25.3909415,15.2834946 25.7880152,14.4925494 L28.9902224,8.088135 C29.26241,7.54375977 29.8131897,7.20432581 30.421609,7.20432581 L33.6238163,7.20432581 C34.5044233,7.20432581 35.2249199,7.92162022 35.2249199,8.80542942 C35.2249199,9.68923861 34.5044233,10.406533 33.6238163,10.406533 M73.6514065,29.6197764 L73.6514065,20.0131547 C73.6514065,16.4779179 70.7790267,13.6087402 67.2469921,13.6087402 L63.4331633,13.6087402 L55.2163583,1.68372056 C54.9441707,1.13934533 54.3901888,0.799911364 53.7849716,0.799911364 L27.8725934,0.799911364 C27.264174,0.799911364 26.7133944,1.13934533 26.4412068,1.68372056 L18.2211995,13.6087402 L6.40505488,13.6087402 C2.86981811,13.6087402 0.000640441444,16.4779179 0.000640441444,20.0131547 L0.000640441444,31.22088 C0.000640441444,32.1046892 0.717934859,32.8219836 1.60174405,32.8219836 L5.75820903,32.8219836 C5.66214281,32.303226 5.60450308,31.7684574 5.60450308,31.22088 C5.60450308,26.3631316 9.55282458,22.4148101 14.4105729,22.4148101 C19.2651191,22.4148101 23.2166428,26.3631316 23.2166428,31.22088 C23.2166428,31.7684574 23.1590031,32.303226 23.0629368,32.8219836 L50.5891101,32.8219836 C50.4930439,32.303226 50.4354042,31.7684574 50.4354042,31.22088 C50.4354042,26.3631316 54.3837257,22.4148101 59.241474,22.4148101 C64.0960202,22.4148101 68.0475439,26.3631316 68.0475439,31.22088 C68.0475439,31.7684574 67.9899042,32.303226 67.8938379,32.8219836 L74.1253626,32.8219836 C75.0059695,32.8219836 75.7264662,32.1046892 75.7264662,31.22088 C75.7264662,30.3370708 75.0059695,29.6197764 74.1253626,29.6197764 L73.6514065,29.6197764 Z" id="Fill-1" fill="#F49F9B" mask="url(#mask-3)"></path>
                                </g>
                                <path d="M7.20560669,31.3682402 C7.20560669,35.3389772 10.4366338,38.5732065 14.4105729,38.5732065 C18.3813099,38.5732065 21.6155392,35.3389772 21.6155392,31.3682402 C21.6155392,27.394301 18.3813099,24.163274 14.4105729,24.163274 C10.4366338,24.163274 7.20560669,27.394301 7.20560669,31.3682402 Z" id="Fill-4" fill="#000000"></path>
                                <path d="M59.241474,24.163274 C55.2675349,24.163274 52.0365078,27.394301 52.0365078,31.3682402 C52.0365078,35.3389772 55.2675349,38.5732065 59.241474,38.5732065 C63.212211,38.5732065 66.4464403,35.3389772 66.4464403,31.3682402 C66.4464403,27.394301 63.212211,24.163274 59.241474,24.163274" id="Fill-6" fill="#000000"></path>
                            </g>
                            <g id="Group-24" transform="translate(4.825738, 21.415804)">
                                <path d="M0.596115778,9.45381832 C0.596115778,14.4712824 4.66852573,18.5431365 9.68507577,18.5431365 C14.7023421,18.5431365 18.7747521,14.4712824 18.7747521,9.45381832 C18.7747521,4.43635423 14.7023421,0.364500157 9.68507577,0.364500157 C4.66852573,0.364500157 0.596115778,4.43635423 0.596115778,9.45381832" id="Fill-6" fill="#B90B02"></path>
                                <path d="M13.9271157,9.45405014 C13.9271157,11.7968624 12.0280144,13.6955001 9.68566576,13.6955001 C7.34285348,13.6955001 5.44375213,11.7968624 5.44375213,9.45405014 C5.44375213,7.11123786 7.34285348,5.21213651 9.68566576,5.21213651 C12.0280144,5.21213651 13.9271157,7.11123786 13.9271157,9.45405014" id="Fill-10" fill="#FFE0DF"></path>
                            </g>
                            <g id="Group-23" transform="translate(49.505747, 22.225804)">
                                <path d="M0.707289515,9.33814123 C0.707289515,14.3556053 4.77969947,18.4274594 9.7962495,18.4274594 C14.8135159,18.4274594 18.8859258,14.3556053 18.8859258,9.33814123 C18.8859258,4.32067714 14.8135159,0.248823072 9.7962495,0.248823072 C4.77969947,0.248823072 0.707289515,4.32067714 0.707289515,9.33814123" id="Fill-6-Copy-2" fill="#B90B02"></path>
                                <path d="M14.0382895,9.33837305 C14.0382895,11.6811853 12.1391881,13.579823 9.7968395,13.579823 C7.45402721,13.579823 5.55492587,11.6811853 5.55492587,9.33837305 C5.55492587,6.99556077 7.45402721,5.09645942 9.7968395,5.09645942 C12.1391881,5.09645942 14.0382895,6.99556077 14.0382895,9.33837305" id="Fill-10-Copy-2" fill="#FFE0DF"></path>
                            </g>
                            <polygon id="Path-7" fill="#F49F9B" points="28.9031074 3.82531217 20.2981501 19.3142353 40.9580137 19.3142353 40.9580137 3.82531012"></polygon>
                            <polygon id="Path-7" fill="#E5E5E5" points="29.239992 3.82531217 22.0306993 14.7731734 39.7673132 14.6529187 39.7673132 3.70505596"></polygon>
                            <polygon id="Path-7" fill="#E5E5E5" transform="translate(52.165937, 9.239115) scale(-1, 1) translate(-52.165937, -9.239115) " points="51.022085 3.82531217 43.7123298 14.7731734 60.6195436 14.6529187 60.6195436 3.70505596"></polygon>
                            <g id="Rectangle-9">
                                <use fill="#D8D8D8" fill-rule="evenodd" xlink:href="#path-4"></use>
                                <rect stroke="#979797" stroke-width="0.81" x="35.2004531" y="18.0199833" width="4.16186012" height="1" rx="0.5"></rect>
                            </g>
                            <g id="Rectangle-9-Copy">
                                <use fill="#D8D8D8" fill-rule="evenodd" xlink:href="#path-5"></use>
                                <rect stroke="#979797" stroke-width="0.81" x="44.1173298" y="18.0619486" width="4.16186012" height="1" rx="0.5"></rect>
                            </g>
                        </g>
                    </g>
                </g>
            </g>
        </g>
    </g>
</svg>