<?xml version="1.0" encoding="UTF-8" standalone="no"?>
<svg width="373px" height="257px" viewBox="0 0 373 257" version="1.1" xmlns="http://www.w3.org/2000/svg" xmlns:xlink="http://www.w3.org/1999/xlink">
    <!-- Generator: Sketch 48.2 (47327) - http://www.bohemiancoding.com/sketch -->
    <title>Group 69</title>
    <desc>Created with Sketch.</desc>
    <defs>
        <polygon id="path-1" points="0.000661982022 0.0174775278 79.4378427 0.0174775278 79.4378427 33.1159167 0.000661982022 33.1159167"></polygon>
    </defs>
    <g id="SureDrive--Copy-3" stroke="none" stroke-width="1" fill="none" fill-rule="evenodd" transform="translate(-2225.000000, -3077.000000)">
        <g id="Group-65" transform="translate(2224.000000, 3000.000000)">
            <g id="Group-59">
                <g id="Group-44" transform="translate(0.291105, 0.533125)">
                    <g id="Group-69" transform="translate(1.000000, 76.000000)">
                        <path d="M175.980204,0.650653544 L175.980204,5.48314426 L169.075163,5.48314426 L169.075163,10.315635 L163.463603,10.315635 L163.463603,60.2521778 L158.716953,60.2521778 L158.716953,29.6443897 L139.726471,29.6443897 L139.726471,59.44636 L125.051478,59.44636 L125.051478,82.4006909 L118.146437,82.4006909 L118.146437,36.0897242 L88.3665849,36.0897242 L88.3665849,70.3194641 L70.2397184,70.3194641 L70.2397184,46.1558024 L52.5453073,46.1558024 L52.5453073,88.5343298 L39.5975456,88.5343298 L39.5975456,61.4590924 L0.321805148,61.4590924 L0.489128706,256.510307 L372.345366,256.510307 L372.178043,59.44636 L329.194953,59.44636 L329.194953,75.9565646 L289.056892,75.9565646 L289.056892,42.1291295 L248.056509,42.1291295 L248.056509,90.4552448 L235.108748,90.4552448 L235.108748,21.9933488 L211.370321,21.9933488 L211.370321,60.2521778 L204.034119,60.2521778 L204.034119,9.50981716 L197.560239,9.50981716 L197.560239,4.67853456 L191.086358,4.67853456 L191.086358,0.650653544 L175.980204,0.650653544 Z M166.37167,15.9527354 L169.666875,15.9527354 L169.666875,12.8792713 L166.37167,12.8792713 L166.37167,15.9527354 Z M227.97971,28.7890389 L231.273621,28.7890389 L231.273621,25.7167829 L227.97971,25.7167829 L227.97971,28.7890389 Z M221.886493,28.7890389 L225.181699,28.7890389 L225.181699,25.7167829 L221.886493,25.7167829 L221.886493,28.7890389 Z M215.793277,28.7890389 L219.087187,28.7890389 L219.087187,25.7167829 L215.793277,25.7167829 L215.793277,28.7890389 Z M215.793277,34.0745756 L219.087187,34.0745756 L219.087187,31.0023196 L215.793277,31.0023196 L215.793277,34.0745756 Z M97.8042084,42.6824497 L101.099414,42.6824497 L101.099414,39.6089856 L97.8042084,39.6089856 L97.8042084,42.6824497 Z M92.0359805,42.6824497 L95.3298911,42.6824497 L95.3298911,39.6089856 L92.0359805,39.6089856 L92.0359805,42.6824497 Z M92.0359805,48.1190018 L95.3298911,48.1190018 L95.3298911,45.0455377 L92.0359805,45.0455377 L92.0359805,48.1190018 Z M264.744879,53.2535232 L268.037495,53.2535232 L268.037495,50.1812672 L264.744879,50.1812672 L264.744879,53.2535232 Z M258.651663,53.2535232 L261.946868,53.2535232 L261.946868,50.1812672 L258.651663,50.1812672 L258.651663,53.2535232 Z M252.558446,53.2535232 L255.852357,53.2535232 L255.852357,50.1812672 L252.558446,50.1812672 L252.558446,53.2535232 Z M264.744879,58.9921059 L268.037495,58.9921059 L268.037495,55.9186418 L264.744879,55.9186418 L264.744879,58.9921059 Z M258.651663,58.9921059 L261.946868,58.9921059 L261.946868,55.9186418 L258.651663,55.9186418 L258.651663,58.9921059 Z M357.2411,65.2840088 L360.536305,65.2840088 L360.536305,62.2105447 L357.2411,62.2105447 L357.2411,65.2840088 Z M351.149178,65.2840088 L354.443088,65.2840088 L354.443088,62.2105447 L351.149178,62.2105447 L351.149178,65.2840088 Z M345.055961,65.2840088 L348.351166,65.2840088 L348.351166,62.2105447 L345.055961,62.2105447 L345.055961,65.2840088 Z M338.847509,65.2840088 L342.14142,65.2840088 L342.14142,62.2105447 L338.847509,62.2105447 L338.847509,65.2840088 Z M138.963848,67.5262845 L142.257759,67.5262845 L142.257759,64.4528204 L138.963848,64.4528204 L138.963848,67.5262845 Z M133.194325,67.5262845 L136.489531,67.5262845 L136.489531,64.4528204 L133.194325,64.4528204 L133.194325,67.5262845 Z M33.3606087,68.7078285 L36.6545193,68.7078285 L36.6545193,65.6331563 L33.3606087,65.6331563 L33.3606087,68.7078285 Z M27.2686868,68.7078285 L30.5613026,68.7078285 L30.5613026,65.6331563 L27.2686868,65.6331563 L27.2686868,68.7078285 Z M21.1754702,68.7078285 L24.4693808,68.7078285 L24.4693808,65.6331563 L21.1754702,65.6331563 L21.1754702,68.7078285 Z M357.2411,71.5263787 L360.536305,71.5263787 L360.536305,68.4529146 L357.2411,68.4529146 L357.2411,71.5263787 Z M351.149178,71.5263787 L354.443088,71.5263787 L354.443088,68.4529146 L351.149178,68.4529146 L351.149178,71.5263787 Z M345.055961,71.5263787 L348.351166,71.5263787 L348.351166,68.4529146 L345.055961,68.4529146 L345.055961,71.5263787 Z M133.194325,72.9628366 L136.489531,72.9628366 L136.489531,69.8893725 L133.194325,69.8893725 L133.194325,72.9628366 Z M357.2411,76.9629307 L360.536305,76.9629307 L360.536305,73.8894666 L357.2411,73.8894666 L357.2411,76.9629307 Z M8.46465249,91.6077939 L11.7585631,91.6077939 L11.7585631,88.5343298 L8.46465249,88.5343298 L8.46465249,91.6077939 Z M2.69512987,91.6077939 L5.98904045,91.6077939 L5.98904045,88.5343298 L2.69512987,88.5343298 L2.69512987,91.6077939 Z" id="Page-1" fill="#E14A43"></path>
                        <g id="Ride_Service_Illust" transform="translate(38.690000, 56.330778)">
                            <path d="M40.5006363,59.417959 C61.6732606,20.194339 98.6173295,0.58252901 151.332843,0.58252901 C204.048356,0.58252901 242.072661,20.194339 265.405757,59.417959" id="Path-10" stroke="#FFFFFF" stroke-width="0.81" stroke-linecap="round" stroke-linejoin="round" stroke-dasharray="3.239999914169311"></path>
                            <g id="Group-4" transform="translate(0.001217, 62.913133)">
                                <g id="Group" transform="translate(0.225296, 3.140116)">
                                    <g id="Group-2" transform="translate(0.810000, 36.912167)" fill="#E2231A">
                                        <ellipse id="Oval-2" cx="44.6046424" cy="4.69126894" rx="44.5079335" ry="4.51089609"></ellipse>
                                    </g>
                                    <g id="Group-25" transform="translate(41.054061, 21.500310) scale(-1, 1) rotate(-360.000000) translate(-41.054061, -21.500310) translate(0.554061, 0.440310)">
                                        <g id="Page-1" transform="translate(0.125232, 0.521546)">
                                            <g id="Group-3" transform="translate(0.000000, 0.152317)">
                                                <mask id="mask-2" fill="white">
                                                    <use xlink:href="#path-1"></use>
                                                </mask>
                                                <g id="Clip-2"></g>
                                                <path d="M34.7547181,9.94654588 L32.4675703,9.94654588 L29.6144277,15.6528309 C29.3231557,16.2287553 28.7406115,16.5663661 28.131588,16.5663661 C27.8833448,16.5663661 27.6317916,16.5067877 27.3901682,16.3909409 C26.5759303,15.980512 26.2449393,14.987539 26.6553681,14.1699912 L29.9652782,7.55017096 C30.2466206,6.98748624 30.8159251,6.63663577 31.444808,6.63663577 L34.7547181,6.63663577 C35.6649434,6.63663577 36.4096732,7.37805563 36.4096732,8.29159082 C36.4096732,9.20512601 35.6649434,9.94654588 34.7547181,9.94654588 M76.1285945,29.8060065 L76.1285945,19.8762762 C76.1285945,16.2221354 73.1596052,13.256456 69.5087743,13.256456 L65.5666714,13.256456 L57.0735027,0.930350736 C56.7921603,0.367666018 56.2195459,0.0168155457 55.5939729,0.0168155457 L28.8100589,0.0168155457 C28.181176,0.0168155457 27.6118714,0.367666018 27.3305291,0.930350736 L18.8340505,13.256456 L6.6204822,13.256456 C2.96634144,13.256456 0.000661982022,16.2221354 0.000661982022,19.8762762 L0.000661982022,31.4609616 C0.000661982022,32.3744968 0.742081847,33.1159167 1.65561704,33.1159167 L5.95188036,33.1159167 C5.85258306,32.5797112 5.79300468,32.0269562 5.79300468,31.4609616 C5.79300468,26.439828 9.87412384,22.3587088 14.8952575,22.3587088 C19.9130812,22.3587088 23.9975103,26.439828 23.9975103,31.4609616 C23.9975103,32.0269562 23.9379319,32.5797112 23.8386346,33.1159167 L52.2906219,33.1159167 C52.1913246,32.5797112 52.1317462,32.0269562 52.1317462,31.4609616 C52.1317462,26.439828 56.2128654,22.3587088 61.233999,22.3587088 C66.2518228,22.3587088 70.3362518,26.439828 70.3362518,31.4609616 C70.3362518,32.0269562 70.2766735,32.5797112 70.1773762,33.1159167 L76.6184916,33.1159167 C77.5287169,33.1159167 78.2734466,32.3744968 78.2734466,31.4609616 C78.2734466,30.5474264 77.5287169,29.8060065 76.6184916,29.8060065 L76.1285945,29.8060065 Z" id="Fill-1" fill="#9E2A25" mask="url(#mask-2)"></path>
                                            </g>
                                            <path d="M7.44795973,31.6132781 C7.44795973,35.7175667 10.787659,39.0605759 14.8952575,39.0605759 C18.999546,39.0605759 22.3425552,35.7175667 22.3425552,31.6132781 C22.3425552,27.5056797 18.999546,24.1659804 14.8952575,24.1659804 C10.787659,24.1659804 7.44795973,27.5056797 7.44795973,31.6132781 Z" id="Fill-4" fill="#000000"></path>
                                            <path d="M61.233999,24.1659804 C57.1264006,24.1659804 53.7867013,27.5056797 53.7867013,31.6132781 C53.7867013,35.7175667 57.1264006,39.0605759 61.233999,39.0605759 C65.3382876,39.0605759 68.6812968,35.7175667 68.6812968,31.6132781 C68.6812968,27.5056797 65.3382876,24.1659804 61.233999,24.1659804" id="Fill-6" fill="#000000"></path>
                                        </g>
                                        <g id="Group-24" transform="translate(5.015290, 21.326102)">
                                            <path d="M0.616165509,9.7717876 C0.616165509,14.9580089 4.82554671,19.1668155 10.0108232,19.1668155 C15.19684,19.1668155 19.4062212,14.9580089 19.4062212,9.7717876 C19.4062212,4.58556636 15.19684,0.376759739 10.0108232,0.376759739 C4.82554671,0.376759739 0.616165509,4.58556636 0.616165509,9.7717876" id="Fill-6" fill="#CD534D"></path>
                                            <path d="M14.3955397,9.77202723 C14.3955397,12.1936375 12.4325641,14.1561339 10.011433,14.1561339 C7.58982267,14.1561339 5.62684704,12.1936375 5.62684704,9.77202723 C5.62684704,7.3504169 7.58982267,5.38744127 10.011433,5.38744127 C12.4325641,5.38744127 14.3955397,7.3504169 14.3955397,9.77202723" id="Fill-10" fill="#F2C7C5"></path>
                                        </g>
                                        <g id="Group-23" transform="translate(51.198065, 22.136102)">
                                            <path d="M0.731078458,9.67946334 C0.731078458,14.8656846 4.94045966,19.0744912 10.1257361,19.0744912 C15.311753,19.0744912 19.5211342,14.8656846 19.5211342,9.67946334 C19.5211342,4.4932421 15.311753,0.284435479 10.1257361,0.284435479 C4.94045966,0.284435479 0.731078458,4.4932421 0.731078458,9.67946334" id="Fill-6-Copy-2" fill="#CD534D"></path>
                                            <path d="M14.5104527,9.67970297 C14.5104527,12.1013133 12.547477,14.0638097 10.1263459,14.0638097 C7.70473562,14.0638097 5.74175999,12.1013133 5.74175999,9.67970297 C5.74175999,7.25809264 7.70473562,5.29511701 10.1263459,5.29511701 C12.547477,5.29511701 14.5104527,7.25809264 14.5104527,9.67970297" id="Fill-10-Copy-2" fill="#F2C7C5"></path>
                                        </g>
                                        <polygon id="Path-7" fill="#9E2A25" points="29.9024767 3.14397254 21.0081007 19.1538494 42.3628371 19.1538494 42.3628371 3.14397042"></polygon>
                                        <polygon id="Path-7" fill="#E5E5E5" points="30.250692 3.14397254 22.7989223 14.4600537 41.1320887 14.3357542 41.1320887 3.01967164"></polygon>
                                        <polygon id="Path-7" fill="#E5E5E5" transform="translate(53.947727, 8.739863) scale(-1, 1) translate(-53.947727, -8.739863) " points="52.7654029 3.14397254 45.2097918 14.4600537 62.685662 14.3357542 62.685662 3.01967164"></polygon>
                                        <rect id="Rectangle-9" fill="#E0625D" x="35.9930052" y="17.3974448" width="5.13908344" height="1.71302781" rx="0.856513906"></rect>
                                        <rect id="Rectangle-9-Copy" fill="#E0625D" x="45.2097918" y="17.4408216" width="5.13908344" height="1.71302781" rx="0.856513906"></rect>
                                    </g>
                                </g>
                                <path d="M39.938863,0.12031293 C37.444791,0.12031293 35.3577879,1.89736507 34.8783971,4.25299232 L44.9993289,4.25299232 C44.5199381,1.89736507 42.432935,0.12031293 39.938863,0.12031293" id="Fill-8" fill="#FFCECC"></path>
                            </g>
                            <g id="Group-5" transform="translate(245.477155, 61.334195)">
                                <path d="M10.0735119,8.63594014 L32.5955232,7.65115857 C33.3984183,7.61605175 34.1093589,8.16568525 34.2775548,8.9515498 L40.678635,38.8594229 C40.8689551,39.7486586 40.302372,40.6238114 39.4131364,40.8141315 C39.1859721,40.8627507 38.9510907,40.8627507 38.7239264,40.8141315 L8.81605328,34.4130513 C8.03018872,34.2448554 7.48055523,33.5339148 7.51566205,32.7310198 L8.50044362,10.2090084 C8.53773507,9.35615078 9.22065426,8.6732316 10.0735119,8.63594014 Z" id="Rectangle-11" fill="#FFCFCD" transform="translate(24.114756, 24.250082) rotate(45.000000) translate(-24.114756, -24.250082) "></path>
                                <circle id="Oval-3" fill="#E14A43" cx="24.1148084" cy="18.7322404" r="5.38256805"></circle>
                            </g>
                        </g>
                    </g>
                </g>
            </g>
        </g>
    </g>
</svg>